<?xml version="1.0" encoding="utf-8"?>
<!-- Generator: Adobe Illustrator 24.1.2, SVG Export Plug-In . SVG Version: 6.00 Build 0)  -->
<svg version="1.1"
	 id="Layer_1" xmlns:cc="http://creativecommons.org/ns#" xmlns:dc="http://purl.org/dc/elements/1.1/" xmlns:inkscape="http://www.inkscape.org/namespaces/inkscape" xmlns:rdf="http://www.w3.org/1999/02/22-rdf-syntax-ns#" xmlns:sodipodi="http://sodipodi.sourceforge.net/DTD/sodipodi-0.dtd" xmlns:svg="http://www.w3.org/2000/svg"
	 xmlns="http://www.w3.org/2000/svg" xmlns:xlink="http://www.w3.org/1999/xlink" x="0px" y="0px" viewBox="0 0 140.2 141.8"
	 style="enable-background:new 0 0 140.2 141.8;" xml:space="preserve">
<style type="text/css">
	.st0{fill-rule:evenodd;clip-rule:evenodd;fill:#37B3A2;}
	.st1{fill:#FFFFFF;}
</style>
<sodipodi:namedview  bordercolor="#666666" borderopacity="1" gridtolerance="10" guidetolerance="10" id="namedview486" inkscape:current-layer="Layer_1" inkscape:cx="70.049995" inkscape:cy="70.950005" inkscape:pageopacity="0" inkscape:pageshadow="2" inkscape:window-height="480" inkscape:window-maximized="0" inkscape:window-width="640" inkscape:window-x="0" inkscape:window-y="0" inkscape:zoom="0.8324515" objecttolerance="10" pagecolor="#ffffff" showgrid="false">
	</sodipodi:namedview>
<g id="g483" transform="translate(-71.700005,-70.900002)">
	<g id="g475">
		<g id="g473">
			<g id="g471">
				<g id="g469">
					<ellipse id="ellipse467" class="st0" cx="141.8" cy="141.8" rx="70.1" ry="70.9"/>
				</g>
			</g>
		</g>
	</g>
	<g id="g481">
		<path id="path477" inkscape:connector-curvature="0" class="st1" d="M144.4,92.9h1c3.3,0.3,6.2,2.4,8.1,5c3.3,4.5,5,10.2,4.4,15.8
			c-0.5,3.2-1,6.2-1.4,9.4c7,0,13.9,0,20.9,0c4.1,0.1,8,3,9.1,6.9c0.8,2.9,0.2,6.1-1.7,8.5c1.7,1.7,2.7,4,2.9,6.4v0.9
			c-0.2,3.1-1.9,6-4.6,7.7c1,2.7,0.9,5.9-0.5,8.4c-1,1.8-2.7,3.2-4.5,4.1c0.9,3.7-0.7,7.8-3.7,10c-1.6,1.1-3.6,1.7-5.5,1.7
			c-10.9,0-21.8,0-32.6,0c-3.3-0.1-6.7-1.3-9.3-3.5c-0.1,1.3,0.2,2.8-0.5,4c-0.6,1.2-1.8,1.8-3.2,2.1h-22.5
			c-1.9-0.2-3.4-1.7-3.7-3.7v-41.9c0.2-1.9,1.7-3.6,3.7-3.6c7.3,0,14.7,0,22.1,0c1.1-0.1,2.2,0.4,2.9,1.2c0.7,0.6,0.8,1.5,1.2,2.2
			c0.2-0.4,0.5-0.7,0.7-1.2c3.7-6.8,7.4-13.7,11.1-20.6c0.8-1.3,0.6-3,0.5-4.5c-0.3-4.2-0.7-8.4-1-12.7
			C140,94.2,142.2,93.2,144.4,92.9 M142.3,97.5c0.3,4,0.7,8,0.9,11.9c0.2,1.7-0.2,3.6-1,5.2c-3.7,6.9-7.4,13.8-11.2,20.7
			c-0.7,1.9-2.7,2.8-4.1,4.2c0,10.2,0,20.2,0,30.4c1.8,0.7,3,2.2,4.7,2.9c1.7,0.7,3.5,1.2,5.2,1.1c10.6,0,21.1,0,31.6,0
			c3.4,0.3,6.6-3.1,6-6.5c-0.2-1.5-1.2-2.7-1.7-4.1c1.5-0.4,3.2-0.3,4.5-1.2c1.9-1.1,3.1-3.3,2.8-5.5c-0.1-2-1.6-3.5-2.7-5
			c1.6-0.6,3.4-0.8,4.7-2c2.1-1.7,2.5-5.1,1-7.3c-1-1.7-2.9-2.3-4.5-3.3c0.8-0.7,1.7-1.3,2.6-2c1.6-1.3,2.3-3.6,1.8-5.6
			c-0.5-2.1-2.2-3.7-4.2-4.2c-0.9-0.3-1.9-0.2-2.9-0.2c-7.9,0-15.8,0-23.7,0c0.7-4.6,1.4-9.2,2.1-13.8c0.4-3.8-0.6-7.7-2.4-11.1
			c-1.2-2-2.7-4-4.9-4.9C145.4,96.5,143.7,96.7,142.3,97.5 M101,135.1c0,13.8,0,27.6,0,41.5c7.3,0,14.7,0,22.1,0
			c0-13.8,0-27.6,0-41.5C115.7,135,108.4,135,101,135.1z"/>
		<path id="path479" inkscape:connector-curvature="0" class="st1" d="M101,135.1c7.3-0.1,14.7,0,22.1,0c0,13.8,0,27.6,0,41.5
			c-7.3,0-14.7,0-22.1,0C101,162.7,101,148.9,101,135.1z"/>
	</g>
</g>
</svg>
