<?xml version="1.0" encoding="utf-8"?>
<!-- Generator: Adobe Illustrator 24.1.2, SVG Export Plug-In . SVG Version: 6.00 Build 0)  -->
<svg version="1.1"
	 id="Layer_1" xmlns:cc="http://creativecommons.org/ns#" xmlns:dc="http://purl.org/dc/elements/1.1/" xmlns:inkscape="http://www.inkscape.org/namespaces/inkscape" xmlns:rdf="http://www.w3.org/1999/02/22-rdf-syntax-ns#" xmlns:sodipodi="http://sodipodi.sourceforge.net/DTD/sodipodi-0.dtd" xmlns:svg="http://www.w3.org/2000/svg"
	 xmlns="http://www.w3.org/2000/svg" xmlns:xlink="http://www.w3.org/1999/xlink" x="0px" y="0px" viewBox="0 0 300 300"
	 style="enable-background:new 0 0 300 300;" xml:space="preserve">
<style type="text/css">
	.st0{fill:#B78C48;}
	.st1{fill:url(#circle368_1_);}
	.st2{fill:#7A5C31;}
	.st3{enable-background:new    ;}
	.st4{fill:#FFFFFF;}
</style>
<sodipodi:namedview  bordercolor="#666666" borderopacity="1" gridtolerance="10" guidetolerance="10" id="namedview232" inkscape:current-layer="Layer_1" inkscape:cx="142.63168" inkscape:cy="112.94286" inkscape:pageopacity="0" inkscape:pageshadow="2" inkscape:window-height="731" inkscape:window-maximized="1" inkscape:window-width="1366" inkscape:window-x="1920" inkscape:window-y="0" inkscape:zoom="2.0527297" objecttolerance="10" pagecolor="#ffffff" showgrid="false">
	</sodipodi:namedview>
<g id="g209" transform="matrix(1.1643837,0,0,1.1643837,-20.736672,-40.517166)">
	<g id="g203">
		<path id="path193" inkscape:connector-curvature="0" class="st0" d="M78.5,95.4c38.2-38.2,100.2-38.2,138.5,0
			c38.2,38.2,38.2,100.2,0,138.5c-38.2,38.2-100.2,38.2-138.5,0C40.3,195.5,40.3,133.6,78.5,95.4z"/>
		
			<linearGradient id="circle368_1_" gradientUnits="userSpaceOnUse" x1="-71.8062" y1="540.0585" x2="86.9165" y2="448.4199" gradientTransform="matrix(1.1386 5.170727e-03 -5.777428e-03 1.2723 163.912 -478.1792)">
			<stop  offset="5.527638e-02" style="stop-color:#70401D"/>
			<stop  offset="0.2236" style="stop-color:#8F5022"/>
			<stop  offset="0.3894" style="stop-color:#B36D30"/>
			<stop  offset="0.5653" style="stop-color:#D5893A"/>
			<stop  offset="0.7613" style="stop-color:#8F5022"/>
			<stop  offset="0.8217" style="stop-color:#A35F28"/>
			<stop  offset="0.9322" style="stop-color:#D5893A"/>
		</linearGradient>
		<path id="circle368" class="st1" d="M148.1,72.7c50.8,0.2,91.7,41.6,91.5,92.4s-41.6,91.8-92.3,91.5
			c-50.8-0.2-91.7-41.6-91.5-92.4S97.4,72.5,148.1,72.7z"/>
		<g id="g199">
			<path id="path197" inkscape:connector-curvature="0" class="st2" d="M215.7,96.7l0.1,0.1l-1,1l-0.1-0.1c-0.5-0.5-0.9-0.9-1.4-1.4
				l1-1C214.8,95.7,215.2,96.2,215.7,96.7z M217.3,98.3c0.5,0.6,1,1,1.5,1.6l-1,0.9c-0.5-0.6-0.9-1-1.5-1.6L217.3,98.3z M212.7,93.7
				l-0.9,1c-0.6-0.5-1-0.9-1.6-1.4l0.9-1C211.6,92.7,212.1,93.3,212.7,93.7z M220.4,101.5c0.5,0.6,0.9,1.2,1.4,1.6l-1.2,0.9
				c-0.5-0.6-0.9-1-1.4-1.6L220.4,101.5z M209.4,90.8l-0.9,1.2c-0.6-0.5-1.2-0.9-1.6-1.4l0.9-1.2C208.2,89.9,208.8,90.4,209.4,90.8z
				 M223.2,104.9c0.5,0.6,0.9,1.2,1.4,1.7l-1.2,0.9c-0.5-0.6-0.9-1.2-1.3-1.7L223.2,104.9z M205.9,88.2l-0.9,1.2
				c-0.6-0.5-1.2-0.8-1.7-1.3l0.8-1.2C204.8,87.2,205.3,87.7,205.9,88.2z M225.7,108.4c0.5,0.6,0.8,1.2,1.3,1.7l-1.2,0.8
				c-0.3-0.6-0.8-1.2-1.3-1.7L225.7,108.4z M202.4,85.5l-0.8,1.2c-0.6-0.5-1.2-0.8-1.7-1.2l0.8-1.2
				C201.3,84.7,201.8,85.1,202.4,85.5z M228.3,112c0.3,0.6,0.8,1.3,1.2,1.9l-1.3,0.8c-0.3-0.6-0.8-1.2-1.2-1.9L228.3,112z
				 M198.8,83.1l-0.8,1.3c-0.6-0.3-1.2-0.8-1.9-1.2l0.7-1.3C197.5,82.3,198.1,82.7,198.8,83.1z M230.6,115.8c0.3,0.6,0.7,1.3,1,1.9
				l-1.3,0.7c-0.3-0.6-0.7-1.3-1-1.9L230.6,115.8z M195,80.8l-0.7,1.3c-0.6-0.3-1.3-0.7-1.9-1l0.7-1.3
				C193.7,80.1,194.4,80.5,195,80.8z M232.7,119.6c0.3,0.7,0.7,1.3,1,2l-1.3,0.7c-0.3-0.7-0.7-1.3-1-2L232.7,119.6z M191.1,78.8
				l-0.7,1.3c-0.7-0.3-1.3-0.7-2-0.9l0.6-1.3C189.8,78.1,190.4,78.5,191.1,78.8z M234.7,123.6c0.3,0.7,0.6,1.3,0.9,2l-1.3,0.6
				c-0.3-0.7-0.6-1.3-0.9-2L234.7,123.6z M187.2,76.9l-0.6,1.3c-0.7-0.3-1.3-0.6-2-0.8l0.6-1.3C185.9,76.3,186.5,76.6,187.2,76.9z
				 M236.4,127.5c0.2,0.7,0.6,1.4,0.8,2l-1.4,0.6c-0.2-0.7-0.6-1.4-0.8-2L236.4,127.5z M183.1,75.2l-0.6,1.4c-0.7-0.2-1.3-0.5-2-0.8
				l0.5-1.4C181.8,74.6,182.5,75,183.1,75.2z M238.1,131.6c0.2,0.7,0.5,1.4,0.7,2.1l-1.4,0.5c-0.2-0.7-0.5-1.4-0.7-2.1L238.1,131.6z
				 M179,73.7l-0.5,1.4c-0.7-0.2-1.4-0.5-2.1-0.7l0.5-1.4C177.6,73.2,178.3,73.5,179,73.7z M239.5,135.8c0.2,0.7,0.5,1.4,0.6,2.1
				l-1.4,0.3c-0.2-0.7-0.3-1.4-0.6-2.1L239.5,135.8z M174.9,72.3l-0.3,1.4c-0.7-0.2-1.4-0.3-2.1-0.6l0.3-1.4
				C173.5,72,174.2,72.2,174.9,72.3z M240.6,140c0.2,0.7,0.3,1.4,0.6,2.1l-1.4,0.3c-0.1-0.7-0.3-1.4-0.6-2.1L240.6,140z M170.6,71.3
				l-0.3,1.4c-0.7-0.1-1.4-0.3-2.1-0.5l0.3-1.4C169.2,70.9,169.9,71,170.6,71.3z M241.7,144.3c0.1,0.7,0.3,1.4,0.5,2.1l-1.4,0.2
				c-0.1-0.7-0.2-1.4-0.5-2.1L241.7,144.3z M166.4,70.3l-0.2,1.4c-0.7-0.1-1.4-0.2-2.1-0.3l0.2-1.4C164.9,70,165.6,70.1,166.4,70.3z
				 M242.5,148.6c0.1,0.7,0.2,1.4,0.3,2.2l-1.4,0.2c-0.1-0.7-0.2-1.4-0.3-2.1L242.5,148.6z M162.1,69.5l-0.2,1.4
				c-0.7-0.1-1.4-0.2-2.1-0.3l0.2-1.4C160.6,69.3,161.3,69.4,162.1,69.5z M243.2,152.9c0.1,0.7,0.1,1.4,0.2,2.2l-1.4,0.1
				c-0.1-0.7-0.1-1.4-0.2-2.1L243.2,152.9z M157.7,68.9l-0.1,1.4c-0.7-0.1-1.4-0.1-2.1-0.2l0.1-1.4C156.3,68.8,157,68.9,157.7,68.9z
				 M243.5,157.3c0,0.7,0.1,1.5,0.1,2.2l-1.4,0.1c0-0.7-0.1-1.4-0.1-2.1L243.5,157.3z M153.4,68.6l-0.1,1.4c-0.7,0-1.4-0.1-2.1-0.1
				v-1.4C151.9,68.6,152.7,68.6,153.4,68.6L153.4,68.6z M243.8,161.7c0,0.7,0,1.5,0,2.2h-1.4c0-0.7,0-1.4,0-2.2H243.8z M149,68.5
				v1.4c-0.7,0-1.4,0-2.2,0v-1.4C147.6,68.5,148.3,68.5,149,68.5z M243.9,166.1c0,0.7,0,1.5,0,2.2h-1.4c0-0.7,0-1.4,0-2.2H243.9z
				 M144.7,68.5v1.4c-0.7,0-1.4,0-2.2,0.1l-0.1-1.4C143.1,68.6,143.8,68.6,144.7,68.5z M243.7,170.4c0,0.7-0.1,1.4-0.1,2.2l-1.4-0.1
				c0.1-0.7,0.1-1.4,0.1-2.1L243.7,170.4z M140.2,68.7l0.1,1.4c-0.7,0-1.4,0.1-2.1,0.2l-0.1-1.4C138.8,68.9,139.5,68.8,140.2,68.7z
				 M243.3,174.8c-0.1,0.7-0.1,1.4-0.2,2.2l-1.4-0.2c0.1-0.7,0.2-1.4,0.2-2.1L243.3,174.8z M135.9,69.2l0.2,1.4
				c-0.7,0.1-1.4,0.2-2.1,0.2l-0.2-1.4C134.4,69.4,135.1,69.3,135.9,69.2z M242.7,179.1c-0.1,0.7-0.2,1.4-0.3,2.2l-1.4-0.2
				c0.1-0.7,0.2-1.4,0.3-2.1L242.7,179.1z M131.5,69.9l0.2,1.4c-0.7,0.1-1.4,0.2-2.1,0.3l-0.2-1.4C130.1,70.1,130.8,70,131.5,69.9z
				 M242,183.4c-0.1,0.7-0.3,1.4-0.5,2.1l-1.4-0.3c0.1-0.7,0.3-1.4,0.5-2.1L242,183.4z M127.2,70.7l0.3,1.4
				c-0.7,0.1-1.4,0.3-2.1,0.5l-0.3-1.4C125.8,71,126.5,70.8,127.2,70.7z M241.1,187.7c-0.2,0.7-0.3,1.4-0.6,2.1l-1.4-0.3
				c0.2-0.7,0.3-1.4,0.6-2.1L241.1,187.7z M123,71.7l0.3,1.4c-0.7,0.2-1.4,0.3-2.1,0.6l-0.3-1.4C121.6,72.1,122.3,71.8,123,71.7z
				 M239.9,191.9c-0.2,0.7-0.5,1.4-0.7,2.1l-1.4-0.5c0.2-0.7,0.5-1.4,0.6-2.1L239.9,191.9z M118.8,72.9l0.5,1.4
				c-0.7,0.2-1.4,0.5-2.1,0.7l-0.5-1.4C117.4,73.4,118.1,73.1,118.8,72.9z M238.5,196.1c-0.2,0.7-0.5,1.4-0.7,2.1l-1.4-0.5
				c0.2-0.7,0.5-1.4,0.7-2L238.5,196.1z M114.6,74.3l0.5,1.4c-0.7,0.2-1.4,0.5-2,0.8l-0.6-1.4C113.2,74.9,113.9,74.6,114.6,74.3z
				 M237,200.2c-0.2,0.7-0.6,1.4-0.8,2l-1.3-0.6c0.2-0.7,0.6-1.3,0.8-2L237,200.2z M110.5,75.9l0.6,1.3c-0.7,0.2-1.3,0.6-2,0.8
				l-0.6-1.3C109.1,76.5,109.8,76.3,110.5,75.9z M235.4,204.3c-0.3,0.7-0.6,1.3-0.9,2l-1.3-0.6c0.3-0.7,0.6-1.3,0.9-2L235.4,204.3z
				 M106.4,77.8l0.6,1.3c-0.7,0.3-1.3,0.6-2,0.9l-0.7-1.3C105.2,78.4,105.9,78,106.4,77.8z M233.4,208.1c-0.3,0.7-0.7,1.3-1,2
				l-1.3-0.7c0.3-0.6,0.7-1.3,1-1.9L233.4,208.1z M102.5,79.8l0.7,1.3c-0.6,0.3-1.3,0.7-1.9,1l-0.7-1.3
				C101.2,80.5,101.9,80.1,102.5,79.8z M231.4,212.1c-0.3,0.6-0.7,1.3-1,1.9l-1.3-0.7c0.3-0.6,0.7-1.3,1-1.9L231.4,212.1z
				 M98.8,81.9l0.7,1.3c-0.6,0.3-1.3,0.7-1.9,1.2L96.8,83C97.5,82.6,98.1,82.2,98.8,81.9z M229.1,215.8c-0.3,0.6-0.8,1.3-1.2,1.9
				l-1.2-0.8c0.3-0.6,0.8-1.2,1.2-1.9L229.1,215.8z M95,84.2l0.8,1.2c-0.6,0.3-1.2,0.8-1.7,1.2l-0.8-1.2C93.8,85,94.5,84.5,95,84.2z
				 M226.7,219.4c-0.5,0.6-0.8,1.2-1.3,1.7l-1.2-0.8c0.5-0.6,0.8-1.2,1.3-1.7L226.7,219.4z M91.4,86.6l0.8,1.2
				c-0.6,0.5-1.2,0.8-1.7,1.3l-0.9-1.2C90.3,87.6,90.8,87.1,91.4,86.6z M224.1,223c-0.5,0.6-0.9,1.2-1.4,1.7l-1.2-0.9
				c0.5-0.6,0.9-1.2,1.3-1.7L224.1,223z M87.9,89.3l0.9,1.2c-0.6,0.5-1.2,0.9-1.6,1.4l-0.9-1.2C86.8,90.3,87.3,89.8,87.9,89.3z
				 M221.4,226.4c-0.5,0.6-0.9,1.2-1.4,1.6l-1-0.9c0.5-0.6,0.9-1,1.4-1.6L221.4,226.4z M84.6,92.1l0.9,1c-0.6,0.5-1,0.9-1.6,1.4
				l-0.9-1C83.5,93,84,92.6,84.6,92.1z M218.5,229.7c-0.5,0.6-1,1-1.5,1.6l-1-1c0.5-0.5,1-1,1.5-1.5L218.5,229.7z M81.3,95.1l1,1
				c-0.5,0.5-1,1-1.5,1.5l-1-1C80.2,96.1,80.8,95.6,81.3,95.1z M214.4,231.8l1,1c-0.5,0.5-1,1-1.5,1.5l-1-1
				C213.4,232.8,214,232.4,214.4,231.8z M79.8,98.6c-0.5,0.5-1,1-1.5,1.5l-1-0.9c0.5-0.6,1-1,1.5-1.6L79.8,98.6z M211.3,234.8l0.9,1
				c-0.6,0.5-1,0.9-1.6,1.4l-0.9-1C210.2,235.7,210.7,235.3,211.3,234.8z M76.9,101.8c-0.5,0.6-0.9,1-1.4,1.6l-1.2-0.9
				c0.5-0.6,0.9-1.2,1.4-1.6L76.9,101.8z M208,237.6l0.9,1.2c-0.6,0.5-1.2,0.9-1.7,1.4l-0.9-1.2C207,238.5,207.4,238.1,208,237.6z
				 M74.1,105.2c-0.5,0.6-0.9,1.2-1.3,1.7l-1.2-0.9c0.5-0.6,0.9-1.2,1.4-1.7L74.1,105.2z M204.6,240.3l0.9,1.2
				c-0.6,0.5-1.2,0.8-1.7,1.3l-0.8-1.2C203.5,241.2,204.1,240.7,204.6,240.3z M71.4,108.5c-0.5,0.6-0.8,1.2-1.3,1.7l-1.2-0.8
				c0.5-0.6,0.8-1.2,1.3-1.7L71.4,108.5z M201.1,242.8l0.8,1.2c-0.6,0.5-1.2,0.8-1.9,1.2l-0.8-1.2
				C200,243.7,200.6,243.2,201.1,242.8z M68.9,112c-0.3,0.6-0.8,1.2-1.2,1.9l-1.3-0.8c0.3-0.6,0.8-1.3,1.2-1.9L68.9,112z
				 M197.5,245.2l0.8,1.3c-0.6,0.3-1.3,0.8-1.9,1.2l-0.7-1.3C196.3,245.9,197,245.5,197.5,245.2L197.5,245.2z M66.6,115.8
				c-0.3,0.6-0.7,1.3-1,1.9l-1.3-0.7c0.3-0.6,0.7-1.3,1.2-1.9L66.6,115.8z M193.8,247.4l0.7,1.3c-0.6,0.3-1.3,0.7-2,1l-0.7-1.3
				C192.5,248.1,193.2,247.7,193.8,247.4z M64.5,119.5c-0.3,0.6-0.7,1.3-1,1.9l-1.3-0.7c0.3-0.7,0.7-1.3,1-2L64.5,119.5z M190,249.4
				l0.7,1.3c-0.7,0.3-1.3,0.7-2,0.9l-0.6-1.3C188.7,250.1,189.4,249.7,190,249.4L190,249.4z M62.5,123.3c-0.3,0.7-0.6,1.3-0.9,2
				l-1.3-0.6c0.3-0.7,0.6-1.3,0.9-2L62.5,123.3z M186,251.2l0.6,1.3c-0.7,0.3-1.4,0.6-2,0.8L184,252
				C184.7,251.8,185.4,251.5,186,251.2z M60.7,127.2c-0.2,0.7-0.6,1.3-0.8,2l-1.4-0.6c0.2-0.7,0.6-1.4,0.8-2L60.7,127.2z M182,252.9
				l0.6,1.4c-0.7,0.2-1.4,0.5-2.1,0.8l-0.5-1.4C180.8,253.4,181.3,253.1,182,252.9z M59,131.3c-0.2,0.7-0.5,1.4-0.7,2l-1.4-0.5
				c0.2-0.7,0.5-1.4,0.7-2.1L59,131.3z M178,254.4l0.5,1.4c-0.7,0.2-1.4,0.5-2.1,0.7l-0.5-1.4C176.6,254.8,177.3,254.6,178,254.4z
				 M57.6,135.3c-0.2,0.7-0.5,1.4-0.6,2.1l-1.4-0.5c0.2-0.7,0.5-1.4,0.7-2.1L57.6,135.3z M173.9,255.6l0.3,1.4
				c-0.7,0.2-1.4,0.3-2.1,0.6l-0.3-1.4C172.5,256,173.2,255.9,173.9,255.6z M56.5,139.4c-0.2,0.7-0.3,1.4-0.6,2.1l-1.4-0.3
				c0.2-0.7,0.3-1.4,0.6-2.1L56.5,139.4z M169.7,256.7l0.3,1.4c-0.7,0.1-1.4,0.3-2.1,0.5l-0.3-1.4C168.3,257,169,256.9,169.7,256.7z
				 M55.4,143.6c-0.1,0.7-0.3,1.4-0.5,2.1l-1.4-0.2c0.1-0.7,0.3-1.4,0.5-2.1L55.4,143.6z M165.4,257.6l0.2,1.4
				c-0.7,0.1-1.4,0.2-2.2,0.3l-0.2-1.4C164,257.9,164.7,257.7,165.4,257.6z M54.5,147.8c-0.1,0.7-0.2,1.4-0.3,2.1l-1.4-0.2
				c0.1-0.7,0.2-1.4,0.3-2.2L54.5,147.8z M161.2,258.3l0.2,1.4c-0.7,0.1-1.4,0.2-2.2,0.2l-0.1-1.4
				C159.8,258.6,160.5,258.4,161.2,258.3z M53.9,152.1c-0.1,0.7-0.2,1.4-0.2,2.1l-1.4-0.1c0.1-0.7,0.1-1.4,0.2-2.2L53.9,152.1z
				 M156.9,258.9l0.1,1.4c-0.7,0.1-1.4,0.1-2.2,0.2l-0.1-1.4C155.5,259,156.2,258.9,156.9,258.9z M53.5,156.3
				c-0.1,0.7-0.1,1.4-0.1,2.1l-1.4-0.1c0-0.7,0.1-1.4,0.1-2.2L53.5,156.3z M152.6,259.1l0.1,1.4c-0.7,0-1.5,0.1-2.2,0.1v-1.4
				C151.2,259.3,151.9,259.3,152.6,259.1L152.6,259.1z M53.1,160.6c0,0.7,0,1.4-0.1,2.2h-1.4c0-0.7,0-1.5,0.1-2.2H53.1z
				 M148.3,259.3v1.4c-0.7,0-1.5,0-2.2,0v-1.4C146.9,259.3,147.6,259.3,148.3,259.3z M53,164.9c0,0.7,0,1.4,0,2.2h-1.4
				c0-0.7,0-1.5,0-2.2H53z M144,259.3v1.4c-0.7,0-1.5-0.1-2.2-0.1l0.1-1.4C142.6,259.1,143.3,259.1,144,259.3L144,259.3z
				 M53.1,169.3c0,0.7,0.1,1.4,0.1,2.2l-1.4,0.1c0-0.7-0.1-1.5-0.1-2.2L53.1,169.3z M139.6,258.9l-0.1,1.4c-0.7-0.1-1.4-0.1-2.2-0.2
				l0.1-1.4C138.2,258.8,138.9,258.9,139.6,258.9z M53.5,173.6c0.1,0.7,0.1,1.4,0.2,2.1l-1.4,0.1c-0.1-0.7-0.1-1.4-0.2-2.2
				L53.5,173.6z M135.3,258.4l-0.2,1.4c-0.7-0.1-1.4-0.2-2.2-0.3l0.2-1.4C133.9,258.3,134.6,258.4,135.3,258.4z M53.9,177.8
				c0.1,0.7,0.2,1.4,0.3,2.1l-1.4,0.2c-0.1-0.7-0.2-1.4-0.3-2.2L53.9,177.8z M131.1,257.9l-0.2,1.4c-0.7-0.1-1.4-0.2-2.1-0.3
				l0.2-1.4C129.7,257.6,130.4,257.7,131.1,257.9z M54.6,182.2c0.1,0.7,0.2,1.4,0.5,2.1l-1.4,0.3c-0.1-0.7-0.3-1.4-0.5-2.1
				L54.6,182.2z M126.8,256.9l-0.3,1.4c-0.7-0.1-1.4-0.3-2.1-0.5l0.3-1.4C125.4,256.7,126.1,256.8,126.8,256.9z M55.5,186.3
				c0.1,0.7,0.3,1.4,0.5,2.1l-1.4,0.3c-0.2-0.7-0.3-1.4-0.6-2.1L55.5,186.3z M122.6,256l-0.3,1.4c-0.7-0.2-1.4-0.3-2.1-0.6l0.5-1.4
				C121.4,255.5,122.1,255.8,122.6,256z M56.6,190.5c0.2,0.7,0.3,1.4,0.6,2.1l-1.4,0.5c-0.2-0.7-0.5-1.4-0.6-2.1L56.6,190.5z
				 M118.6,254.7l-0.5,1.4c-0.7-0.2-1.4-0.5-2.1-0.7l0.5-1.4C117.2,254.3,117.9,254.5,118.6,254.7z M57.9,194.7
				c0.2,0.7,0.5,1.4,0.7,2.1l-1.4,0.5c-0.2-0.7-0.5-1.4-0.7-2.1L57.9,194.7z M114.5,253.3l-0.5,1.4c-0.7-0.2-1.4-0.5-2-0.8l0.6-1.4
				C113.2,252.7,113.8,253.1,114.5,253.3z M59.4,198.8c0.2,0.7,0.6,1.4,0.8,2l-1.4,0.6c-0.2-0.7-0.6-1.4-0.8-2.1L59.4,198.8z
				 M110.5,251.7l-0.6,1.3c-0.7-0.2-1.3-0.6-2-0.9l0.6-1.3C109.2,251.1,109.8,251.5,110.5,251.7z M61,202.8c0.2,0.7,0.6,1.3,0.9,2
				l-1.3,0.6c-0.3-0.7-0.6-1.3-0.9-2L61,202.8z M106.6,249.9l-0.6,1.3c-0.7-0.3-1.3-0.7-2-0.9l0.7-1.3
				C105.3,249.2,106,249.6,106.6,249.9z M62.9,206.7c0.3,0.7,0.7,1.3,0.9,2l-1.3,0.7c-0.3-0.7-0.7-1.3-1-2L62.9,206.7z M102.7,248
				l-0.7,1.3c-0.7-0.3-1.3-0.7-1.9-1l0.7-1.3C101.4,247.3,102.1,247.6,102.7,248z M64.9,210.6c0.3,0.6,0.7,1.3,1,1.9l-1.3,0.7
				c-0.3-0.6-0.7-1.3-1-1.9L64.9,210.6z M99,245.9l-0.7,1.3c-0.6-0.3-1.3-0.8-1.9-1.2l0.8-1.3C97.7,245,98.4,245.4,99,245.9z
				 M67.1,214.2c0.3,0.6,0.8,1.2,1.2,1.9l-1.2,0.8c-0.3-0.6-0.8-1.3-1.2-1.9L67.1,214.2z M95.4,243.5l-0.8,1.2
				c-0.6-0.3-1.2-0.8-1.9-1.3l0.8-1.2C94.1,242.7,94.8,243.1,95.4,243.5z M69.4,217.9c0.3,0.6,0.8,1.2,1.3,1.7l-1.2,0.8
				c-0.5-0.6-0.8-1.2-1.3-1.7L69.4,217.9z M91.8,241.1l-0.8,1.2c-0.6-0.5-1.2-0.8-1.7-1.3l0.9-1.2C90.6,240.2,91.2,240.6,91.8,241.1
				z M72,221.4c0.5,0.6,0.8,1.2,1.3,1.7l-1.2,0.9c-0.5-0.6-0.9-1.2-1.3-1.7L72,221.4z M88.4,238.4l-0.9,1.2
				c-0.6-0.5-1.2-0.9-1.7-1.4l0.9-1.2C87.2,237.5,87.8,237.9,88.4,238.4z M74.6,224.8c0.5,0.6,0.9,1,1.4,1.6l-1,0.9
				c-0.5-0.6-0.9-1.2-1.4-1.6L74.6,224.8z M85.1,235.6l-0.9,1c-0.6-0.5-1-0.9-1.6-1.5l0.9-1C84,234.7,84.6,235.1,85.1,235.6z
				 M77.4,228c0.5,0.6,0.9,1,1.5,1.6l-1,1c-0.5-0.6-1-1-1.5-1.6L77.4,228z M81.9,232.7l-1,1c-0.3-0.3-0.8-0.8-1.2-1.2l-0.3-0.3l1-1
				l0.3,0.3C81.2,231.9,81.5,232.4,81.9,232.7z"/>
		</g>
		<polygon id="polygon201" class="st0" points="77.9,173.4 101.9,167.5 77.3,164.6 101.9,161.8 77.9,155.8 102.6,155.9 79.5,147.1 
			104.1,150.5 82.2,138.7 106.2,145.1 86.1,130.7 109,140 90.7,123.2 112.4,135.3 96.4,116.5 116.3,131.1 102.8,110.4 120.8,127.5 
			109.9,105.2 125.7,124.4 117.7,100.9 130.8,121.9 126,97.6 136.3,120.2 134.5,95.5 142,119.1 143.4,94.3 147.7,118.8 152.1,94.3 
			153.5,119.1 161,95.5 159.1,120.2 169.5,97.6 164.6,121.9 177.7,100.9 169.8,124.4 185.4,105.2 174.7,127.5 192.6,110.4 
			179.1,131.1 199,116.5 183.1,135.3 204.6,123.2 186.5,140 209.4,130.7 189.3,145.1 213.1,138.7 191.4,150.5 215.9,147.1 
			192.8,155.9 217.6,155.8 193.5,161.8 218.1,164.6 193.5,167.5 217.6,173.4 192.8,173.2 215.9,182.2 191.4,178.8 213.1,190.5 
			189.3,184.1 209.4,198.6 186.5,189.1 204.6,206 183.1,193.8 199,212.8 179.1,198.1 192.6,218.8 174.7,201.7 185.4,224.1 
			169.8,204.9 177.7,228.3 164.6,207.3 169.5,231.5 159.1,209.1 161,233.8 153.5,210.1 152.1,234.9 147.7,210.5 143.4,234.9 
			142,210.1 134.5,233.8 136.3,209.1 126,231.5 130.8,207.3 117.7,228.3 125.7,204.9 109.9,224.1 120.8,201.7 102.8,218.8 
			116.3,198 96.4,212.8 112.4,193.8 90.7,206 109,189.1 86.1,198.6 106.2,184.1 82.2,190.5 104.1,178.8 79.5,182.2 102.6,173.2 		
			"/>
	</g>
	<g id="g207">
		<path id="path205" inkscape:connector-curvature="0" class="st2" d="M251.6,164.6l23.9-21.8h-72.8c-8.7-22.4-30.5-38.2-56-38.2
			s-47.3,15.8-56,38.2H17.8l23.9,21.8l-23.9,21.8h72.8c8.7,22.4,30.5,38.2,56,38.2s47.3-15.8,56-38.2h72.8L251.6,164.6z"/>
	</g>
</g>
<path id="path211" inkscape:connector-curvature="0" class="st0" d="M150.6,217.6c-27.5,0-51.9-16.5-62-42.3l-1.2-3.3h-77l22.8-20.9
	l-22.8-20.9h77l1.4-3.3c10-25.8,34.3-42.3,62-42.3c27.5,0,51.9,16.5,62,42.3l1.2,3.3h76.9l-22.8,20.9l22.8,20.9h-77l-1.2,3.3
	C202.6,200.9,178.3,217.6,150.6,217.6L150.6,217.6z M14.2,170.5h74.3l1.6,4.2c9.8,25.1,33.6,41.4,60.6,41.4s50.7-16.3,60.6-41.4
	l1.6-4.2h74.3L266,151.1l21.3-19.4H213l-1.6-4.2c-9.8-25.1-33.6-41.4-60.6-41.4s-50.7,16.3-60.6,41.4l-1.6,4.2H14.2l21.3,19.4
	L14.2,170.5z"/>
<g>
	<g class="st3">
		<path class="st4" d="M105.9,165.2v-29.2h7.2c1.3,0,2.5,0.1,3.5,0.4s1.9,0.6,2.7,1.2c0.8,0.6,1.3,1.3,1.7,2.3
			c0.4,1,0.6,2.2,0.6,3.6c0,1.2-0.2,2.2-0.5,3c-0.3,0.8-0.8,1.5-1.4,2c-0.6,0.5-1.4,0.8-2.3,1c1.2,0.2,2.1,0.6,2.9,1.2
			s1.3,1.4,1.7,2.4s0.6,2.2,0.6,3.6c0,1.4-0.2,2.6-0.5,3.7c-0.3,1.1-0.9,2-1.5,2.7c-0.7,0.7-1.5,1.2-2.6,1.6c-1,0.4-2.2,0.5-3.6,0.5
			H105.9z M111.2,148h1.8c1.1,0,1.9-0.2,2.4-0.5c0.6-0.3,1-0.8,1.2-1.4c0.2-0.6,0.3-1.5,0.3-2.4c0-1-0.2-1.8-0.5-2.4
			c-0.3-0.6-0.9-0.9-1.6-1.2c-0.7-0.2-1.6-0.3-2.7-0.3h-1V148z M111.2,161.5h2c1.6,0,2.7-0.4,3.3-1.2c0.6-0.8,0.9-2,0.9-3.6
			c0-1.2-0.1-2.1-0.4-2.9c-0.3-0.7-0.7-1.3-1.4-1.6c-0.6-0.4-1.5-0.5-2.5-0.5h-1.8V161.5z"/>
		<path class="st4" d="M125.7,165.2v-20.8h4.9v3.2c0.7-1.2,1.4-2.1,2.2-2.6c0.7-0.5,1.5-0.8,2.4-0.8c0.1,0,0.3,0,0.4,0
			c0.1,0,0.2,0,0.4,0.1v5.1c-0.3-0.1-0.6-0.2-1-0.3c-0.3-0.1-0.7-0.1-1.1-0.1c-0.6,0-1.2,0.2-1.8,0.5c-0.5,0.3-1,0.8-1.5,1.5v14.3
			H125.7z"/>
		<path class="st4" d="M144.6,165.6c-1.5,0-2.8-0.3-3.7-0.8c-1-0.6-1.7-1.4-2.2-2.5c-0.5-1.1-0.7-2.4-0.7-3.9v-7
			c0-1.5,0.2-2.8,0.7-3.9c0.5-1.1,1.2-1.9,2.2-2.5c1-0.6,2.2-0.8,3.7-0.8c1.5,0,2.8,0.3,3.8,0.8c1,0.6,1.7,1.4,2.2,2.5
			c0.5,1.1,0.7,2.4,0.7,3.9v7c0,1.5-0.2,2.8-0.7,3.9c-0.5,1.1-1.2,1.9-2.2,2.5C147.4,165.3,146.2,165.6,144.6,165.6z M144.7,162.2
			c0.6,0,1-0.2,1.2-0.5c0.3-0.3,0.4-0.7,0.5-1.3c0.1-0.5,0.1-1.1,0.1-1.8V151c0-0.6,0-1.2-0.1-1.8c-0.1-0.5-0.2-1-0.5-1.3
			c-0.3-0.3-0.7-0.5-1.2-0.5c-0.6,0-1,0.2-1.2,0.5c-0.3,0.3-0.4,0.8-0.5,1.3c-0.1,0.5-0.1,1.1-0.1,1.8v7.6c0,0.6,0,1.2,0.1,1.8
			c0.1,0.5,0.3,1,0.5,1.3C143.7,162,144.1,162.2,144.7,162.2z"/>
		<path class="st4" d="M154.7,165.2v-20.8h4.9v2.1c0.7-0.7,1.5-1.3,2.4-1.7s1.7-0.7,2.7-0.7c0.9,0,1.5,0.2,2.1,0.6s0.9,1,1.1,1.7
			c0.2,0.7,0.4,1.5,0.4,2.3v16.6h-4.9v-15.6c0-0.6-0.1-1.1-0.3-1.4c-0.2-0.3-0.6-0.5-1.1-0.5c-0.3,0-0.7,0.1-1.1,0.3
			c-0.4,0.2-0.8,0.4-1.2,0.7v16.5H154.7z"/>
		<path class="st4" d="M171.1,165.2V162l6-14h-5.5v-3.6h10.7v2.8l-6.1,14.3h6.1v3.6H171.1z"/>
		<path class="st4" d="M191.4,165.6c-1.6,0-2.8-0.3-3.8-0.9c-1-0.6-1.7-1.5-2.2-2.6c-0.5-1.1-0.7-2.5-0.7-4.1v-6.3
			c0-1.7,0.2-3,0.7-4.2c0.5-1.1,1.2-2,2.2-2.6c1-0.6,2.3-0.9,3.8-0.9c1.7,0,2.9,0.3,3.9,0.9c0.9,0.6,1.6,1.5,2,2.7
			c0.4,1.2,0.6,2.6,0.6,4.3v3h-8.3v4.1c0,0.7,0.1,1.2,0.2,1.7c0.1,0.4,0.3,0.7,0.6,0.9c0.3,0.2,0.6,0.3,1,0.3c0.4,0,0.8-0.1,1-0.3
			s0.5-0.5,0.6-0.9c0.1-0.4,0.2-0.9,0.2-1.5v-1.7h4.6v1.4c0,2.1-0.5,3.7-1.6,4.9C195.2,165,193.6,165.6,191.4,165.6z M189.6,152.6
			h3.7v-2c0-0.7-0.1-1.3-0.2-1.7c-0.1-0.4-0.3-0.8-0.6-1s-0.6-0.3-1.1-0.3c-0.4,0-0.8,0.1-1,0.3c-0.3,0.2-0.5,0.6-0.6,1.1
			c-0.1,0.5-0.2,1.2-0.2,2.2V152.6z"/>
	</g>
</g>
</svg>
