<?xml version="1.0" encoding="utf-8"?>
<!-- Generator: Adobe Illustrator 24.1.2, SVG Export Plug-In . SVG Version: 6.00 Build 0)  -->
<svg version="1.1"
	 id="Layer_1" xmlns:cc="http://creativecommons.org/ns#" xmlns:dc="http://purl.org/dc/elements/1.1/" xmlns:inkscape="http://www.inkscape.org/namespaces/inkscape" xmlns:rdf="http://www.w3.org/1999/02/22-rdf-syntax-ns#" xmlns:sodipodi="http://sodipodi.sourceforge.net/DTD/sodipodi-0.dtd" xmlns:svg="http://www.w3.org/2000/svg"
	 xmlns="http://www.w3.org/2000/svg" xmlns:xlink="http://www.w3.org/1999/xlink" x="0px" y="0px" viewBox="0 0 300 300"
	 style="enable-background:new 0 0 300 300;" xml:space="preserve">
<style type="text/css">
	.st0{fill:#808080;}
	.st1{fill:#FFF0E5;}
	.st2{fill:#FFFFFF;}
	.st3{fill:#69472E;}
	.st4{fill:url(#polygon770_1_);}
	.st5{fill:#6D6E71;}
	.st6{fill:none;}
	.st7{font-family:'ArialMT';}
	.st8{font-size:14.5529px;}
	.st9{enable-background:new    ;}
</style>
<sodipodi:namedview  bordercolor="#666666" borderopacity="1" gridtolerance="10" guidetolerance="10" id="namedview909" inkscape:current-layer="Layer_1" inkscape:cx="163.9167" inkscape:cy="76.847101" inkscape:pageopacity="0" inkscape:pageshadow="2" inkscape:window-height="731" inkscape:window-maximized="1" inkscape:window-width="1366" inkscape:window-x="0" inkscape:window-y="0" inkscape:zoom="1.664903" objecttolerance="10" pagecolor="#ffffff" showgrid="false">
	</sodipodi:namedview>
<g id="g735" transform="translate(-28.2,-19.8)">
	<polygon id="polygon733" class="st0" points="65.6,239.6 177.9,299.7 288.7,238.1 288.7,91.7 178.2,39.6 65.6,93 	"/>
</g>
<g id="g745" transform="translate(-28.2,-19.8)">
	<g id="g739">
		<polygon id="polygon737" class="st1" points="70.2,236.7 177.7,294.3 284.1,235.2 284.1,95 178.2,44.9 70.2,96.1 		"/>
	</g>
	<g id="g743">
		<path id="path741" inkscape:connector-curvature="0" class="st2" d="M177.7,294.8l-0.2-0.1L69.7,236.9v-141l108.4-51.4l106.4,50.3
			v140.7l-0.2,0.1L177.7,294.8z M70.5,236.4l107.2,57.4L283.6,235V95.3L178.1,45.4L70.5,96.5V236.4z"/>
	</g>
</g>
<g id="g749" transform="translate(-28.2,-19.8)">
	<polygon id="polygon747" class="st3" points="74,234.4 177.7,289.8 280.2,232.9 280.2,97.7 178.2,49.4 74,98.8 	"/>
</g>
<g id="g774" transform="translate(-28.2,-19.8)">
	<g id="g772">
		
			<linearGradient id="polygon770_1_" gradientUnits="userSpaceOnUse" x1="125.5788" y1="764.1086" x2="341.3144" y2="639.5535" gradientTransform="matrix(1 0 0 1 -56.4 -536)">
			<stop  offset="0" style="stop-color:#000000"/>
			<stop  offset="0.1281" style="stop-color:#7B6330"/>
			<stop  offset="0.2739" style="stop-color:#997D3D"/>
			<stop  offset="0.4001" style="stop-color:#D3B059"/>
			<stop  offset="0.5142" style="stop-color:#E3C062"/>
			<stop  offset="0.6239" style="stop-color:#E6C263"/>
			<stop  offset="0.7412" style="stop-color:#EED77D"/>
			<stop  offset="0.9271" style="stop-color:#FAF39B"/>
			<stop  offset="1" style="stop-color:#FFFFFF"/>
		</linearGradient>
		<polygon id="polygon770" class="st4" points="73.1,234.9 177.7,290.9 281.2,233.4 281.2,97.1 178.2,48.3 73.1,98.2 		"/>
	</g>
</g>
<g id="g782" transform="translate(-28.2,-19.8)">
	<g id="g778">
		<path id="path776" inkscape:connector-curvature="0" class="st5" d="M294.3,195.8l10.4-21.6h-86.5c-6.1-17.6-22.2-30.1-41.1-30.1
			s-35,12.5-41.1,30.1H49.5L60,195.8l-10.4,21.6h92.9c8,11,20.6,18.2,34.8,18.2s26.9-7.2,34.8-18.2h92.7L294.3,195.8z"/>
	</g>
	<path id="path780" inkscape:connector-curvature="0" class="st6" d="M177.2,235.9c-13.8,0-26.7-6.7-35-18.2H48.8l10.7-22l-10.7-22
		h87c6.4-18.1,22.9-30.1,41.4-30.1s35,12.1,41.4,30.1h86.8l-10.7,22l10.7,22h-93C203.8,229.4,191.1,235.9,177.2,235.9L177.2,235.9z
		 M50.2,216.9h92.4l0.1,0.1c8.2,11.4,20.9,17.9,34.6,17.9c13.7,0,26.3-6.5,34.6-17.9l0.1-0.1h92.2l-10.2-21.1l10.2-21.1H218
		l-0.1-0.2c-6.2-17.8-22.6-29.8-40.7-29.8s-34.6,12-40.7,29.8l-0.1,0.2H50.2l10.2,21.1L50.2,216.9z"/>
</g>
<g id="g786" transform="translate(-28.2,-19.8)">
	<polygon id="polygon784" class="st2" points="71.7,199.3 69.7,198.2 67.6,199.3 68,196.9 66.3,195.1 68.6,194.7 69.7,192.4 
		70.8,194.7 73.1,195.1 71.4,196.9 	"/>
</g>
<g id="g790" transform="translate(-28.2,-19.8)">
	<polygon id="polygon788" class="st2" points="79.3,201.5 83.5,199.2 87.6,201.5 86.8,196.5 90.2,192.9 85.6,192.2 83.5,187.6 
		81.3,192.2 76.7,192.9 80.1,196.5 	"/>
</g>
<g id="g794" transform="translate(-28.2,-19.8)">
	<polygon id="polygon792" class="st2" points="93.7,198.5 95.8,197.3 97.8,198.5 97.4,195.9 99.1,194.2 96.7,193.9 95.8,191.6 
		94.7,193.9 92.4,194.2 94.1,195.9 	"/>
</g>
<g id="g858" transform="translate(-28.2,-19.8)">
	<g id="g800">
		<g id="g798">
			<rect id="rect796" x="100.7" y="124.2" class="st2" width="151.4" height="0.5"/>
		</g>
	</g>
	<g id="g856">
		<g id="g854">
			<rect id="rect852" x="100.7" y="94.9" class="st2" width="151.4" height="0.5"/>
		</g>
	</g>
	<text transform="matrix(1 0 0 1 121.7215 113.6779)" class="st2 st7 st8">APEX SYSTEMS</text>
</g>
<g id="g888" transform="translate(-28.2,-19.8)">
	<g id="g872">
		<g id="g864">
			<g id="g862">
				<rect id="rect860" x="132.7" y="252.4" class="st2" width="33.2" height="0.5"/>
			</g>
		</g>
		<g id="g870">
			<g id="g868">
				<rect id="rect866" x="188.2" y="252.3" class="st2" width="33.2" height="0.5"/>
			</g>
		</g>
	</g>
	<g id="Layer_2_1_">
		<g id="Layer_1-2">
			<g id="Apex_Logo">
				<path class="st2" d="M170.3,252.4c0,0,2.8-2.5,7-2.5s7.2,2.5,7.2,2.5H170.3z"/>
				<path class="st2" d="M170,252.6h14.8c0,0,1.2,1.2,1.6,1.8h-18C168.4,254.4,169.2,253.2,170,252.6z"/>
				<path class="st2" d="M168.2,254.7h18.5c0,0,0.8,1.2,0.9,1.6h-8.6l-1.6-1l-1.6,1h-8.5C167.3,256.2,167.7,255.3,168.2,254.7z"/>
				<path class="st2" d="M167.1,256.5h8.1l-2,1.2h-6.6C166.7,257.8,166.9,257,167.1,256.5z"/>
				<path class="st2" d="M166.6,258h6.2l-1.5,1h-4.9C166.4,258.7,166.5,258.4,166.6,258z"/>
				<path class="st2" d="M166.3,259.3h4.5l-0.8,0.5h-3.7C166.2,259.6,166.3,259.4,166.3,259.3z"/>
				<path class="st2" d="M166.2,260.1h3.3l-0.6,0.4h-2.7C166.1,260.4,166.1,260.4,166.2,260.1z"/>
				<polygon class="st2" points="166.1,260.7 168.5,260.7 167.9,261 166.1,261 				"/>
				<polygon class="st2" points="166.1,261.3 167.5,261.3 167.1,261.5 166.1,261.5 				"/>
				<polygon class="st2" points="166.1,261.8 166.7,261.8 166.1,262.1 				"/>
				<polygon class="st2" points="166.6,262.1 177.3,258.6 188.1,262.1 				"/>
				<path class="st2" d="M187.7,256.5h-8.2l2.1,1.3h6.7C188,257.4,187.8,256.9,187.7,256.5z"/>
				<path class="st2" d="M181.9,258h6.3c0,0,0.2,0.6,0.2,0.9h-5L181.9,258z"/>
				<path class="st2" d="M184,259.3h4.4c0.1,0.2,0.1,0.3,0.1,0.5h-3.7L184,259.3z"/>
				<path class="st2" d="M185.3,260.1h3.2c0,0,0.1,0.2,0.1,0.3h-2.7L185.3,260.1z"/>
				<polygon class="st2" points="186.4,260.7 188.6,260.7 188.6,261 186.9,261 				"/>
				<polygon class="st2" points="187.4,261.3 188.6,261.3 188.6,261.5 187.8,261.5 				"/>
				<polygon class="st2" points="188.2,261.8 188.6,261.8 188.6,262.1 				"/>
			</g>
		</g>
	</g>
</g>
<g id="g892" transform="translate(-28.2,-19.8)">
	<polygon id="polygon890" class="st2" points="258,200.3 255.8,199.1 253.8,200.3 254.3,197.7 252.6,195.9 254.9,195.6 255.8,193.3 
		256.9,195.6 259.2,195.9 257.5,197.7 	"/>
</g>
<g id="g896" transform="translate(-28.2,-19.8)">
	<polygon id="polygon894" class="st2" points="265.5,202.3 269.7,200 273.8,202.3 273.1,197.4 276.4,193.7 271.7,193 269.7,188.4 
		267.6,193 263,193.7 266.3,197.4 	"/>
</g>
<g id="g900" transform="translate(-28.2,-19.8)">
	<polygon id="polygon898" class="st2" points="279.8,199.3 281.9,198.1 284,199.3 283.6,196.8 285.3,195.1 283,194.7 281.9,192.4 
		280.9,194.7 278.6,195.1 280.3,196.8 	"/>
</g>
<g id="g904" transform="translate(-28.2,-19.8)">
	<path id="path902" inkscape:connector-curvature="0" class="st2" d="M177.2,234.7H177v-0.8h0.2c1,0,2.1,0,3-0.1l0.1,0.8
		C179.2,234.7,178.2,234.7,177.2,234.7z M173.6,234.6c-1.1-0.1-2.2-0.2-3.3-0.5l0.1-0.8c1.1,0.2,2.2,0.4,3.3,0.5L173.6,234.6z
		 M183.6,234.2l-0.1-0.8c1.1-0.1,2.2-0.4,3.2-0.6l0.2,0.8C185.7,233.9,184.6,234.1,183.6,234.2z M167.1,233.4
		c-1.1-0.2-2.2-0.6-3.2-1l0.2-0.8c1,0.4,2.1,0.7,3.2,1L167.1,233.4z M190,232.7l-0.2-0.8c1-0.4,2.1-0.7,3-1.2l0.4,0.8
		C192.2,231.9,191.1,232.3,190,232.7z M160.8,231.2c-1-0.5-2.1-1-3-1.5l0.4-0.7c1,0.5,1.9,1,2.9,1.5L160.8,231.2z M196.2,230
		l-0.4-0.7c1-0.5,1.9-1.1,2.9-1.6l0.4,0.7C198.1,228.9,197.1,229.5,196.2,230z M154.8,228.1c-1-0.6-1.8-1.2-2.8-1.9l0.5-0.7
		c0.8,0.6,1.8,1.3,2.7,1.9L154.8,228.1z M201.9,226.5l-0.5-0.7c0.8-0.6,1.8-1.3,2.7-2.1l0.5,0.7
		C203.7,225.1,202.8,225.8,201.9,226.5z M149.5,223.9c-0.8-0.7-1.7-1.6-2.4-2.3l0.6-0.6c0.7,0.8,1.6,1.6,2.4,2.3L149.5,223.9z
		 M207.1,222.1l-0.6-0.6c0.8-0.7,1.6-1.6,2.3-2.4l0.6,0.6C208.7,220.4,207.9,221.3,207.1,222.1z M144.7,219.2
		c-0.7-0.8-1.3-1.7-2.1-2.5l0.1-0.1v-0.6h0.4l0.1,0.1c0.6,0.8,1.3,1.7,1.9,2.5L144.7,219.2z M211.6,217l-0.6-0.5l0.4-0.5h3v0.8h-2.7
		L211.6,217z M139.5,216.8h-3.3v-0.8h3.3V216.8z M217.6,216.8v-0.8h3.3v0.8H217.6z M133,216.8h-3.3v-0.8h3.3V216.8z M224.3,216.8
		v-0.8h3.3v0.8H224.3z M126.3,216.8H123v-0.8h3.3V216.8z M230.9,216.8v-0.8h3.3v0.8H230.9z M119.8,216.8h-3.3v-0.8h3.3V216.8z
		 M237.4,216.8v-0.8h3.3v0.8H237.4z M113.2,216.8h-3.3v-0.8h3.3V216.8z M244.1,216.8v-0.8h3.3v0.8H244.1z M106.5,216.8h-3.3v-0.8
		h3.3V216.8z M250.6,216.8v-0.8h3.3v0.8H250.6z M100,216.8h-3.3v-0.8h3.3V216.8z M257.2,216.8v-0.8h3.3v0.8H257.2z M93.4,216.8h-3.3
		v-0.8h3.3V216.8z M263.8,216.8v-0.8h3.3v0.8H263.8z M86.8,216.7h-3.3v-0.8h3.3V216.7z M270.4,216.7v-0.8h3.3v0.8H270.4z
		 M80.2,216.7H77v-0.8h3.3V216.7z M276.9,216.7v-0.8h3.3v0.8H276.9z M73.7,216.7h-3.3v-0.8h3.3V216.7z M283.6,216.7v-0.8h3.3v0.8
		H283.6z M67,216.7h-3.3v-0.8H67V216.7z M290.2,216.7v-0.8h3.3v0.8H290.2z M60.5,216.7h-3.3v-0.8h3.3V216.7z M296.7,216.7v-0.8h3.3
		v0.8H296.7z M53.9,216.7h-3.5l0.5-1.1l0.4,0.2h2.7V216.7z M302.8,216.3l-1.6-3l0.7-0.4l1.6,3L302.8,216.3z M53.2,213l-0.7-0.4
		l1.6-3l0.7,0.4L53.2,213z M299.7,210.2l-1.6-3l0.7-0.4l1.6,3L299.7,210.2z M56.2,206.8l-0.7-0.4l1.6-3l0.7,0.4L56.2,206.8z
		 M296.6,204.2l-1.6-3l0.7-0.4l1.6,3L296.6,204.2z M59.2,200.8l-0.7-0.4l1.6-3l0.7,0.4L59.2,200.8z M293.5,198l-1.1-2.2l1.6-3.3
		l0.7,0.4l-1.5,2.9l0.8,1.8L293.5,198z M60.3,194.7l-1.6-3l0.7-0.4l1.6,3L60.3,194.7z M296.2,189.9l-0.7-0.4l1.5-3l0.7,0.4
		L296.2,189.9z M57.3,188.6l-1.6-3l0.7-0.4l1.6,3L57.3,188.6z M299.2,183.8l-0.7-0.4l1.5-3l0.7,0.4L299.2,183.8z M54.2,182.5l-1.6-3
		l0.7-0.4l1.6,3L54.2,182.5z M302.3,177.6l-0.7-0.4l1.1-2.3v-0.5h1.2L302.3,177.6z M51.1,176.4l-0.7-1.5h3.2v0.8h-1.7l0.1,0.1
		L51.1,176.4z M56.8,175.8v-0.8h3.3v0.8H56.8z M63.4,175.8v-0.8h3.3v0.8H63.4z M69.9,175.8v-0.8h3.3v0.8H69.9z M76.6,175.8v-0.8h3.3
		v0.8H76.6z M83.1,175.8v-0.8h3.3v0.8H83.1z M89.7,175.8v-0.8H93v0.8H89.7z M96.4,175.7v-0.8h3.3v0.8H96.4z M102.9,175.7v-0.8h3.3
		v0.8H102.9z M109.5,175.7v-0.8h3.3v0.8H109.5z M116.1,175.7v-0.8h3.3v0.8H116.1z M122.7,175.7v-0.8h3.3v0.8H122.7z M129.2,175.5
		v-0.8h3.3v0.8H129.2z M135.9,175.5v-0.8h0.7c0.2-0.6,0.5-1.3,0.7-1.9l0.7,0.4c-0.2,0.7-0.6,1.5-0.8,2.2l-0.1,0.2H135.9z
		 M217.4,175.5l-0.4-0.8l0.7-0.4l0.1,0.4h2.4v0.8H217.4z M223.6,175.5v-0.8h3.3v0.8H223.6z M230.2,175.5v-0.8h3.3v0.8H230.2z
		 M236.8,175.5v-0.8h3.3v0.8H236.8z M243.3,175.4v-0.8h3.3v0.8H243.3z M250,175.4v-0.8h3.3v0.8H250z M256.6,175.4v-0.8h3.3v0.8
		H256.6z M263.1,175.4v-0.8h3.3v0.8H263.1z M269.8,175.4v-0.8h3.3v0.8H269.8z M276.3,175.4v-0.8h3.3v0.8H276.3z M282.9,175.3v-0.8
		h3.3v0.8H282.9z M289.5,175.3v-0.8h3.3v0.8H289.5z M296.1,175.3v-0.8h3.3v0.8H296.1z M215.7,171.5c-0.5-1-1-2.1-1.6-3l0.7-0.5
		c0.6,1,1.1,2.1,1.6,3L215.7,171.5z M139.5,170.1l-0.7-0.4c0.5-1,1.1-2.1,1.7-3l0.7,0.5C140.6,168,140,169,139.5,170.1L139.5,170.1z
		 M212.4,165.7c-0.6-1-1.2-1.8-1.9-2.8l0.6-0.5c0.7,0.8,1.3,1.8,1.9,2.8L212.4,165.7z M143,164.3l-0.6-0.5c0.6-1,1.3-1.8,2.1-2.7
		l0.6,0.6C144.4,162.5,143.7,163.4,143,164.3L143,164.3z M208.4,160.4c-0.7-0.8-1.6-1.7-2.3-2.4l0.6-0.6c0.8,0.7,1.6,1.6,2.3,2.4
		L208.4,160.4z M147.3,159.1l-0.6-0.6c0.7-0.8,1.6-1.6,2.4-2.4l0.5,0.6C148.9,157.5,148,158.3,147.3,159.1z M203.6,155.7
		c-0.8-0.7-1.7-1.5-2.7-2.1l0.5-0.7c0.8,0.6,1.8,1.3,2.7,2.1L203.6,155.7z M152.1,154.7l-0.5-0.7c0.8-0.7,1.8-1.3,2.8-1.9l0.5,0.7
		C154,153.4,153,154,152.1,154.7z M198.2,151.8c-1-0.6-1.9-1.1-2.9-1.6l0.4-0.7c1,0.5,1.9,1.1,2.9,1.6L198.2,151.8z M157.7,150.9
		l-0.4-0.7c1-0.6,1.9-1.1,3-1.6l0.4,0.8C159.7,150,158.7,150.4,157.7,150.9z M192.4,148.9c-1-0.4-2.1-0.8-3-1.1l0.2-0.8
		c1.1,0.4,2.1,0.7,3.2,1.1L192.4,148.9z M163.7,148.3l-0.2-0.8c1.1-0.4,2.1-0.7,3.2-1l0.2,0.8C165.7,147.5,164.6,147.9,163.7,148.3z
		 M186.1,146.8c-1.1-0.2-2.2-0.5-3.2-0.6l0.1-0.8c1.1,0.1,2.2,0.4,3.3,0.6L186.1,146.8z M170,146.4l-0.1-0.8
		c1.1-0.2,2.2-0.4,3.3-0.5l0.1,0.8C172.2,146.1,171.1,146.3,170,146.4z M179.7,146c-1.1-0.1-2.2-0.1-3.3-0.1V145
		c1.1,0,2.2,0,3.3,0.1V146z"/>
</g>
<g>
	<g class="st9">
		<path class="st2" d="M120.7,182.6c-1.4,0-2.5-0.3-3.3-0.8s-1.4-1.3-1.7-2.3c-0.3-1-0.5-2.1-0.5-3.4v-7c0-1.3,0.2-2.5,0.5-3.5
			c0.3-1,0.9-1.7,1.7-2.2c0.8-0.5,1.9-0.8,3.3-0.8c1.3,0,2.4,0.2,3.1,0.7c0.8,0.5,1.3,1.1,1.6,2c0.3,0.8,0.5,1.8,0.5,3v1.6h-3.7
			v-1.8c0-0.4,0-0.9-0.1-1.3c0-0.4-0.2-0.7-0.4-1s-0.6-0.4-1.1-0.4s-0.9,0.1-1.1,0.4c-0.2,0.3-0.4,0.6-0.4,1
			c-0.1,0.4-0.1,0.9-0.1,1.4v8.8c0,0.5,0,1,0.1,1.4c0.1,0.4,0.2,0.7,0.5,0.9c0.2,0.2,0.6,0.3,1,0.3c0.5,0,0.8-0.1,1-0.4
			s0.3-0.6,0.4-1c0.1-0.4,0.1-0.9,0.1-1.3v-1.9h3.7v1.6c0,1.1-0.2,2.1-0.5,3c-0.3,0.9-0.8,1.6-1.6,2.1S122,182.6,120.7,182.6z"/>
		<path class="st2" d="M130.6,182.6c-0.6,0-1.2-0.2-1.6-0.5s-0.8-0.8-1-1.3c-0.2-0.5-0.3-1-0.3-1.6c0-0.9,0.2-1.6,0.5-2.2
			c0.3-0.6,0.7-1.1,1.3-1.5c0.5-0.4,1.1-0.7,1.7-1s1.3-0.6,1.9-0.8v-1.3c0-0.3,0-0.6-0.1-0.8c0-0.2-0.1-0.4-0.3-0.5
			c-0.1-0.1-0.3-0.2-0.6-0.2s-0.4,0.1-0.6,0.2c-0.1,0.1-0.2,0.3-0.3,0.5s-0.1,0.4-0.1,0.7l-0.1,1l-3.3-0.1c0.1-1.6,0.5-2.8,1.2-3.6
			c0.7-0.8,1.9-1.2,3.4-1.2c1.3,0,2.3,0.4,3,1.2c0.6,0.8,1,1.8,1,3.1v6.5c0,0.5,0,1,0,1.5c0,0.4,0.1,0.8,0.1,1.1
			c0,0.3,0.1,0.6,0.1,0.9h-3.1c0-0.4-0.1-0.7-0.2-1.2c-0.1-0.4-0.1-0.7-0.1-0.8c-0.2,0.6-0.4,1.1-0.9,1.5S131.3,182.6,130.6,182.6z
			 M131.9,180c0.2,0,0.3,0,0.5-0.1s0.3-0.2,0.4-0.3s0.2-0.2,0.3-0.4v-3.8c-0.3,0.2-0.6,0.4-0.9,0.6c-0.3,0.2-0.5,0.4-0.7,0.7
			c-0.2,0.2-0.4,0.5-0.5,0.8s-0.2,0.6-0.2,1c0,0.5,0.1,0.9,0.3,1.1C131.3,179.9,131.5,180,131.9,180z"/>
		<path class="st2" d="M138.6,186.9v-18.4h3.5v1c0.4-0.4,0.9-0.7,1.3-0.9c0.5-0.2,1-0.3,1.5-0.3c0.5,0,1,0.1,1.4,0.4s0.7,0.6,0.9,1
			c0.2,0.4,0.4,0.9,0.5,1.4c0.1,0.5,0.1,1,0.1,1.6v5.4c0,0.9-0.1,1.7-0.3,2.4c-0.2,0.7-0.5,1.2-1,1.6c-0.4,0.4-1,0.6-1.7,0.6
			c-0.5,0-0.9-0.1-1.4-0.4c-0.5-0.2-0.9-0.6-1.3-0.9v5.6H138.6z M143.3,180.2c0.3,0,0.5-0.1,0.7-0.3c0.1-0.2,0.2-0.4,0.3-0.7
			c0.1-0.3,0.1-0.6,0.1-1v-5.8c0-0.3,0-0.6-0.1-0.9c-0.1-0.3-0.2-0.5-0.3-0.7c-0.2-0.2-0.4-0.3-0.6-0.3c-0.2,0-0.4,0.1-0.6,0.2
			c-0.2,0.1-0.4,0.2-0.6,0.4v8.7c0.2,0.1,0.4,0.2,0.6,0.3C142.8,180.1,143,180.2,143.3,180.2z"/>
		<path class="st2" d="M153.9,182.5c-0.9,0-1.6-0.1-2.2-0.4s-0.9-0.7-1.1-1.3c-0.2-0.6-0.3-1.2-0.3-2v-7.9h-1.3v-2.4h1.3v-4.2h3.5
			v4.2h1.9v2.4h-1.9v7.5c0,0.4,0.1,0.7,0.3,0.9c0.2,0.2,0.5,0.3,0.9,0.3c0.2,0,0.4,0,0.5,0c0.2,0,0.3,0,0.5-0.1v2.8
			c-0.2,0-0.5,0.1-0.9,0.1C154.7,182.5,154.3,182.5,153.9,182.5z"/>
		<path class="st2" d="M160.5,182.6c-0.6,0-1.2-0.2-1.6-0.5s-0.8-0.8-1-1.3c-0.2-0.5-0.3-1-0.3-1.6c0-0.9,0.2-1.6,0.5-2.2
			s0.7-1.1,1.3-1.5c0.5-0.4,1.1-0.7,1.7-1c0.6-0.3,1.3-0.6,1.9-0.8v-1.3c0-0.3,0-0.6-0.1-0.8c0-0.2-0.1-0.4-0.3-0.5
			c-0.1-0.1-0.3-0.2-0.6-0.2s-0.4,0.1-0.6,0.2c-0.1,0.1-0.2,0.3-0.3,0.5c-0.1,0.2-0.1,0.4-0.1,0.7l-0.1,1l-3.3-0.1
			c0.1-1.6,0.5-2.8,1.2-3.6c0.7-0.8,1.9-1.2,3.4-1.2c1.3,0,2.3,0.4,3,1.2c0.6,0.8,1,1.8,1,3.1v6.5c0,0.5,0,1,0,1.5
			c0,0.4,0.1,0.8,0.1,1.1c0,0.3,0.1,0.6,0.1,0.9h-3.1c0-0.4-0.1-0.7-0.2-1.2c-0.1-0.4-0.1-0.7-0.1-0.8c-0.2,0.6-0.4,1.1-0.9,1.5
			S161.2,182.6,160.5,182.6z M161.7,180c0.2,0,0.3,0,0.5-0.1c0.2-0.1,0.3-0.2,0.4-0.3c0.1-0.1,0.2-0.2,0.3-0.4v-3.8
			c-0.3,0.2-0.6,0.4-0.9,0.6c-0.3,0.2-0.5,0.4-0.7,0.7s-0.4,0.5-0.5,0.8s-0.2,0.6-0.2,1c0,0.5,0.1,0.9,0.3,1.1
			C161.1,179.9,161.4,180,161.7,180z"/>
		<path class="st2" d="M168.5,166.2v-2.7h3.5v2.7H168.5z M168.5,182.4v-13.9h3.5v13.9H168.5z"/>
		<path class="st2" d="M174.4,182.4v-13.9h3.5v1.4c0.5-0.5,1-0.9,1.5-1.2c0.5-0.3,1.1-0.4,1.7-0.4c0.6,0,1,0.1,1.3,0.4
			c0.3,0.3,0.6,0.7,0.8,1.1c0.2,0.5,0.3,1,0.3,1.6v10.9H180V172c0-0.4-0.1-0.7-0.2-0.9c-0.1-0.2-0.3-0.3-0.7-0.3
			c-0.2,0-0.4,0.1-0.6,0.2c-0.2,0.1-0.4,0.2-0.7,0.4v10.9H174.4z"/>
	</g>
</g>
</svg>
