<?xml version="1.0" encoding="utf-8"?>
<!-- Generator: Adobe Illustrator 24.1.2, SVG Export Plug-In . SVG Version: 6.00 Build 0)  -->
<svg version="1.1"
	 id="Layer_1" xmlns:cc="http://creativecommons.org/ns#" xmlns:dc="http://purl.org/dc/elements/1.1/" xmlns:inkscape="http://www.inkscape.org/namespaces/inkscape" xmlns:rdf="http://www.w3.org/1999/02/22-rdf-syntax-ns#" xmlns:sodipodi="http://sodipodi.sourceforge.net/DTD/sodipodi-0.dtd" xmlns:svg="http://www.w3.org/2000/svg"
	 xmlns="http://www.w3.org/2000/svg" xmlns:xlink="http://www.w3.org/1999/xlink" x="0px" y="0px" viewBox="0 0 300 300"
	 style="enable-background:new 0 0 300 300;" xml:space="preserve">
<style type="text/css">
	.st0{fill:#808080;}
	.st1{fill:url(#path257_1_);}
	.st2{fill:url(#path276_1_);}
	.st3{fill:#6D6E71;}
	.st4{fill:#FFFFFF;}
	.st5{enable-background:new    ;}
	.st6{font-family:'ArialMT';}
	.st7{font-size:14.3572px;}
</style>
<sodipodi:namedview  bordercolor="#666666" borderopacity="1" gridtolerance="10" guidetolerance="10" id="namedview413" inkscape:current-layer="Layer_1" inkscape:cx="99.163629" inkscape:cy="106.11417" inkscape:pageopacity="0" inkscape:pageshadow="2" inkscape:window-height="1016" inkscape:window-maximized="1" inkscape:window-width="1920" inkscape:window-x="1366" inkscape:window-y="27" inkscape:zoom="2.6855048" objecttolerance="10" pagecolor="#ffffff" showgrid="false">
	</sodipodi:namedview>
<g id="g240" transform="translate(-26,-27.799997)">
	<path id="path238" inkscape:connector-curvature="0" class="st0" d="M279.8,247.4C267.7,267,200.3,298,200.3,298
		s-18.2,9.8-23.2,9.8c-5,0-23.2-9.8-23.2-9.8s-67.4-31-79.4-50.6c-0.7-2.8,0-12.3,0-12.3V74l102.7-25.5L279.9,74v161
		C279.8,235.1,280.4,245.9,279.8,247.4z"/>
</g>
<g id="g282" transform="translate(-26,-27.799997)">
	<g id="g280">
		<g id="g278">
			<g id="g259">
				
					<linearGradient id="path257_1_" gradientUnits="userSpaceOnUse" x1="147.0736" y1="-433.7947" x2="365.4217" y2="-307.7314" gradientTransform="matrix(1 0 0 -1 -78 -206.2)">
					<stop  offset="5.530000e-02" style="stop-color:#70401D"/>
					<stop  offset="0.2236" style="stop-color:#8F5022"/>
					<stop  offset="0.3894" style="stop-color:#B36D30"/>
					<stop  offset="0.5653" style="stop-color:#D5893A"/>
					<stop  offset="0.7613" style="stop-color:#8F5022"/>
					<stop  offset="0.8217" style="stop-color:#A35F28"/>
					<stop  offset="0.9322" style="stop-color:#D5893A"/>
				</linearGradient>
				<path id="path257" inkscape:connector-curvature="0" class="st1" d="M274.6,244.6c-11.6,18.7-75.7,48.2-75.7,48.2
					s-17.3,9.3-22.1,9.3c-4.8,0-22.1-9.3-22.1-9.3s-64.1-29.6-75.7-48.2c-0.6-2.5,0-11.7,0-11.7V79.4l97.9-24.3l97.9,24.3v153.5
					C274.6,232.9,275.1,243.2,274.6,244.6L274.6,244.6z"/>
			</g>
			
				<linearGradient id="path276_1_" gradientUnits="userSpaceOnUse" x1="150.6143" y1="-432.1318" x2="361.5376" y2="-310.355" gradientTransform="matrix(1 0 0 -1 -78 -206.2)">
				<stop  offset="5.530000e-02" style="stop-color:#70401D"/>
				<stop  offset="0.2236" style="stop-color:#8F5022"/>
				<stop  offset="0.3894" style="stop-color:#B36D30"/>
				<stop  offset="0.5653" style="stop-color:#D5893A"/>
				<stop  offset="0.7613" style="stop-color:#8F5022"/>
				<stop  offset="0.8217" style="stop-color:#A35F28"/>
				<stop  offset="0.9322" style="stop-color:#D5893A"/>
			</linearGradient>
			<path id="path276" inkscape:connector-curvature="0" class="st2" d="M176.8,298.7h-0.1c-2.9-0.4-12.6-4.8-19.9-8.7l-0.2-0.1
				c-17.1-7.9-63.8-31.5-73.7-46.2l-0.1-0.4c-0.2-1.9-0.1-6.7,0.1-10.3v-0.2V81.9l0.7-0.1l93.2-23.1l0.2,0.1l93.7,23.1v151
				c0.1,3.7,0.2,8.7,0.1,10.5l-0.1,0.4c-9.9,14.6-56.6,38.3-73.7,46.2l-0.2,0.1c-7.3,3.9-17,8.4-19.9,8.7L176.8,298.7z M84.5,243.1
				c9.9,14.4,55.9,37.7,72.9,45.5l0.4,0.1c7.9,4.2,16.6,8.1,19,8.5c2.4-0.4,11.2-4.3,19-8.5l0.4-0.1c17-7.8,62.9-31.1,72.9-45.5
				c0.1-1.7,0-6-0.1-10.2V83l-92-22.9l-92,22.7V233C84.5,237.1,84.4,241.3,84.5,243.1z"/>
		</g>
	</g>
</g>
<g id="g288" transform="translate(-26,-27.799997)">
	<g id="g286">
		<path id="path284" inkscape:connector-curvature="0" class="st3" d="M292.7,200.4l10.3-21.9h-85.5c-6-17.8-21.9-30.5-40.7-30.5
			c-18.7,0-34.6,12.7-40.7,30.5H50.6l10.3,21.9l-10.3,21.9h91.9c7.9,11.1,20.5,18.4,34.5,18.4s26.6-7.2,34.5-18.4H303L292.7,200.4z"
			/>
	</g>
</g>
<g id="g314" transform="translate(-26,-27.799997)">
	<g id="g296">
		<g id="g294">
			<path id="path290" inkscape:connector-curvature="0" class="st3" d="M177.1,240h-0.2v-0.8h0.2c1,0,2,0,3-0.1l0.1,0.8
				C179.2,239.8,178.1,240,177.1,240z M173.5,239.7c-1.1-0.1-2.2-0.2-3.2-0.5l0.1-0.8c1.1,0.2,2.2,0.4,3.2,0.5L173.5,239.7z
				 M183.5,239.4l-0.1-0.8c1.1-0.1,2.2-0.4,3.1-0.7l0.2,0.8C185.6,239,184.6,239.2,183.5,239.4z M167.1,238.5
				c-1.1-0.2-2.2-0.6-3.1-1l0.2-0.8c1.1,0.4,2,0.7,3.1,1L167.1,238.5z M189.8,237.8l-0.2-0.8c1.1-0.4,2-0.7,3-1.2l0.4,0.8
				C192,237,190.9,237.4,189.8,237.8z M160.9,236.4c-1-0.5-2-1-3-1.6l0.4-0.7c1,0.5,1.9,1.1,2.9,1.4L160.9,236.4z M195.9,235.1
				l-0.4-0.8c1-0.5,1.9-1.1,2.9-1.7l0.4,0.7C197.8,234,196.9,234.6,195.9,235.1L195.9,235.1z M155,233.1c-1-0.6-1.8-1.3-2.8-1.9
				l0.5-0.7c0.8,0.7,1.8,1.3,2.6,1.9L155,233.1z M201.5,231.5l-0.5-0.7c0.8-0.6,1.8-1.3,2.6-2l0.5,0.7
				C203.3,230.2,202.5,230.9,201.5,231.5z M149.7,229c-0.8-0.7-1.7-1.6-2.4-2.4l0.6-0.6c0.7,0.8,1.6,1.6,2.4,2.3L149.7,229z
				 M206.7,227l-0.6-0.6c0.8-0.8,1.6-1.7,2.3-2.5l0.6,0.6C208.2,225.4,207.5,226.3,206.7,227z M145,224c-0.7-0.8-1.3-1.7-2-2.6
				l0.1-0.1v-0.6h0.4l0.1,0.1c0.6,0.8,1.3,1.7,1.9,2.5L145,224z M211.1,221.9l-0.6-0.6l0.4-0.6h3v0.8h-2.6L211.1,221.9z
				 M139.9,221.7h-3.2v-0.8h3.2V221.7z M217.2,221.7v-0.8h3.2v0.8H217.2z M133.3,221.7h-3.2v-0.8h3.2V221.7z M223.7,221.7v-0.8h3.2
				v0.8H223.7z M126.9,221.7h-3.2v-0.8h3.2V221.7z M230.3,221.7v-0.8h3.2v0.8H230.3z M120.3,221.7h-3.2v-0.8h3.2V221.7z
				 M236.7,221.7v-0.8h3.2v0.8H236.7z M113.8,221.7h-3.2v-0.8h3.2V221.7z M243.3,221.7v-0.8h3.2v0.8H243.3z M107.3,221.7H104v-0.8
				h3.2V221.7z M249.8,221.7v-0.8h3.2v0.8H249.8z M100.8,221.7h-3.2v-0.8h3.2V221.7z M256.3,221.7v-0.8h3.2v0.8H256.3z M94.2,221.7
				H91v-0.8h3.2V221.7z M262.8,221.7v-0.8h3.2v0.8H262.8z M87.8,221.7h-3.2v-0.8h3.2V221.7z M269.4,221.7v-0.8h3.2v0.8H269.4z
				 M81.2,221.7H78v-0.8h3.2V221.7z M275.8,221.7v-0.8h3.2v0.8H275.8z M74.7,221.5h-3.2v-0.8h3.2V221.5z M282.3,221.5v-0.8h3.2v0.8
				H282.3z M68.1,221.5h-3.2v-0.8h3.2V221.5z M288.9,221.5v-0.8h3.2v0.8H288.9z M61.7,221.5h-3.2v-0.8h3.2V221.5z M295.3,221.5v-0.8
				h3.2v0.8H295.3z M55.2,221.5h-3.5l0.5-1.1l0.4,0.2h2.6V221.5z M301.3,221.2l-1.6-3.1l0.7-0.4l1.6,3.1L301.3,221.2z M54.4,217.8
				l-0.7-0.4l1.6-3.1l0.7,0.4L54.4,217.8z M298.3,215.1l-1.6-3.1l0.7-0.4l1.6,3.1L298.3,215.1z M57.5,211.6l-0.7-0.4l1.6-3.1
				l0.7,0.4L57.5,211.6z M295.2,208.9l-1.6-3.1l0.7-0.4l1.6,3.1L295.2,208.9z M60.5,205.5l-0.7-0.4l1.6-3.1l0.7,0.4L60.5,205.5z
				 M292.2,202.6l-1.1-2.3l1.6-3.4l0.7,0.4l-1.4,2.9l0.8,1.8L292.2,202.6z M61.6,199.3l-1.6-3.1l0.7-0.4l1.6,3.1L61.6,199.3z
				 M294.9,194.4l-0.7-0.4l1.4-3.1l0.7,0.4L294.9,194.4z M58.4,193.1l-1.6-3.1l0.8-0.4l1.6,3.1L58.4,193.1z M297.9,188.2l-0.7-0.4
				l1.4-3.1l0.7,0.4L297.9,188.2z M55.5,187l-1.6-3.1l0.7-0.4l1.6,3.1L55.5,187z M300.8,181.9l-0.7-0.4l1.1-2.4v-0.5h1.2
				L300.8,181.9z M52.3,180.7l-0.7-1.4h3.1v0.8h-1.8l0.1,0.1L52.3,180.7z M58,180.1v-0.8h3.2v0.8H58z M64.6,180.1v-0.8h3.2v0.8H64.6
				z M71,180.1v-0.8h3.2v0.8H71z M77.6,180.1v-0.8h3.2v0.8H77.6z M84.1,180v-0.8h3.2v0.8H84.1z M90.6,180v-0.8h3.2v0.8H90.6z
				 M97.1,180v-0.8h3.2v0.8H97.1z M103.7,180v-0.8h3.2v0.8H103.7z M110.1,180v-0.8h3.2v0.8H110.1z M116.7,180v-0.8h3.2v0.8H116.7z
				 M123.2,179.9v-0.8h3.2v0.8H123.2z M129.8,179.9v-0.8h3.2v0.8H129.8z M136.2,179.9v-0.8h0.7c0.2-0.7,0.5-1.3,0.7-1.9l0.7,0.4
				c-0.2,0.7-0.6,1.4-0.8,2.2l-0.1,0.2H136.2z M216.9,179.9l-0.1-0.2c-0.1-0.2-0.1-0.4-0.2-0.6l0.7-0.4c0,0.1,0.1,0.2,0.1,0.4h2.4
				v0.8H216.9z M223.1,179.9v-0.8h3.2v0.8H223.1z M229.5,179.9v-0.8h3.2v0.8H229.5z M236.1,179.8v-0.8h3.2v0.8H236.1z M242.6,179.8
				v-0.8h3.2v0.8H242.6z M249.2,179.8v-0.8h3.2v0.8H249.2z M255.6,179.8v-0.8h3.2v0.8H255.6z M262.2,179.8v-0.8h3.2v0.8H262.2z
				 M268.7,179.7v-0.8h3.2v0.8H268.7z M275.2,179.7v-0.8h3.2v0.8H275.2z M281.7,179.7v-0.8h3.2v0.8H281.7z M288.3,179.7v-0.8h3.2
				v0.8H288.3z M294.7,179.7v-0.8h3.2v0.8H294.7z M215.3,175.8c-0.5-1.1-1-2-1.6-3.1l0.7-0.5c0.6,1,1.1,2,1.6,3.1L215.3,175.8z
				 M139.9,174.3l-0.7-0.4c0.5-1.1,1.1-2,1.7-3.1l0.7,0.5C140.9,172.2,140.4,173.3,139.9,174.3L139.9,174.3z M212.1,169.9
				c-0.6-1-1.2-1.9-1.9-2.8l0.6-0.6c0.7,1,1.3,1.9,1.9,2.9L212.1,169.9z M143.3,168.4l-0.6-0.5c0.6-1,1.3-1.9,2-2.8l0.6,0.6
				C144.6,166.6,144,167.5,143.3,168.4z M208,164.5c-0.7-0.8-1.6-1.7-2.3-2.4l0.6-0.6c0.8,0.8,1.6,1.7,2.3,2.5L208,164.5z
				 M147.5,163.2l-0.6-0.6c0.7-0.8,1.6-1.7,2.4-2.4l0.5,0.7C149,161.6,148.3,162.4,147.5,163.2z M203.2,159.7
				c-0.8-0.7-1.7-1.4-2.6-2l0.5-0.7c1,0.7,1.8,1.3,2.6,2.2L203.2,159.7z M152.4,158.6l-0.5-0.7c0.8-0.7,1.8-1.3,2.8-2l0.5,0.7
				C154.2,157.3,153.2,158,152.4,158.6z M198,155.9c-1-0.6-1.9-1.1-2.9-1.7l0.4-0.8c1,0.5,1.9,1.1,2.9,1.7L198,155.9z M157.9,154.9
				l-0.4-0.7c1-0.6,1.9-1.1,3-1.6l0.4,0.8C159.8,153.9,158.8,154.4,157.9,154.9z M192.1,152.7c-1-0.5-2-0.8-3-1.2l0.2-0.8
				c1.1,0.4,2,0.7,3.1,1.2L192.1,152.7z M163.7,152.1l-0.2-0.8c1.1-0.4,2-0.7,3.1-1.1l0.2,0.8C165.8,151.4,164.7,151.8,163.7,152.1z
				 M186,150.8c-1.1-0.2-2.2-0.5-3.2-0.6l0.1-0.8c1.1,0.1,2.2,0.4,3.2,0.6L186,150.8z M170,150.3l-0.1-0.8c1.1-0.2,2.2-0.4,3.2-0.5
				l0.1,0.8C172.1,150,171,150.2,170,150.3z M179.6,149.8c-1.1-0.1-2.2-0.1-3.2-0.1v-0.8c1.1,0,2.2,0,3.2,0.1V149.8z"/>
			<path id="path292" inkscape:connector-curvature="0" class="st4" d="M177.1,148.8c-0.2,0-0.5,0-0.7,0v0.8c0.2,0,0.5,0,0.7,0
				c0.8,0,1.7,0,2.5,0.1v-0.8C178.8,148.9,178,148.8,177.1,148.8z M173.1,149c-1.1,0.1-2.2,0.2-3.2,0.5l0.1,0.8
				c1.1-0.2,2.2-0.4,3.2-0.5L173.1,149z M182.9,149.3l-0.1,0.8c1.1,0.1,2.2,0.4,3.2,0.6l0.1-0.8C185.2,149.6,184,149.4,182.9,149.3z
				 M166.6,150.3c-1.1,0.2-2.2,0.6-3.1,1.1l0.2,0.8c1-0.4,2-0.7,3.1-1L166.6,150.3z M189.3,150.8l-0.2,0.8c1.1,0.4,2,0.7,3,1.2
				l0.4-0.8C191.4,151.5,190.4,151.2,189.3,150.8z M160.4,152.6c-1,0.5-2,1-3,1.6l0.4,0.7c1-0.6,1.9-1.1,2.9-1.6L160.4,152.6z
				 M195.4,153.5l-0.4,0.8c1,0.5,1.9,1.1,2.9,1.7l0.4-0.7C197.4,154.4,196.4,153.9,195.4,153.5z M154.6,156c-1,0.6-1.8,1.3-2.8,2
				l0.5,0.7c0.8-0.7,1.8-1.3,2.6-1.9L154.6,156z M201.2,156.9l-0.5,0.7c0.8,0.6,1.8,1.3,2.6,2l0.5-0.7
				C203,158.4,202,157.6,201.2,156.9z M149.4,160.2c-0.8,0.7-1.7,1.6-2.4,2.4l0.6,0.6c0.7-0.8,1.6-1.6,2.4-2.4L149.4,160.2z
				 M206.2,161.4l-0.6,0.6c0.8,0.8,1.6,1.6,2.3,2.4l0.6-0.6C207.9,163,207,162.2,206.2,161.4z M144.7,165.2c-0.7,0.8-1.4,1.8-2,2.8
				l0.6,0.5c0.6-1,1.3-1.8,2-2.8L144.7,165.2z M210.8,166.5l-0.6,0.6c0.7,0.8,1.3,1.8,1.9,2.8l0.7-0.5
				C212.1,168.4,211.5,167.5,210.8,166.5L210.8,166.5z M140.8,170.8c-0.6,1-1.2,2-1.7,3.1l0.7,0.4c0.5-1,1.1-2,1.7-3L140.8,170.8z
				 M214.5,172.4l-0.7,0.5c0.6,1,1.1,2,1.6,3.1l0.7-0.4C215.5,174.4,215.1,173.3,214.5,172.4z M137.8,177c-0.2,0.6-0.5,1.3-0.7,1.9
				h-0.7v0.8h1.3l0.1-0.2c0.2-0.7,0.5-1.4,0.8-2.2L137.8,177z M217.3,178.7l-0.7,0.4c0.1,0.2,0.1,0.4,0.2,0.6l0.1,0.2h2.9v-0.8h-2.4
				C217.5,178.9,217.3,178.8,217.3,178.7L217.3,178.7z M302.4,178.7h-1.2v0.5l-1.1,2.4l0.7,0.4L302.4,178.7z M298,178.7h-3.2v0.8
				h3.2V178.7z M291.5,178.7h-3.2v0.8h3.2V178.7z M284.9,178.8h-3.2v0.8h3.2V178.8z M278.5,178.8h-3.2v0.8h3.2V178.8z M271.9,178.8
				h-3.2v0.8h3.2V178.8z M265.4,178.8h-3.2v0.8h3.2V178.8z M258.9,178.8h-3.2v0.8h3.2V178.8z M252.4,178.9h-3.2v0.8h3.2V178.9z
				 M245.8,178.9h-3.2v0.8h3.2V178.9z M239.3,178.9h-3.2v0.8h3.2V178.9z M232.9,178.9h-3.2v0.8h3.2V178.9z M226.3,178.9h-3.2v0.8
				h3.2V178.9z M133,179.1h-3.2v0.8h3.2V179.1z M126.4,179.1h-3.2v0.8h3.2V179.1z M119.9,179.1h-3.2v0.8h3.2V179.1z M113.4,179.1
				h-3.2v0.8h3.2V179.1z M106.9,179.2h-3.2v0.8h3.2V179.2z M100.4,179.2h-3.2v0.8h3.2V179.2z M93.9,179.2h-3.2v0.8h3.2V179.2z
				 M87.4,179.2h-3.2v0.8h3.2V179.2z M80.8,179.2h-3.2v0.8h3.2V179.2z M74.4,179.2h-3.2v0.8h3.2V179.2z M67.8,179.3h-3.2v0.8h3.2
				V179.3z M61.3,179.3h-3.2v0.8h3.2V179.3z M54.7,179.3h-3.1l0.7,1.4l0.7-0.4l-0.1-0.1h1.8V179.3z M54.6,183.4l-0.7,0.4l1.6,3.1
				l0.7-0.4L54.6,183.4z M298.7,184.7l-1.4,3.1l0.7,0.4l1.4-3.1L298.7,184.7z M57.7,189.6L57,190l1.6,3.1l0.7-0.4L57.7,189.6z
				 M295.7,190.9l-1.4,3.1l0.7,0.4l1.4-3.1L295.7,190.9z M60.7,195.8l-0.7,0.4l1.6,3.1l0.7-0.4L60.7,195.8z M292.7,197.1l-1.6,3.4
				l1.1,2.3l0.7-0.4l-0.8-1.8l1.4-2.9L292.7,197.1z M61.3,201.9l-1.6,3.1l0.7,0.4l1.6-3.1L61.3,201.9z M294.4,205.4l-0.7,0.4
				l1.6,3.1l0.7-0.4L294.4,205.4z M58.3,208.1l-1.6,3.1l0.7,0.4l1.6-3.1L58.3,208.1z M297.5,211.5l-0.7,0.4l1.6,3.1l0.7-0.4
				L297.5,211.5z M55.2,214.4l-1.6,3.1l0.7,0.4l1.6-3.1L55.2,214.4z M300.5,217.7l-0.7,0.4l1.6,3.1l0.7-0.4L300.5,217.7z
				 M52.2,220.5l-0.5,1.1h3.5v-0.8h-2.6L52.2,220.5z M298.7,220.7h-3.2v0.8h3.2V220.7z M58.4,220.7v0.8h3.2v-0.8H58.4z M292.1,220.7
				h-3.2v0.8h3.2V220.7z M64.9,220.7v0.8h3.2v-0.8H64.9z M285.7,220.7h-3.2v0.8h3.2V220.7z M71.5,220.7v0.8h3.2v-0.8H71.5z
				 M279.1,220.7h-3.2v0.8h3.2V220.7z M78,220.7v0.8h3.2v-0.8H78z M272.6,220.7h-3.2v0.8h3.2V220.7z M84.5,220.7v0.8h3.2v-0.8H84.5z
				 M266,220.7h-3.2v0.8h3.2V220.7z M91,220.7v0.8h3.2v-0.8H91z M259.6,220.7h-3.2v0.8h3.2V220.7z M97.6,220.7v0.8h3.2v-0.8H97.6z
				 M253,220.7h-3.2v0.8h3.2V220.7z M104,220.7v0.8h3.2v-0.8H104z M246.5,220.7h-3.2v0.8h3.2V220.7z M110.6,220.8v0.8h3.2v-0.8
				H110.6z M239.9,220.8h-3.2v0.8h3.2V220.8z M117.1,220.8v0.8h3.2v-0.8H117.1z M233.5,220.8h-3.2v0.8h3.2V220.8z M123.7,220.8v0.8
				h3.2v-0.8H123.7z M226.9,220.8h-3.2v0.8h3.2V220.8z M130.1,220.8v0.8h3.2v-0.8H130.1z M220.4,220.8h-3.2v0.8h3.2V220.8z
				 M136.7,220.8v0.8h3.2v-0.8H136.7z M213.9,220.8h-3l-0.4,0.6l0.6,0.6l0.1-0.2h2.6V220.8z M143.5,220.8h-0.4v0.6l-0.1,0.1
				c0.6,0.8,1.3,1.8,2,2.6l0.6-0.6c-0.7-0.8-1.3-1.7-1.9-2.5L143.5,220.8z M208.4,223.9c-0.7,0.8-1.4,1.7-2.3,2.5l0.6,0.6
				c0.8-0.8,1.6-1.7,2.3-2.5L208.4,223.9z M147.8,226l-0.6,0.6c0.8,0.8,1.6,1.6,2.4,2.4l0.5-0.7C149.4,227.5,148.7,226.8,147.8,226z
				 M203.7,228.7c-0.8,0.7-1.7,1.4-2.6,2l0.5,0.7c0.8-0.7,1.8-1.4,2.6-2.2L203.7,228.7z M152.8,230.4l-0.5,0.7
				c0.8,0.7,1.8,1.3,2.8,1.9l0.5-0.7C154.5,231.7,153.7,231.1,152.8,230.4z M198.4,232.7c-1,0.6-1.9,1.2-2.9,1.7l0.4,0.8
				c1-0.5,1.9-1.1,2.9-1.7L198.4,232.7z M158.2,234.1l-0.4,0.7c1,0.6,1.9,1.1,3,1.6l0.4-0.8C160.3,235.1,159.2,234.6,158.2,234.1
				L158.2,234.1z M192.6,235.8c-1,0.5-2,0.8-3,1.2l0.2,0.8c1.1-0.4,2-0.7,3.1-1.2L192.6,235.8z M164.2,236.7l-0.2,0.8
				c1.1,0.4,2.2,0.7,3.1,1l0.2-0.8C166.2,237.4,165.3,237.1,164.2,236.7z M186.5,237.8c-1.1,0.2-2.2,0.5-3.1,0.7l0.1,0.8
				c1.1-0.1,2.2-0.4,3.2-0.7L186.5,237.8z M170.4,238.4l-0.1,0.8c1.1,0.2,2.2,0.4,3.2,0.5l0.1-0.8
				C172.6,238.8,171.5,238.6,170.4,238.4z M180.1,238.9c-1,0.1-2,0.1-3,0.1h-0.2v0.8h0.2c1,0,2,0,3-0.1V238.9z"/>
		</g>
	</g>
	<g id="g304">
		<g id="g302">
			<polygon id="polygon298" class="st4" points="85.7,196.9 89.6,197.5 86.8,200.4 87.4,204.3 84.1,202.4 80.7,204.3 81.4,200.4 
				78.7,197.5 82.4,196.9 84.1,193.3 			"/>
			<path id="path300" inkscape:connector-curvature="0" class="st4" d="M84.1,194.7l1,2.2l0.2,0.6l0.6,0.1l2.4,0.4l-1.8,1.8
				l-0.4,0.5l0.1,0.6l0.4,2.5l-1.9-1.1l-0.6-0.4l-0.6,0.4l-1.9,1.1l0.4-2.5l0.1-0.6l-0.4-0.5l-1.8-1.8l2.4-0.4l0.6-0.1l0.2-0.6
				L84.1,194.7 M84.1,191.9l-2,4.4l-4.5,0.7l3.4,3.5l-0.8,4.9l4.1-2.3l4.1,2.3l-0.8-4.9l3.4-3.5l-4.5-0.7L84.1,191.9z"/>
		</g>
	</g>
	<g id="g312">
		<g id="g310">
			<polygon id="polygon306" class="st4" points="271.4,200.4 272,204.3 268.8,202.4 265.4,204.3 266,200.4 263.3,197.5 267.1,196.9 
				268.8,193.3 270.3,196.9 274.2,197.5 			"/>
			<path id="path308" inkscape:connector-curvature="0" class="st4" d="M268.8,194.7l1,2.2l0.2,0.6l0.6,0.1l2.3,0.4l-1.8,1.8
				l-0.4,0.5l0.1,0.6l0.4,2.5l-1.9-1.1l-0.6-0.4l-0.6,0.4l-1.9,1.1l0.4-2.5l0.1-0.6l-0.4-0.5l-1.8-1.8l2.4-0.4l0.6-0.1l0.2-0.6
				L268.8,194.7 M268.8,191.9l-2,4.4l-4.5,0.7l3.4,3.5l-0.8,4.9l4.1-2.3l4.1,2.3l-0.8-4.9l3.4-3.5l-4.5-0.7L268.8,191.9z"/>
		</g>
	</g>
</g>
<g>
	<g class="st5">
		<path class="st4" d="M92.3,183.8c-1.7,0-3-0.4-4.1-1c-1-0.6-1.7-1.6-2-2.8c-0.4-1.2-0.6-2.5-0.6-4.1v-8.4c0-1.6,0.2-3,0.6-4.2
			c0.4-1.2,1.1-2,2-2.6c1-0.6,2.3-1,4.1-1c1.7,0,2.9,0.2,3.8,0.8c1,0.6,1.6,1.3,1.9,2.4c0.4,1,0.6,2.2,0.6,3.6v1.9h-4.5v-2.2
			c0-0.5,0-1.1-0.1-1.6c0-0.5-0.2-0.8-0.5-1.2c-0.2-0.2-0.7-0.5-1.3-0.5c-0.6,0-1.1,0.1-1.3,0.5s-0.5,0.7-0.5,1.2
			c-0.1,0.5-0.1,1.1-0.1,1.7v10.5c0,0.6,0,1.2,0.1,1.7c0.1,0.5,0.4,0.8,0.6,1.1c0.2,0.2,0.7,0.4,1.2,0.4c0.6,0,1.1-0.1,1.3-0.5
			c0.2-0.4,0.4-0.7,0.5-1.2c0.1-0.5,0.1-1.1,0.1-1.6v-2.3h4.5v1.9c0,1.3-0.2,2.5-0.6,3.6s-1.1,1.9-1.9,2.5
			C95.1,183.4,93.9,183.8,92.3,183.8z"/>
		<path class="st4" d="M101.2,183.4v-23.2h4.2v8.1c0.6-0.6,1.2-1.1,1.9-1.3c0.6-0.4,1.3-0.5,2.2-0.5c0.6,0,1.2,0.1,1.7,0.5
			c0.5,0.4,0.7,0.8,1,1.3c0.2,0.6,0.4,1.2,0.4,1.9v13h-4.3v-12.2c0-0.5-0.1-0.8-0.2-1.1c-0.1-0.2-0.4-0.4-0.8-0.4
			c-0.2,0-0.5,0.1-0.7,0.2c-0.2,0.1-0.6,0.2-0.8,0.5v13L101.2,183.4L101.2,183.4z"/>
		<path class="st4" d="M120.3,183.8c-1.2,0-2.2-0.2-3-0.7c-0.8-0.5-1.4-1.1-1.8-2c-0.4-0.8-0.6-1.9-0.6-3.1v-5.6
			c0-1.3,0.2-2.3,0.6-3.2s1.1-1.6,1.9-1.9s1.8-0.7,3-0.7s2.3,0.2,3,0.7s1.3,1.1,1.7,2c0.4,0.8,0.6,1.9,0.6,3.2v2.9h-6.6v3.2
			c0,0.5,0,0.8,0.1,1.2c0.1,0.4,0.2,0.5,0.5,0.6c0.2,0.1,0.5,0.2,0.7,0.2c0.2,0,0.5-0.1,0.7-0.2c0.2-0.1,0.4-0.4,0.5-0.6
			c0.1-0.2,0.1-0.6,0.1-1.1v-1.6h3.9v1.4c0,1.7-0.5,3-1.3,3.8C123.3,183.3,121.9,183.8,120.3,183.8z M119,173.3h2.5v-1.7
			c0-0.5,0-0.8-0.1-1.2c-0.1-0.2-0.2-0.5-0.5-0.6c-0.2-0.1-0.5-0.2-0.7-0.2s-0.5,0.1-0.7,0.2c-0.1,0.1-0.4,0.4-0.4,0.7
			c-0.1,0.4-0.1,0.8-0.1,1.4V173.3z"/>
		<path class="st4" d="M133.2,183.8c-1.2,0-2.2-0.2-3-0.7c-0.8-0.5-1.4-1.1-1.8-2c-0.4-0.8-0.6-1.9-0.6-3.1v-5.6
			c0-1.3,0.2-2.3,0.6-3.2s1.1-1.6,1.9-1.9s1.8-0.7,3-0.7c1.2,0,2.3,0.2,3,0.7c0.7,0.5,1.3,1.1,1.7,2c0.4,0.8,0.6,1.9,0.6,3.2v2.9
			H132v3.2c0,0.5,0,0.8,0.1,1.2s0.2,0.5,0.5,0.6c0.2,0.1,0.5,0.2,0.7,0.2c0.2,0,0.5-0.1,0.7-0.2c0.2-0.1,0.4-0.4,0.5-0.6
			s0.1-0.6,0.1-1.1v-1.6h3.9v1.4c0,1.7-0.5,3-1.3,3.8C136.2,183.3,134.9,183.8,133.2,183.8z M132,173.3h2.5v-1.7
			c0-0.5,0-0.8-0.1-1.2c-0.1-0.2-0.2-0.5-0.5-0.6c-0.2-0.1-0.5-0.2-0.7-0.2s-0.5,0.1-0.7,0.2c-0.1,0.1-0.4,0.4-0.4,0.7
			c-0.1,0.4-0.1,0.8-0.1,1.4V173.3z"/>
		<path class="st4" d="M141.1,183.4v-16.6h4.3v2.6c0.6-1,1.1-1.7,1.7-2.2c0.5-0.5,1.2-0.7,1.9-0.7c0.1,0,0.2,0,0.4,0s0.2,0,0.2,0.1
			v4.3c-0.2-0.1-0.5-0.1-0.7-0.2c-0.2-0.1-0.5-0.1-0.8-0.1c-0.5,0-1,0.1-1.4,0.4c-0.5,0.2-0.8,0.7-1.2,1.2v11.1h-4.3V183.4z"/>
		<path class="st4" d="M151.6,183.4v-23.2h4.3v23.2H151.6z"/>
		<path class="st4" d="M164.1,183.8c-1.2,0-2.2-0.2-3-0.7c-0.8-0.5-1.4-1.1-1.8-2c-0.4-0.8-0.6-1.9-0.6-3.1v-5.6
			c0-1.3,0.2-2.3,0.6-3.2s1.1-1.6,1.9-1.9c0.8-0.5,1.8-0.7,3-0.7c1.2,0,2.3,0.2,3,0.7c0.7,0.5,1.3,1.1,1.7,2
			c0.4,0.8,0.6,1.9,0.6,3.2v2.9h-6.6v3.2c0,0.5,0,0.8,0.1,1.2c0.1,0.4,0.2,0.5,0.5,0.6c0.2,0.1,0.5,0.2,0.7,0.2s0.5-0.1,0.7-0.2
			c0.2-0.1,0.4-0.4,0.5-0.6s0.1-0.6,0.1-1.1v-1.6h3.9v1.4c0,1.7-0.5,3-1.3,3.8C167,183.3,165.7,183.8,164.1,183.8z M162.7,173.3h2.5
			v-1.7c0-0.5,0-0.8-0.1-1.2c-0.1-0.4-0.2-0.5-0.5-0.6c-0.2-0.1-0.5-0.2-0.7-0.2s-0.5,0.1-0.7,0.2c-0.1,0.1-0.4,0.4-0.4,0.7
			c-0.1,0.4-0.1,0.8-0.1,1.4V173.3z"/>
		<path class="st4" d="M175.1,183.8c-0.7,0-1.4-0.2-2-0.6c-0.6-0.4-1-1-1.2-1.6c-0.2-0.6-0.5-1.2-0.5-1.9c0-1.1,0.2-1.9,0.6-2.6
			c0.4-0.7,1-1.3,1.6-1.8c0.6-0.5,1.3-0.8,2.2-1.2c0.8-0.4,1.6-0.7,2.4-1v-1.6c0-0.4,0-0.7-0.1-1c0-0.2-0.1-0.5-0.4-0.6
			c-0.1-0.1-0.4-0.2-0.7-0.2s-0.5,0.1-0.7,0.2c-0.1,0.1-0.2,0.4-0.4,0.6c-0.1,0.2-0.1,0.5-0.1,0.8l-0.1,1.2l-3.8-0.4
			c0.1-1.9,0.6-3.4,1.6-4.3c1-1,2.3-1.4,4.1-1.4c1.7,0,2.9,0.5,3.7,1.4s1.2,2.2,1.2,3.7v7.8c0,0.6,0,1.2,0,1.8c0,0.5,0.1,1,0.1,1.3
			s0.1,0.7,0.1,1.1h-3.8c0-0.5-0.1-0.8-0.2-1.4c-0.1-0.5-0.1-0.8-0.1-1c-0.2,0.7-0.6,1.3-1.1,1.8C176.6,183.4,176,183.8,175.1,183.8
			z M176.6,180.7c0.2,0,0.4,0,0.6-0.1c0.2-0.1,0.4-0.2,0.5-0.4c0.1-0.1,0.2-0.2,0.4-0.5v-4.5c-0.4,0.2-0.7,0.5-1.1,0.7
			c-0.4,0.2-0.6,0.5-0.8,0.8c-0.2,0.2-0.5,0.6-0.6,1c-0.1,0.4-0.2,0.7-0.2,1.2c0,0.6,0.1,1.1,0.4,1.3
			C175.9,180.5,176.3,180.7,176.6,180.7z"/>
		<path class="st4" d="M188.5,183.8c-1.2,0-2.2-0.5-2.9-1.3c-0.7-1-1-2.3-1-4.2v-6.1c0-1.1,0.1-2,0.4-2.9c0.2-0.8,0.7-1.6,1.2-2
			c0.5-0.5,1.3-0.7,2.2-0.7c0.6,0,1.1,0.1,1.7,0.4c0.6,0.2,1,0.6,1.4,1v-7.7h4.3v23.2h-4.3v-1.2c-0.5,0.5-1,0.8-1.4,1.1
			C189.5,183.6,189.1,183.8,188.5,183.8z M190.3,180.9c0.2,0,0.4,0,0.6-0.1c0.2-0.1,0.5-0.2,0.7-0.4v-10.5c-0.2-0.1-0.5-0.2-0.6-0.4
			c-0.1-0.1-0.5-0.1-0.7-0.1c-0.5,0-0.8,0.2-1.1,0.6c-0.2,0.5-0.2,1-0.2,1.6v7.1c0,0.5,0,0.8,0.1,1.2s0.2,0.6,0.4,0.8
			C189.7,180.8,189.9,180.9,190.3,180.9z"/>
		<path class="st4" d="M203.9,183.8c-1.2,0-2.2-0.2-3-0.7c-0.8-0.5-1.4-1.1-1.8-2c-0.4-0.8-0.6-1.9-0.6-3.1v-5.6
			c0-1.3,0.2-2.3,0.6-3.2s1.1-1.6,1.9-1.9c0.8-0.5,1.8-0.7,3-0.7c1.2,0,2.3,0.2,3,0.7c0.7,0.5,1.3,1.1,1.7,2
			c0.4,0.8,0.6,1.9,0.6,3.2v2.9h-6.6v3.2c0,0.5,0,0.8,0.1,1.2c0.1,0.4,0.2,0.5,0.5,0.6c0.2,0.1,0.5,0.2,0.7,0.2
			c0.2,0,0.5-0.1,0.7-0.2c0.2-0.1,0.4-0.4,0.5-0.6c0.1-0.2,0.1-0.6,0.1-1.1v-1.6h3.9v1.4c0,1.7-0.5,3-1.3,3.8
			C206.9,183.3,205.6,183.8,203.9,183.8z M202.6,173.3h2.5v-1.7c0-0.5,0-0.8-0.1-1.2c-0.1-0.4-0.2-0.5-0.5-0.6
			c-0.2-0.1-0.5-0.2-0.7-0.2c-0.2,0-0.5,0.1-0.7,0.2c-0.1,0.1-0.4,0.4-0.4,0.7c-0.1,0.4-0.1,0.8-0.1,1.4L202.6,173.3L202.6,173.3z"
			/>
		<path class="st4" d="M211.8,183.4v-16.6h4.3v2.6c0.6-1,1.1-1.7,1.7-2.2c0.5-0.5,1.2-0.7,1.9-0.7c0.1,0,0.2,0,0.4,0s0.2,0,0.2,0.1
			v4.3c-0.2-0.1-0.5-0.1-0.7-0.2c-0.2-0.1-0.5-0.1-0.8-0.1c-0.5,0-1,0.1-1.4,0.4c-0.5,0.2-0.8,0.7-1.2,1.2v11.1h-4.3V183.4z"/>
	</g>
</g>
<g id="g330" transform="translate(-26,-27.799997)">
	<g id="g322">
		<g id="g320">
			<rect id="rect318" x="133.3" y="257.2" class="st4" width="32.9" height="0.5"/>
		</g>
	</g>
	<g id="g328">
		<g id="g326">
			<rect id="rect324" x="188.1" y="257.1" class="st4" width="32.9" height="0.5"/>
		</g>
	</g>
</g>
<g id="g352" transform="translate(-26,-27.799997)">
	<g id="g350">
		<rect id="rect348" x="104.9" y="131.1" class="st4" width="149.3" height="0.5"/>
	</g>
</g>
<g id="g408" transform="translate(-26,-27.799997)">
	<g id="g406">
		<rect id="rect404" x="104.9" y="102.1" class="st4" width="149.3" height="0.5"/>
	</g>
</g>
<text transform="matrix(1 0 0 1 95.2017 94.792)" class="st4 st6 st7">APEX SYSTEMS</text>
<g id="Layer_2_1_">
	<g id="Layer_1-2">
		<g id="Apex_Logo">
			<path class="st4" d="M145.8,227c0,0,2.3-2,5.7-2c3.5,0,5.9,2,5.9,2H145.8z"/>
			<path class="st4" d="M145.5,227.2h12.1c0,0,1.1,1,1.3,1.4h-14.7C144.2,228.7,144.9,227.7,145.5,227.2z"/>
			<path class="st4" d="M144,228.9H159c0,0,0.7,1,0.7,1.3h-6.9l-1.3-0.8l-1.3,0.8h-6.9C143.2,230.2,143.6,229.4,144,228.9z"/>
			<path class="st4" d="M143.1,230.3h6.6l-1.7,1.1h-5.4C142.8,231.4,143,230.7,143.1,230.3z"/>
			<path class="st4" d="M142.8,231.7h5l-1.2,0.8h-3.9C142.5,232.1,142.6,231.9,142.8,231.7z"/>
			<path class="st4" d="M142.5,232.6h3.7l-0.7,0.5h-3C142.4,233,142.4,232.7,142.5,232.6z"/>
			<path class="st4" d="M142.4,233.3h2.6l-0.5,0.4h-2.3C142.4,233.6,142.4,233.6,142.4,233.3z"/>
			<polygon class="st4" points="142.4,233.8 144.2,233.8 143.8,234.1 142.4,234.1 			"/>
			<polygon class="st4" points="142.4,234.3 143.5,234.3 143.1,234.5 142.4,234.5 			"/>
			<polygon class="st4" points="142.4,234.7 142.9,234.7 142.4,235 			"/>
			<polygon class="st4" points="142.8,235 151.5,232.1 160.2,235 			"/>
			<path class="st4" d="M159.9,230.3h-6.7l1.7,1.1h5.4C160.2,231.1,160.1,230.7,159.9,230.3z"/>
			<path class="st4" d="M155.2,231.7h5.1c0,0,0.1,0.5,0.1,0.7h-4.1L155.2,231.7z"/>
			<path class="st4" d="M157,232.6h3.6c0,0.1,0.1,0.2,0.1,0.4h-3.1L157,232.6z"/>
			<path class="st4" d="M158.1,233.3h2.6c0,0,0,0.1,0,0.2h-2.3L158.1,233.3z"/>
			<polygon class="st4" points="158.9,233.8 160.7,233.8 160.7,234.1 159.3,234.1 			"/>
			<polygon class="st4" points="159.6,234.3 160.7,234.3 160.7,234.5 160,234.5 			"/>
			<polygon class="st4" points="160.3,234.7 160.7,234.7 160.7,235 			"/>
		</g>
	</g>
</g>
</svg>
