<?xml version="1.0" encoding="utf-8"?>
<!-- Generator: Adobe Illustrator 24.1.2, SVG Export Plug-In . SVG Version: 6.00 Build 0)  -->
<svg version="1.1"
	 id="Layer_1" xmlns:cc="http://creativecommons.org/ns#" xmlns:dc="http://purl.org/dc/elements/1.1/" xmlns:inkscape="http://www.inkscape.org/namespaces/inkscape" xmlns:rdf="http://www.w3.org/1999/02/22-rdf-syntax-ns#" xmlns:sodipodi="http://sodipodi.sourceforge.net/DTD/sodipodi-0.dtd" xmlns:svg="http://www.w3.org/2000/svg"
	 xmlns="http://www.w3.org/2000/svg" xmlns:xlink="http://www.w3.org/1999/xlink" x="0px" y="0px" viewBox="0 0 140.2 141.8"
	 style="enable-background:new 0 0 140.2 141.8;" xml:space="preserve">
<style type="text/css">
	.st0{fill-rule:evenodd;clip-rule:evenodd;fill:#EE9F2D;}
	.st1{fill:#FFFFFF;}
</style>
<sodipodi:namedview  bordercolor="#666666" borderopacity="1" gridtolerance="10" guidetolerance="10" id="namedview324" inkscape:current-layer="Layer_1" inkscape:cx="-0.84999084" inkscape:cy="84.462277" inkscape:pageopacity="0" inkscape:pageshadow="2" inkscape:window-height="768" inkscape:window-maximized="1" inkscape:window-width="1366" inkscape:window-x="0" inkscape:window-y="0" inkscape:zoom="1.8977072" objecttolerance="10" pagecolor="#ffffff" showgrid="false">
	</sodipodi:namedview>
<g id="g321" transform="translate(-71.299995,-70.900002)">
	<g id="g315">
		<g id="g313">
			<g id="g311">
				<g id="g309">
					<ellipse id="ellipse307" class="st0" cx="141.4" cy="141.8" rx="70.1" ry="70.9"/>
				</g>
			</g>
		</g>
	</g>
	<g id="g319">
		<g id="layer1_1_">
			<path id="path3395_1_" inkscape:connector-curvature="0" class="st1" d="M141.8,91c-11.5,0-20.8,9.8-20.8,21.8
				c0.1,7.6,4,14,8.1,20c-4.5-3.4-9.6-5.5-15-5.5c-11.5,0-20.8,9.8-20.8,21.8c0,12,9.3,21.9,20.8,21.9c9.3-0.2,16.7-6.6,24-12.1
				c-1.3,16.3-4,25.5-19.4,29.1h46.1c-15.4-3.6-18.1-12.8-19.4-29.1c7.2,6.2,14.8,11.4,24,12.1c11.5,0,20.8-9.8,20.8-21.9
				c0-12.1-9.3-21.8-20.8-21.8c-5.6,0-10.4,2.5-15,5.5c4.6-6,7.7-12.5,8.1-20C162.6,100.7,153.3,91,141.8,91L141.8,91z"/>
		</g>
	</g>
</g>
</svg>
