<?xml version="1.0" encoding="utf-8"?>
<!-- Generator: Adobe Illustrator 24.1.2, SVG Export Plug-In . SVG Version: 6.00 Build 0)  -->
<svg version="1.1"
	 id="Layer_1" xmlns:cc="http://creativecommons.org/ns#" xmlns:dc="http://purl.org/dc/elements/1.1/" xmlns:inkscape="http://www.inkscape.org/namespaces/inkscape" xmlns:rdf="http://www.w3.org/1999/02/22-rdf-syntax-ns#" xmlns:sodipodi="http://sodipodi.sourceforge.net/DTD/sodipodi-0.dtd" xmlns:svg="http://www.w3.org/2000/svg"
	 xmlns="http://www.w3.org/2000/svg" xmlns:xlink="http://www.w3.org/1999/xlink" x="0px" y="0px" viewBox="0 0 300 300"
	 style="enable-background:new 0 0 300 300;" xml:space="preserve">
<style type="text/css">
	.st0{fill:#D1D3D4;}
	.st1{fill:#999999;}
	.st2{fill:url(#path657_1_);}
	.st3{fill:#BCBEC0;}
	.st4{fill:#FFFFFF;}
	.st5{fill:#6D6E71;}
	.st6{enable-background:new    ;}
	.st7{font-family:'ArialMT';}
	.st8{font-size:14.242px;}
</style>
<sodipodi:namedview  bordercolor="#666666" borderopacity="1" gridtolerance="10" guidetolerance="10" id="namedview796" inkscape:current-layer="Layer_1" inkscape:cx="137.4702" inkscape:cy="105.82629" inkscape:pageopacity="0" inkscape:pageshadow="2" inkscape:window-height="1016" inkscape:window-maximized="1" inkscape:window-width="1920" inkscape:window-x="1366" inkscape:window-y="27" inkscape:zoom="2.8284271" objecttolerance="10" pagecolor="#ffffff" showgrid="false">
	</sodipodi:namedview>
<g id="g636" transform="translate(-27.7,-19.799997)">
	<path id="path634" inkscape:connector-curvature="0" class="st0" d="M269.2,234.8c0,1.9-84.1,51.2-91,51.2
		c-6.9,0-91.1-49.1-91.1-51.2c0-2,0-166.6,0-170.3c0-3.7,55.7-12.2,91.1-12.2s91.1,8.8,91.1,12.2
		C269.2,68.1,269.2,232.9,269.2,234.8z"/>
</g>
<g id="g642" transform="translate(-27.7,-19.799997)">
	<path id="path638" inkscape:connector-curvature="0" class="st1" d="M278,240.5c0,2-92.1,55.8-99.7,55.8s-99.8-53.6-99.8-55.8
		c0-2.1,0-181.9,0-185.9s60.9-13.4,99.7-13.4s99.7,9.6,99.7,13.4C278,58.5,278,238.4,278,240.5L278,240.5z"/>
	<path id="path640" inkscape:connector-curvature="0" class="st1" d="M178.3,296.8c-5,0-41.8-20.8-52.9-27.2
		c-11.7-6.8-23.6-13.6-32.5-19.1c-14.7-9-14.7-9.6-14.7-10.1V54.7c0-3.2,24.9-7.1,35.6-8.7c23-3.3,47.1-5.2,64.4-5.2
		s41.4,2,64.4,5.2c8.3,1.2,35.6,5.3,35.6,8.5v185.9c0,0.4,0,1.1-14.7,10c-8.9,5.5-20.8,12.5-32.5,19.1
		C220,276,183.2,296.8,178.3,296.8L178.3,296.8z M79,240.4c1.3,1.7,23.4,15.1,47.6,29c28.8,16.4,48.7,26.6,51.7,26.6
		s22.9-10.2,51.6-26.6c24.2-13.8,46.2-27.2,47.6-28.8V54.7c-1.2-3.3-59.3-12.9-99.3-12.9c-40.4,0-98.4,9.6-99.3,12.9L79,240.4z"/>
</g>
<g id="g665" transform="translate(-27.7,-19.799997)">
	<g id="g663">
		<g id="g659">
			
				<linearGradient id="path657_1_" gradientUnits="userSpaceOnUse" x1="126.2728" y1="747.7665" x2="341.4201" y2="623.5513" gradientTransform="matrix(1 0 0 1 -55.4 -536)">
				<stop  offset="5.530000e-02" style="stop-color:#616B79"/>
				<stop  offset="0.2236" style="stop-color:#BEC5CD"/>
				<stop  offset="0.3894" style="stop-color:#A6ADB7"/>
				<stop  offset="0.5653" style="stop-color:#AEB5BD"/>
				<stop  offset="0.7613" style="stop-color:#E3E2E9"/>
				<stop  offset="0.9322" style="stop-color:#DFDFE7"/>
			</linearGradient>
			<path id="path657" inkscape:connector-curvature="0" class="st2" d="M271.3,236.3c0,1.9-86,52.2-93,52.2
				c-7.1,0-93.2-50.2-93.2-52.2s0-170.3,0-174c0-3.7,56.8-12.6,93.2-12.6s93.2,9,93.2,12.6C271.3,65.8,271.3,234.4,271.3,236.3z"/>
		</g>
		<path id="path661" inkscape:connector-curvature="0" class="st3" d="M178.2,289.4c-4.6,0-36.2-17.8-49.6-25.5
			c-11-6.3-22.1-12.8-30.4-17.9c-14-8.5-14-9.1-14-9.9V62.3c0-1.1,0.8-2.3,10.1-4.4c5.9-1.3,14.2-2.8,23.6-4.2
			c21.5-3.1,44-4.9,60.3-4.9c16.1,0,38.7,1.9,60.3,5c9.3,1.3,17.7,2.8,23.6,4.2c10.1,2.3,10.1,3.4,10.1,4.3v174c0,0.7,0,1.2-14,9.7
			c-8.3,5.1-19.5,11.6-30.4,17.9C214.3,271.6,182.7,289.4,178.2,289.4L178.2,289.4z M85.8,236c4.5,4.4,85.6,51.6,92.5,51.6
			c6.8,0,87.7-47.2,92.2-51.6V62.5c-3.3-3.2-56.6-11.9-92.3-11.9c-36.9,0-89.1,8.5-92.3,11.9V236z"/>
	</g>
</g>
<g id="g671" transform="translate(-27.7,-19.799997)">
	<g id="g669">
		<path id="path667" inkscape:connector-curvature="0" class="st4" d="M178.9,284.8l-0.1-0.8c0.4-0.1,0.9-0.2,1.5-0.5l0.2,0.8
			C180,284.5,179.4,284.7,178.9,284.8z M177.1,284.7c-0.5-0.1-0.9-0.2-1.7-0.6l0.2-0.8c0.6,0.2,1.2,0.4,1.5,0.5L177.1,284.7z
			 M182.1,283.6l-0.2-0.8c0.5-0.2,0.9-0.5,1.5-0.7l0.4,0.8C183.2,283.3,182.6,283.4,182.1,283.6L182.1,283.6z M173.9,283.5
			c-0.5-0.2-0.9-0.5-1.5-0.7l0.4-0.8c0.6,0.2,1.1,0.5,1.5,0.7L173.9,283.5z M185.2,282.3l-0.4-0.8c0.5-0.2,0.9-0.5,1.5-0.7l0.4,0.8
			C186.2,281.8,185.7,282.1,185.2,282.3z M170.8,282.2c-0.5-0.2-0.9-0.5-1.5-0.7l0.4-0.8c0.5,0.2,1.1,0.5,1.5,0.7L170.8,282.2z
			 M188.3,280.8l-0.4-0.8c0.5-0.2,0.9-0.5,1.5-0.7l0.4,0.8C189.2,280.3,188.8,280.5,188.3,280.8z M167.9,280.8
			c-0.5-0.2-0.9-0.5-1.5-0.7l0.4-0.8c0.5,0.2,1.1,0.5,1.5,0.7L167.9,280.8z M191.3,279.4l-0.4-0.8c0.5-0.2,0.9-0.5,1.5-0.7l0.4,0.8
			C192.2,278.8,191.7,279.1,191.3,279.4z M164.9,279.2c-0.5-0.2-0.9-0.5-1.5-0.7l0.4-0.8c0.5,0.2,0.9,0.5,1.5,0.7L164.9,279.2z
			 M194.2,277.8l-0.4-0.8c0.5-0.2,0.9-0.5,1.5-0.8l0.4,0.8C195.2,277.2,194.7,277.6,194.2,277.8z M161.9,277.7
			c-0.5-0.2-0.9-0.5-1.5-0.8l0.4-0.8c0.5,0.2,0.9,0.5,1.5,0.8L161.9,277.7z M197.2,276.3l-0.4-0.8c0.5-0.2,0.9-0.5,1.4-0.8l0.4,0.8
			C198.1,275.7,197.7,275.9,197.2,276.3z M159,276.1c-0.5-0.2-0.9-0.5-1.4-0.8l0.4-0.8c0.5,0.2,0.9,0.5,1.4,0.8L159,276.1z
			 M200.2,274.6l-0.4-0.8c0.5-0.2,0.9-0.5,1.4-0.8l0.4,0.8C201.1,274.1,200.6,274.4,200.2,274.6z M156,274.6
			c-0.5-0.2-0.9-0.5-1.4-0.8l0.4-0.8c0.5,0.2,0.9,0.5,1.4,0.8L156,274.6z M203.1,273.1l-0.4-0.8l1.4-0.8l0.4,0.8L203.1,273.1z
			 M153,272.9l-1.4-0.8l0.4-0.8l1.4,0.8L153,272.9z M206.1,271.4l-0.4-0.8l1.4-0.8l0.4,0.8L206.1,271.4z M150.1,271.4
			c-0.5-0.2-0.9-0.6-1.4-0.8l0.4-0.8c0.5,0.2,0.9,0.6,1.4,0.8L150.1,271.4z M209.1,269.7l-0.4-0.8l1.4-0.8l0.4,0.8L209.1,269.7z
			 M147.1,269.7l-1.4-0.8l0.4-0.8l1.4,0.8L147.1,269.7z M211.9,268.2l-0.4-0.8l1.4-0.8l0.4,0.8L211.9,268.2z M144.1,268.1l-1.4-0.8
			l0.4-0.8l1.4,0.8L144.1,268.1z M214.9,266.5l-0.4-0.8l1.4-0.8l0.4,0.8L214.9,266.5z M141.3,266.5l-1.4-0.8l0.4-0.8l1.4,0.8
			L141.3,266.5z M217.8,264.9l-0.4-0.8l1.4-0.8l0.4,0.8L217.8,264.9z M138.3,264.9l-1.4-0.8l0.4-0.8l1.4,0.8L138.3,264.9z
			 M220.7,263.2l-0.4-0.8l1.4-0.8l0.4,0.8L220.7,263.2z M135.4,263.2l-1.4-0.8l0.4-0.8l1.4,0.8L135.4,263.2z M223.7,261.6l-0.4-0.8
			l1.4-0.8l0.4,0.8L223.7,261.6z M132.5,261.6l-1.4-0.8l0.4-0.8l1.4,0.8L132.5,261.6z M226.6,259.9l-0.4-0.8l1.4-0.8l0.4,0.8
			L226.6,259.9z M129.5,259.9l-1.4-0.8l0.4-0.8l1.4,0.8L129.5,259.9z M229.5,258.2l-0.4-0.8l1.4-0.8l0.4,0.8L229.5,258.2z
			 M126.6,258.2l-1.4-0.8l0.4-0.8l1.4,0.8L126.6,258.2z M232.4,256.6l-0.4-0.8l1.4-0.8l0.4,0.8L232.4,256.6z M123.7,256.4l-1.4-0.8
			l0.4-0.8l1.4,0.8L123.7,256.4z M235.3,254.9l-0.4-0.8l1.4-0.8l0.4,0.8L235.3,254.9z M120.8,254.8l-1.4-0.8l0.4-0.8l1.4,0.8
			L120.8,254.8z M238.3,253.1l-0.4-0.8l1.4-0.8l0.4,0.8L238.3,253.1z M117.9,253.1l-1.4-0.8l0.4-0.8l1.4,0.8L117.9,253.1z
			 M241.1,251.5l-0.4-0.8l1.4-0.8l0.4,0.8L241.1,251.5z M114.9,251.5l-1.4-0.8l0.4-0.8l1.4,0.8L114.9,251.5z M244,249.7l-0.4-0.8
			l1.4-0.8l0.4,0.8L244,249.7z M112.1,249.7l-1.4-0.8l0.4-0.8l1.4,0.8L112.1,249.7z M246.9,248l-0.4-0.8l1.4-0.8l0.4,0.8L246.9,248z
			 M109.2,248l-1.4-0.8l0.4-0.8l1.4,0.8L109.2,248z M249.8,246.2l-0.4-0.8l1.4-0.8l0.4,0.8L249.8,246.2z M106.3,246.2l-1.4-0.8
			l0.4-0.8l1.4,0.8L106.3,246.2z M252.7,244.6l-0.4-0.8l1.4-0.8l0.4,0.8L252.7,244.6z M103.4,244.5c-0.5-0.2-0.9-0.6-1.4-0.8
			l0.4-0.8c0.5,0.2,0.9,0.6,1.4,0.8L103.4,244.5z M255.6,242.8l-0.4-0.8l1.4-0.8l0.4,0.8L255.6,242.8z M100.6,242.8
			c-0.5-0.4-0.9-0.6-1.4-0.8l0.4-0.8c0.5,0.2,0.9,0.6,1.4,0.8L100.6,242.8z M258.4,241l-0.4-0.8c0.5-0.4,0.9-0.6,1.4-0.9l0.4,0.8
			C259.4,240.4,258.9,240.7,258.4,241z M97.6,241c-0.5-0.4-0.9-0.6-1.4-0.9l0.4-0.8c0.5,0.2,0.9,0.6,1.4,0.9L97.6,241z M261.3,239.2
			l-0.4-0.8c0.5-0.4,0.9-0.6,1.4-0.9l0.4,0.8C262.2,238.6,261.8,238.9,261.3,239.2z M94.8,239.2c-0.5-0.4-0.9-0.6-1.4-0.9l0.4-0.8
			c0.5,0.2,0.9,0.6,1.4,0.9L94.8,239.2z M264.1,237.5l-0.5-0.8c0.5-0.4,0.9-0.6,1.4-0.9l0.5,0.7
			C265.2,236.7,264.7,237.1,264.1,237.5z M91.9,237.3c-0.5-0.4-0.9-0.7-1.4-0.9l0.5-0.7c0.5,0.2,0.9,0.6,1.4,0.9L91.9,237.3z
			 M267,235.4l-0.5-0.7c0.9-0.7,1.1-0.8,1.1-0.9v0.1h0.8C268.4,234.3,268.3,234.5,267,235.4z M89.1,235.4c-1.2-0.8-1.3-1.1-1.3-1.4
			v-0.1h0.8l0,0l0,0l0,0c0.1,0.1,0.4,0.4,0.9,0.8L89.1,235.4z M268.4,233.2h-0.8v-1.8h0.8V233.2z M88.6,232h-0.8v-1.8h0.8V232z
			 M268.4,229.6h-0.8v-1.8h0.8V229.6z M88.6,228.4h-0.8v-1.8h0.8V228.4z M268.4,225.9h-0.8v-1.8h0.8V225.9z M88.6,224.8h-0.8V223
			h0.8V224.8z M268.4,222.4h-0.8v-1.8h0.8V222.4z M88.6,221.1h-0.8v-1.8h0.8V221.1z M268.4,218.7h-0.8v-1.8h0.8V218.7z M88.6,217.5
			h-0.8v-1.8h0.8V217.5z M268.4,215.1h-0.8v-1.8h0.8V215.1z M88.6,213.8h-0.8v-1.8h0.8V213.8z M268.4,211.5h-0.8v-1.8h0.8V211.5z
			 M88.6,210.3h-0.8v-1.8h0.8V210.3z M268.4,207.9h-0.8v-1.8h0.8V207.9z M88.6,206.6h-0.8v-1.8h0.8V206.6z M268.4,204.2h-0.8v-1.8
			h0.8V204.2z M88.6,203h-0.8v-1.8h0.8V203z M268.4,200.7h-0.8v-1.8h0.8V200.7z M88.6,199.5h-0.8v-1.8h0.8V199.5z M268.4,197h-0.8
			v-1.8h0.8V197z M88.6,195.8h-0.8V194h0.8V195.8z M268.4,193.4h-0.8v-1.8h0.8V193.4z M88.6,192.2h-0.8v-1.8h0.8V192.2z
			 M268.4,189.7h-0.8V188h0.8V189.7z M88.6,188.6h-0.8v-1.8h0.8V188.6z M268.4,186.2h-0.8v-1.9h0.8V186.2z M88.6,185h-0.8v-1.9h0.8
			V185z M268.4,182.5h-0.8v-1.8h0.8V182.5z M88.6,181.3h-0.8v-1.8h0.8V181.3z M268.4,178.9h-0.8v-1.8h0.8V178.9z M88.6,177.8h-0.8
			V176h0.8V177.8z M268.4,175.3h-0.8v-1.8h0.8V175.3z M88.6,174.1h-0.8v-1.8h0.8V174.1z M268.4,171.7h-0.8v-1.8h0.8V171.7z
			 M88.6,170.5h-0.8v-1.8h0.8V170.5z M268.4,168h-0.8v-1.8h0.8V168z M88.6,166.8h-0.8v-1.8h0.8V166.8z M268.4,164.5h-0.8v-1.8h0.8
			V164.5z M88.6,163.3h-0.8v-1.8h0.8V163.3z M268.4,160.8h-0.8V159h0.8V160.8z M88.6,159.6h-0.8v-1.8h0.8V159.6z M268.4,157.2h-0.8
			v-1.8h0.8V157.2z M88.6,156h-0.8v-1.8h0.8V156z M268.4,153.7h-0.8v-1.8h0.8V153.7z M88.6,152.4h-0.8v-1.8h0.8V152.4z M268.4,150
			h-0.8v-1.8h0.8V150z M88.6,148.8h-0.8V147h0.8V148.8z M268.4,146.4h-0.8v-1.8h0.8V146.4z M88.6,145.2h-0.8v-1.8h0.8V145.2z
			 M268.4,142.7h-0.8V141h0.8V142.7z M88.6,141.6h-0.8v-1.8h0.8V141.6z M268.4,139.2h-0.8v-1.8h0.8V139.2z M88.6,138h-0.8v-1.8h0.8
			V138z M268.4,135.5h-0.8v-1.8h0.8V135.5z M88.6,134.3h-0.8v-1.8h0.8V134.3z M268.4,131.9h-0.8v-1.8h0.8V131.9z M88.6,130.8h-0.8
			V129h0.8V130.8z M268.4,128.3h-0.8v-1.8h0.8V128.3z M88.6,127.1h-0.8v-1.8h0.8V127.1z M268.4,124.7h-0.8v-1.8h0.8V124.7z
			 M88.6,123.5h-0.8v-1.8h0.8V123.5z M268.4,121h-0.8v-1.8h0.8V121z M88.6,119.8h-0.8v-1.8h0.8V119.8z M268.4,117.5h-0.8v-1.8h0.8
			V117.5z M88.6,116.3h-0.8v-1.8h0.8V116.3z M268.4,113.8h-0.8V112h0.8V113.8z M88.6,112.6h-0.8v-1.8h0.8V112.6z M268.4,110.2h-0.8
			v-1.8h0.8V110.2z M88.6,109h-0.8v-1.8h0.8V109z M268.4,106.6h-0.8v-1.8h0.8V106.6z M88.6,105.4h-0.8v-1.8h0.8V105.4z M268.4,103
			h-0.8v-1.8h0.8V103z M88.6,101.8h-0.8V100h0.8V101.8z M268.4,99.4h-0.8v-1.8h0.8V99.4z M88.6,98.1h-0.8v-1.8h0.8V98.1z
			 M268.4,95.8h-0.8V94h0.8V95.8z M88.6,94.6h-0.8v-1.8h0.8V94.6z M268.4,92.2h-0.8v-1.8h0.8V92.2z M88.6,91h-0.8v-1.8h0.8V91z
			 M268.4,88.5h-0.8v-1.8h0.8V88.5z M88.6,87.3h-0.8v-1.8h0.8V87.3z M268.4,85h-0.8v-1.8h0.8V85z M88.6,83.8h-0.8V82h0.8V83.8z
			 M268.4,81.3h-0.8v-1.8h0.8V81.3z M88.6,80.1h-0.8v-1.8h0.8V80.1z M268.4,77.7h-0.8v-1.8h0.8V77.7z M88.6,76.5h-0.8v-1.8h0.8V76.5
			z M268.4,74h-0.8v-1.8h0.8V74z M88.6,72.8h-0.8v-1.8h0.8V72.8z M268.4,70.5h-0.8v-1.8h0.8V70.5z M88.6,69.2h-0.8v-1.8h0.8V69.2z
			 M268.4,66.8h-0.8v-0.7c0,0-0.1-0.1-0.4-0.4l0.4-0.8c0.4,0.2,0.8,0.6,0.8,1.1V66.8z M88.6,66L88,65.4c0.2-0.4,0.8-0.6,1.5-0.9
			l0.4,0.8C89.1,65.6,88.8,65.8,88.6,66z M265.7,65c-0.5-0.1-0.9-0.4-1.5-0.5l0.2-0.8c0.6,0.2,1.2,0.4,1.5,0.6L265.7,65z M91.4,64.7
			l-0.2-0.8c0.5-0.1,1.1-0.4,1.5-0.5l0.2,0.8C92.5,64.3,91.9,64.5,91.4,64.7z M262.6,64.1c-0.5-0.1-1.1-0.2-1.5-0.4l0.2-0.8
			c0.6,0.1,1.1,0.2,1.7,0.5L262.6,64.1z M94.7,63.7l-0.2-0.8c0.5-0.1,1.1-0.2,1.7-0.4l0.1,0.8C95.7,63.5,95.1,63.6,94.7,63.7z
			 M259.4,63.2c-0.5-0.1-1.1-0.2-1.7-0.4l0.1-0.8c0.6,0.1,1.1,0.2,1.7,0.4L259.4,63.2z M97.9,63L97.6,62c0.5-0.1,1.1-0.2,1.7-0.4
			l0.1,0.8C98.9,62.8,98.3,62.9,97.9,63z M256.2,62.5c-0.5-0.1-1.1-0.2-1.7-0.4l0.1-0.8c0.6,0.1,1.1,0.2,1.7,0.4L256.2,62.5z
			 M101.1,62.3l-0.1-0.8c0.5-0.1,1.1-0.2,1.7-0.4l0.1,0.8C102.1,62,101.5,62.2,101.1,62.3z M253,61.9c-0.5-0.1-1.1-0.2-1.7-0.4
			l0.1-0.8c0.6,0.1,1.1,0.2,1.7,0.4L253,61.9z M104.3,61.7l-0.1-0.9c0.5-0.1,1.1-0.2,1.7-0.4l0.1,0.9
			C105.3,61.5,104.9,61.6,104.3,61.7z M249.8,61.3c-0.5-0.1-1.1-0.2-1.7-0.2l0.1-0.9c0.6,0.1,1.1,0.2,1.7,0.2L249.8,61.3z
			 M107.5,61.1l-0.1-0.9c0.6-0.1,1.1-0.2,1.7-0.2l0.1,0.9C108.7,60.9,108.1,61,107.5,61.1z M246.4,60.7c-0.6-0.1-1.1-0.2-1.7-0.2
			l0.1-0.9c0.6,0.1,1.1,0.2,1.7,0.2L246.4,60.7z M110.8,60.5l-0.1-0.8c0.6-0.1,1.1-0.1,1.7-0.2l0.1,0.9
			C111.9,60.4,111.3,60.4,110.8,60.5z M243.2,60.3c-0.6-0.1-1.1-0.1-1.7-0.2l0.1-0.9c0.6,0.1,1.1,0.1,1.7,0.2L243.2,60.3z M114,60
			l-0.1-0.9c0.6-0.1,1.1-0.1,1.7-0.2l0.1,0.9C115.1,59.8,114.6,59.9,114,60z M239.9,59.7c-0.6-0.1-1.1-0.1-1.7-0.2l0.1-0.9
			c0.6,0.1,1.1,0.1,1.7,0.2L239.9,59.7z M117.3,59.6l-0.1-0.9c0.6-0.1,1.1-0.1,1.7-0.2l0.1,0.9C118.4,59.3,117.8,59.4,117.3,59.6z
			 M236.7,59.2c-0.6-0.1-1.1-0.1-1.7-0.2l0.1-0.9c0.6,0.1,1.1,0.1,1.7,0.2L236.7,59.2z M120.5,59.1l-0.1-0.9
			c0.6-0.1,1.1-0.1,1.7-0.2l0.1,0.9C121.6,58.8,121.1,59,120.5,59.1z M233.5,58.7c-0.6-0.1-1.1-0.1-1.7-0.2l0.1-0.9
			c0.6,0.1,1.1,0.1,1.7,0.2L233.5,58.7z M123.7,58.6l-0.1-0.9l1.7-0.2l0.1,0.9L123.7,58.6z M230.2,58.4l-1.7-0.2l0.1-0.9l1.7,0.2
			L230.2,58.4z M127.1,58.1l-0.1-0.8c0.6-0.1,1.1-0.1,1.7-0.2l0.1,0.9C128.1,58,127.6,58.1,127.1,58.1z M227,57.9
			c-0.6-0.1-1.1-0.1-1.7-0.2l0.1-0.9c0.6,0.1,1.1,0.1,1.7,0.2L227,57.9z M130.3,57.8l-0.1-0.9c0.6-0.1,1.1-0.1,1.7-0.2l0.1,0.9
			C131.4,57.7,130.9,57.7,130.3,57.8z M223.7,57.5c-0.6-0.1-1.1-0.1-1.7-0.2l0.1-0.9c0.6,0.1,1.1,0.1,1.7,0.2L223.7,57.5z
			 M133.6,57.3l-0.1-0.9c0.6-0.1,1.1-0.1,1.7-0.2l0.1,0.9C134.6,57.2,134.2,57.3,133.6,57.3z M220.5,57.2c-0.6-0.1-1.1-0.1-1.7-0.2
			l0.1-0.9c0.6,0.1,1.1,0.1,1.7,0.2L220.5,57.2z M136.9,56.9l-0.1-0.9c0.6-0.1,1.1-0.1,1.7-0.1l0.1,0.9
			C138,56.8,137.4,56.9,136.9,56.9z M217.1,56.8c-0.6,0-1.1-0.1-1.7-0.1l0.1-0.9c0.6,0,1.1,0.1,1.7,0.1L217.1,56.8z M140.1,56.6
			l-0.1-0.9l1.7-0.1l0.1,0.9L140.1,56.6z M213.8,56.5c-0.6,0-1.1-0.1-1.7-0.1l0.1-0.9c0.6,0,1.1,0.1,1.7,0.1L213.8,56.5z
			 M143.4,56.3l-0.1-0.9c0.6,0,1.1-0.1,1.7-0.1l0.1,0.9C144.5,56.2,143.9,56.2,143.4,56.3z M210.6,56.1c-0.6,0-1.1-0.1-1.7-0.1
			l0.1-0.9c0.6,0,1.1,0.1,1.7,0.1L210.6,56.1z M146.6,56l-0.1-0.9c0.6,0,1.1-0.1,1.7-0.1l0.1,0.9C147.7,55.9,147.2,56,146.6,56z
			 M207.3,55.9c-0.6,0-1.1-0.1-1.7-0.1l0.1-0.9c0.6,0,1.1,0.1,1.7,0.1L207.3,55.9z M150,55.8l-0.1-0.9c0.6,0,1.1-0.1,1.7-0.1
			l0.1,0.9C151,55.6,150.4,55.6,150,55.8z M204.1,55.5c-0.6,0-1.1-0.1-1.7-0.1v-0.9c0.6,0,1.1,0.1,1.7,0.1V55.5z M153.2,55.5v-0.9
			c0.6,0,1.1-0.1,1.7-0.1v0.9C154.3,55.4,153.8,55.4,153.2,55.5z M200.8,55.3c-0.6,0-1.1-0.1-1.7-0.1v-0.9c0.6,0,1.1,0.1,1.7,0.1
			V55.3z M156.5,55.2v-0.9c0.6,0,1.1-0.1,1.7-0.1V55C157.6,55.2,157.1,55.2,156.5,55.2z M197.4,55c-0.6,0-1.1-0.1-1.7-0.1V54
			c0.6,0,1.1,0.1,1.7,0.1V55z M159.8,55v-0.9c0.6,0,1.1-0.1,1.7-0.1v0.9C160.9,54.9,160.3,54.9,159.8,55z M194.2,54.9
			c-0.6,0-1.1-0.1-1.7-0.1v-0.9c0.6,0,1.1,0,1.7,0.1V54.9z M163,54.8v-0.9c0.6,0,1.1,0,1.7-0.1v0.9C164.1,54.8,163.6,54.8,163,54.8z
			 M190.9,54.7c-0.6,0-1.1,0-1.7-0.1v-0.9c0.6,0,1.1,0,1.7,0.1V54.7z M166.3,54.7v-0.9c0.6,0,1.1,0,1.7-0.1v0.9
			C167.4,54.6,166.9,54.7,166.3,54.7L166.3,54.7z M187.7,54.6c-0.6,0-1.1,0-1.7,0v-0.9c0.6,0,1.1,0,1.7,0V54.6z M169.7,54.6v-0.9
			c0.6,0,1.1,0,1.7,0v0.9C170.7,54.4,170.1,54.6,169.7,54.6z M184.4,54.4c-0.6,0-1.1,0-1.7,0v-0.9c0.6,0,1.1,0,1.7,0V54.4z
			 M172.9,54.4v-0.9c0.6,0,1.1,0,1.7,0v0.9C173.9,54.4,173.5,54.4,172.9,54.4z M181.1,54.4c-0.6,0-1.1,0-1.7,0v-0.9
			c0.6,0,1.1,0,1.7,0V54.4z M176.2,54.4v-0.9c0.6,0,1.1,0,1.7,0v0.9C177.3,54.3,176.7,54.4,176.2,54.4z"/>
	</g>
</g>
<g id="g685" transform="translate(-27.7,-19.799997)">
	<g id="g677">
		<g id="g675">
			<rect id="rect673" x="134.5" y="247.8" class="st4" width="32.6" height="0.5"/>
		</g>
	</g>
	<g id="g683">
		<g id="g681">
			<rect id="rect679" x="189" y="247.7" class="st4" width="32.6" height="0.5"/>
		</g>
	</g>
</g>
<g id="g695" transform="translate(-27.7,-19.799997)">
	<g id="g689">
		<path id="path687" inkscape:connector-curvature="0" class="st5" d="M291.7,191.4l10.2-22.3H217c-5.9-18.2-21.7-31.1-40.4-31.1
			c-18.5,0-34.3,12.9-40.4,31.1H51.5l10.2,22.3l-10.2,22.3h91c7.8,11.4,20.3,18.8,34.2,18.8c13.9,0,26.3-7.4,34.2-18.8h90.9
			L291.7,191.4z"/>
	</g>
	<g id="g693">
		<path id="path691" inkscape:connector-curvature="0" class="st5" d="M176.8,232.8c-13.6,0-26.1-6.8-34.4-18.8H50.7l10.4-22.7
			l-10.4-22.7h85.3c6.3-18.6,22.5-31.1,40.6-31.1s34.3,12.5,40.6,31.1h85.2L292,191.4l10.4,22.7h-91.4
			C202.9,226.1,190.3,232.8,176.8,232.8L176.8,232.8z M52,213.2h90.7l0.1,0.1c8.1,11.7,20.4,18.5,33.9,18.5s25.8-6.8,33.9-18.5
			l0.1-0.1h90.4l-10.1-21.8l10.1-21.8h-84.5l-0.1-0.2c-6.1-18.4-22.1-30.7-39.9-30.7s-33.8,12.3-39.9,30.7l-0.1,0.2H52l10.1,21.8
			L52,213.2z"/>
	</g>
</g>
<g id="g703" transform="translate(-27.7,-19.799997)">
	<g id="g701">
		<path id="path697" inkscape:connector-curvature="0" class="st5" d="M177,231.6h-0.2v-0.8h0.2c0.9,0,2,0,3-0.1l0.1,0.8
			C179,231.6,178,231.6,177,231.6z M173.5,231.5c-1.1-0.1-2.1-0.2-3.2-0.5l0.1-0.8c1.1,0.2,2.1,0.4,3.2,0.5L173.5,231.5z
			 M183.3,231.2l-0.1-0.8c1.1-0.2,2.1-0.4,3.1-0.7l0.2,0.8C185.4,230.7,184.4,230.9,183.3,231.2z M167,230.3
			c-1.1-0.2-2.1-0.6-3.1-0.9l0.2-0.8c1.1,0.4,2,0.7,3.1,0.9L167,230.3z M189.6,229.5l-0.2-0.8c1.1-0.4,2-0.7,3-1.2l0.4,0.8
			C191.6,228.7,190.7,229.2,189.6,229.5z M160.9,228c-0.9-0.5-2-0.9-3-1.5l0.4-0.8c0.9,0.6,1.9,1.1,2.8,1.5L160.9,228z M195.7,226.8
			l-0.4-0.8c0.9-0.5,1.9-1.1,2.8-1.7l0.4,0.7C197.6,225.7,196.6,226.2,195.7,226.8L195.7,226.8z M155.1,224.8
			c-0.9-0.6-1.8-1.3-2.7-2l0.5-0.7c0.8,0.7,1.8,1.3,2.6,1.9L155.1,224.8z M201.2,223.1l-0.5-0.7c0.8-0.7,1.8-1.4,2.6-2.1l0.5,0.7
			C203,221.7,202.2,222.4,201.2,223.1z M149.8,220.5c-0.8-0.7-1.7-1.5-2.4-2.4l0.6-0.6c0.7,0.8,1.5,1.7,2.4,2.4L149.8,220.5z
			 M206.3,218.6l-0.6-0.6c0.8-0.8,1.5-1.7,2.3-2.5l0.6,0.6C207.9,216.9,207.2,217.8,206.3,218.6z M145.1,215.5
			c-0.7-0.8-1.3-1.8-2-2.6l0.1-0.1v-0.6h0.4l0.1,0.1c0.6,0.8,1.3,1.8,1.9,2.6L145.1,215.5z M210.7,213.4l-0.6-0.6l0.4-0.6h3v0.8
			h-2.6L210.7,213.4z M140.1,213.1h-3.2v-0.8h3.2V213.1z M216.8,213.1v-0.8h3.2v0.8H216.8z M133.6,213.1h-3.2v-0.8h3.2V213.1z
			 M223.2,213.1v-0.8h3.2v0.8H223.2z M127.2,213.1H124v-0.8h3.2V213.1z M229.6,213.1v-0.8h3.2v0.8H229.6z M120.6,213h-3.2v-0.8h3.2
			V213z M236.1,213v-0.8h3.2v0.8H236.1z M114.2,213H111v-0.8h3.2V213z M242.5,213v-0.8h3.2v0.8H242.5z M107.7,213h-3.2v-0.8h3.2V213
			z M249.1,213v-0.8h3.2v0.8H249.1z M101.3,213h-3.2v-0.8h3.2V213z M255.5,213v-0.8h3.2v0.8H255.5z M94.8,213h-3.2v-0.8h3.2V213z
			 M262,213v-0.8h3.2v0.8H262z M88.4,213h-3.2v-0.8h3.2V213z M268.4,213v-0.8h3.2v0.8H268.4z M81.8,213h-3.2v-0.8h3.2V213z
			 M274.9,213v-0.8h3.2v0.8H274.9z M75.4,213h-3.2v-0.8h3.2V213z M281.3,213v-0.8h3.2v0.8H281.3z M68.9,213h-3.2v-0.8h3.2V213z
			 M287.9,213v-0.8h3.2v0.8H287.9z M62.5,213h-3.2v-0.8h3.2V213z M294.3,213v-0.8h3.2v0.8H294.3z M56,213h-3.4l0.5-1.1l0.4,0.2H56
			V213z M300.2,212.7l-1.5-3.1l0.7-0.5l1.5,3.1L300.2,212.7z M55.2,209.2l-0.7-0.4l1.5-3.2l0.7,0.4L55.2,209.2z M297.1,206.4
			l-1.5-3.1l0.7-0.5l1.5,3.1L297.1,206.4z M58.3,202.9l-0.7-0.4l1.5-3.2l0.7,0.4L58.3,202.9z M294.2,200.1l-1.5-3.1l0.7-0.5l1.5,3.1
			L294.2,200.1z M61.3,196.6l-0.7-0.5l1.5-3.2l0.7,0.4L61.3,196.6z M291.2,193.8l-1.1-2.3l1.5-3.3l0.7,0.4l-1.4,3l0.8,1.9
			L291.2,193.8z M62.4,190.3l-1.5-3.1l0.7-0.5l1.5,3.1L62.4,190.3z M293.8,185.4l-0.7-0.4l1.4-3.2l0.7,0.4L293.8,185.4z M59.3,184.1
			l-1.5-3.1l0.7-0.5l1.5,3.1L59.3,184.1z M296.8,179.1l-0.7-0.4l1.4-3.2l0.7,0.4L296.8,179.1z M56.3,177.8l-1.5-3.1l0.7-0.5l1.5,3.1
			L56.3,177.8z M299.7,172.8l-0.7-0.4l1.1-2.4v-0.5h1.2L299.7,172.8z M53.2,171.5l-0.7-1.4h3.1v0.8h-1.8l0.1,0.1L53.2,171.5z
			 M58.8,170.9V170H62v0.8H58.8z M65.3,170.9V170h3.2v0.8H65.3z M71.7,170.8v-0.8H75v0.8H71.7z M78.3,170.8v-0.8h3.2v0.8H78.3z
			 M84.7,170.8v-0.8h3.2v0.8H84.7z M91.2,170.8v-0.8h3.2v0.8H91.2z M97.6,170.8v-0.8h3.2v0.8H97.6z M104.1,170.8v-0.8h3.2v0.8H104.1
			z M110.6,170.6v-0.8h3.2v0.8H110.6z M117.1,170.6v-0.8h3.2v0.8H117.1z M123.5,170.6v-0.8h3.2v0.8H123.5z M130,170.6v-0.8h3.2v0.8
			H130z M136.4,170.6v-0.8h0.7c0.2-0.7,0.5-1.3,0.7-2l0.7,0.4c-0.2,0.7-0.6,1.5-0.8,2.3l-0.1,0.2H136.4z M216.4,170.6l-0.1-0.2
			c-0.1-0.2-0.1-0.5-0.2-0.6l0.7-0.4c0,0.1,0.1,0.2,0.1,0.4h2.4v0.8H216.4z M222.6,170.5v-0.8h3.2v0.8H222.6z M229,170.5v-0.8h3.2
			v0.8H229z M235.5,170.5v-0.8h3.2v0.8H235.5z M241.9,170.5v-0.8h3.2v0.8H241.9z M248.5,170.5v-0.8h3.2v0.8H248.5z M254.9,170.4
			v-0.8h3.2v0.8H254.9z M261.4,170.4v-0.8h3.2v0.8H261.4z M267.8,170.4v-0.8h3.2v0.8H267.8z M274.2,170.4v-0.8h3.2v0.8H274.2z
			 M280.7,170.4v-0.8h3.2v0.8H280.7z M287.2,170.3v-0.8h3.2v0.8H287.2z M293.7,170.3v-0.8h3.2v0.8H293.7z M214.9,166.5
			c-0.5-1.1-0.9-2.1-1.5-3.1l0.7-0.5c0.6,1.1,1.1,2.1,1.5,3.2L214.9,166.5z M140,164.9l-0.7-0.5c0.5-1.1,1.1-2.1,1.7-3.1l0.7,0.5
			C141.1,162.8,140.6,163.9,140,164.9L140,164.9z M211.6,160.3c-0.6-0.9-1.2-1.9-1.9-2.8l0.6-0.6c0.7,0.9,1.3,1.9,1.9,2.8
			L211.6,160.3z M143.4,158.9l-0.6-0.5c0.6-0.9,1.3-1.9,2-2.8l0.6,0.6C144.7,157.1,144,157.9,143.4,158.9z M207.6,154.9
			c-0.7-0.8-1.5-1.7-2.3-2.5l0.6-0.6c0.8,0.8,1.5,1.7,2.3,2.5L207.6,154.9z M147.6,153.5L147,153c0.7-0.8,1.5-1.7,2.4-2.5l0.5,0.7
			C149.1,152,148.4,152.7,147.6,153.5z M202.9,150.1c-0.8-0.7-1.7-1.4-2.6-2.1l0.5-0.7c0.9,0.7,1.8,1.4,2.6,2.1L202.9,150.1z
			 M152.5,148.9l-0.5-0.7c0.8-0.7,1.8-1.4,2.7-2l0.5,0.7C154.2,147.6,153.3,148.3,152.5,148.9z M197.7,146.1
			c-0.9-0.6-1.9-1.2-2.8-1.7l0.4-0.8c0.9,0.5,1.9,1.1,2.8,1.7L197.7,146.1z M157.8,145.2l-0.4-0.8c0.9-0.6,1.9-1.1,3-1.5l0.4,0.8
			C159.8,144.2,158.7,144.6,157.8,145.2z M191.9,143c-0.9-0.5-2-0.8-3-1.2l0.2-0.8c1.1,0.4,2,0.7,3.1,1.2L191.9,143z M163.7,142.4
			l-0.2-0.8c1.1-0.4,2-0.7,3.1-1.1l0.2,0.8C165.7,141.7,164.7,142,163.7,142.4z M185.8,141c-1.1-0.2-2.1-0.5-3.2-0.6l0.1-0.8
			c1.1,0.1,2.1,0.4,3.2,0.6L185.8,141z M169.9,140.6l-0.1-0.8c1.1-0.2,2.1-0.4,3.2-0.5l0.1,0.8C172,140.3,171,140.4,169.9,140.6z
			 M179.4,140c-1.1-0.1-2.1-0.1-3.2-0.1v-0.8c1.1,0,2.1,0,3.2,0.1V140z"/>
		<path id="path699" inkscape:connector-curvature="0" class="st4" d="M177,139c-0.2,0-0.5,0-0.7,0v0.8c0.2,0,0.5,0,0.7,0
			c0.8,0,1.7,0,2.5,0.1v-0.8C178.7,139.1,177.8,139,177,139z M173,139.2c-1.1,0.1-2.1,0.2-3.2,0.5l0.1,0.8c1.1-0.2,2.1-0.4,3.2-0.5
			L173,139.2z M182.7,139.4l-0.1,0.8c1.1,0.1,2.1,0.4,3.2,0.6l0.1-0.8C184.9,139.8,183.8,139.7,182.7,139.4z M166.6,140.5
			c-1.1,0.4-2.1,0.7-3.1,1.1l0.2,0.8c0.9-0.4,2-0.7,3.1-1.1L166.6,140.5z M189.1,141l-0.2,0.8c1.1,0.4,2,0.7,3,1.2l0.4-0.8
			C191.1,141.8,190.2,141.3,189.1,141z M160.4,142.9c-0.9,0.5-2,0.9-3,1.5l0.4,0.8c0.9-0.6,1.9-1.1,2.8-1.5L160.4,142.9z
			 M195.2,143.6l-0.4,0.8c0.9,0.5,1.9,1.1,2.8,1.7l0.4-0.7C197.1,144.8,196.1,144.2,195.2,143.6z M154.7,146.2
			c-0.9,0.6-1.8,1.3-2.7,2l0.5,0.7c0.8-0.7,1.8-1.4,2.6-2L154.7,146.2z M200.8,147.3l-0.5,0.7c0.8,0.7,1.8,1.4,2.6,2.1l0.5-0.7
			C202.5,148.7,201.7,148,200.8,147.3z M149.4,150.5c-0.8,0.8-1.7,1.7-2.4,2.5l0.6,0.6c0.7-0.8,1.5-1.7,2.4-2.4L149.4,150.5z
			 M205.9,151.8l-0.6,0.6c0.8,0.8,1.5,1.7,2.3,2.5l0.6-0.6C207.4,153.4,206.7,152.5,205.9,151.8z M144.9,155.6
			c-0.7,0.9-1.4,1.9-2,2.8l0.6,0.5c0.6-0.9,1.3-1.9,2-2.7L144.9,155.6z M210.4,157l-0.6,0.6c0.7,0.9,1.3,1.9,1.9,2.8l0.7-0.5
			C211.7,158.9,211,157.9,210.4,157L210.4,157z M140.9,161.4c-0.6,1.1-1.2,2-1.7,3.1l0.7,0.5c0.5-1.1,1.1-2,1.7-3.1L140.9,161.4z
			 M214,162.9l-0.7,0.5c0.6,1.1,1.1,2,1.5,3.1l0.7-0.4C215.1,164.9,214.5,163.9,214,162.9z M137.9,167.7c-0.2,0.7-0.5,1.3-0.7,2
			h-0.7v0.8h1.3l0.1-0.2c0.2-0.7,0.5-1.5,0.8-2.3L137.9,167.7z M216.9,169.3l-0.7,0.4c0.1,0.2,0.1,0.5,0.2,0.6l0.1,0.2h2.8v-0.8H217
			C216.9,169.6,216.9,169.5,216.9,169.3L216.9,169.3z M301.3,169.3h-1.2v0.5l-1.1,2.4l0.7,0.4L301.3,169.3z M296.9,169.5h-3.2v0.8
			h3.2V169.5z M290.5,169.5h-3.2v0.8h3.2V169.5z M284,169.5h-3.2v0.8h3.2V169.5z M277.5,169.5h-3.2v0.8h3.2V169.5z M271,169.5h-3.2
			v0.8h3.2V169.5z M264.6,169.6h-3.2v0.8h3.2V169.6z M258.1,169.6h-3.2v0.8h3.2V169.6z M251.7,169.6h-3.2v0.8h3.2V169.6z
			 M245.1,169.6h-3.2v0.8h3.2V169.6z M238.7,169.6h-3.2v0.8h3.2V169.6z M232.2,169.7H229v0.8h3.2V169.7z M225.8,169.7h-3.2v0.8h3.2
			V169.7z M133.2,169.7H130v0.8h3.2V169.7z M126.7,169.7h-3.2v0.8h3.2V169.7z M120.3,169.8h-3.2v0.8h3.2V169.8z M113.8,169.8h-3.2
			v0.8h3.2V169.8z M107.4,169.8h-3.2v0.8h3.2V169.8z M100.8,169.8h-3.2v0.8h3.2V169.8z M94.4,169.8h-3.2v0.8h3.2V169.8z M87.9,169.9
			h-3.2v0.8h3.2V169.9z M81.5,169.9h-3.2v0.8h3.2V169.9z M75,169.9h-3.2v0.8H75V169.9z M68.5,169.9h-3.2v0.8h3.2V169.9z M62,169.9
			h-3.2v0.8H62V169.9z M55.6,169.9h-3.1l0.7,1.4l0.7-0.5l-0.1-0.1h1.8V169.9z M55.5,174.2l-0.7,0.5l1.5,3.1l0.7-0.5L55.5,174.2z
			 M297.5,175.5l-1.4,3.2l0.7,0.4l1.4-3.2L297.5,175.5z M58.5,180.5l-0.7,0.5l1.5,3.1l0.7-0.5L58.5,180.5z M294.6,181.8l-1.4,3.2
			l0.7,0.4l1.4-3.2L294.6,181.8z M61.5,186.8l-0.7,0.5l1.5,3.1l0.7-0.5L61.5,186.8z M291.7,188.1l-1.5,3.3l1.1,2.3l0.7-0.5l-0.8-1.9
			l1.4-3L291.7,188.1z M62.1,193.1l-1.5,3.1l0.7,0.4l1.5-3.2L62.1,193.1z M293.3,196.5l-0.7,0.5l1.5,3.1l0.7-0.5L293.3,196.5z
			 M59,199.4l-1.5,3.2l0.7,0.4l1.5-3.2L59,199.4z M296.4,202.8l-0.7,0.5l1.5,3.1l0.7-0.5L296.4,202.8z M56.1,205.7l-1.5,3.2l0.7,0.4
			l1.5-3.2L56.1,205.7z M299.4,209.1l-0.7,0.5l1.5,3.1l0.7-0.5L299.4,209.1z M53.1,211.9l-0.5,1.1h3.4v-0.8h-2.6L53.1,211.9z
			 M297.5,212.1h-3.2v0.8h3.2V212.1z M59.3,212.1v0.8h3.2v-0.8H59.3z M291.1,212.1h-3.2v0.8h3.2V212.1z M65.7,212.1v0.8h3.2v-0.8
			H65.7z M284.7,212.2h-3.2v0.8h3.2V212.2z M72.2,212.2v0.8h3.2v-0.8H72.2z M278.1,212.2h-3.2v0.8h3.2V212.2z M78.6,212.2v0.8h3.2
			v-0.8H78.6z M271.7,212.2h-3.2v0.8h3.2V212.2z M85,212.2v0.8h3.2v-0.8H85z M265.2,212.2H262v0.8h3.2V212.2z M91.6,212.2v0.8h3.2
			v-0.8H91.6z M258.8,212.2h-3.2v0.8h3.2V212.2z M98,212.2v0.8h3.2v-0.8H98z M252.3,212.2h-3.2v0.8h3.2V212.2z M104.5,212.2v0.8h3.2
			v-0.8H104.5z M245.9,212.2h-3.2v0.8h3.2V212.2z M110.9,212.2v0.8h3.2v-0.8H110.9z M239.3,212.2h-3.2v0.8h3.2V212.2z M117.4,212.2
			v0.8h3.2v-0.8H117.4z M232.9,212.2h-3.2v0.8h3.2V212.2z M123.8,212.2v0.8h3.2v-0.8H123.8z M226.4,212.2h-3.2v0.8h3.2V212.2z
			 M130.4,212.2v0.8h3.2v-0.8H130.4z M220,212.2h-3.2v0.8h3.2V212.2z M136.8,212.2v0.8h3.2v-0.8H136.8z M213.5,212.2h-3l-0.4,0.6
			l0.6,0.6l0.1-0.2h2.6V212.2z M143.7,212.2h-0.4v0.6l-0.1,0.1c0.6,0.9,1.3,1.8,2,2.6l0.6-0.6c-0.7-0.8-1.3-1.7-1.9-2.6L143.7,212.2
			z M208,215.4c-0.7,0.8-1.4,1.7-2.3,2.5l0.6,0.6c0.8-0.8,1.5-1.7,2.3-2.5L208,215.4z M147.9,217.5l-0.6,0.6
			c0.8,0.8,1.5,1.7,2.4,2.4l0.5-0.7C149.5,219.1,148.7,218.4,147.9,217.5z M203.4,220.2c-0.8,0.7-1.7,1.4-2.6,2.1l0.5,0.7
			c0.8-0.7,1.8-1.4,2.6-2.1L203.4,220.2z M152.8,222l-0.5,0.7c0.8,0.7,1.8,1.4,2.7,2l0.5-0.7C154.6,223.3,153.8,222.7,152.8,222z
			 M198.1,224.3c-0.9,0.6-1.9,1.2-2.8,1.7l0.4,0.8c0.9-0.5,1.9-1.1,2.8-1.7L198.1,224.3z M158.3,225.7l-0.4,0.8
			c0.9,0.6,1.9,1.1,3,1.5l0.4-0.8C160.2,226.8,159.2,226.2,158.3,225.7z M192.3,227.4c-0.9,0.5-2,0.8-3,1.2l0.2,0.8
			c1.1-0.4,2-0.8,3.1-1.2L192.3,227.4z M164.2,228.4l-0.2,0.8c1.1,0.4,2.1,0.7,3.1,0.9l0.2-0.8C166.2,229.2,165.1,228.8,164.2,228.4
			z M186.3,229.5c-1.1,0.2-2.1,0.5-3.1,0.7l0.1,0.8c1.1-0.2,2.1-0.4,3.2-0.7L186.3,229.5z M170.4,230.1l-0.1,0.8
			c1.1,0.2,2.1,0.4,3.2,0.5l0.1-0.8C172.5,230.5,171.4,230.3,170.4,230.1z M180,230.7c-0.9,0.1-2,0.1-3,0.1h-0.2v0.8h0.2
			c0.9,0,2,0,3-0.1V230.7z"/>
	</g>
</g>
<g id="g711" transform="translate(-27.7,-19.799997)">
	<g id="g709">
		<polygon id="polygon705" class="st4" points="91.4,193.5 88.1,195.4 88.7,191.4 86,188.4 89.8,187.8 91.4,184.2 93.1,187.8 
			96.8,188.4 94.1,191.4 94.8,195.4 		"/>
		<path id="path707" inkscape:connector-curvature="0" class="st4" d="M91.4,185.7l0.9,2.1l0.2,0.6l0.6,0.1l2.4,0.4l-1.8,1.9
			l-0.4,0.5l0.1,0.6l0.4,2.5l-1.9-1.1l-0.6-0.4l-0.6,0.4l-1.9,1.1l0.4-2.5l0.1-0.6l-0.4-0.5l-1.8-1.9l2.4-0.4l0.6-0.1l0.2-0.6
			L91.4,185.7 M91.4,182.7l-2,4.5l-4.5,0.7l3.3,3.6l-0.8,5l4-2.4l4,2.4l-0.8-5L98,188l-4.5-0.7L91.4,182.7z"/>
	</g>
</g>
<g id="g719" transform="translate(-27.7,-19.799997)">
	<g id="g717">
		<polygon id="polygon713" class="st4" points="260,193.5 256.7,195.4 257.4,191.4 254.6,188.4 258.3,187.8 260,184.2 261.6,187.8 
			265.4,188.4 262.7,191.4 263.3,195.4 		"/>
		<path id="path715" inkscape:connector-curvature="0" class="st4" d="M260,185.7l0.9,2.1l0.2,0.6l0.6,0.1l2.4,0.4l-1.8,1.9
			l-0.4,0.5l0.1,0.6l0.4,2.5l-1.9-1.1L260,193l-0.6,0.4l-1.9,1.1l0.4-2.5l0.1-0.6l-0.4-0.5l-1.8-1.9l2.4-0.4l0.6-0.1l0.2-0.6
			L260,185.7 M260,182.7l-2,4.5l-4.5,0.7l3.3,3.6l-0.8,5l4-2.4l4,2.4l-0.8-5l3.3-3.6l-4.5-0.7L260,182.7z"/>
	</g>
</g>
<g>
	<g class="st6">
		<path class="st4" d="M124.8,181.4c-1.6,0-2.9-0.3-3.9-1s-1.6-1.5-2-2.7c-0.4-1.1-0.6-2.5-0.6-4v-8.3c0-1.6,0.2-3,0.6-4.1
			c0.4-1.1,1-2,2-2.7s2.2-0.9,3.9-0.9c1.6,0,2.8,0.3,3.7,0.8c0.9,0.6,1.5,1.3,1.9,2.3c0.4,1,0.6,2.2,0.6,3.5v1.9h-4.4v-2.2
			c0-0.5,0-1-0.1-1.5c-0.1-0.5-0.2-0.8-0.4-1.1c-0.2-0.3-0.7-0.4-1.3-0.4c-0.6,0-1,0.2-1.3,0.5c-0.3,0.3-0.4,0.7-0.5,1.2
			c-0.1,0.5-0.1,1-0.1,1.6v10.5c0,0.6,0,1.2,0.1,1.7c0.1,0.5,0.3,0.9,0.6,1.1c0.3,0.3,0.7,0.4,1.2,0.4c0.6,0,1-0.1,1.2-0.4
			c0.2-0.3,0.4-0.7,0.5-1.2c0.1-0.5,0.1-1,0.1-1.6v-2.2h4.4v1.9c0,1.3-0.2,2.5-0.5,3.6c-0.4,1-1,1.9-1.9,2.4
			C127.7,181.1,126.4,181.4,124.8,181.4z"/>
		<path class="st4" d="M138.5,181.4c-1.1,0-2.1-0.2-2.9-0.6c-0.8-0.4-1.4-1-1.8-1.9c-0.4-0.8-0.6-1.8-0.6-3v-5.9
			c0-1.2,0.2-2.2,0.6-3c0.4-0.8,1-1.4,1.8-1.9c0.8-0.4,1.8-0.6,2.9-0.6c1.1,0,2.1,0.2,2.9,0.6c0.8,0.4,1.4,1,1.8,1.9
			c0.4,0.8,0.6,1.8,0.6,3v5.9c0,1.2-0.2,2.2-0.6,3c-0.4,0.8-1,1.4-1.8,1.9C140.6,181.2,139.6,181.4,138.5,181.4z M138.5,178.5
			c0.3,0,0.6-0.1,0.8-0.3c0.2-0.2,0.3-0.5,0.4-0.8c0.1-0.4,0.1-0.8,0.1-1.2v-6.5c0-0.5,0-0.9-0.1-1.2c-0.1-0.3-0.2-0.6-0.4-0.8
			c-0.2-0.2-0.4-0.3-0.8-0.3s-0.6,0.1-0.8,0.3c-0.2,0.2-0.3,0.5-0.4,0.8c-0.1,0.3-0.1,0.8-0.1,1.2v6.5c0,0.5,0,0.9,0.1,1.2
			c0.1,0.4,0.2,0.6,0.4,0.8C137.9,178.4,138.2,178.5,138.5,178.5z"/>
		<path class="st4" d="M149.4,181.4c-0.7,0-1.4-0.2-1.9-0.6c-0.5-0.4-0.9-0.9-1.2-1.5c-0.3-0.6-0.4-1.2-0.4-1.9c0-1,0.2-1.9,0.6-2.6
			c0.4-0.7,0.9-1.3,1.5-1.8c0.6-0.5,1.3-0.9,2.1-1.2c0.8-0.3,1.5-0.7,2.3-0.9v-1.5c0-0.4,0-0.7-0.1-0.9c-0.1-0.3-0.2-0.5-0.3-0.6
			s-0.4-0.2-0.7-0.2c-0.3,0-0.5,0.1-0.7,0.2c-0.2,0.1-0.3,0.3-0.3,0.5c-0.1,0.2-0.1,0.5-0.1,0.8l-0.1,1.1l-3.9-0.2
			c0.1-1.9,0.6-3.4,1.5-4.3c0.9-0.9,2.2-1.4,4-1.4c1.6,0,2.8,0.5,3.5,1.4c0.8,0.9,1.1,2.1,1.1,3.6v7.7c0,0.6,0,1.2,0,1.7
			s0.1,0.9,0.1,1.3c0,0.4,0.1,0.7,0.1,1h-3.7c-0.1-0.4-0.1-0.9-0.2-1.4c-0.1-0.5-0.1-0.8-0.2-1c-0.2,0.7-0.5,1.3-1,1.8
			C151,181.1,150.3,181.4,149.4,181.4z M150.9,178.4c0.2,0,0.4,0,0.6-0.1s0.3-0.2,0.5-0.4c0.1-0.2,0.2-0.3,0.3-0.4v-4.5
			c-0.4,0.2-0.7,0.5-1.1,0.7c-0.3,0.2-0.6,0.5-0.8,0.8c-0.2,0.3-0.4,0.6-0.5,0.9c-0.1,0.3-0.2,0.7-0.2,1.2c0,0.6,0.1,1,0.3,1.4
			C150.2,178.2,150.5,178.4,150.9,178.4z"/>
		<path class="st4" d="M163.9,181.4c-1.2,0-2.1-0.2-2.9-0.7s-1.4-1.1-1.8-2c-0.4-0.9-0.6-1.9-0.6-3v-5.6c0-1.2,0.2-2.3,0.6-3.1
			c0.4-0.8,1-1.5,1.8-2c0.8-0.5,1.8-0.7,2.9-0.7c1.1,0,2.1,0.2,2.8,0.6s1.3,0.9,1.7,1.7c0.4,0.7,0.6,1.7,0.6,2.8v1.6h-3.9v-1.7
			c0-0.5,0-0.9-0.1-1.2c-0.1-0.3-0.2-0.5-0.4-0.6s-0.4-0.2-0.7-0.2s-0.5,0.1-0.7,0.2s-0.3,0.4-0.4,0.7s-0.1,0.8-0.1,1.4v6.5
			c0,0.9,0.1,1.5,0.3,1.8c0.2,0.3,0.5,0.5,0.9,0.5c0.3,0,0.5-0.1,0.7-0.2s0.3-0.3,0.4-0.6c0.1-0.3,0.1-0.6,0.1-1.1v-2h3.9v1.8
			c0,1.1-0.2,2-0.6,2.8c-0.4,0.8-1,1.3-1.7,1.7C166,181.2,165,181.4,163.9,181.4z"/>
		<path class="st4" d="M171.4,181.1V158h4.1v8.1c0.6-0.6,1.2-1,1.8-1.3c0.6-0.3,1.3-0.5,2.1-0.5c0.6,0,1.2,0.2,1.6,0.5
			c0.4,0.3,0.7,0.8,0.9,1.4c0.2,0.6,0.3,1.2,0.3,1.9v13h-4.1v-12.3c0-0.5-0.1-0.8-0.2-1c-0.1-0.2-0.4-0.3-0.8-0.3
			c-0.2,0-0.5,0.1-0.7,0.2c-0.3,0.1-0.6,0.3-0.9,0.5v13H171.4z"/>
	</g>
</g>
<g id="g793" transform="translate(-27.7,-19.799997)">
	<g id="g735">
		<g id="g733">
			<rect id="rect731" x="107.5" y="122.7" class="st4" width="148.1" height="0.5"/>
		</g>
	</g>
	<text transform="matrix(1 0 0 1 124.0843 114.2067)" class="st4 st7 st8">APEX SYSTEMS</text>
	<g id="g791">
		<g id="g789">
			<rect id="rect787" x="107.5" y="94" class="st4" width="148.1" height="0.5"/>
		</g>
	</g>
</g>
<g id="Layer_2_1_">
	<g id="Layer_1-2">
		<g id="Apex_Logo">
			<path class="st4" d="M144.6,226c0,0,2.1-1.9,5.2-1.9c3.2,0,5.4,1.9,5.4,1.9H144.6z"/>
			<path class="st4" d="M144.3,226.2h11.1c0,0,0.9,0.9,1.2,1.3h-13.5C143.2,227.5,143.8,226.6,144.3,226.2z"/>
			<path class="st4" d="M143,227.7h13.8c0,0,0.6,0.9,0.7,1.2h-6.4l-1.2-0.8l-1.2,0.8h-6.3C142.3,228.9,142.7,228.1,143,227.7z"/>
			<path class="st4" d="M142.2,229.1h6.1l-1.5,0.9h-4.9C141.9,230,142,229.4,142.2,229.1z"/>
			<path class="st4" d="M141.8,230.2h4.7l-1.1,0.7h-3.7C141.7,230.7,141.7,230.5,141.8,230.2z"/>
			<path class="st4" d="M141.6,231.2h3.4l-0.6,0.4h-2.8C141.5,231.4,141.6,231.3,141.6,231.2z"/>
			<path class="st4" d="M141.5,231.8h2.5l-0.5,0.3h-2C141.5,232,141.5,232,141.5,231.8z"/>
			<polygon class="st4" points="141.5,232.2 143.2,232.2 142.8,232.5 141.5,232.5 			"/>
			<polygon class="st4" points="141.5,232.7 142.5,232.7 142.2,232.8 141.5,232.8 			"/>
			<polygon class="st4" points="141.5,233 141.9,233 141.5,233.3 			"/>
			<polygon class="st4" points="141.8,233.3 149.9,230.7 157.9,233.3 			"/>
			<path class="st4" d="M157.6,229.1h-6.2l1.6,1h5C157.9,229.7,157.7,229.4,157.6,229.1z"/>
			<path class="st4" d="M153.3,230.2h4.7c0,0,0.1,0.5,0.2,0.7h-3.7L153.3,230.2z"/>
			<path class="st4" d="M154.9,231.2h3.3c0,0.1,0.1,0.2,0.1,0.4h-2.8L154.9,231.2z"/>
			<path class="st4" d="M155.9,231.8h2.4c0,0,0,0.2,0,0.3h-2L155.9,231.8z"/>
			<polygon class="st4" points="156.7,232.2 158.3,232.2 158.3,232.5 157.1,232.5 			"/>
			<polygon class="st4" points="157.4,232.7 158.3,232.7 158.3,232.9 157.7,232.9 			"/>
			<polygon class="st4" points="158,233 158.3,233 158.3,233.3 			"/>
		</g>
	</g>
</g>
</svg>
