<?xml version="1.0" encoding="utf-8"?>
<!-- Generator: Adobe Illustrator 24.1.2, SVG Export Plug-In . SVG Version: 6.00 Build 0)  -->
<svg version="1.1"
	 id="Layer_1" xmlns:cc="http://creativecommons.org/ns#" xmlns:dc="http://purl.org/dc/elements/1.1/" xmlns:inkscape="http://www.inkscape.org/namespaces/inkscape" xmlns:rdf="http://www.w3.org/1999/02/22-rdf-syntax-ns#" xmlns:sodipodi="http://sodipodi.sourceforge.net/DTD/sodipodi-0.dtd" xmlns:svg="http://www.w3.org/2000/svg"
	 xmlns="http://www.w3.org/2000/svg" xmlns:xlink="http://www.w3.org/1999/xlink" x="0px" y="0px" viewBox="0 0 300 300"
	 style="enable-background:new 0 0 300 300;" xml:space="preserve">
<style type="text/css">
	.st0{fill:#FFFFFF;}
	.st1{fill:#1B75BC;}
	.st2{fill:#106DB4;}
	.st3{fill:#6D6E71;}
	.st4{enable-background:new    ;}
	.st5{font-family:'ArialMT';}
	.st6{font-size:12px;}
</style>
<sodipodi:namedview  bordercolor="#666666" borderopacity="1" gridtolerance="10" guidetolerance="10" id="namedview1265" inkscape:current-layer="Layer_1" inkscape:cx="169.60793" inkscape:cy="107.50806" inkscape:pageopacity="0" inkscape:pageshadow="2" inkscape:window-height="1016" inkscape:window-maximized="1" inkscape:window-width="1920" inkscape:window-x="1366" inkscape:window-y="27" inkscape:zoom="2.8284271" objecttolerance="10" pagecolor="#ffffff" showgrid="false">
	</sodipodi:namedview>
<g id="g1122" transform="translate(-25.6,-40.499997)">
	<g id="g1064">
		<g id="g1062">
			<rect id="rect1060" x="116.4" y="139.1" class="st0" width="124.8" height="0.4"/>
		</g>
	</g>
	<g id="g1114">
		<g id="g1098">
			<g id="g1068">
				<path id="path1066" inkscape:connector-curvature="0" class="st0" d="M152,133v-12.4h1.9V133H152z"/>
			</g>
			<g id="g1072">
				<path id="path1070" inkscape:connector-curvature="0" class="st0" d="M158.7,124.3v8.7h-1.9v-12.4h1.5l6.8,9v-8.9h1.9V133h-1.6
					L158.7,124.3z"/>
			</g>
			<g id="g1076">
				<path id="path1074" inkscape:connector-curvature="0" class="st0" d="M178.8,122.4h-3.9V133H173v-10.6h-4v-1.7h9.8V122.4z"/>
			</g>
			<g id="g1080">
				<path id="path1078" inkscape:connector-curvature="0" class="st0" d="M188.9,131.3v1.7h-8.1v-12.4h8v1.7h-6.1v3.5h5.3v1.6h-5.3
					v3.8h6.2L188.9,131.3z"/>
			</g>
			<g id="g1084">
				<path id="path1082" inkscape:connector-curvature="0" class="st0" d="M191.5,133v-12.4h5.2c0.5,0,1,0.1,1.5,0.3
					c0.5,0.2,0.8,0.5,1.2,0.9c0.3,0.4,0.6,0.8,0.8,1.3s0.3,1,0.3,1.5c0,0.4-0.1,0.8-0.2,1.2c-0.1,0.4-0.3,0.7-0.5,1.1
					c-0.2,0.3-0.4,0.6-0.7,0.8c-0.3,0.2-0.6,0.4-1,0.5l2.8,4.7h-2.1l-2.6-4.3h-2.7v4.4H191.5z M193.4,127h3.3c0.3,0,0.5-0.1,0.7-0.2
					s0.4-0.3,0.6-0.5c0.2-0.2,0.3-0.5,0.4-0.7c0.1-0.3,0.1-0.6,0.1-0.9s-0.1-0.6-0.2-0.9c-0.1-0.3-0.2-0.5-0.4-0.7s-0.4-0.4-0.6-0.5
					c-0.2-0.1-0.5-0.2-0.7-0.2h-3.2L193.4,127z"/>
			</g>
			<g id="g1088">
				<path id="path1086" inkscape:connector-curvature="0" class="st0" d="M210.4,123.5c-0.1-0.1-0.3-0.3-0.5-0.4s-0.5-0.3-0.7-0.4
					c-0.3-0.1-0.6-0.2-0.9-0.3c-0.3-0.1-0.7-0.1-1.1-0.1c-0.7,0-1.3,0.2-1.7,0.5s-0.6,0.7-0.6,1.3c0,0.3,0.1,0.6,0.2,0.7
					c0.1,0.2,0.3,0.4,0.6,0.5c0.2,0.1,0.6,0.3,0.9,0.4c0.4,0.1,0.8,0.2,1.3,0.4c0.6,0.2,1.1,0.3,1.6,0.5s0.9,0.4,1.2,0.7
					c0.3,0.3,0.6,0.6,0.8,1c0.2,0.4,0.3,0.9,0.3,1.4c0,0.7-0.1,1.2-0.4,1.7c-0.2,0.5-0.5,0.8-0.9,1.1c-0.4,0.3-0.9,0.5-1.4,0.6
					c-0.5,0.1-1.1,0.2-1.7,0.2c-0.9,0-1.8-0.1-2.6-0.4s-1.6-0.7-2.3-1.3l0.9-1.7c0.1,0.2,0.4,0.3,0.6,0.5c0.3,0.2,0.6,0.4,0.9,0.5
					c0.3,0.1,0.8,0.3,1.2,0.4c0.4,0.1,0.9,0.2,1.4,0.2c0.7,0,1.3-0.1,1.7-0.4s0.6-0.7,0.6-1.2c0-0.3-0.1-0.6-0.2-0.8
					c-0.1-0.2-0.4-0.4-0.6-0.6c-0.3-0.2-0.6-0.3-1-0.4c-0.4-0.1-0.9-0.3-1.4-0.4c-0.6-0.2-1.1-0.3-1.5-0.5s-0.8-0.4-1.1-0.7
					c-0.3-0.3-0.5-0.6-0.7-0.9s-0.2-0.8-0.2-1.3c0-0.6,0.1-1.1,0.3-1.6s0.5-0.9,0.9-1.2c0.4-0.3,0.8-0.6,1.4-0.7
					c0.5-0.2,1.1-0.2,1.7-0.2c0.8,0,1.6,0.1,2.3,0.4s1.3,0.6,1.8,1L210.4,123.5z"/>
			</g>
			<g id="g1092">
				<path id="path1090" inkscape:connector-curvature="0" class="st0" d="M214.7,120.6l3.3,6.2l3.3-6.2h2l-4.4,8v4.4H217v-4.5
					l-4.4-7.9H214.7z"/>
			</g>
			<g id="g1096">
				<path id="path1094" inkscape:connector-curvature="0" class="st0" d="M232,123.5c-0.1-0.1-0.3-0.3-0.5-0.4s-0.5-0.3-0.7-0.4
					c-0.3-0.1-0.6-0.2-0.9-0.3c-0.3-0.1-0.7-0.1-1.1-0.1c-0.7,0-1.3,0.2-1.7,0.5s-0.6,0.7-0.6,1.3c0,0.3,0.1,0.6,0.2,0.7
					c0.1,0.2,0.3,0.4,0.6,0.5c0.2,0.1,0.6,0.3,0.9,0.4c0.4,0.1,0.8,0.2,1.3,0.4c0.6,0.2,1.1,0.3,1.6,0.5s0.9,0.4,1.2,0.7
					c0.3,0.3,0.6,0.6,0.8,1c0.2,0.4,0.3,0.9,0.3,1.4c0,0.7-0.1,1.2-0.4,1.7c-0.2,0.5-0.5,0.8-0.9,1.1c-0.4,0.3-0.9,0.5-1.4,0.6
					c-0.5,0.1-1.1,0.2-1.7,0.2c-0.9,0-1.8-0.1-2.6-0.4s-1.6-0.7-2.3-1.3l0.9-1.7c0.1,0.2,0.4,0.3,0.6,0.5c0.3,0.2,0.6,0.4,0.9,0.5
					c0.3,0.1,0.8,0.3,1.2,0.4c0.4,0.1,0.9,0.2,1.4,0.2c0.7,0,1.3-0.1,1.7-0.4s0.6-0.7,0.6-1.2c0-0.3-0.1-0.6-0.2-0.8
					c-0.1-0.2-0.4-0.4-0.6-0.6c-0.3-0.2-0.6-0.3-1-0.4c-0.4-0.1-0.9-0.3-1.4-0.4c-0.6-0.2-1.1-0.3-1.5-0.5s-0.8-0.4-1.1-0.7
					c-0.3-0.3-0.5-0.6-0.7-0.9s-0.2-0.8-0.2-1.3c0-0.6,0.1-1.1,0.3-1.6s0.5-0.9,0.9-1.2c0.4-0.3,0.8-0.6,1.4-0.7
					c0.5-0.2,1.1-0.2,1.7-0.2c0.8,0,1.6,0.1,2.3,0.4s1.3,0.6,1.8,1L232,123.5z"/>
			</g>
		</g>
		<g id="g1112">
			<g id="g1102">
				<polygon id="polygon1100" class="st0" points="140.5,126.1 141.5,127.2 149.2,127.2 141,118.3 133.3,118.3 				"/>
			</g>
			<g id="g1106">
				<polygon id="polygon1104" class="st0" points="141,136.1 149.2,127.2 141.5,127.2 140.5,128.3 133.3,136.1 				"/>
			</g>
			<g id="g1110">
				<polygon id="polygon1108" class="st0" points="131.6,119.2 124.3,127.2 131.6,135.2 138.9,127.2 				"/>
			</g>
		</g>
	</g>
	<g id="g1120">
		<g id="g1118">
			<rect id="rect1116" x="116.4" y="114.9" class="st0" width="124.8" height="0.4"/>
		</g>
	</g>
</g>
<g id="g1198" transform="translate(-25.6,-40.499997)">
	<g id="g1126">
		<path id="path1124" inkscape:connector-curvature="0" class="st1" d="M279.5,260c-12.3,20-80.9,51.5-80.9,51.5s-18.5,10-23.6,10
			c-5.1,0-23.6-10-23.6-10S82.8,280,70.3,260c-0.7-2.8,0-12.5,0-12.5v-164l104.5-25.9l104.6,25.9v164
			C279.5,247.4,280,258.5,279.5,260L279.5,260z"/>
	</g>
	<g id="g1134">
		<g id="g1132">
			<path id="path1128" inkscape:connector-curvature="0" class="st2" d="M274.3,257.2c-11.8,19-77.1,49.1-77.1,49.1
				s-17.7,9.5-22.5,9.5s-22.5-9.5-22.5-9.5S86.7,276.2,75,257.2c-0.6-2.6,0-11.9,0-11.9V88.8l99.7-24.7l99.7,24.7v156.3
				C274.3,245.2,274.8,255.7,274.3,257.2z"/>
			<path id="path1130" inkscape:connector-curvature="0" class="st0" d="M174.6,312.2h-0.1c-2.9-0.4-12.8-4.9-20.2-8.9l-0.2-0.1
				c-17.4-8-64.9-32-75-47l-0.1-0.4c-0.2-1.9-0.1-6.8,0.1-10.5v-0.2V91.5l0.7-0.1l94.9-23.5l0.2,0.1l95.4,23.6v153.7
				c0.1,3.8,0.2,8.9,0.1,10.7l-0.1,0.4c-10.1,14.9-57.6,39-75,47l-0.2,0.1c-7.4,4-17.3,8.5-20.2,8.9L174.6,312.2z M80.7,255.6
				c10.1,14.6,56.9,38.4,74.2,46.3l0.4,0.1c8,4.3,16.9,8.3,19.4,8.6c2.4-0.4,11.5-4.4,19.4-8.6l0.4-0.1
				c17.3-7.9,64.1-31.7,74.2-46.3c0.1-1.7,0-6.1-0.1-10.4V92.6l-93.7-23.3L81.1,92.5v152.9C80.6,249.5,80.6,253.8,80.7,255.6z"/>
		</g>
	</g>
	<g id="g1140">
		<g id="g1138">
			<path id="path1136" inkscape:connector-curvature="0" class="st3" d="M292.5,212.1l10.5-22.3h-87.1
				c-6.1-18.2-22.3-31.1-41.4-31.1c-19,0-35.2,12.9-41.4,31.1H46l10.5,22.3L46,234.4h93.6c8,11.3,20.8,18.8,35.1,18.8
				c14.4,0,27-7.3,35.1-18.8H303L292.5,212.1z"/>
		</g>
	</g>
	<g id="g1166">
		<g id="g1148">
			<g id="g1146">
				<path id="path1142" inkscape:connector-curvature="0" class="st3" d="M174.9,252.3h-0.2v-0.9h0.2c1,0,2.1,0,3-0.1l0.1,0.9
					C176.9,252.3,176,252.3,174.9,252.3z M171.3,252.2c-1.1-0.1-2.2-0.2-3.3-0.5l0.1-0.9c1.1,0.2,2.2,0.4,3.3,0.5L171.3,252.2z
					 M181.3,251.8l-0.1-0.9c1.1-0.1,2.2-0.4,3.2-0.7l0.2,0.9C183.5,251.4,182.4,251.7,181.3,251.8z M164.7,251
					c-1.1-0.2-2.2-0.6-3.2-1l0.2-0.9c1.1,0.4,2.1,0.7,3.2,1L164.7,251z M187.9,250.1l-0.2-0.9c1.1-0.4,2.1-0.7,3-1.2l0.4,0.9
					C190,249.4,188.9,249.7,187.9,250.1z M158.4,248.8c-1-0.5-2.1-1-3-1.6l0.4-0.7c1,0.5,1.9,1.1,2.9,1.5L158.4,248.8z M194.1,247.4
					l-0.4-0.9c1-0.5,1.9-1.1,2.9-1.7l0.4,0.7C196.1,246.3,195.1,246.9,194.1,247.4L194.1,247.4z M152.4,245.4
					c-1-0.6-1.8-1.3-2.8-1.9l0.5-0.7c0.9,0.7,1.8,1.3,2.7,1.9L152.4,245.4z M199.8,243.8l-0.5-0.7c0.9-0.6,1.8-1.3,2.7-2.1l0.5,0.7
					C201.7,242.4,200.7,243.2,199.8,243.8z M147,241.2c-0.9-0.7-1.7-1.6-2.4-2.4l0.6-0.6c0.7,0.9,1.6,1.6,2.4,2.3L147,241.2z
					 M205.1,239.3l-0.6-0.6c0.9-0.9,1.6-1.7,2.3-2.6l0.6,0.6C206.7,237.6,205.8,238.4,205.1,239.3z M142.2,236.2
					c-0.7-0.9-1.3-1.7-2.1-2.7l0.1-0.1v-0.6h0.4l0.1,0.1c0.6,0.9,1.3,1.7,1.9,2.6L142.2,236.2z M209.6,234l-0.6-0.6l0.4-0.6h3v0.9
					h-2.7L209.6,234z M137,233.8h-3.3v-0.9h3.3V233.8z M215.7,233.8v-0.9h3.3v0.9H215.7z M130.4,233.8h-3.3v-0.9h3.3V233.8z
					 M222.4,233.8v-0.9h3.3v0.9H222.4z M123.7,233.8h-3.3v-0.9h3.3V233.8z M229,233.8v-0.9h3.3v0.9H229z M117.1,233.8h-3.3v-0.9h3.3
					V233.8z M235.7,233.8v-0.9h3.3v0.9H235.7z M110.4,233.8h-3.3v-0.9h3.3V233.8z M242.2,233.8v-0.9h3.3v0.9H242.2z M103.8,233.8
					h-3.3v-0.9h3.3V233.8z M248.9,233.8v-0.9h3.3v0.9H248.9z M97.1,233.8h-3.3v-0.9h3.3V233.8z M255.5,233.8v-0.9h3.3v0.9H255.5z
					 M90.6,233.8h-3.3v-0.9h3.3V233.8z M262.2,233.8v-0.9h3.3v0.9H262.2z M83.9,233.7h-3.3v-0.9h3.3V233.7z M268.8,233.7v-0.9h3.3
					v0.9H268.8z M77.3,233.7H74v-0.9h3.3V233.7z M275.5,233.7v-0.9h3.3v0.9H275.5z M70.6,233.7h-3.3v-0.9h3.3V233.7z M282.1,233.7
					v-0.9h3.3v0.9H282.1z M64,233.7h-3.3v-0.9H64V233.7z M288.6,233.7v-0.9h3.3v0.9H288.6z M57.4,233.7h-3.3v-0.9h3.3V233.7z
					 M295.3,233.7v-0.9h3.3v0.9H295.3z M50.7,233.7h-3.5l0.5-1.1l0.4,0.2h2.7V233.7z M301.4,233.3l-1.6-3.2l0.7-0.4l1.6,3.2
					L301.4,233.3z M50,229.9l-0.7-0.4l1.6-3.2l0.7,0.4L50,229.9z M298.3,227l-1.6-3.2l0.7-0.4l1.6,3.2L298.3,227z M53,223.6
					l-0.7-0.4l1.6-3.2l0.7,0.4L53,223.6z M295.2,220.7l-1.6-3.2l0.7-0.4l1.6,3.2L295.2,220.7z M56.2,217.2l-0.7-0.4l1.6-3.2l0.7,0.4
					L56.2,217.2z M292.1,214.4l-1.1-2.3l1.6-3.4l0.7,0.4l-1.5,2.9l0.9,1.8L292.1,214.4z M57.2,211l-1.6-3.2l0.7-0.4l1.6,3.2
					L57.2,211z M294.9,206l-0.7-0.4l1.5-3.2l0.7,0.4L294.9,206z M54.1,204.7l-1.6-3.2l0.7-0.4l1.6,3.2L54.1,204.7z M297.9,199.7
					l-0.7-0.4l1.5-3.2l0.7,0.4L297.9,199.7z M51,198.5l-1.6-3.2l0.7-0.4l1.6,3.2L51,198.5z M301,193.3l-0.7-0.4l1.1-2.4V190h1.2
					L301,193.3z M47.9,192.1l-0.7-1.5h3.2v0.9h-1.8l0.1,0.1L47.9,192.1z M53.6,191.5v-0.9h3.3v0.9H53.6z M60.2,191.5v-0.9h3.3v0.9
					H60.2z M66.9,191.5v-0.9h3.3v0.9H66.9z M73.5,191.4v-0.9h3.3v0.9H73.5z M80.2,191.4v-0.9h3.3v0.9H80.2z M86.8,191.4v-0.9h3.3
					v0.9H86.8z M93.5,191.4v-0.9h3.3v0.9H93.5z M100.1,191.4v-0.9h3.3v0.9H100.1z M106.8,191.4v-0.9h3.3v0.9H106.8z M113.3,191.3
					v-0.9h3.3v0.9H113.3z M120,191.3v-0.9h3.3v0.9H120z M126.6,191.3v-0.9h3.3v0.9H126.6z M133.3,191.3v-0.9h0.7
					c0.2-0.7,0.5-1.3,0.7-1.9l0.7,0.4c-0.2,0.7-0.6,1.5-0.9,2.2l-0.1,0.2H133.3z M215.4,191.3l-0.1-0.2c-0.1-0.2-0.1-0.4-0.2-0.6
					l0.7-0.4c0,0.1,0.1,0.2,0.1,0.4h2.4v0.9H215.4z M221.6,191.3v-0.9h3.3v0.9H221.6z M228.3,191.1v-0.9h3.3v0.9H228.3z
					 M234.9,191.1v-0.9h3.3v0.9H234.9z M241.6,191.1v-0.9h3.3v0.9H241.6z M248.2,191.1v-0.9h3.3v0.9H248.2z M254.9,191.1v-0.9h3.3
					v0.9H254.9z M261.5,191v-0.9h3.3v0.9H261.5z M268.2,191v-0.9h3.3v0.9H268.2z M274.8,191v-0.9h3.3v0.9H274.8z M281.5,191v-0.9
					h3.3v0.9H281.5z M288,191v-0.9h3.3v0.9H288z M294.7,190.9V190h3.3v0.9H294.7z M213.7,187.1c-0.5-1.1-1-2.1-1.6-3.2l0.7-0.5
					c0.6,1,1.1,2.1,1.6,3.2L213.7,187.1z M137,185.5l-0.7-0.4c0.5-1.1,1.1-2.1,1.7-3.2l0.7,0.5C138.1,183.5,137.5,184.6,137,185.5
					L137,185.5z M210.4,181c-0.6-1-1.2-1.9-1.9-2.8l0.6-0.6c0.7,1,1.3,1.9,1.9,2.9L210.4,181z M140.5,179.6l-0.6-0.5
					c0.6-1,1.3-1.9,2.1-2.8l0.6,0.6C141.8,177.7,141.1,178.6,140.5,179.6z M206.3,175.6c-0.7-0.9-1.6-1.7-2.3-2.4l0.6-0.6
					c0.9,0.9,1.6,1.7,2.3,2.6L206.3,175.6z M144.8,174.2l-0.6-0.6c0.7-0.9,1.6-1.7,2.4-2.4l0.5,0.7
					C146.4,172.6,145.5,173.4,144.8,174.2z M201.5,170.7c-0.9-0.7-1.7-1.5-2.7-2.1l0.5-0.7c1,0.7,1.8,1.3,2.7,2.2L201.5,170.7z
					 M149.8,169.6l-0.5-0.7c0.9-0.7,1.8-1.3,2.8-2.1l0.5,0.7C151.5,168.2,150.6,169,149.8,169.6z M196.1,166.8
					c-1-0.6-1.9-1.1-2.9-1.7l0.4-0.9c1,0.5,1.9,1.1,2.9,1.7L196.1,166.8z M155.2,165.8l-0.4-0.7c1-0.6,1.9-1.1,3-1.6l0.4,0.9
					C157.2,164.8,156.2,165.3,155.2,165.8L155.2,165.8z M190.2,163.6c-1-0.5-2.1-0.9-3-1.2l0.2-0.9c1.1,0.4,2.1,0.7,3.2,1.2
					L190.2,163.6z M161.2,163l-0.2-0.9c1.1-0.4,2.1-0.7,3.2-1.1l0.2,0.9C163.4,162.3,162.3,162.6,161.2,163z M183.9,161.5
					c-1.1-0.2-2.2-0.5-3.3-0.6l0.1-0.9c1.1,0.1,2.2,0.4,3.3,0.6L183.9,161.5z M167.7,161.2l-0.1-0.9c1.1-0.2,2.2-0.4,3.3-0.5
					l0.1,0.9C169.7,160.8,168.6,161.1,167.7,161.2z M177.4,160.6c-1.1-0.1-2.2-0.1-3.3-0.1v-0.9c1.1,0,2.2,0,3.3,0.1V160.6z"/>
				<path id="path1144" inkscape:connector-curvature="0" class="st0" d="M174.9,159.6c-0.2,0-0.5,0-0.7,0v0.9c0.2,0,0.5,0,0.7,0
					c0.9,0,1.7,0,2.6,0.1v-0.9C176.7,159.7,175.7,159.6,174.9,159.6z M170.8,159.8c-1.1,0.1-2.2,0.2-3.3,0.5l0.1,0.9
					c1.1-0.2,2.2-0.4,3.3-0.5L170.8,159.8z M180.8,160.1l-0.1,0.9c1.1,0.1,2.2,0.4,3.3,0.6l0.1-0.9
					C183,160.4,181.9,160.2,180.8,160.1z M164.3,161.2c-1.1,0.2-2.2,0.6-3.2,1.1l0.2,0.9c1-0.4,2.1-0.7,3.2-1L164.3,161.2z
					 M187.4,161.7l-0.2,0.9c1.1,0.4,2.1,0.7,3,1.2l0.4-0.9C189.5,162.4,188.4,162,187.4,161.7z M157.9,163.5c-1,0.5-2.1,1-3,1.6
					l0.4,0.7c1-0.6,1.9-1.1,2.9-1.6L157.9,163.5z M193.6,164.2l-0.4,0.9c1,0.5,1.9,1.1,2.9,1.7l0.4-0.7
					C195.6,165.3,194.6,164.8,193.6,164.2L193.6,164.2z M152,166.9c-1,0.6-1.8,1.3-2.8,2.1l0.5,0.7c0.9-0.7,1.8-1.3,2.7-1.9
					L152,166.9z M199.3,167.9l-0.5,0.7c0.9,0.6,1.8,1.3,2.7,2.1l0.5-0.7C201.2,169.3,200.3,168.6,199.3,167.9z M146.6,171.2
					c-0.9,0.7-1.7,1.6-2.4,2.4l0.6,0.6c0.7-0.9,1.6-1.6,2.4-2.4L146.6,171.2z M204.6,172.4L204,173c0.9,0.9,1.6,1.6,2.3,2.4l0.6-0.6
					C206.2,174.1,205.4,173.2,204.6,172.4z M141.8,176.3c-0.7,0.9-1.5,1.8-2.1,2.8l0.6,0.5c0.6-1,1.3-1.8,2.1-2.8L141.8,176.3z
					 M209.1,177.6l-0.6,0.6c0.7,0.9,1.3,1.8,1.9,2.8l0.7-0.5C210.6,179.6,209.8,178.6,209.1,177.6L209.1,177.6z M137.9,182
					c-0.6,1-1.2,2.1-1.7,3.2l0.7,0.4c0.5-1,1.1-2.1,1.7-3L137.9,182z M212.9,183.6l-0.7,0.5c0.6,1,1.1,2.1,1.6,3.2l0.7-0.4
					C214,185.7,213.5,184.6,212.9,183.6z M134.8,188.3c-0.2,0.6-0.5,1.3-0.7,1.9h-0.7v0.9h1.3l0.1-0.2c0.2-0.7,0.5-1.5,0.9-2.2
					L134.8,188.3z M215.8,190l-0.7,0.4c0.1,0.2,0.1,0.4,0.2,0.6l0.1,0.2h2.9v-0.9h-2.4C215.9,190.3,215.9,190.2,215.8,190L215.8,190
					z M302.5,190h-1.2v0.5l-1.1,2.4l0.7,0.4L302.5,190z M298,190h-3.3v0.9h3.3V190z M291.3,190H288v0.9h3.3V190z M284.7,190h-3.3
					v0.9h3.3V190z M278,190.2h-3.3v0.9h3.3V190.2z M271.5,190.2h-3.3v0.9h3.3V190.2z M264.8,190.2h-3.3v0.9h3.3V190.2z M258.2,190.2
					h-3.3v0.9h3.3V190.2z M251.5,190.2h-3.3v0.9h3.3V190.2z M244.9,190.3h-3.3v0.9h3.3V190.3z M238.3,190.3H235v0.9h3.3V190.3z
					 M231.6,190.3h-3.3v0.9h3.3V190.3z M225.1,190.3h-3.3v0.9h3.3V190.3z M129.9,190.4h-3.3v0.9h3.3V190.4z M123.3,190.4H120v0.9
					h3.3V190.4z M116.6,190.4h-3.3v0.9h3.3V190.4z M110,190.4h-3.3v0.9h3.3V190.4z M103.5,190.4h-3.3v0.9h3.3V190.4z M96.8,190.5
					h-3.3v0.9h3.3V190.5z M90.2,190.5h-3.3v0.9h3.3V190.5z M83.5,190.5h-3.3v0.9h3.3V190.5z M76.9,190.5h-3.3v0.9h3.3V190.5z
					 M70.2,190.5h-3.3v0.9h3.3V190.5z M63.6,190.5h-3.3v0.9h3.3V190.5z M56.9,190.7h-3.3v0.9h3.3V190.7z M50.4,190.7h-3.2l0.7,1.5
					l0.7-0.4l-0.1-0.1h1.8V190.7z M50.2,194.8l-0.7,0.4l1.6,3.2l0.7-0.4L50.2,194.8z M298.6,196.1l-1.5,3.2l0.7,0.4l1.5-3.2
					L298.6,196.1z M53.3,201.1l-0.7,0.4l1.6,3.2l0.7-0.4L53.3,201.1z M295.6,202.5l-1.5,3.2l0.7,0.4l1.5-3.2L295.6,202.5z
					 M56.4,207.5l-0.7,0.4l1.6,3.2l0.7-0.4L56.4,207.5z M292.5,208.8l-1.6,3.4l1.1,2.3l0.7-0.4l-0.9-1.8l1.5-2.9L292.5,208.8z
					 M56.9,213.7l-1.6,3.2l0.7,0.4l1.6-3.2L56.9,213.7z M294.4,217.2l-0.7,0.4l1.6,3.2l0.7-0.4L294.4,217.2z M53.9,220l-1.6,3.2
					l0.7,0.4l1.6-3.2L53.9,220z M297.4,223.4l-0.7,0.4l1.6,3.2l0.7-0.4L297.4,223.4z M50.8,226.4l-1.6,3.2l0.7,0.4l1.6-3.2
					L50.8,226.4z M300.6,229.8l-0.7,0.4l1.6,3.2l0.7-0.4L300.6,229.8z M47.7,232.6l-0.5,1.1h3.5v-0.9H48L47.7,232.6z M298.6,232.8
					h-3.3v0.9h3.3V232.8z M54,232.8v0.9h3.3v-0.9H54z M292.1,232.8h-3.3v0.9h3.3V232.8z M60.7,232.8v0.9H64v-0.9H60.7z M285.4,232.8
					h-3.3v0.9h3.3V232.8z M67.3,232.8v0.9h3.3v-0.9H67.3z M278.8,232.8h-3.3v0.9h3.3V232.8z M74,232.8v0.9h3.3v-0.9H74z
					 M272.1,232.8h-3.3v0.9h3.3V232.8z M80.6,232.8v0.9h3.3v-0.9H80.6z M265.5,232.8h-3.3v0.9h3.3V232.8z M87.3,232.8v0.9h3.3v-0.9
					H87.3z M258.8,232.8h-3.3v0.9h3.3V232.8z M93.8,232.8v0.9h3.3v-0.9H93.8z M252.2,232.8h-3.3v0.9h3.3V232.8z M100.5,232.8v0.9
					h3.3v-0.9H100.5z M245.5,232.8h-3.3v0.9h3.3V232.8z M107.1,232.8v0.9h3.3v-0.9H107.1z M238.9,232.8h-3.3v0.9h3.3V232.8z
					 M113.8,232.8v0.9h3.3v-0.9H113.8z M232.2,232.8H229v0.9h3.3V232.8z M120.4,232.9v0.9h3.3v-0.9H120.4z M225.7,232.9h-3.3v0.9
					h3.3V232.9z M127.1,232.9v0.9h3.3v-0.9H127.1z M219,232.9h-3.3v0.9h3.3V232.9z M133.7,232.9v0.9h3.3v-0.9H133.7z M212.4,232.9
					h-3l-0.4,0.6l0.6,0.6l0.1-0.2h2.7V232.9z M140.6,232.9h-0.4v0.6l-0.1,0.1c0.6,0.9,1.3,1.8,2.1,2.7l0.6-0.6
					c-0.7-0.9-1.3-1.7-1.9-2.6L140.6,232.9z M206.8,236.1c-0.7,0.9-1.5,1.7-2.3,2.6l0.6,0.6c0.9-0.9,1.6-1.7,2.3-2.6L206.8,236.1z
					 M145.1,238.2l-0.6,0.6c0.9,0.9,1.6,1.6,2.4,2.4l0.5-0.7C146.7,239.8,145.9,239,145.1,238.2z M202,241c-0.9,0.7-1.7,1.5-2.7,2.1
					l0.5,0.7c0.9-0.7,1.8-1.5,2.7-2.2L202,241z M150.1,242.7l-0.5,0.7c0.9,0.7,1.8,1.3,2.8,1.9l0.5-0.7
					C152,244,151,243.4,150.1,242.7z M196.5,245c-1,0.6-1.9,1.2-2.9,1.7l0.4,0.9c1-0.5,1.9-1.1,2.9-1.7L196.5,245z M155.7,246.3
					l-0.4,0.7c1,0.6,1.9,1.1,3,1.6l0.4-0.9C157.7,247.4,156.7,246.9,155.7,246.3L155.7,246.3z M190.7,248.2c-1,0.5-2.1,0.9-3,1.2
					l0.2,0.9c1.1-0.4,2.1-0.7,3.2-1.2L190.7,248.2z M161.8,249.1l-0.2,0.9c1.1,0.4,2.2,0.7,3.2,1l0.2-0.9
					C163.9,249.9,162.8,249.5,161.8,249.1z M184.5,250.2c-1.1,0.2-2.2,0.5-3.2,0.7l0.1,0.9c1.1-0.1,2.2-0.4,3.3-0.7L184.5,250.2z
					 M168.2,250.8l-0.1,0.9c1.1,0.2,2.2,0.4,3.3,0.5l0.1-0.9C170.4,251.2,169.3,251.1,168.2,250.8z M177.9,251.3
					c-1,0.1-2.1,0.1-3,0.1h-0.2v0.9h0.2c1,0,2.1,0,3-0.1V251.3z"/>
			</g>
		</g>
		<g id="g1156">
			<g id="g1154">
				<polygon id="polygon1150" class="st0" points="82.9,212.1 83.6,216.1 80.2,214.2 76.8,216.1 77.4,212.1 74.6,209.2 78.5,208.6 
					80.2,204.9 81.9,208.6 85.7,209.2 				"/>
				<path id="path1152" inkscape:connector-curvature="0" class="st0" d="M80.2,206.4l1,2.2l0.2,0.6l0.6,0.1l2.4,0.4l-1.8,1.8
					l-0.4,0.5l0.1,0.6l0.4,2.6l-1.9-1.1l-0.6-0.4l-0.6,0.4l-1.9,1.1l0.4-2.6l0.1-0.6l-0.4-0.5l-1.8-1.8l2.4-0.4l0.6-0.1l0.2-0.6
					L80.2,206.4 M80.2,203.4l-2.1,4.5l-4.6,0.7l3.4,3.5l-0.9,5l4.1-2.3l4.1,2.3l-0.9-5l3.4-3.5l-4.6-0.7L80.2,203.4z"/>
			</g>
		</g>
		<g id="g1164">
			<g id="g1162">
				<polygon id="polygon1158" class="st0" points="268.2,214.2 264.8,216.1 265.5,212.1 262.7,209.2 266.5,208.6 268.2,204.9 
					269.9,208.6 273.7,209.2 271,212.1 271.6,216.1 				"/>
				<path id="path1160" inkscape:connector-curvature="0" class="st0" d="M268.2,206.4l1,2.2l0.2,0.6l0.6,0.1l2.3,0.4l-1.8,1.8
					l-0.4,0.5l0.1,0.6l0.4,2.6l-1.9-1.1l-0.6-0.4l-0.6,0.4l-1.9,1.1l0.4-2.6l0.1-0.6l-0.4-0.5l-1.8-1.8l2.4-0.4l0.6-0.1l0.2-0.6
					L268.2,206.4 M268.2,203.4l-2.1,4.5l-4.6,0.7l3.4,3.5l-0.9,5l4.1-2.3l4.1,2.3l-0.9-5l3.4-3.5l-4.6-0.7L268.2,203.4z"/>
			</g>
		</g>
	</g>
	<g>
		<g class="st4">
			<path class="st0" d="M126.1,220.9c-1.4,0-2.5-0.3-3.4-0.8c-0.8-0.5-1.4-1.3-1.7-2.3c-0.3-1-0.5-2.1-0.5-3.4v-7
				c0-1.3,0.2-2.5,0.5-3.5c0.3-1,0.9-1.7,1.7-2.2c0.8-0.5,1.9-0.8,3.4-0.8c1.4,0,2.4,0.2,3.2,0.7c0.8,0.5,1.3,1.1,1.6,2
				c0.3,0.8,0.5,1.8,0.5,3v1.6h-3.8v-1.8c0-0.4,0-0.9-0.1-1.3c0-0.4-0.2-0.7-0.4-1s-0.6-0.4-1.1-0.4s-0.9,0.1-1.1,0.4
				s-0.4,0.6-0.4,1c-0.1,0.4-0.1,0.9-0.1,1.4v8.8c0,0.5,0,1,0.1,1.4c0.1,0.4,0.3,0.7,0.5,0.9s0.6,0.3,1,0.3c0.5,0,0.9-0.1,1.1-0.4
				s0.3-0.6,0.4-1s0.1-0.9,0.1-1.3v-1.9h3.8v1.6c0,1.1-0.2,2.1-0.5,3c-0.3,0.9-0.9,1.6-1.6,2.1C128.6,220.7,127.5,220.9,126.1,220.9
				z"/>
			<path class="st0" d="M137.9,220.9c-1,0-1.8-0.2-2.5-0.5c-0.7-0.4-1.2-0.9-1.6-1.6c-0.4-0.7-0.5-1.5-0.5-2.6v-5
				c0-1,0.2-1.9,0.5-2.6c0.4-0.7,0.9-1.2,1.6-1.6c0.7-0.4,1.5-0.5,2.5-0.5c1,0,1.8,0.2,2.5,0.5c0.7,0.4,1.2,0.9,1.6,1.6
				c0.4,0.7,0.5,1.5,0.5,2.6v5c0,1-0.2,1.9-0.5,2.6c-0.4,0.7-0.9,1.2-1.6,1.6C139.7,220.7,138.9,220.9,137.9,220.9z M137.9,218.5
				c0.3,0,0.5-0.1,0.7-0.3c0.2-0.2,0.3-0.4,0.3-0.7c0-0.3,0.1-0.6,0.1-1V211c0-0.4,0-0.7-0.1-1c0-0.3-0.1-0.5-0.3-0.7
				c-0.2-0.2-0.4-0.3-0.7-0.3c-0.3,0-0.5,0.1-0.7,0.3c-0.2,0.2-0.3,0.4-0.3,0.7s-0.1,0.6-0.1,1v5.5c0,0.4,0,0.7,0.1,1
				c0.1,0.3,0.2,0.5,0.3,0.7S137.6,218.5,137.9,218.5z"/>
			<path class="st0" d="M144.7,220.7v-13.9h3.6v1.4c0.5-0.5,1-0.9,1.5-1.2c0.5-0.3,1.1-0.4,1.7-0.4c0.6,0,1,0.1,1.4,0.4
				c0.4,0.3,0.6,0.7,0.8,1.1c0.2,0.5,0.3,1,0.3,1.6v10.9h-3.5v-10.3c0-0.4-0.1-0.7-0.2-0.9s-0.3-0.3-0.7-0.3c-0.2,0-0.4,0.1-0.6,0.2
				s-0.5,0.2-0.7,0.4v10.9H144.7z"/>
			<path class="st0" d="M160.3,220.8c-0.9,0-1.7-0.1-2.2-0.4c-0.5-0.3-0.9-0.7-1.1-1.3c-0.2-0.6-0.3-1.2-0.3-2v-7.9h-1.3v-2.4h1.3
				v-4.2h3.6v4.2h2v2.4h-2v7.5c0,0.4,0.1,0.7,0.3,0.9c0.2,0.2,0.5,0.3,0.9,0.3c0.2,0,0.4,0,0.5,0c0.2,0,0.3,0,0.5-0.1v2.8
				c-0.2,0-0.5,0.1-0.9,0.1C161.2,220.8,160.8,220.8,160.3,220.8z"/>
			<path class="st0" d="M164.4,220.7v-13.9h3.6v2.2c0.5-0.8,0.9-1.4,1.4-1.8c0.4-0.4,1-0.6,1.6-0.6c0.1,0,0.2,0,0.3,0
				c0.1,0,0.2,0,0.2,0.1v3.6c-0.2-0.1-0.4-0.1-0.6-0.2c-0.2-0.1-0.4-0.1-0.7-0.1c-0.4,0-0.8,0.1-1.2,0.3c-0.4,0.2-0.7,0.6-1,1v9.3
				H164.4z"/>
			<path class="st0" d="M173.1,204.5v-2.7h3.6v2.7H173.1z M173.1,220.7v-13.9h3.6v13.9H173.1z"/>
			<path class="st0" d="M185.5,220.9c-0.5,0-1-0.1-1.5-0.4s-0.9-0.6-1.3-0.9v1.1h-3.6v-19.4h3.6v6.6c0.4-0.4,0.9-0.7,1.4-0.9
				c0.5-0.2,1-0.3,1.5-0.3c0.5,0,1,0.1,1.4,0.4c0.4,0.2,0.7,0.6,0.9,1c0.2,0.4,0.4,0.9,0.5,1.4c0.1,0.5,0.1,1,0.1,1.6v5.4
				c0,0.9-0.1,1.7-0.3,2.4c-0.2,0.7-0.6,1.2-1,1.6C186.7,220.7,186.2,220.9,185.5,220.9z M183.9,218.5c0.3,0,0.5-0.1,0.7-0.3
				c0.2-0.2,0.3-0.4,0.3-0.7c0.1-0.3,0.1-0.6,0.1-1v-5.8c0-0.3,0-0.6-0.1-0.9c-0.1-0.3-0.2-0.5-0.3-0.7c-0.1-0.2-0.4-0.3-0.6-0.3
				c-0.2,0-0.4,0.1-0.6,0.2s-0.4,0.2-0.6,0.4v8.7c0.2,0.1,0.4,0.2,0.6,0.3S183.7,218.5,183.9,218.5z"/>
			<path class="st0" d="M193,220.9c-0.5,0-1-0.1-1.4-0.4c-0.4-0.3-0.6-0.7-0.8-1.2c-0.2-0.5-0.3-1-0.3-1.6v-10.9h3.6v10.4
				c0,0.4,0.1,0.7,0.2,0.9c0.1,0.2,0.4,0.3,0.7,0.3c0.2,0,0.4-0.1,0.6-0.2c0.2-0.1,0.4-0.2,0.6-0.4v-11.1h3.6v13.9h-3.6v-1.3
				c-0.5,0.5-1,0.8-1.5,1.1C194.2,220.8,193.6,220.9,193,220.9z"/>
			<path class="st0" d="M206.3,220.8c-0.9,0-1.7-0.1-2.2-0.4s-0.9-0.7-1.1-1.3c-0.2-0.6-0.3-1.2-0.3-2v-7.9h-1.3v-2.4h1.3v-4.2h3.6
				v4.2h2v2.4h-2v7.5c0,0.4,0.1,0.7,0.3,0.9c0.2,0.2,0.5,0.3,0.9,0.3c0.2,0,0.4,0,0.5,0c0.2,0,0.3,0,0.5-0.1v2.8
				c-0.2,0-0.5,0.1-0.9,0.1C207.2,220.8,206.8,220.8,206.3,220.8z"/>
			<path class="st0" d="M214.7,220.9c-1,0-1.8-0.2-2.5-0.5c-0.7-0.4-1.2-0.9-1.6-1.6c-0.4-0.7-0.5-1.5-0.5-2.6v-5
				c0-1,0.2-1.9,0.5-2.6c0.4-0.7,0.9-1.2,1.6-1.6c0.7-0.4,1.5-0.5,2.5-0.5s1.8,0.2,2.5,0.5c0.7,0.4,1.2,0.9,1.6,1.6
				c0.4,0.7,0.5,1.5,0.5,2.6v5c0,1-0.2,1.9-0.5,2.6c-0.4,0.7-0.9,1.2-1.6,1.6C216.5,220.7,215.6,220.9,214.7,220.9z M214.7,218.5
				c0.3,0,0.5-0.1,0.7-0.3c0.2-0.2,0.3-0.4,0.3-0.7c0-0.3,0.1-0.6,0.1-1V211c0-0.4,0-0.7-0.1-1c0-0.3-0.1-0.5-0.3-0.7
				c-0.2-0.2-0.4-0.3-0.7-0.3s-0.5,0.1-0.7,0.3c-0.2,0.2-0.3,0.4-0.3,0.7s-0.1,0.6-0.1,1v5.5c0,0.4,0,0.7,0.1,1
				c0.1,0.3,0.2,0.5,0.3,0.7C214.2,218.4,214.4,218.5,214.7,218.5z"/>
			<path class="st0" d="M221.5,220.7v-13.9h3.6v2.2c0.5-0.8,0.9-1.4,1.4-1.8c0.4-0.4,1-0.6,1.6-0.6c0.1,0,0.2,0,0.3,0
				c0.1,0,0.2,0,0.2,0.1v3.6c-0.2-0.1-0.4-0.1-0.6-0.2c-0.2-0.1-0.4-0.1-0.7-0.1c-0.4,0-0.8,0.1-1.2,0.3c-0.4,0.2-0.7,0.6-1,1v9.3
				H221.5z"/>
		</g>
	</g>
	<g id="g1182">
		<g id="g1174">
			<g id="g1172">
				<rect id="rect1170" x="130.3" y="270" class="st0" width="33.5" height="0.5"/>
			</g>
		</g>
		<g id="g1180">
			<g id="g1178">
				<rect id="rect1176" x="186.1" y="269.8" class="st0" width="33.5" height="0.5"/>
			</g>
		</g>
	</g>
	<g id="Layer_2_1_">
		<g id="Layer_1-2">
			<g id="Apex_Logo">
				<path class="st0" d="M170.4,267.2c0,0,2-1.8,5.1-1.8c3.1,0,5.2,1.8,5.2,1.8H170.4z"/>
				<path class="st0" d="M170.2,267.3h10.8c0,0,0.9,0.8,1.2,1.3H169C169,268.6,169.6,267.8,170.2,267.3z"/>
				<path class="st0" d="M168.9,268.8h13.4c0,0,0.6,0.9,0.6,1.1h-6.2l-1.2-0.7l-1.1,0.7h-6.2C168.2,269.9,168.5,269.2,168.9,268.8z"
					/>
				<path class="st0" d="M168.1,270.1h5.9l-1.5,0.9h-4.8C167.8,271,167.9,270.5,168.1,270.1z"/>
				<path class="st0" d="M167.7,271.3h4.5l-1.1,0.7h-3.6C167.6,271.7,167.6,271.5,167.7,271.3z"/>
				<path class="st0" d="M167.5,272.1h3.3l-0.6,0.4h-2.7C167.4,272.4,167.5,272.3,167.5,272.1z"/>
				<path class="st0" d="M167.4,272.7h2.4l-0.4,0.3h-2C167.4,273,167.4,273,167.4,272.7z"/>
				<polygon class="st0" points="167.4,273.2 169.1,273.2 168.7,273.4 167.4,273.4 				"/>
				<polygon class="st0" points="167.4,273.6 168.4,273.6 168.1,273.8 167.4,273.8 				"/>
				<polygon class="st0" points="167.4,274 167.8,274 167.4,274.2 				"/>
				<polygon class="st0" points="167.7,274.2 175.5,271.7 183.3,274.2 				"/>
				<path class="st0" d="M183,270.1h-6l1.5,0.9h4.8C183.3,270.8,183.1,270.5,183,270.1z"/>
				<path class="st0" d="M178.8,271.2h4.6c0,0,0.1,0.4,0.2,0.7H180L178.8,271.2z"/>
				<path class="st0" d="M180.4,272.1h3.2c0,0.1,0.1,0.2,0.1,0.3H181L180.4,272.1z"/>
				<path class="st0" d="M181.3,272.7h2.4c0,0,0,0.2,0,0.3h-2L181.3,272.7z"/>
				<polygon class="st0" points="182.1,273.2 183.7,273.2 183.7,273.4 182.5,273.4 				"/>
				<polygon class="st0" points="182.8,273.6 183.7,273.6 183.7,273.8 183.1,273.8 				"/>
				<polygon class="st0" points="183.4,274 183.7,274 183.7,274.2 				"/>
			</g>
		</g>
	</g>
</g>
<g id="g1262" transform="translate(-25.6,-40.499997)">
	<g id="g1204">
		<g id="g1202">
			<rect id="rect1200" x="116.1" y="151.8" class="st0" width="124.8" height="0.4"/>
		</g>
	</g>
	<text transform="matrix(1 0 0 1 132.9999 144.4356)" class="st0 st5 st6">APEX SYSTEMS</text>
	<g id="g1260">
		<g id="g1258">
			<rect id="rect1256" x="116.1" y="127.6" class="st0" width="124.8" height="0.4"/>
		</g>
	</g>
</g>
</svg>
