<?xml version="1.0" encoding="utf-8"?>
<!-- Generator: Adobe Illustrator 24.1.2, SVG Export Plug-In . SVG Version: 6.00 Build 0)  -->
<svg version="1.1"
	 id="Layer_1" xmlns:cc="http://creativecommons.org/ns#" xmlns:dc="http://purl.org/dc/elements/1.1/" xmlns:inkscape="http://www.inkscape.org/namespaces/inkscape" xmlns:rdf="http://www.w3.org/1999/02/22-rdf-syntax-ns#" xmlns:sodipodi="http://sodipodi.sourceforge.net/DTD/sodipodi-0.dtd" xmlns:svg="http://www.w3.org/2000/svg"
	 xmlns="http://www.w3.org/2000/svg" xmlns:xlink="http://www.w3.org/1999/xlink" x="0px" y="0px" viewBox="0 0 140.2 141.8"
	 style="enable-background:new 0 0 140.2 141.8;" xml:space="preserve">
<style type="text/css">
	.st0{fill-rule:evenodd;clip-rule:evenodd;fill:#44546A;}
	.st1{fill:#FFFFFF;}
</style>
<sodipodi:namedview  bordercolor="#666666" borderopacity="1" gridtolerance="10" guidetolerance="10" id="namedview347" inkscape:current-layer="Layer_1" inkscape:cx="69.849998" inkscape:cy="70.950005" inkscape:pageopacity="0" inkscape:pageshadow="2" inkscape:window-height="480" inkscape:window-maximized="0" inkscape:window-width="640" inkscape:window-x="520" inkscape:window-y="48" inkscape:zoom="0.8324515" objecttolerance="10" pagecolor="#ffffff" showgrid="false">
	</sodipodi:namedview>
<g id="g344" transform="translate(-71.900002,-70.900002)">
	<g id="g340">
		<g id="g338">
			<g id="g336">
				<g id="g334">
					<ellipse id="ellipse332" class="st0" cx="142" cy="141.8" rx="70.1" ry="70.9"/>
				</g>
			</g>
		</g>
	</g>
	<path id="path342" inkscape:connector-curvature="0" class="st1" d="M169,102.1c0.9,0.3,2.1,1.5,3.6,3.8c0.3,0.4,0.9,1.3,1.8,2.7
		c0.7,1,1.1,1.7,1.5,2.1c1.4,1.7,4.2,5.2,8.4,10.3c3.4,4.1,6.3,7.7,8.6,10.6c2.3,2.9,3.4,4.2,3.4,4c-0.1-0.3-2.2,2.2-6.7,7.7
		c-5.1,6.3-12.8,15.2-23.3,27.1c-10.6,11.9-18.3,20.8-23.2,26.8c-7.1-7.7-24.8-28.4-53.2-61.7c8.8-11.6,17.5-22.8,26.1-33.5
		L169,102.1L169,102.1z M133.7,174.6c-0.3-0.6-4.3-13.1-12.2-37.4c-1.7,0-4.6,0-8.5,0c-3.7,0-6.4,0-8,0c10.7,14.5,19,25.6,25,33.5
		C131.7,172.8,133,174.2,133.7,174.6z M115.6,126.2c3.1,0.1,5.5-0.1,7.1-0.3c-0.5-0.6-1.8-2.1-3.7-4.5c-1.5-1.9-2.8-3.4-3.7-4.5
		c-0.7,1.1-1.9,2.7-3.6,4.6c-1.6,2-2.8,3.5-3.6,4.6C109,126.1,111.6,126.2,115.6,126.2z M132.9,114.6c1.6-2.1,2.8-3.7,3.4-4.9H122
		c2,3.4,4.4,6.6,7.4,9.8C130.1,118.3,131.3,116.7,132.9,114.6z M142.7,184.1c1-5.2,2.8-12.9,5.1-23.4c2.2-10.2,4-18,5.1-23.3
		c-5-0.3-11.2-0.3-18.7-0.3C137.5,156.5,140.3,172.2,142.7,184.1L142.7,184.1z M150.1,128c-0.6-1.1-3-4.1-7.1-9
		c-0.6,0.9-1.8,2.4-3.6,4.5c-1.5,1.9-2.8,3.4-3.6,4.5L150.1,128L150.1,128z M160.5,114.6c1.6-2.1,2.8-3.7,3.4-4.9
		c-0.9,0.1-3.4,0-7.5-0.1c-3.1-0.1-5.5,0.1-7.1,0.3c0.7,0.7,1.9,2.3,3.8,4.9c1.5,2.1,2.8,3.6,4,4.6
		C157.8,118.4,158.9,116.8,160.5,114.6z M152.1,175.1c2.8-3.8,7.7-10.1,14.8-18.9c6.4-8.1,11.3-14.4,14.6-19c-1.3,0-3.6,0-7,0
		c-3.6,0-6.1,0-7.7,0C162.9,146.1,158,158.7,152.1,175.1z M167.4,121.6c-1.5,1.8-2.7,3.4-3.4,4.6h14.4c-2.1-3.5-4.6-6.5-7.4-9
		C170.3,118,169.1,119.4,167.4,121.6z"/>
</g>
</svg>
