<?xml version="1.0" encoding="utf-8"?>
<!-- Generator: Adobe Illustrator 24.1.2, SVG Export Plug-In . SVG Version: 6.00 Build 0)  -->
<svg version="1.1"
	 id="Layer_1" xmlns:cc="http://creativecommons.org/ns#" xmlns:dc="http://purl.org/dc/elements/1.1/" xmlns:inkscape="http://www.inkscape.org/namespaces/inkscape" xmlns:rdf="http://www.w3.org/1999/02/22-rdf-syntax-ns#" xmlns:sodipodi="http://sodipodi.sourceforge.net/DTD/sodipodi-0.dtd" xmlns:svg="http://www.w3.org/2000/svg"
	 xmlns="http://www.w3.org/2000/svg" xmlns:xlink="http://www.w3.org/1999/xlink" x="0px" y="0px" viewBox="0 0 300 300"
	 style="enable-background:new 0 0 300 300;" xml:space="preserve">
<style type="text/css">
	.st0{fill:#D3B844;}
	.st1{fill:url(#circle1413_1_);}
	.st2{fill:#897625;}
	.st3{fill:#FFFFFF;}
	.st4{fill:#FCE06B;}
</style>
<sodipodi:namedview  bordercolor="#666666" borderopacity="1" gridtolerance="10" guidetolerance="10" id="namedview1460" inkscape:current-layer="Layer_1" inkscape:cx="189.84613" inkscape:cy="88.739696" inkscape:pageopacity="0" inkscape:pageshadow="2" inkscape:window-height="731" inkscape:window-maximized="1" inkscape:window-width="1366" inkscape:window-x="1920" inkscape:window-y="0" inkscape:zoom="1.664903" objecttolerance="10" pagecolor="#ffffff" showgrid="false">
	</sodipodi:namedview>
<g id="g7363" transform="matrix(1.1596742,0,0,1.1596742,8.6542055,-21.042093)">
	<g id="g1423" transform="translate(-27.2,-29.2)">
		<path id="path1392" inkscape:connector-curvature="0" class="st0" d="M80.8,107.4c38-38,99.5-38,137.5,0s38,99.5,0,137.5
			s-99.5,38-137.5,0S42.8,145.4,80.8,107.4z"/>
		
			<linearGradient id="circle1413_1_" gradientUnits="userSpaceOnUse" x1="17.3709" y1="144.1075" x2="175.5397" y2="235.4264" gradientTransform="matrix(1.1597 0 0 -1.1597 50.3615 388.9861)">
			<stop  offset="0" style="stop-color:#000000"/>
			<stop  offset="0.1281" style="stop-color:#7B6330"/>
			<stop  offset="0.2739" style="stop-color:#997D3D"/>
			<stop  offset="0.4001" style="stop-color:#D3B059"/>
			<stop  offset="0.5142" style="stop-color:#E3C062"/>
			<stop  offset="0.6239" style="stop-color:#E6C263"/>
			<stop  offset="0.7412" style="stop-color:#EED77D"/>
			<stop  offset="0.9271" style="stop-color:#FAF39B"/>
			<stop  offset="1" style="stop-color:#FFFFFF"/>
		</linearGradient>
		<circle id="circle1413" class="st1" cx="149.6" cy="176.2" r="91.3"/>
		<g id="g1417">
			<path id="path1415" inkscape:connector-curvature="0" class="st2" d="M217.1,108.7l0.1,0.1l-1,1l-0.1-0.1
				c-0.5-0.5-0.9-0.9-1.4-1.4l1-1C216.2,107.8,216.6,108.2,217.1,108.7z M218.7,110.4c0.5,0.6,1,1,1.5,1.6l-1,0.9
				c-0.5-0.6-0.9-1-1.5-1.6L218.7,110.4z M214.1,105.8l-1,1c-0.6-0.5-1-0.9-1.6-1.5l0.9-1C213,104.9,213.5,105.4,214.1,105.8
				L214.1,105.8z M221.7,113.6c0.5,0.6,0.9,1.1,1.4,1.6l-1.1,0.9c-0.5-0.6-0.9-1.1-1.4-1.6L221.7,113.6z M210.8,103l-0.9,1.1
				c-0.6-0.5-1.1-0.9-1.6-1.4l0.9-1.1C209.7,102.1,210.2,102.5,210.8,103z M224.4,116.9c0.5,0.6,0.9,1.1,1.4,1.7l-1.1,0.9
				c-0.5-0.6-0.9-1.1-1.3-1.7L224.4,116.9z M207.4,100.2l-0.9,1.1c-0.6-0.5-1.1-0.9-1.7-1.3l0.8-1.1
				C206.2,99.4,206.8,99.8,207.4,100.2z M227,120.5c0.5,0.6,0.8,1.1,1.3,1.8l-1.1,0.8c-0.5-0.6-0.8-1.1-1.3-1.7L227,120.5z
				 M203.9,97.7l-0.8,1.1c-0.6-0.5-1.1-0.8-1.8-1.1l0.8-1.3C202.7,96.9,203.3,97.3,203.9,97.7z M229.6,124c0.3,0.6,0.8,1.3,1.1,1.8
				l-1.3,0.8c-0.3-0.6-0.8-1.3-1.1-1.8L229.6,124z M200.3,95.3l-0.8,1.3c-0.6-0.3-1.3-0.8-1.8-1.1l0.7-1.3
				C199,94.5,199.6,95,200.3,95.3z M231.9,127.7c0.3,0.6,0.7,1.3,1,1.8l-1.3,0.7c-0.3-0.6-0.7-1.3-1-1.8L231.9,127.7z M196.5,93
				l-0.7,1.3c-0.6-0.3-1.3-0.7-1.8-1l0.7-1.3C195.2,92.3,195.9,92.7,196.5,93L196.5,93z M233.9,131.6c0.3,0.7,0.7,1.3,1,1.9
				l-1.3,0.7c-0.3-0.7-0.7-1.3-1-1.9L233.9,131.6z M192.7,91l-0.7,1.3c-0.7-0.3-1.3-0.7-1.9-0.9l0.6-1.3
				C191.4,90.4,192,90.7,192.7,91z M236,135.5c0.3,0.7,0.6,1.4,0.9,1.9l-1.3,0.6c-0.3-0.7-0.6-1.3-0.9-1.9L236,135.5z M188.7,89.1
				l-0.6,1.3c-0.7-0.3-1.3-0.6-1.9-0.8l0.6-1.4C187.5,88.6,188,88.8,188.7,89.1z M237.7,139.5c0.2,0.7,0.6,1.4,0.8,2.1l-1.4,0.6
				c-0.2-0.7-0.6-1.4-0.8-1.9L237.7,139.5z M184.7,87.4l-0.6,1.4c-0.7-0.2-1.4-0.6-1.9-0.8l0.5-1.4C183.5,87,184,87.2,184.7,87.4z
				 M239.3,143.5c0.2,0.7,0.5,1.4,0.7,2.1l-1.4,0.5c-0.2-0.7-0.5-1.4-0.7-2.1L239.3,143.5z M180.7,85.9l-0.5,1.4
				c-0.7-0.2-1.4-0.5-2.1-0.7l0.5-1.4C179.3,85.5,180,85.7,180.7,85.9z M240.7,147.6c0.2,0.7,0.5,1.4,0.6,2.1l-1.4,0.3
				c-0.2-0.7-0.5-1.4-0.6-2.1L240.7,147.6z M176.6,84.7l-0.5,1.4c-0.7-0.2-1.4-0.3-2.1-0.6l0.3-1.4
				C175.1,84.2,175.8,84.4,176.6,84.7z M241.9,151.8c0.2,0.7,0.3,1.4,0.6,2.1l-1.4,0.3c-0.1-0.7-0.3-1.4-0.6-2.1L241.9,151.8z
				 M172.4,83.5l-0.3,1.4c-0.7-0.1-1.4-0.3-2.1-0.5l0.3-1.4C171,83.2,171.7,83.3,172.4,83.5L172.4,83.5z M243,156.1
				c0.1,0.7,0.3,1.4,0.5,2.2l-1.4,0.2c-0.1-0.7-0.2-1.4-0.5-2.1L243,156.1z M168.1,82.6l-0.2,1.4c-0.7-0.1-1.4-0.2-2.1-0.3l0.2-1.4
				C166.6,82.3,167.4,82.4,168.1,82.6z M243.8,160.3c0.1,0.7,0.2,1.5,0.3,2.2l-1.4,0.2c-0.1-0.7-0.2-1.4-0.3-2.2L243.8,160.3z
				 M163.8,81.8l-0.2,1.4c-0.7-0.1-1.4-0.2-2.2-0.3l0.2-1.4C162.4,81.6,163.1,81.7,163.8,81.8z M244.3,164.7
				c0.1,0.7,0.1,1.5,0.2,2.2l-1.5,0.1c-0.1-0.7-0.1-1.4-0.2-2.2L244.3,164.7z M159.5,81.2l-0.1,1.5c-0.7-0.1-1.4-0.1-2.2-0.2
				l0.1-1.5C158.1,81.1,158.7,81.2,159.5,81.2L159.5,81.2z M244.8,169c0,0.7,0.1,1.5,0.1,2.2l-1.5,0.1c0-0.7-0.1-1.4-0.1-2.2
				L244.8,169z M155.2,80.9l-0.1,1.5c-0.7,0-1.4-0.1-2.2-0.1v-1.5C153.7,80.9,154.4,80.9,155.2,80.9z M245,173.3c0,0.7,0,1.5,0,2.2
				h-1.5c0-0.7,0-1.4,0-2.2H245z M150.8,80.8v1.5c-0.7,0-1.4,0-2.2,0v-1.5C149.4,80.8,150,80.8,150.8,80.8z M245,177.7
				c0,0.7,0,1.5,0,2.2h-1.5c0-0.7,0-1.4,0-2.2H245z M146.5,80.8v1.5c-0.7,0-1.4,0-2.2,0.1l-0.1-1.5C145,80.9,145.7,80.8,146.5,80.8z
				 M244.9,182c0,0.7-0.1,1.5-0.1,2.2l-1.5-0.1c0.1-0.7,0.1-1.4,0.1-2.2L244.9,182z M142.2,81l0.1,1.5c-0.7,0-1.4,0.1-2.2,0.2
				l-0.1-1.5C140.7,81.1,141.4,81.1,142.2,81z M244.6,186.4c-0.1,0.7-0.1,1.5-0.2,2.2l-1.4-0.2c0.1-0.7,0.2-1.4,0.2-2.2L244.6,186.4
				z M137.8,81.5l0.2,1.4c-0.7,0.1-1.4,0.2-2.2,0.3l-0.2-1.4C136.3,81.7,137.1,81.6,137.8,81.5z M244,190.6
				c-0.1,0.7-0.2,1.5-0.3,2.2l-1.4-0.2c0.1-0.7,0.2-1.4,0.3-2.1L244,190.6z M133.5,82.2l0.2,1.4c-0.7,0.1-1.4,0.2-2.1,0.3l-0.2-1.4
				C132.1,82.4,132.8,82.3,133.5,82.2z M243.2,195c-0.1,0.7-0.3,1.4-0.5,2.2l-1.4-0.3c0.1-0.7,0.3-1.4,0.5-2.1L243.2,195z M129.2,83
				l0.3,1.4c-0.7,0.1-1.4,0.3-2.1,0.5l-0.3-1.4C127.7,83.3,128.5,83.1,129.2,83z M242.3,199.2c-0.2,0.7-0.3,1.4-0.6,2.1l-1.4-0.3
				c0.2-0.7,0.3-1.4,0.6-2.1L242.3,199.2z M125,84l0.3,1.4c-0.7,0.2-1.4,0.3-2.1,0.6l-0.5-1.4C123.6,84.3,124.3,84.1,125,84z
				 M241.1,203.4c-0.2,0.7-0.5,1.4-0.7,2.1l-1.4-0.5c0.2-0.7,0.5-1.4,0.6-2.1L241.1,203.4z M120.8,85.1l0.5,1.4
				c-0.7,0.2-1.4,0.5-2.1,0.7l-0.5-1.4C119.4,85.6,120.1,85.4,120.8,85.1z M239.7,207.6c-0.2,0.7-0.5,1.4-0.7,2.1l-1.4-0.5
				c0.2-0.7,0.5-1.4,0.7-2.1L239.7,207.6z M116.6,86.6l0.5,1.4c-0.7,0.2-1.4,0.5-2.1,0.8l-0.6-1.4C115.3,87.1,116,86.9,116.6,86.6z
				 M238.3,211.6c-0.2,0.7-0.6,1.4-0.8,2.1l-1.4-0.6c0.2-0.7,0.6-1.3,0.8-1.9L238.3,211.6z M112.6,88.2l0.6,1.4
				c-0.7,0.2-1.4,0.6-1.9,0.8l-0.6-1.3C111.3,88.8,111.9,88.5,112.6,88.2z M236.5,215.6c-0.3,0.7-0.6,1.4-0.9,1.9l-1.3-0.6
				c0.3-0.7,0.6-1.3,0.9-1.9L236.5,215.6z M108.6,89.9l0.6,1.3c-0.7,0.3-1.3,0.6-1.9,0.9l-0.7-1.3C107.3,90.6,107.9,90.3,108.6,89.9
				z M234.7,219.5c-0.3,0.7-0.7,1.3-1,1.9l-1.3-0.7c0.3-0.7,0.7-1.3,1-1.9L234.7,219.5z M104.7,91.9l0.7,1.3c-0.6,0.3-1.3,0.7-1.8,1
				l-0.7-1.3C103.5,92.6,104.1,92.2,104.7,91.9z M232.7,223.3c-0.3,0.7-0.7,1.3-1.1,1.8l-1.3-0.7c0.3-0.6,0.7-1.3,1-1.8L232.7,223.3
				z M101,94.1l0.7,1.3c-0.6,0.3-1.3,0.7-1.8,1.1L99,95.2C99.7,94.9,100.3,94.4,101,94.1z M230.4,227.1c-0.3,0.6-0.8,1.3-1.1,1.8
				l-1.1-0.8c0.3-0.6,0.8-1.1,1.1-1.8L230.4,227.1z M97.2,96.3l0.8,1.3c-0.6,0.3-1.1,0.8-1.8,1.1l-0.8-1.1
				C96,97.1,96.6,96.8,97.2,96.3z M228,230.7c-0.5,0.6-0.8,1.1-1.3,1.7l-1.1-0.8c0.5-0.6,0.8-1.1,1.3-1.7L228,230.7z M93.6,98.9
				l0.8,1.1c-0.6,0.5-1.1,0.8-1.7,1.3l-0.9-1.1C92.5,99.7,93.1,99.3,93.6,98.9z M225.4,234.2c-0.5,0.6-0.9,1.1-1.4,1.7l-1.1-0.9
				c0.5-0.6,0.9-1.1,1.4-1.7L225.4,234.2z M90.2,101.5l0.9,1.1c-0.6,0.5-1.1,0.9-1.7,1.4l-0.9-1.1C89.1,102.4,89.6,102,90.2,101.5z
				 M222.7,237.7c-0.5,0.6-0.9,1.1-1.4,1.6l-1-0.9c0.5-0.6,0.9-1,1.4-1.6L222.7,237.7z M86.8,104.2l0.9,1c-0.6,0.5-1,0.9-1.6,1.4
				l-0.9-1C85.7,105.3,86.3,104.7,86.8,104.2z M219.8,240.9c-0.5,0.6-1,1-1.5,1.6l-1-1c0.5-0.6,1-1,1.5-1.6L219.8,240.9z
				 M83.6,107.2l1,1c-0.6,0.5-1,1-1.5,1.5l-1-1C82.5,108.2,83.1,107.7,83.6,107.2z M215.8,243l1,1c-0.6,0.5-1,1-1.6,1.5l-1-1
				C214.8,243.9,215.3,243.5,215.8,243z M82.1,110.8c-0.5,0.5-1,1-1.5,1.6l-1-1c0.5-0.6,1-1,1.5-1.6L82.1,110.8z M212.7,245.9l0.9,1
				c-0.6,0.5-1,0.9-1.6,1.5l-0.9-1.1C211.6,246.9,212.2,246.5,212.7,245.9z M79.2,113.9c-0.5,0.6-0.9,1-1.4,1.6l-1.1-0.9
				c0.5-0.6,0.9-1.1,1.4-1.6L79.2,113.9z M209.4,248.7l0.9,1.1c-0.6,0.5-1.1,0.9-1.7,1.4l-0.9-1.1
				C208.4,249.7,208.9,249.2,209.4,248.7z M76.4,117.2c-0.5,0.6-0.9,1.1-1.4,1.7l-1.1-0.9c0.5-0.6,0.9-1.1,1.4-1.7L76.4,117.2z
				 M206.1,251.4l0.9,1.1c-0.6,0.5-1.1,0.9-1.7,1.3l-0.8-1.1C205,252.3,205.5,251.8,206.1,251.4z M73.7,120.6
				c-0.5,0.6-0.8,1.1-1.3,1.7l-1.1-0.8c0.5-0.6,0.8-1.1,1.3-1.7L73.7,120.6z M202.6,253.9l0.8,1.1c-0.6,0.5-1.3,0.8-1.8,1.3
				l-0.8-1.3C201.4,254.7,202,254.4,202.6,253.9z M71.3,124c-0.3,0.6-0.8,1.1-1.1,1.8l-1.3-0.8c0.3-0.6,0.8-1.3,1.1-1.8L71.3,124z
				 M199,256.3l0.8,1.3c-0.6,0.3-1.3,0.8-1.8,1.1l-0.7-1.3C197.8,257,198.4,256.6,199,256.3L199,256.3z M69,127.7
				c-0.3,0.6-0.7,1.3-1,1.8l-1.3-0.7c0.3-0.6,0.7-1.3,1.1-1.8L69,127.7z M195.4,258.5l0.7,1.3c-0.7,0.3-1.3,0.7-1.9,1l-0.7-1.3
				C194.1,259.2,194.7,258.8,195.4,258.5z M66.9,131.4c-0.3,0.6-0.7,1.3-1,1.9l-1.3-0.7c0.3-0.7,0.7-1.3,1-1.9L66.9,131.4z
				 M191.6,260.4l0.7,1.3c-0.7,0.3-1.3,0.7-1.9,0.9l-0.6-1.3C190.2,261.1,190.9,260.8,191.6,260.4L191.6,260.4z M64.9,135.2
				c-0.3,0.7-0.6,1.3-0.9,1.9l-1.3-0.6c0.3-0.7,0.6-1.3,0.9-1.9L64.9,135.2z M187.6,262.2l0.6,1.4c-0.7,0.3-1.4,0.6-2.1,0.9
				l-0.6-1.4C186.3,262.8,187,262.6,187.6,262.2z M63.2,139.1c-0.2,0.7-0.6,1.3-0.8,1.9l-1.4-0.6c0.2-0.7,0.6-1.4,0.8-1.9
				L63.2,139.1z M183.7,263.9l0.6,1.4c-0.7,0.2-1.4,0.6-2.1,0.8l-0.5-1.4C182.3,264.4,183,264.2,183.7,263.9z M61.6,143
				c-0.2,0.7-0.5,1.4-0.7,2.1l-1.4-0.5c0.2-0.7,0.5-1.4,0.7-2.1L61.6,143z M179.6,265.3l0.5,1.4c-0.7,0.2-1.4,0.5-2.1,0.7l-0.5-1.4
				C178.3,265.8,179,265.6,179.6,265.3z M60.1,147.1c-0.2,0.7-0.5,1.4-0.7,2.1l-1.4-0.5c0.2-0.7,0.5-1.4,0.7-2.1L60.1,147.1z
				 M175.6,266.6l0.3,1.4c-0.7,0.2-1.4,0.3-2.1,0.6l-0.3-1.4C174.2,267.1,174.9,266.8,175.6,266.6z M58.9,151.2
				c-0.2,0.7-0.3,1.4-0.6,2.1l-1.4-0.3c0.2-0.7,0.3-1.4,0.6-2.1L58.9,151.2z M171.3,267.7l0.3,1.4c-0.7,0.1-1.4,0.3-2.2,0.5
				l-0.3-1.4C170,268.1,170.6,267.9,171.3,267.7z M57.8,155.4c-0.1,0.7-0.3,1.4-0.5,2.1l-1.4-0.3c0.1-0.7,0.3-1.4,0.5-2.2
				L57.8,155.4z M167.2,268.7l0.2,1.4c-0.7,0.1-1.4,0.2-2.2,0.3L165,269C165.7,268.9,166.4,268.8,167.2,268.7z M57,159.5
				c-0.1,0.7-0.2,1.4-0.3,2.1l-1.4-0.2c0.1-0.7,0.2-1.5,0.3-2.2L57,159.5z M163,269.3l0.2,1.4c-0.7,0.1-1.5,0.2-2.2,0.2l-0.1-1.5
				C161.5,269.6,162.2,269.5,163,269.3L163,269.3z M56.3,163.7c-0.1,0.7-0.2,1.4-0.2,2.2l-1.5-0.1c0.1-0.7,0.1-1.5,0.2-2.2
				L56.3,163.7z M158.6,269.8l0.1,1.5c-0.7,0.1-1.5,0.1-2.2,0.2l-0.1-1.5C157.3,269.9,157.9,269.9,158.6,269.8z M55.9,168.1
				c-0.1,0.7-0.1,1.4-0.1,2.2l-1.5-0.1c0-0.7,0.1-1.5,0.1-2.2L55.9,168.1z M154.4,270.1l0.1,1.5c-0.7,0-1.5,0.1-2.2,0.1v-1.5
				C153,270.3,153.7,270.1,154.4,270.1L154.4,270.1z M55.7,172.3c0,0.7,0,1.4-0.1,2.2h-1.5c0-0.7,0-1.5,0.1-2.2H55.7z M150.2,270.3
				v1.5c-0.7,0-1.5,0-2.2,0v-1.5C148.7,270.3,149.4,270.3,150.2,270.3z M55.5,176.6c0,0.7,0,1.4,0,2.2h-1.5c0-0.7,0-1.5,0-2.2H55.5z
				 M145.8,270.1v1.5c-0.7,0-1.5-0.1-2.2-0.1l0.1-1.5C144.4,270.1,145.1,270.1,145.8,270.1L145.8,270.1z M55.7,180.9
				c0,0.7,0.1,1.4,0.1,2.2l-1.5,0.1c0-0.7-0.1-1.5-0.1-2.2L55.7,180.9z M141.6,269.9l-0.1,1.5c-0.7-0.1-1.5-0.1-2.2-0.2l0.1-1.5
				C140.1,269.8,140.9,269.9,141.6,269.9z M56,185.1c0.1,0.7,0.1,1.4,0.2,2.2l-1.5,0.1c-0.1-0.7-0.1-1.5-0.2-2.2L56,185.1z
				 M137.3,269.5l-0.2,1.4c-0.7-0.1-1.5-0.2-2.2-0.3l0.2-1.4C135.9,269.2,136.5,269.3,137.3,269.5z M56.5,189.4
				c0.1,0.7,0.2,1.4,0.3,2.2l-1.4,0.2c-0.1-0.7-0.2-1.5-0.3-2.2L56.5,189.4z M133.1,268.8l-0.2,1.4c-0.7-0.1-1.4-0.2-2.2-0.5
				l0.2-1.4C131.6,268.5,132.3,268.7,133.1,268.8z M57.1,193.7c0.1,0.7,0.2,1.4,0.5,2.1l-1.4,0.3c-0.1-0.7-0.3-1.4-0.5-2.2
				L57.1,193.7z M128.9,268l-0.3,1.4c-0.7-0.1-1.4-0.3-2.1-0.5l0.3-1.4C127.5,267.6,128.2,267.9,128.9,268z M58.1,197.8
				c0.1,0.7,0.3,1.4,0.6,2.1l-1.4,0.3c-0.2-0.7-0.3-1.4-0.6-2.1L58.1,197.8z M124.8,266.9l-0.3,1.4c-0.7-0.2-1.4-0.3-2.1-0.6
				l0.5-1.4C123.4,266.6,124.1,266.7,124.8,266.9z M59.1,202.1c0.2,0.7,0.3,1.4,0.6,2.1l-1.4,0.5c-0.2-0.7-0.5-1.4-0.6-2.1
				L59.1,202.1z M120.6,265.7l-0.5,1.4c-0.7-0.2-1.4-0.5-2.1-0.7l0.5-1.4C119.3,265.3,120,265.5,120.6,265.7z M60.3,206.1
				c0.2,0.7,0.5,1.4,0.7,2.1l-1.4,0.5c-0.2-0.7-0.5-1.4-0.7-2.1L60.3,206.1z M116.5,264.3l-0.5,1.4c-0.7-0.2-1.4-0.5-2.1-0.8
				l0.6-1.4C115.3,263.9,116,264.1,116.5,264.3z M61.8,210.2c0.2,0.7,0.6,1.4,0.8,1.9l-1.4,0.6c-0.2-0.7-0.6-1.4-0.8-2.1L61.8,210.2
				z M112.6,262.7l-0.6,1.4c-0.7-0.2-1.4-0.6-1.9-0.9l0.6-1.3C111.3,262.1,111.9,262.5,112.6,262.7L112.6,262.7z M63.4,214.1
				c0.3,0.7,0.6,1.3,0.9,1.9l-1.3,0.6c-0.3-0.7-0.6-1.4-0.9-1.9L63.4,214.1z M108.7,261l-0.6,1.3c-0.7-0.3-1.3-0.7-1.9-0.9l0.7-1.3
				C107.5,260.3,108.1,260.6,108.7,261z M65.3,218.1c0.3,0.7,0.7,1.3,1,1.9l-1.3,0.7c-0.3-0.7-0.7-1.3-1-1.9L65.3,218.1z M104.9,259
				l-0.7,1.3c-0.7-0.3-1.3-0.7-1.9-1l0.7-1.3C103.6,258.4,104.3,258.7,104.9,259z M67.3,221.9c0.3,0.6,0.7,1.3,1,1.8l-1.3,0.7
				c-0.3-0.6-0.7-1.3-1-1.9L67.3,221.9z M101.2,256.9l-0.7,1.3c-0.6-0.3-1.3-0.8-1.8-1.1l0.8-1.3
				C99.9,256.2,100.5,256.5,101.2,256.9z M69.5,225.5c0.3,0.6,0.8,1.3,1.1,1.8l-1.3,0.8c-0.3-0.6-0.8-1.3-1.1-1.8L69.5,225.5z
				 M97.5,254.6l-0.8,1.1c-0.6-0.5-1.3-0.8-1.8-1.3l0.8-1.1C96.4,253.8,97,254.2,97.5,254.6z M71.8,229.2c0.5,0.6,0.8,1.1,1.3,1.7
				l-1.1,0.8c-0.5-0.6-0.8-1.1-1.3-1.8L71.8,229.2z M94,252.2l-0.8,1.1c-0.6-0.5-1.1-0.9-1.7-1.3l0.9-1.1
				C92.8,251.3,93.4,251.7,94,252.2z M74.3,232.6c0.5,0.6,0.9,1.1,1.3,1.7l-1.1,0.9c-0.5-0.6-0.9-1.1-1.4-1.7L74.3,232.6z
				 M90.7,249.5l-0.9,1.1c-0.6-0.5-1.1-0.9-1.7-1.4l0.9-1.1C89.5,248.6,90.1,249.1,90.7,249.5z M76.9,235.9c0.5,0.6,0.9,1.1,1.4,1.6
				l-1.1,0.9c-0.5-0.6-0.9-1.1-1.4-1.7L76.9,235.9z M87.3,246.8l-0.9,1c-0.6-0.5-1-0.9-1.6-1.5l1-1
				C86.3,245.8,86.8,246.2,87.3,246.8z M79.8,239.3c0.5,0.6,0.9,1,1.5,1.6l-1,1c-0.5-0.6-1-1-1.5-1.6L79.8,239.3z M84.3,243.8l-1,1
				c-0.3-0.3-0.8-0.8-1.1-1.1l-0.3-0.3l1-1l0.3,0.3C83.5,243.1,83.8,243.5,84.3,243.8z"/>
		</g>
		<polygon id="polygon1419" class="st0" points="112.1,235.2 122.8,213.2 105,230.1 118.4,209.5 98.6,224.1 114.5,205.3 93.1,217.3 
			111.1,200.7 88.3,210 108.3,195.7 84.6,202 106.2,190.3 81.9,193.6 104.9,184.8 80.3,185 104.1,179.1 79.7,176.2 104.1,173.3 
			80.3,167.5 104.9,167.6 81.9,158.8 106.2,162.1 84.6,150.5 108.3,156.9 88.3,142.6 111.1,151.8 93.1,135.1 114.5,147.1 
			98.6,128.4 118.4,143 105,122.4 122.8,139.4 112.1,117.2 127.6,136.3 119.8,112.9 132.8,133.9 128,109.7 138.3,132 136.4,107.6 
			143.9,131 145.2,106.4 149.6,130.7 153.9,106.4 155.3,131 162.6,107.6 160.9,132.2 171.2,109.7 166.3,133.9 179.3,112.9 
			171.6,136.3 187,117.2 176.4,139.4 194.1,122.4 180.7,143 200.5,128.4 184.7,147.3 206.1,135.1 188,151.8 210.8,142.6 
			190.8,156.9 214.6,150.5 193,162.1 217.3,158.8 194.3,167.7 218.9,167.5 195,173.3 219.5,176.2 195,179.1 218.9,185 194.3,184.8 
			217.3,193.6 193,190.3 214.6,202 190.8,195.7 210.8,210 188,200.7 206.1,217.4 184.7,205.3 200.5,224.1 180.7,209.5 194.1,230.1 
			176.4,213.2 187,235.2 171.6,216.1 179.3,239.5 166.3,218.7 171.2,242.7 160.9,220.4 162.6,245 155.3,221.4 153.9,246 
			149.6,221.7 145.2,246 143.9,221.4 136.4,245 138.3,220.4 128,242.7 132.8,218.7 119.8,239.5 127.6,216.1 		"/>
		<path id="path1421" inkscape:connector-curvature="0" class="st3" d="M106.1,230.9"/>
	</g>
	<g id="g1427" transform="translate(-27.2,-29.2)">
		<path id="path1425" inkscape:connector-curvature="0" class="st2" d="M253,176.2l23.7-21.7h-72.4c-8.7-22.3-30.4-38.1-55.7-38.1
			s-47,15.7-55.6,38.1H20.6l23.7,21.7L20.6,198H93c8.7,22.3,30.4,38.1,55.6,38.1c25.4,0,47-15.7,55.7-38.1h72.4L253,176.2z"/>
	</g>
	<g id="g1449" transform="translate(-27.2,-29.2)">
		<path id="path1429" inkscape:connector-curvature="0" class="st4" d="M149.1,232c-23.2,0-43.8-14-52.3-35.7l-1-2.7h-65l19.2-17.6
			l-19.2-17.6h65l1-2.7c8.5-21.7,28.9-35.7,52.3-35.7c23.2,0,43.8,14,52.3,35.7l1,2.7h65l-19.2,17.6l19.2,17.6h-65l-1,2.7
			C192.8,218,172.4,232,149.1,232z M33.9,192.4h62.7l1.4,3.5c8.2,21.2,28.4,34.9,51.1,34.9s42.8-13.7,51.1-34.9l1.4-3.5h62.7
			l-18-16.4l18-16.4h-62.7l-1.4-3.5c-8.2-21.2-28.4-34.9-51.1-34.9S106.3,135,98,156.1l-1.4,3.5H33.9l18,16.4L33.9,192.4z"/>
		<g>
			<g>
				<path class="st3" d="M129.8,187.7c-1.7,0-3-0.4-4-1.1c-1-0.7-1.7-1.7-2.1-3c-0.4-1.3-0.6-2.8-0.6-4.6v-8.4
					c0-1.8,0.2-3.4,0.7-4.7c0.4-1.3,1.2-2.3,2.3-3c1.1-0.7,2.6-1.1,4.4-1.1c1.8,0,3.2,0.3,4.3,0.9c1,0.6,1.8,1.4,2.3,2.5
					c0.5,1.1,0.7,2.4,0.7,3.9v1.5h-5V169c0-0.7,0-1.2-0.1-1.8c-0.1-0.5-0.3-0.9-0.6-1.2c-0.3-0.3-0.8-0.4-1.4-0.4
					c-0.7,0-1.2,0.2-1.5,0.5c-0.3,0.4-0.5,0.8-0.6,1.4c-0.1,0.5-0.1,1.1-0.1,1.8v11.1c0,0.7,0.1,1.3,0.2,1.9c0.1,0.6,0.4,1,0.7,1.3
					c0.3,0.3,0.8,0.5,1.5,0.5s1.1-0.2,1.5-0.5c0.4-0.3,0.6-0.8,0.7-1.3c0.1-0.6,0.2-1.2,0.2-1.9v-2.7h-2.5v-3.1h7.1v12.9h-3.4
					l-0.3-2.3c-0.3,0.8-0.8,1.4-1.5,1.9C131.8,187.5,130.9,187.7,129.8,187.7z"/>
				<path class="st3" d="M146.5,187.7c-1.3,0-2.4-0.2-3.3-0.7c-0.9-0.5-1.6-1.1-2.1-2c-0.5-0.9-0.7-2-0.7-3.3v-6.5
					c0-1.3,0.2-2.4,0.7-3.3c0.5-0.9,1.2-1.6,2.1-2c0.9-0.5,2-0.7,3.3-0.7s2.4,0.2,3.3,0.7c0.9,0.5,1.6,1.1,2.1,2
					c0.5,0.9,0.7,2,0.7,3.3v6.5c0,1.3-0.2,2.4-0.7,3.3c-0.5,0.9-1.2,1.6-2.1,2C148.9,187.4,147.8,187.7,146.5,187.7z M146.6,184.5
					c0.4,0,0.7-0.1,0.9-0.3c0.2-0.2,0.3-0.5,0.4-0.9c0.1-0.4,0.1-0.8,0.1-1.3v-7.1c0-0.5,0-1-0.1-1.3c-0.1-0.4-0.2-0.7-0.4-0.9
					c-0.2-0.2-0.5-0.3-0.9-0.3c-0.4,0-0.7,0.1-0.9,0.3c-0.2,0.2-0.3,0.5-0.4,0.9c-0.1,0.4-0.1,0.8-0.1,1.3v7.1c0,0.5,0,0.9,0.1,1.3
					c0.1,0.4,0.2,0.7,0.4,0.9C145.9,184.4,146.2,184.5,146.6,184.5z"/>
				<path class="st3" d="M155.7,187.4v-25.1h4.7v25.1H155.7z"/>
				<path class="st3" d="M167.6,187.7c-1.4,0-2.4-0.5-3.2-1.5c-0.7-1-1.1-2.5-1.1-4.5v-6.6c0-1.2,0.1-2.2,0.5-3.1
					c0.3-0.9,0.8-1.6,1.4-2.2c0.6-0.5,1.4-0.8,2.4-0.8c0.6,0,1.3,0.1,1.8,0.4c0.6,0.3,1.1,0.6,1.6,1v-8.3h4.7v25.1H171V186
					c-0.5,0.5-1.1,0.9-1.6,1.2S168.2,187.7,167.6,187.7z M169.5,184.6c0.2,0,0.4,0,0.7-0.1c0.3-0.1,0.5-0.2,0.8-0.4v-11.4
					c-0.2-0.1-0.5-0.2-0.7-0.3s-0.5-0.1-0.7-0.1c-0.5,0-0.9,0.2-1.1,0.7c-0.2,0.5-0.3,1-0.3,1.6v7.6c0,0.5,0,0.9,0.1,1.3
					c0.1,0.4,0.2,0.7,0.4,0.9C168.8,184.5,169.1,184.6,169.5,184.6z"/>
			</g>
		</g>
	</g>
</g>
</svg>
