<?xml version="1.0" encoding="utf-8"?>
<!-- Generator: Adobe Illustrator 24.1.2, SVG Export Plug-In . SVG Version: 6.00 Build 0)  -->
<svg version="1.1"
	 id="Layer_1" xmlns:cc="http://creativecommons.org/ns#" xmlns:dc="http://purl.org/dc/elements/1.1/" xmlns:inkscape="http://www.inkscape.org/namespaces/inkscape" xmlns:rdf="http://www.w3.org/1999/02/22-rdf-syntax-ns#" xmlns:sodipodi="http://sodipodi.sourceforge.net/DTD/sodipodi-0.dtd" xmlns:svg="http://www.w3.org/2000/svg"
	 xmlns="http://www.w3.org/2000/svg" xmlns:xlink="http://www.w3.org/1999/xlink" x="0px" y="0px" viewBox="0 0 300 300"
	 style="enable-background:new 0 0 300 300;" xml:space="preserve">
<style type="text/css">
	.st0{opacity:0.25;}
	.st1{fill:#FFFFFF;}
	.st2{fill:#808080;}
	.st3{fill:#B3B3B3;}
	.st4{fill:#6D6E71;}
	.st5{enable-background:new    ;}
</style>
<sodipodi:namedview  bordercolor="#666666" borderopacity="1" gridtolerance="10" guidetolerance="10" id="namedview1265" inkscape:current-layer="Layer_1" inkscape:cx="-26.170703" inkscape:cy="104.57909" inkscape:pageopacity="0" inkscape:pageshadow="2" inkscape:window-height="1016" inkscape:window-maximized="1" inkscape:window-width="1920" inkscape:window-x="1366" inkscape:window-y="27" inkscape:zoom="2.3545284" objecttolerance="10" pagecolor="#ffffff" showgrid="false">
	</sodipodi:namedview>
<g id="g1198" transform="translate(-35.6,-34.499997)">
</g>
<g id="g2422" transform="translate(10,7.300003)" class="st0">
	<g id="g1122" transform="translate(-35.6,-47.8)">
		<g id="g1064">
			<g id="g1062">
				<rect id="rect1060" x="110.6" y="132.6" class="st1" width="138.6" height="0.4"/>
			</g>
		</g>
		<g id="g1114">
			<g id="g1098">
				<g id="g1068">
					<path id="path1066" inkscape:connector-curvature="0" class="st1" d="M150.1,125.8V112h2.1v13.8H150.1z"/>
				</g>
				<g id="g1072">
					<path id="path1070" inkscape:connector-curvature="0" class="st1" d="M157.5,116.2v9.7h-2.1V112h1.7l7.5,10v-9.9h2.1v13.7H165
						L157.5,116.2z"/>
				</g>
				<g id="g1076">
					<path id="path1074" inkscape:connector-curvature="0" class="st1" d="M179.9,114h-4.3v11.8h-2.1V114H169v-1.9h10.9V114z"/>
				</g>
				<g id="g1080">
					<path id="path1078" inkscape:connector-curvature="0" class="st1" d="M191.1,123.9v1.9h-9V112h8.9v1.9h-6.8v3.9h5.9v1.8h-5.9
						v4.2h6.9L191.1,123.9z"/>
				</g>
				<g id="g1084">
					<path id="path1082" inkscape:connector-curvature="0" class="st1" d="M194,125.8V112h5.8c0.6,0,1.1,0.1,1.7,0.3
						c0.6,0.2,0.9,0.6,1.3,1c0.3,0.4,0.7,0.9,0.9,1.4c0.2,0.6,0.3,1.1,0.3,1.7c0,0.4-0.1,0.9-0.2,1.3c-0.1,0.4-0.3,0.8-0.6,1.2
						c-0.2,0.3-0.4,0.7-0.8,0.9c-0.3,0.2-0.7,0.4-1.1,0.6l3.1,5.2h-2.3l-2.9-4.8h-3v4.9H194z M196.1,119.1h3.7
						c0.3,0,0.6-0.1,0.8-0.2s0.4-0.3,0.7-0.6c0.2-0.2,0.3-0.6,0.4-0.8c0.1-0.3,0.1-0.7,0.1-1c0-0.3-0.1-0.7-0.2-1
						c-0.1-0.3-0.2-0.6-0.4-0.8c-0.2-0.2-0.4-0.4-0.7-0.6c-0.2-0.1-0.6-0.2-0.8-0.2h-3.6L196.1,119.1z"/>
				</g>
				<g id="g1088">
					<path id="path1086" inkscape:connector-curvature="0" class="st1" d="M214.9,115.3c-0.1-0.1-0.3-0.3-0.6-0.4s-0.6-0.3-0.8-0.4
						c-0.3-0.1-0.7-0.2-1-0.3c-0.3-0.1-0.8-0.1-1.2-0.1c-0.8,0-1.4,0.2-1.9,0.6c-0.4,0.3-0.7,0.8-0.7,1.4c0,0.3,0.1,0.7,0.2,0.8
						c0.1,0.2,0.3,0.4,0.7,0.6c0.2,0.1,0.7,0.3,1,0.4c0.4,0.1,0.9,0.2,1.4,0.4c0.7,0.2,1.2,0.3,1.8,0.6c0.6,0.2,1,0.4,1.3,0.8
						s0.7,0.7,0.9,1.1s0.3,1,0.3,1.6c0,0.8-0.1,1.3-0.4,1.9c-0.2,0.6-0.6,0.9-1,1.2c-0.4,0.3-1,0.6-1.6,0.7s-1.2,0.2-1.9,0.2
						c-1,0-2-0.1-2.9-0.4c-0.9-0.3-1.8-0.8-2.6-1.4l1-1.9c0.1,0.2,0.4,0.3,0.7,0.6c0.3,0.2,0.7,0.4,1,0.6c0.3,0.1,0.9,0.3,1.3,0.4
						c0.4,0.1,1,0.2,1.6,0.2c0.8,0,1.4-0.1,1.9-0.4c0.4-0.3,0.7-0.8,0.7-1.3c0-0.3-0.1-0.7-0.2-0.9c-0.1-0.2-0.4-0.4-0.7-0.7
						c-0.3-0.2-0.7-0.3-1.1-0.4c-0.4-0.1-1-0.3-1.6-0.4c-0.7-0.2-1.2-0.3-1.7-0.6c-0.4-0.2-0.9-0.4-1.2-0.8c-0.3-0.3-0.6-0.7-0.8-1
						c-0.2-0.3-0.2-0.9-0.2-1.4c0-0.7,0.1-1.2,0.3-1.8c0.2-0.6,0.6-1,1-1.3c0.4-0.3,0.9-0.7,1.6-0.8c0.6-0.2,1.2-0.2,1.9-0.2
						c0.9,0,1.8,0.1,2.6,0.4c0.8,0.3,1.4,0.7,2,1.1L214.9,115.3z"/>
				</g>
				<g id="g1092">
					<path id="path1090" inkscape:connector-curvature="0" class="st1" d="M219.7,112l3.7,6.9l3.7-6.9h2.2l-4.9,8.9v4.9h-2.1v-5
						l-4.9-8.8H219.7z"/>
				</g>
				<g id="g1096">
					<path id="path1094" inkscape:connector-curvature="0" class="st1" d="M238.9,115.3c-0.1-0.1-0.3-0.3-0.6-0.4
						c-0.2-0.1-0.6-0.3-0.8-0.4c-0.3-0.1-0.7-0.2-1-0.3c-0.3-0.1-0.8-0.1-1.2-0.1c-0.8,0-1.4,0.2-1.9,0.6c-0.4,0.3-0.7,0.8-0.7,1.4
						c0,0.3,0.1,0.7,0.2,0.8c0.1,0.2,0.3,0.4,0.7,0.6c0.2,0.1,0.7,0.3,1,0.4c0.4,0.1,0.9,0.2,1.4,0.4c0.7,0.2,1.2,0.3,1.8,0.6
						c0.6,0.2,1,0.4,1.3,0.8s0.7,0.7,0.9,1.1c0.2,0.4,0.3,1,0.3,1.6c0,0.8-0.1,1.3-0.4,1.9c-0.2,0.6-0.6,0.9-1,1.2
						c-0.4,0.3-1,0.6-1.6,0.7c-0.6,0.1-1.2,0.2-1.9,0.2c-1,0-2-0.1-2.9-0.4c-0.9-0.3-1.8-0.8-2.6-1.4l1-1.9c0.1,0.2,0.4,0.3,0.7,0.6
						c0.3,0.2,0.7,0.4,1,0.6c0.3,0.1,0.9,0.3,1.3,0.4c0.4,0.1,1,0.2,1.6,0.2c0.8,0,1.4-0.1,1.9-0.4c0.4-0.3,0.7-0.8,0.7-1.3
						c0-0.3-0.1-0.7-0.2-0.9c-0.1-0.2-0.4-0.4-0.7-0.7c-0.3-0.2-0.7-0.3-1.1-0.4c-0.4-0.1-1-0.3-1.6-0.4c-0.7-0.2-1.2-0.3-1.7-0.6
						c-0.4-0.2-0.9-0.4-1.2-0.8c-0.3-0.3-0.6-0.7-0.8-1c-0.2-0.3-0.2-0.9-0.2-1.4c0-0.7,0.1-1.2,0.3-1.8s0.6-1,1-1.3
						c0.4-0.3,0.9-0.7,1.6-0.8c0.6-0.2,1.2-0.2,1.9-0.2c0.9,0,1.8,0.1,2.6,0.4c0.8,0.3,1.4,0.7,2,1.1L238.9,115.3z"/>
				</g>
			</g>
			<g id="g1112">
				<g id="g1102">
					<polygon id="polygon1100" class="st1" points="138.4,119.4 147,119.4 137.9,109.5 129.3,109.5 137.3,118.1 					"/>
				</g>
				<g id="g1106">
					<polygon id="polygon1104" class="st1" points="147,119.4 138.4,119.4 137.3,120.6 129.3,129.3 137.9,129.3 					"/>
				</g>
				<g id="g1110">
					<polygon id="polygon1108" class="st1" points="127.5,110.5 119.4,119.4 127.5,128.3 135.6,119.4 					"/>
				</g>
			</g>
		</g>
		<g id="g1120">
			<g id="g1118">
				<rect id="rect1116" x="110.6" y="105.7" class="st1" width="138.6" height="0.4"/>
			</g>
		</g>
	</g>
	<g id="g1126" transform="translate(-35.6,-47.8)">
		<path id="path1124" inkscape:connector-curvature="0" class="st2" d="M272.6,254.6c-11.2,18.2-73.7,47-73.7,47s-16.9,9.1-21.5,9.1
			c-4.7,0-21.5-9.1-21.5-9.1s-62.5-28.8-73.8-47c-0.7-2.6,0-11.4,0-11.4V93.7l95.3-23.6l95.4,23.6v149.4
			C272.6,243.2,273,253.3,272.6,254.6L272.6,254.6z"/>
	</g>
	<g id="g1134" transform="translate(-35.6,-47.8)">
		<g id="g1132">
			<path id="path1128" inkscape:connector-curvature="0" class="st3" d="M267.8,252c-10.8,17.3-70.3,44.7-70.3,44.7
				s-16.1,8.7-20.5,8.7s-20.5-8.7-20.5-8.7S96.8,269.4,86.2,252c-0.6-2.3,0-10.9,0-10.9V98.6L177,76.1l90.8,22.5v142.4
				C267.8,241.2,268.2,250.7,267.8,252z"/>
			<path id="path1130" inkscape:connector-curvature="0" class="st3" d="M177,302.2h-0.1c-2.7-0.3-11.7-4.4-18.4-8.1l-0.2-0.1
				c-15.9-7.3-59.2-29.2-68.4-42.9l-0.1-0.3c-0.2-1.8-0.1-6.2,0.1-9.5v-0.2v-140l0.7-0.1L177,79.5l0.2,0.1l86.9,21.5v140.1
				c0.1,3.4,0.2,8.1,0.1,9.8l-0.1,0.3c-9.2,13.5-52.5,35.5-68.4,42.9l-0.2,0.1c-6.8,3.7-15.8,7.8-18.4,8.1L177,302.2z M91.4,250.6
				c9.2,13.3,51.8,35,67.6,42.2l0.3,0.1c7.3,3.9,15.4,7.5,17.7,7.9c2.2-0.3,10.4-4,17.7-7.9l0.3-0.1c15.8-7.2,58.4-28.9,67.6-42.2
				c0.1-1.6,0-5.6-0.1-9.4V102.1l-85.4-21.2l-85.4,21.1v139.3C91.3,245,91.3,248.9,91.4,250.6z"/>
		</g>
	</g>
	<g id="g1140" transform="translate(-35.6,-47.8)">
		<g id="g1138">
			<path id="path1136" inkscape:connector-curvature="0" class="st4" d="M284.4,211l9.5-20.3h-79.4c-5.6-16.5-20.3-28.3-37.7-28.3
				c-17.3,0-32.1,11.8-37.7,28.3H59.7l9.5,20.3l-9.5,20.3H145c7.3,10.3,19,17.1,32,17.1c13.1,0,24.6-6.7,32-17.1h85L284.4,211z"/>
		</g>
	</g>
	<g id="g1166" transform="translate(-35.6,-47.8)">
		<g id="g1148">
			<g id="g1146">
				<path id="path1142" inkscape:connector-curvature="0" class="st4" d="M177.2,247.6H177v-0.8h0.2c0.9,0,1.9,0,2.8-0.1l0.1,0.8
					C179.1,247.6,178.2,247.6,177.2,247.6z M174,247.5c-1-0.1-2-0.2-3-0.4l0.1-0.8c1,0.2,2,0.3,3,0.4L174,247.5z M183.1,247.2
					l-0.1-0.8c1-0.1,2-0.3,2.9-0.7l0.2,0.8C185.1,246.8,184.1,247,183.1,247.2z M168,246.4c-1-0.2-2-0.6-2.9-0.9l0.2-0.8
					c1,0.3,1.9,0.7,2.9,0.9L168,246.4z M189.1,245.6l-0.2-0.8c1-0.3,1.9-0.7,2.8-1.1l0.3,0.8C191,244.9,190,245.3,189.1,245.6z
					 M162.2,244.4c-0.9-0.4-1.9-0.9-2.8-1.4l0.3-0.7c0.9,0.4,1.8,1,2.7,1.3L162.2,244.4z M194.7,243.2l-0.3-0.8
					c0.9-0.4,1.8-1,2.7-1.6l0.3,0.7C196.5,242.2,195.6,242.7,194.7,243.2L194.7,243.2z M156.8,241.3c-0.9-0.6-1.7-1.2-2.6-1.8
					l0.4-0.7c0.8,0.7,1.7,1.2,2.4,1.8L156.8,241.3z M200,239.8l-0.4-0.7c0.8-0.6,1.7-1.2,2.4-1.9l0.4,0.7
					C201.6,238.6,200.7,239.3,200,239.8z M151.8,237.5c-0.8-0.7-1.6-1.4-2.2-2.2l0.6-0.6c0.7,0.8,1.4,1.4,2.2,2.1L151.8,237.5z
					 M204.7,235.7l-0.6-0.6c0.8-0.8,1.4-1.6,2.1-2.3l0.6,0.6C206.2,234.2,205.4,234.9,204.7,235.7z M147.4,232.9
					c-0.7-0.8-1.2-1.6-1.9-2.4l0.1-0.1v-0.6h0.3l0.1,0.1c0.6,0.8,1.2,1.6,1.8,2.3L147.4,232.9z M208.8,230.9l-0.6-0.6l0.3-0.6h2.8
					v0.8h-2.4L208.8,230.9z M142.7,230.7h-3v-0.8h3V230.7z M214.4,230.7v-0.8h3v0.8H214.4z M136.7,230.7h-3v-0.8h3V230.7z
					 M220.5,230.7v-0.8h3v0.8H220.5z M130.6,230.7h-3v-0.8h3V230.7z M226.5,230.7v-0.8h3v0.8H226.5z M124.6,230.7h-3v-0.8h3V230.7z
					 M232.6,230.7v-0.8h3v0.8H232.6z M118.5,230.7h-3v-0.8h3V230.7z M238.6,230.7v-0.8h3v0.8H238.6z M112.5,230.7h-3v-0.8h3V230.7z
					 M244.7,230.7v-0.8h3v0.8H244.7z M106.4,230.7h-3v-0.8h3V230.7z M250.7,230.7v-0.8h3v0.8H250.7z M100.4,230.7h-3v-0.8h3V230.7z
					 M256.8,230.7v-0.8h3v0.8H256.8z M94.3,230.6h-3v-0.8h3V230.6z M262.8,230.6v-0.8h3v0.8H262.8z M88.3,230.6h-3v-0.8h3V230.6z
					 M268.9,230.6v-0.8h3v0.8H268.9z M82.2,230.6h-3v-0.8h3V230.6z M274.9,230.6v-0.8h3v0.8H274.9z M76.2,230.6h-3v-0.8h3V230.6z
					 M280.9,230.6v-0.8h3v0.8H280.9z M70.2,230.6h-3v-0.8h3V230.6z M287,230.6v-0.8h3v0.8H287z M64.1,230.6h-3.2l0.4-1l0.3,0.2h2.4
					V230.6z M292.5,230.3l-1.4-2.9l0.7-0.3l1.4,2.9L292.5,230.3z M63.4,227.2l-0.7-0.3l1.4-2.9l0.7,0.3L63.4,227.2z M289.7,224.5
					l-1.4-2.9l0.7-0.3l1.4,2.9L289.7,224.5z M66.2,221.4l-0.7-0.3l1.4-2.9l0.7,0.3L66.2,221.4z M286.9,218.8l-1.4-2.9l0.7-0.3
					l1.4,2.9L286.9,218.8z M69.1,215.6l-0.7-0.3l1.4-2.9l0.7,0.3L69.1,215.6z M284,213.1l-1-2.1l1.4-3.1l0.7,0.3l-1.3,2.7l0.8,1.7
					L284,213.1z M69.9,210l-1.4-2.9l0.7-0.3l1.4,2.9L69.9,210z M286.6,205.4l-0.7-0.3l1.3-2.9l0.7,0.3L286.6,205.4z M67.2,204.2
					l-1.4-2.9l0.7-0.3l1.4,2.9L67.2,204.2z M289.3,199.6l-0.7-0.3l1.3-2.9l0.7,0.3L289.3,199.6z M64.3,198.5l-1.4-2.9l0.7-0.3
					l1.4,2.9L64.3,198.5z M292.1,193.9l-0.7-0.3l1-2.2v-0.4h1.1L292.1,193.9z M61.5,192.8l-0.7-1.3h2.9v0.8h-1.7l0.1,0.1L61.5,192.8
					z M66.7,192.2v-0.8h3v0.8H66.7z M72.7,192.2v-0.8h3v0.8H72.7z M78.8,192.2v-0.8h3v0.8H78.8z M84.8,192.1v-0.8h3v0.8H84.8z
					 M90.9,192.1v-0.8h3v0.8H90.9z M96.9,192.1v-0.8h3v0.8H96.9z M103,192.1v-0.8h3v0.8H103z M109,192.1v-0.8h3v0.8H109z
					 M115.1,192.1v-0.8h3v0.8H115.1z M121.1,192v-0.8h3v0.8H121.1z M127.2,192v-0.8h3v0.8H127.2z M133.2,192v-0.8h3v0.8H133.2z
					 M139.3,192v-0.8h0.7c0.2-0.7,0.4-1.2,0.7-1.8l0.7,0.3c-0.2,0.7-0.6,1.3-0.8,2l-0.1,0.2H139.3z M214.2,192l-0.1-0.2
					c-0.1-0.2-0.1-0.3-0.2-0.6l0.7-0.3c0,0.1,0.1,0.2,0.1,0.3h2.2v0.8H214.2z M219.8,192v-0.8h3v0.8H219.8z M225.9,191.9v-0.8h3v0.8
					H225.9z M231.9,191.9v-0.8h3v0.8H231.9z M238,191.9v-0.8h3v0.8H238z M244,191.9v-0.8h3v0.8H244z M250.1,191.9v-0.8h3v0.8H250.1z
					 M256.1,191.8V191h3v0.8H256.1z M262.2,191.8V191h3v0.8H262.2z M268.2,191.8V191h3v0.8H268.2z M274.3,191.8V191h3v0.8H274.3z
					 M280.3,191.8V191h3v0.8H280.3z M286.4,191.6v-0.8h3v0.8H286.4z M212.6,188.2c-0.4-1-0.9-1.9-1.4-2.9l0.7-0.4
					c0.6,0.9,1,1.9,1.4,2.9L212.6,188.2z M142.7,186.8l-0.7-0.3c0.4-1,1-1.9,1.6-2.9l0.7,0.4C143.7,184.9,143.1,185.9,142.7,186.8
					L142.7,186.8z M209.6,182.7c-0.6-0.9-1.1-1.8-1.8-2.6l0.6-0.6c0.7,0.9,1.2,1.8,1.8,2.7L209.6,182.7z M145.9,181.3l-0.6-0.4
					c0.6-0.9,1.2-1.8,1.9-2.6l0.6,0.6C147.1,179.7,146.4,180.4,145.9,181.3z M205.8,177.7c-0.7-0.8-1.4-1.6-2.1-2.2l0.6-0.6
					c0.8,0.8,1.4,1.6,2.1,2.3L205.8,177.7z M149.8,176.4l-0.6-0.6c0.7-0.8,1.4-1.6,2.2-2.2l0.4,0.7
					C151.2,175,150.4,175.7,149.8,176.4z M201.5,173.2c-0.8-0.7-1.6-1.3-2.4-1.9l0.4-0.7c0.9,0.7,1.7,1.2,2.4,2L201.5,173.2z
					 M154.3,172.2l-0.4-0.7c0.8-0.7,1.7-1.2,2.6-1.9l0.4,0.7C155.9,171,155.1,171.7,154.3,172.2z M196.5,169.7
					c-0.9-0.6-1.8-1-2.7-1.6l0.3-0.8c0.9,0.4,1.8,1,2.7,1.6L196.5,169.7z M159.3,168.8l-0.3-0.7c0.9-0.6,1.8-1,2.8-1.4l0.3,0.8
					C161.1,167.9,160.2,168.3,159.3,168.8L159.3,168.8z M191.2,166.8c-0.9-0.4-1.9-0.8-2.8-1.1l0.2-0.8c1,0.3,1.9,0.7,2.9,1.1
					L191.2,166.8z M164.8,166.2l-0.2-0.8c1-0.3,1.9-0.7,2.9-1l0.2,0.8C166.8,165.6,165.8,165.9,164.8,166.2z M185.4,164.9
					c-1-0.2-2-0.4-3-0.6l0.1-0.8c1,0.1,2,0.3,3,0.6L185.4,164.9z M170.6,164.6l-0.1-0.8c1-0.2,2-0.3,3-0.4l0.1,0.8
					C172.5,164.2,171.5,164.4,170.6,164.6z M179.5,164c-1-0.1-2-0.1-3-0.1v-0.8c1,0,2,0,3,0.1V164z"/>
				<path id="path1144" inkscape:connector-curvature="0" class="st1" d="M177.2,163.1c-0.2,0-0.4,0-0.7,0v0.8c0.2,0,0.4,0,0.7,0
					c0.8,0,1.6,0,2.3,0.1v-0.8C178.9,163.2,178,163.1,177.2,163.1z M173.5,163.3c-1,0.1-2,0.2-3,0.4l0.1,0.8c1-0.2,2-0.3,3-0.4
					L173.5,163.3z M182.6,163.6l-0.1,0.8c1,0.1,2,0.3,3,0.6l0.1-0.8C184.6,163.9,183.6,163.7,182.6,163.6z M167.5,164.6
					c-1,0.2-2,0.6-2.9,1l0.2,0.8c0.9-0.3,1.9-0.7,2.9-0.9L167.5,164.6z M188.6,165l-0.2,0.8c1,0.3,1.9,0.7,2.8,1.1l0.3-0.8
					C190.5,165.7,189.5,165.3,188.6,165z M161.8,166.7c-0.9,0.4-1.9,0.9-2.8,1.4l0.3,0.7c0.9-0.6,1.8-1,2.7-1.4L161.8,166.7z
					 M194.3,167.3l-0.3,0.8c0.9,0.4,1.8,1,2.7,1.6l0.3-0.7C196.1,168.3,195.2,167.9,194.3,167.3L194.3,167.3z M156.3,169.8
					c-0.9,0.6-1.7,1.2-2.6,1.9l0.4,0.7c0.8-0.7,1.7-1.2,2.4-1.8L156.3,169.8z M199.5,170.7l-0.4,0.7c0.8,0.6,1.7,1.2,2.4,1.9
					l0.4-0.7C201.2,172,200.4,171.3,199.5,170.7z M151.4,173.7c-0.8,0.7-1.6,1.4-2.2,2.2l0.6,0.6c0.7-0.8,1.4-1.4,2.2-2.2
					L151.4,173.7z M204.3,174.8l-0.6,0.6c0.8,0.8,1.4,1.4,2.1,2.2l0.6-0.6C205.7,176.3,205.1,175.5,204.3,174.8z M147.1,178.3
					c-0.7,0.8-1.3,1.7-1.9,2.6l0.6,0.4c0.6-0.9,1.2-1.7,1.9-2.6L147.1,178.3z M208.4,179.5l-0.6,0.6c0.7,0.8,1.2,1.7,1.8,2.6
					l0.7-0.4C209.7,181.3,209.1,180.4,208.4,179.5L208.4,179.5z M143.6,183.5c-0.6,0.9-1.1,1.9-1.6,2.9l0.7,0.3
					c0.4-0.9,1-1.9,1.6-2.8L143.6,183.5z M211.8,185l-0.7,0.4c0.6,0.9,1,1.9,1.4,2.9l0.7-0.3C212.8,186.9,212.4,185.9,211.8,185z
					 M140.7,189.3c-0.2,0.6-0.4,1.2-0.7,1.8h-0.7v0.8h1.2l0.1-0.2c0.2-0.7,0.4-1.3,0.8-2L140.7,189.3z M214.5,190.9l-0.7,0.3
					c0.1,0.2,0.1,0.3,0.2,0.6l0.1,0.2h2.7v-0.8h-2.2C214.6,191.1,214.6,191,214.5,190.9L214.5,190.9z M293.5,190.9h-1.1v0.4l-1,2.2
					l0.7,0.3L293.5,190.9z M289.4,190.9h-3v0.8h3V190.9z M283.3,190.9h-3v0.8h3V190.9z M277.3,190.9h-3v0.8h3V190.9z M271.2,191h-3
					v0.8h3V191z M265.2,191h-3v0.8h3V191z M259.1,191h-3v0.8h3V191z M253.1,191h-3v0.8h3V191z M247,191h-3v0.8h3V191z M241,191.1h-3
					v0.8h3V191.1z M235,191.1h-3v0.8h3V191.1z M228.9,191.1h-3v0.8h3V191.1z M222.9,191.1h-3v0.8h3V191.1z M136.2,191.2h-3v0.8h3
					V191.2z M130.2,191.2h-3v0.8h3V191.2z M124.1,191.2h-3v0.8h3V191.2z M118.1,191.2h-3v0.8h3V191.2z M112.1,191.2h-3v0.8h3V191.2z
					 M106,191.3h-3v0.8h3V191.3z M100,191.3h-3v0.8h3V191.3z M93.9,191.3h-3v0.8h3V191.3z M87.9,191.3h-3v0.8h3V191.3z M81.8,191.3
					h-3v0.8h3V191.3z M75.8,191.3h-3v0.8h3V191.3z M69.7,191.4h-3v0.8h3V191.4z M63.7,191.4h-2.9l0.7,1.3l0.7-0.3l-0.1-0.1h1.7
					V191.4z M63.6,195.2l-0.7,0.3l1.4,2.9l0.7-0.3L63.6,195.2z M290,196.4l-1.3,2.9l0.7,0.3l1.3-2.9L290,196.4z M66.4,201l-0.7,0.3
					l1.4,2.9l0.7-0.3L66.4,201z M287.2,202.2l-1.3,2.9l0.7,0.3l1.3-2.9L287.2,202.2z M69.3,206.7l-0.7,0.3l1.4,2.9l0.7-0.3
					L69.3,206.7z M284.4,208l-1.4,3.1l1,2.1l0.7-0.3l-0.8-1.7l1.3-2.7L284.4,208z M69.7,212.4l-1.4,2.9l0.7,0.3l1.4-2.9L69.7,212.4z
					 M286.1,215.6l-0.7,0.3l1.4,2.9l0.7-0.3L286.1,215.6z M66.9,218.2l-1.4,2.9l0.7,0.3l1.4-2.9L66.9,218.2z M288.9,221.3l-0.7,0.3
					l1.4,2.9l0.7-0.3L288.9,221.3z M64.2,224l-1.4,2.9l0.7,0.3l1.4-2.9L64.2,224z M291.8,227.1l-0.7,0.3l1.4,2.9l0.7-0.3
					L291.8,227.1z M61.3,229.6l-0.4,1h3.2v-0.8h-2.4L61.3,229.6z M290,229.8h-3v0.8h3V229.8z M67.1,229.8v0.8h3v-0.8H67.1z
					 M284,229.8h-3v0.8h3V229.8z M73.2,229.8v0.8h3v-0.8H73.2z M277.9,229.8h-3v0.8h3V229.8z M79.2,229.8v0.8h3v-0.8H79.2z
					 M271.9,229.8h-3v0.8h3V229.8z M85.3,229.8v0.8h3v-0.8H85.3z M265.8,229.8h-3v0.8h3V229.8z M91.3,229.8v0.8h3v-0.8H91.3z
					 M259.8,229.8h-3v0.8h3V229.8z M97.4,229.8v0.8h3v-0.8H97.4z M253.7,229.8h-3v0.8h3V229.8z M103.4,229.8v0.8h3v-0.8H103.4z
					 M247.7,229.8h-3v0.8h3V229.8z M109.5,229.8v0.8h3v-0.8H109.5z M241.6,229.8h-3v0.8h3V229.8z M115.5,229.8v0.8h3v-0.8H115.5z
					 M235.6,229.8h-3v0.8h3V229.8z M121.6,229.8v0.8h3v-0.8H121.6z M229.5,229.8h-3v0.8h3V229.8z M127.6,229.9v0.8h3v-0.8H127.6z
					 M223.5,229.9h-3v0.8h3V229.9z M133.7,229.9v0.8h3v-0.8H133.7z M217.4,229.9h-3v0.8h3V229.9z M139.7,229.9v0.8h3v-0.8H139.7z
					 M211.4,229.9h-2.8l-0.3,0.6l0.6,0.6l0.1-0.2h2.4V229.9z M146,229.9h-0.3v0.6l-0.1,0.1c0.6,0.8,1.2,1.7,1.9,2.4l0.6-0.6
					c-0.7-0.8-1.2-1.6-1.8-2.3L146,229.9z M206.3,232.8c-0.7,0.8-1.3,1.6-2.1,2.3l0.6,0.6c0.8-0.8,1.4-1.6,2.1-2.3L206.3,232.8z
					 M150.1,234.7l-0.6,0.6c0.8,0.8,1.4,1.4,2.2,2.2l0.4-0.7C151.5,236.2,150.8,235.5,150.1,234.7z M202,237.3
					c-0.8,0.7-1.6,1.3-2.4,1.9l0.4,0.7c0.8-0.7,1.7-1.3,2.4-2L202,237.3z M154.7,238.8l-0.4,0.7c0.8,0.7,1.7,1.2,2.6,1.8l0.4-0.7
					C156.3,240.1,155.4,239.5,154.7,238.8z M197,240.9c-0.9,0.6-1.8,1.1-2.7,1.6l0.3,0.8c0.9-0.4,1.8-1,2.7-1.6L197,240.9z
					 M159.8,242.2l-0.3,0.7c0.9,0.6,1.8,1,2.8,1.4l0.3-0.8C161.5,243.2,160.7,242.7,159.8,242.2L159.8,242.2z M191.6,243.8
					c-0.9,0.4-1.9,0.8-2.8,1.1l0.2,0.8c1-0.3,1.9-0.7,2.9-1.1L191.6,243.8z M165.3,244.7l-0.2,0.8c1,0.3,2,0.7,2.9,0.9l0.2-0.8
					C167.2,245.4,166.2,245,165.3,244.7z M186,245.7c-1,0.2-2,0.4-2.9,0.7l0.1,0.8c1-0.1,2-0.3,3-0.7L186,245.7z M171.1,246.3
					L171,247c1,0.2,2,0.3,3,0.4l0.1-0.8C173.1,246.6,172.1,246.5,171.1,246.3z M180,246.7c-0.9,0.1-1.9,0.1-2.8,0.1H177v0.8h0.2
					c0.9,0,1.9,0,2.8-0.1V246.7z"/>
			</g>
		</g>
		<g id="g1156">
			<g id="g1154">
				<polygon id="polygon1150" class="st1" points="89.4,207.7 90.9,204.4 92.5,207.7 95.9,208.3 93.4,211 94,214.6 90.9,212.9 
					87.8,214.6 88.4,211 85.8,208.3 				"/>
				<path id="path1152" inkscape:connector-curvature="0" class="st1" d="M90.9,205.7l0.9,2l0.2,0.6l0.6,0.1l2.2,0.3l-1.7,1.7
					l-0.3,0.4l0.1,0.6l0.3,2.3l-1.8-1l-0.6-0.3l-0.6,0.3l-1.8,1l0.3-2.3l0.1-0.6l-0.3-0.4l-1.7-1.7l2.2-0.3l0.6-0.1l0.2-0.6
					L90.9,205.7 M90.9,203.1l-1.9,4.1l-4.2,0.7l3.1,3.2l-0.8,4.6l3.8-2.1l3.8,2.1l-0.8-4.6l3.1-3.2l-4.2-0.7L90.9,203.1z"/>
			</g>
		</g>
		<g id="g1164">
			<g id="g1162">
				<polygon id="polygon1158" class="st1" points="263.8,207.7 267.2,208.3 264.8,211 265.3,214.6 262.2,212.9 259.1,214.6 
					259.8,211 257.2,208.3 260.7,207.7 262.2,204.4 				"/>
				<path id="path1160" inkscape:connector-curvature="0" class="st1" d="M262.2,205.7l0.9,2l0.2,0.6l0.6,0.1l2.1,0.3l-1.7,1.7
					l-0.3,0.4l0.1,0.6l0.3,2.3l-1.8-1l-0.6-0.3l-0.6,0.3l-1.8,1l0.3-2.3l0.1-0.6l-0.3-0.4l-1.7-1.7l2.2-0.3l0.6-0.1l0.2-0.6
					L262.2,205.7 M262.2,203.1l-1.9,4.1l-4.2,0.7l3.1,3.2l-0.8,4.6l3.8-2.1l3.8,2.1l-0.8-4.6l3.1-3.2l-4.2-0.7L262.2,203.1z"/>
			</g>
		</g>
	</g>
	<g id="g1182" transform="translate(-35.6,-47.8)">
		<g id="g1174">
			<g id="g1172">
				<rect id="rect1170" x="136.6" y="263.7" class="st1" width="30.5" height="0.4"/>
			</g>
		</g>
		<g id="g1180">
			<g id="g1178">
				<rect id="rect1176" x="187.4" y="263.6" class="st1" width="30.5" height="0.4"/>
			</g>
		</g>
	</g>
	<g id="g1262" transform="translate(-35.6,-47.8)">
		<g id="g1204">
			<g id="g1202">
				<rect id="rect1200" x="110.2" y="146.7" class="st1" width="138.6" height="0.4"/>
			</g>
		</g>
		<g id="g1260">
			<g id="g1258">
				<rect id="rect1256" x="110.2" y="119.8" class="st1" width="138.6" height="0.4"/>
			</g>
		</g>
		<g>
			<g class="st5">
				<path class="st1" d="M142,138.7l2.3-10.8h1.1l2.3,10.8h-1l-0.5-2.9h-2.6l-0.5,2.9H142z M143.7,135.1h2.3l-1.2-5.8L143.7,135.1z"
					/>
				<path class="st1" d="M148.9,138.7v-10.8h2.6c0.6,0,1.2,0.1,1.5,0.4c0.4,0.2,0.6,0.6,0.8,1s0.2,0.9,0.2,1.5c0,0.5-0.1,1-0.2,1.4
					c-0.2,0.4-0.4,0.8-0.8,1c-0.4,0.3-0.9,0.4-1.5,0.4h-1.6v5.1H148.9z M149.9,132.8h1.3c0.4,0,0.8-0.1,1.1-0.2
					c0.3-0.1,0.5-0.3,0.6-0.6c0.1-0.3,0.2-0.7,0.2-1.2c0-0.6-0.1-1-0.2-1.3c-0.1-0.3-0.3-0.5-0.6-0.6c-0.3-0.1-0.6-0.2-1.1-0.2h-1.3
					V132.8z"/>
				<path class="st1" d="M155.3,138.7v-10.8h3.9v0.8h-2.9v4.1h2.3v0.7h-2.3v4.4h2.9v0.8H155.3z"/>
				<path class="st1" d="M159.9,138.7l2.3-5.6l-2.3-5.2h0.9l1.9,4.3l1.9-4.3h1l-2.4,5.3l2.5,5.5h-1l-2.1-4.6l-1.8,4.6H159.9z"/>
				<path class="st1" d="M171.8,138.8c-0.6,0-1.1-0.1-1.5-0.4c-0.4-0.2-0.7-0.6-0.9-1c-0.2-0.4-0.3-1-0.4-1.5l0.9-0.3
					c0,0.4,0.1,0.8,0.2,1.2c0.1,0.4,0.3,0.6,0.5,0.9c0.2,0.2,0.6,0.3,1,0.3c0.5,0,0.9-0.1,1.1-0.4c0.3-0.2,0.4-0.6,0.4-1.2
					c0-0.5-0.1-0.9-0.4-1.2c-0.2-0.4-0.6-0.7-1-1.1l-1.9-1.8c-0.3-0.3-0.6-0.7-0.7-1c-0.2-0.4-0.2-0.7-0.2-1.2
					c0-0.7,0.2-1.3,0.7-1.7c0.4-0.4,1-0.6,1.8-0.6c0.4,0,0.7,0,1,0.1c0.3,0.1,0.6,0.3,0.8,0.5c0.2,0.2,0.4,0.5,0.5,0.8
					c0.1,0.3,0.2,0.8,0.3,1.3l-0.9,0.2c0-0.5-0.1-0.8-0.2-1.2c-0.1-0.3-0.3-0.6-0.5-0.7c-0.2-0.2-0.6-0.3-1-0.3
					c-0.4,0-0.8,0.1-1.1,0.3c-0.3,0.2-0.4,0.6-0.4,1.1c0,0.3,0.1,0.6,0.2,0.8c0.1,0.2,0.3,0.5,0.6,0.8l1.9,1.8
					c0.4,0.4,0.8,0.8,1.1,1.3c0.3,0.5,0.5,1,0.5,1.7c0,0.5-0.1,1-0.3,1.4c-0.2,0.4-0.5,0.6-0.9,0.8
					C172.7,138.7,172.3,138.8,171.8,138.8z"/>
				<path class="st1" d="M177.4,138.7v-3.6l-2.4-7.2h1l1.9,6l1.9-6h1l-2.4,7.2v3.6H177.4z"/>
				<path class="st1" d="M184.2,138.8c-0.6,0-1.1-0.1-1.5-0.4c-0.4-0.2-0.7-0.6-0.9-1c-0.2-0.4-0.3-1-0.4-1.5l0.9-0.3
					c0,0.4,0.1,0.8,0.2,1.2c0.1,0.4,0.3,0.6,0.5,0.9c0.2,0.2,0.6,0.3,1,0.3c0.5,0,0.9-0.1,1.1-0.4c0.3-0.2,0.4-0.6,0.4-1.2
					c0-0.5-0.1-0.9-0.4-1.2c-0.2-0.4-0.6-0.7-1-1.1l-1.9-1.8c-0.3-0.3-0.6-0.7-0.7-1c-0.2-0.4-0.2-0.7-0.2-1.2
					c0-0.7,0.2-1.3,0.7-1.7c0.4-0.4,1-0.6,1.8-0.6c0.4,0,0.7,0,1,0.1c0.3,0.1,0.6,0.3,0.8,0.5s0.4,0.5,0.5,0.8
					c0.1,0.3,0.2,0.8,0.3,1.3l-0.9,0.2c0-0.5-0.1-0.8-0.2-1.2s-0.3-0.6-0.5-0.7c-0.2-0.2-0.6-0.3-1-0.3c-0.4,0-0.8,0.1-1.1,0.3
					c-0.3,0.2-0.4,0.6-0.4,1.1c0,0.3,0.1,0.6,0.2,0.8c0.1,0.2,0.3,0.5,0.6,0.8l1.9,1.8c0.4,0.4,0.8,0.8,1.1,1.3
					c0.3,0.5,0.5,1,0.5,1.7c0,0.5-0.1,1-0.3,1.4c-0.2,0.4-0.5,0.6-0.9,0.8C185.1,138.7,184.7,138.8,184.2,138.8z"/>
				<path class="st1" d="M189.4,138.7v-10h-2v-0.8h5v0.8h-2v10H189.4z"/>
				<path class="st1" d="M193.5,138.7v-10.8h3.9v0.8h-2.9v4.1h2.3v0.7h-2.3v4.4h2.9v0.8H193.5z"/>
				<path class="st1" d="M198.8,138.7l0.3-10.8h1l2.1,9.4l2.2-9.4h1l0.3,10.8h-0.8l-0.2-8.6l-2.1,8.6h-0.7l-2-8.6l-0.2,8.6H198.8z"
					/>
				<path class="st1" d="M209.7,138.8c-0.6,0-1.1-0.1-1.5-0.4c-0.4-0.2-0.7-0.6-0.9-1c-0.2-0.4-0.3-1-0.4-1.5l0.9-0.3
					c0,0.4,0.1,0.8,0.2,1.2c0.1,0.4,0.3,0.6,0.5,0.9c0.2,0.2,0.6,0.3,1,0.3c0.5,0,0.9-0.1,1.1-0.4c0.3-0.2,0.4-0.6,0.4-1.2
					c0-0.5-0.1-0.9-0.4-1.2c-0.2-0.4-0.6-0.7-1-1.1l-1.9-1.8c-0.3-0.3-0.6-0.7-0.7-1c-0.2-0.4-0.2-0.7-0.2-1.2
					c0-0.7,0.2-1.3,0.7-1.7c0.4-0.4,1-0.6,1.8-0.6c0.4,0,0.7,0,1,0.1c0.3,0.1,0.6,0.3,0.8,0.5s0.4,0.5,0.5,0.8
					c0.1,0.3,0.2,0.8,0.3,1.3l-0.9,0.2c0-0.5-0.1-0.8-0.2-1.2s-0.3-0.6-0.5-0.7c-0.2-0.2-0.6-0.3-1-0.3c-0.4,0-0.8,0.1-1.1,0.3
					c-0.3,0.2-0.4,0.6-0.4,1.1c0,0.3,0.1,0.6,0.2,0.8c0.1,0.2,0.3,0.5,0.6,0.8l1.9,1.8c0.4,0.4,0.8,0.8,1.1,1.3
					c0.3,0.5,0.5,1,0.5,1.7c0,0.5-0.1,1-0.3,1.4c-0.2,0.4-0.5,0.6-0.9,0.8C210.6,138.7,210.2,138.8,209.7,138.8z"/>
			</g>
		</g>
	</g>
</g>
<g id="Layer_2_1_">
	<g id="Layer_1-2">
		<g id="Apex_Logo">
			<path class="st1" d="M146.1,214.7c0,0,1.8-1.6,4.4-1.6c2.7,0,4.6,1.6,4.6,1.6H146.1z"/>
			<path class="st1" d="M145.9,214.8h9.4c0,0,0.8,0.7,1,1.1h-11.5C144.9,215.9,145.4,215.2,145.9,214.8z"/>
			<path class="st1" d="M144.8,216.1h11.7c0,0,0.5,0.8,0.6,1h-5.4l-1-0.6l-1,0.6h-5.4C144.2,217.1,144.5,216.5,144.8,216.1z"/>
			<path class="st1" d="M144.1,217.3h5.2l-1.3,0.8h-4.2C143.8,218.1,144,217.6,144.1,217.3z"/>
			<path class="st1" d="M143.8,218.3h4l-1,0.6h-3.1C143.6,218.7,143.7,218.5,143.8,218.3z"/>
			<path class="st1" d="M143.6,219h2.9l-0.5,0.3h-2.3C143.5,219.3,143.6,219.1,143.6,219z"/>
			<path class="st1" d="M143.5,219.5h2.1l-0.4,0.2h-1.7C143.5,219.8,143.5,219.8,143.5,219.5z"/>
			<polygon class="st1" points="143.5,219.9 145,219.9 144.6,220.2 143.5,220.2 			"/>
			<polygon class="st1" points="143.5,220.3 144.4,220.3 144.1,220.5 143.5,220.5 			"/>
			<polygon class="st1" points="143.5,220.6 143.8,220.6 143.5,220.8 			"/>
			<polygon class="st1" points="143.8,220.8 150.6,218.6 157.5,220.8 			"/>
			<path class="st1" d="M157.2,217.3h-5.2l1.3,0.8h4.2C157.4,217.8,157.3,217.5,157.2,217.3z"/>
			<path class="st1" d="M153.5,218.2h4c0,0,0.1,0.4,0.1,0.6h-3.2L153.5,218.2z"/>
			<path class="st1" d="M154.9,219h2.8c0,0.1,0.1,0.2,0.1,0.3h-2.4L154.9,219z"/>
			<path class="st1" d="M155.7,219.5h2.1c0,0,0,0.1,0,0.2h-1.7L155.7,219.5z"/>
			<polygon class="st1" points="156.4,220 157.8,220 157.8,220.2 156.7,220.2 			"/>
			<polygon class="st1" points="157,220.3 157.8,220.3 157.8,220.5 157.3,220.5 			"/>
			<polygon class="st1" points="157.5,220.6 157.8,220.6 157.8,220.8 			"/>
		</g>
	</g>
</g>
</svg>
