<?xml version="1.0" encoding="utf-8"?>
<!-- Generator: Adobe Illustrator 24.1.2, SVG Export Plug-In . SVG Version: 6.00 Build 0)  -->
<svg version="1.1"
	 id="Layer_1" xmlns:cc="http://creativecommons.org/ns#" xmlns:dc="http://purl.org/dc/elements/1.1/" xmlns:inkscape="http://www.inkscape.org/namespaces/inkscape" xmlns:rdf="http://www.w3.org/1999/02/22-rdf-syntax-ns#" xmlns:sodipodi="http://sodipodi.sourceforge.net/DTD/sodipodi-0.dtd" xmlns:svg="http://www.w3.org/2000/svg"
	 xmlns="http://www.w3.org/2000/svg" xmlns:xlink="http://www.w3.org/1999/xlink" x="0px" y="0px" viewBox="0 0 300 300"
	 style="enable-background:new 0 0 300 300;" xml:space="preserve">
<style type="text/css">
	.st0{opacity:0.25;}
	.st1{fill:#FFF0E5;}
	.st2{fill:#B3B3B3;}
	.st3{fill:#414042;}
	.st4{fill:#BCBEC0;}
	.st5{fill:#6D6E71;}
	.st6{fill:#FFFFFF;}
	.st7{fill:#E8E8E8;}
</style>
<sodipodi:namedview  bordercolor="#666666" borderopacity="1" gridtolerance="10" guidetolerance="10" id="namedview43" inkscape:current-layer="Layer_1" inkscape:cx="110.45623" inkscape:cy="114.21037" inkscape:pageopacity="0" inkscape:pageshadow="2" inkscape:window-height="731" inkscape:window-maximized="1" inkscape:window-width="1366" inkscape:window-x="1920" inkscape:window-y="0" inkscape:zoom="1.779124" objecttolerance="10" pagecolor="#ffffff" showgrid="false">
	</sodipodi:namedview>
<g id="g2243" transform="matrix(1.1972777,0,0,1.1972777,12.666254,15.328727)" class="st0">
	<path id="path4" inkscape:connector-curvature="0" class="st1" d="M48.6,44.5c37.1-37.1,97.3-37.1,134.6,0
		c37.1,37.1,37.1,97.3,0,134.6c-37.1,37.1-97.3,37.1-134.6,0C11.5,141.8,11.5,81.6,48.6,44.5z"/>
	<circle id="ellipse6" class="st2" cx="115.9" cy="111.8" r="89.3"/>
	<g id="g10" transform="translate(-30.8,-51.3)">
		<path id="path8" inkscape:connector-curvature="0" class="st3" d="M212.7,97l0.1,0.1l-1,1l-0.1-0.1c-0.5-0.5-0.9-0.9-1.4-1.4l1-1
			C211.8,96.1,212.3,96.6,212.7,97z M214.3,98.6c0.5,0.6,1,1,1.5,1.6l-1,0.9c-0.5-0.6-0.9-1-1.5-1.6L214.3,98.6z M209.8,94.2l-0.9,1
			c-0.6-0.5-1-0.9-1.6-1.4l0.9-1C208.8,93.2,209.2,93.7,209.8,94.2z M217.3,101.8c0.5,0.6,0.9,1.1,1.4,1.6l-1.1,0.9
			c-0.5-0.6-0.9-1-1.4-1.6L217.3,101.8z M206.6,91.4l-0.9,1.1c-0.6-0.5-1.1-0.9-1.6-1.4L205,90C205.5,90.4,206.1,90.9,206.6,91.4z
			 M220,105c0.5,0.6,0.9,1.1,1.4,1.7l-1.1,0.9c-0.5-0.6-0.9-1.1-1.2-1.7L220,105z M203.2,88.8l-0.9,1.1c-0.6-0.5-1.1-0.8-1.7-1.2
			l0.8-1.1C202.1,87.8,202.7,88.3,203.2,88.8z M222.5,108.4c0.5,0.6,0.8,1.1,1.2,1.7l-1.1,0.8c-0.3-0.6-0.8-1.1-1.2-1.7L222.5,108.4
			z M199.8,86.1l-0.8,1.1c-0.6-0.5-1.1-0.8-1.7-1.1l0.8-1.1C198.7,85.4,199.3,85.8,199.8,86.1z M225,111.9c0.3,0.6,0.8,1.2,1.1,1.8
			l-1.2,0.8c-0.3-0.6-0.8-1.1-1.1-1.8L225,111.9z M196.3,83.9l-0.8,1.2c-0.6-0.3-1.1-0.8-1.8-1.1l0.7-1.2
			C195.1,83.1,195.6,83.4,196.3,83.9z M227.2,115.6c0.3,0.6,0.7,1.2,1,1.8l-1.2,0.7c-0.3-0.6-0.7-1.2-1-1.8L227.2,115.6z
			 M192.6,81.6l-0.7,1.2c-0.6-0.3-1.2-0.7-1.8-1l0.7-1.2C191.3,80.9,192,81.3,192.6,81.6z M229.3,119.3c0.3,0.7,0.7,1.2,1,1.9
			l-1.2,0.7c-0.3-0.7-0.7-1.2-1-1.9L229.3,119.3z M188.9,79.7l-0.7,1.2c-0.7-0.3-1.2-0.7-1.9-0.9l0.6-1.2
			C187.6,79,188.2,79.4,188.9,79.7z M231.2,123.2c0.3,0.7,0.6,1.2,0.9,1.9l-1.2,0.6c-0.3-0.7-0.6-1.2-0.9-1.9L231.2,123.2z
			 M185,77.8l-0.6,1.2c-0.7-0.3-1.2-0.6-1.9-0.8l0.6-1.2C183.8,77.2,184.3,77.5,185,77.8z M232.9,127c0.2,0.7,0.6,1.4,0.8,1.9
			l-1.4,0.6c-0.2-0.7-0.6-1.4-0.8-1.9L232.9,127z M181,76.2l-0.6,1.4c-0.7-0.2-1.2-0.5-1.9-0.8l0.5-1.4
			C179.8,75.6,180.5,76,181,76.2z M234.5,131c0.2,0.7,0.5,1.4,0.7,2l-1.4,0.5c-0.2-0.7-0.5-1.4-0.7-2L234.5,131z M177.1,74.7
			l-0.5,1.4c-0.7-0.2-1.4-0.5-2-0.7L175,74C175.7,74.3,176.4,74.5,177.1,74.7z M235.8,135c0.2,0.7,0.5,1.4,0.6,2l-1.4,0.3
			c-0.2-0.7-0.3-1.4-0.6-2L235.8,135z M173.1,73.4l-0.3,1.4c-0.7-0.2-1.4-0.3-2-0.6l0.3-1.4C171.8,73,172.4,73.2,173.1,73.4z
			 M237,139.1c0.2,0.7,0.3,1.4,0.6,2l-1.4,0.3c-0.1-0.7-0.3-1.4-0.6-2L237,139.1z M168.9,72.3l-0.3,1.4c-0.7-0.1-1.4-0.3-2-0.5
			l0.3-1.4C167.6,72,168.3,72.1,168.9,72.3z M238,143.3c0.1,0.7,0.3,1.4,0.5,2l-1.4,0.2c-0.1-0.7-0.2-1.4-0.5-2L238,143.3z
			 M164.9,71.4l-0.2,1.4c-0.7-0.1-1.4-0.2-2-0.3l0.2-1.4C163.4,71.1,164.1,71.2,164.9,71.4z M238.8,147.5c0.1,0.7,0.2,1.4,0.3,2.2
			l-1.4,0.2c-0.1-0.7-0.2-1.4-0.3-2L238.8,147.5z M160.7,70.6l-0.2,1.4c-0.7-0.1-1.4-0.2-2-0.3l0.2-1.4
			C159.2,70.4,159.9,70.5,160.7,70.6z M239.4,151.7c0.1,0.7,0.1,1.4,0.2,2.2l-1.4,0.1c-0.1-0.7-0.1-1.4-0.2-2L239.4,151.7z
			 M156.4,70.1l-0.1,1.4c-0.7-0.1-1.4-0.1-2-0.2l0.1-1.4C155,70,155.7,70.1,156.4,70.1z M239.8,156c0,0.7,0.1,1.5,0.1,2.2l-1.4,0.1
			c0-0.7-0.1-1.4-0.1-2L239.8,156z M152.2,69.7l-0.1,1.4c-0.7,0-1.4-0.1-2-0.1v-1.4C150.7,69.7,151.5,69.7,152.2,69.7L152.2,69.7z
			 M240,160.2c0,0.7,0,1.5,0,2.2h-1.4c0-0.7,0-1.4,0-2.2H240z M147.9,69.6V71c-0.7,0-1.4,0-2.2,0v-1.4
			C146.5,69.6,147.2,69.6,147.9,69.6z M240.1,164.5c0,0.7,0,1.5,0,2.2h-1.4c0-0.7,0-1.4,0-2.2H240.1z M143.7,69.6V71
			c-0.7,0-1.4,0-2.2,0.1l-0.1-1.4C142.2,69.7,142.9,69.7,143.7,69.6z M239.9,168.6c0,0.7-0.1,1.4-0.1,2.2l-1.4-0.1
			c0.1-0.7,0.1-1.4,0.1-2L239.9,168.6z M139.4,69.9l0.1,1.4c-0.7,0-1.4,0.1-2,0.2l-0.1-1.4C138,70.1,138.7,70,139.4,69.9z
			 M239.6,172.9c-0.1,0.7-0.1,1.4-0.2,2.2l-1.4-0.2c0.1-0.7,0.2-1.4,0.2-2L239.6,172.9z M135.2,70.3l0.2,1.4c-0.7,0.1-1.4,0.2-2,0.2
			l-0.2-1.4C133.7,70.5,134.4,70.4,135.2,70.3z M239,177.1c-0.1,0.7-0.2,1.4-0.3,2.2l-1.4-0.2c0.1-0.7,0.2-1.4,0.3-2L239,177.1z
			 M130.9,71l0.2,1.4c-0.7,0.1-1.4,0.2-2,0.3l-0.2-1.4C129.6,71.2,130.2,71.1,130.9,71z M238.3,181.3c-0.1,0.7-0.3,1.4-0.5,2
			l-1.4-0.3c0.1-0.7,0.3-1.4,0.5-2L238.3,181.3z M126.7,71.8l0.3,1.4c-0.7,0.1-1.4,0.3-2,0.5l-0.3-1.4
			C125.4,72.1,126,71.9,126.7,71.8z M237.4,185.5c-0.2,0.7-0.3,1.4-0.6,2l-1.4-0.3c0.2-0.7,0.3-1.4,0.6-2L237.4,185.5z M122.7,72.8
			l0.3,1.4c-0.7,0.2-1.4,0.3-2,0.6l-0.3-1.4C121.3,73.1,122,72.9,122.7,72.8z M236.3,189.6c-0.2,0.7-0.5,1.4-0.7,2l-1.4-0.5
			c0.2-0.7,0.5-1.4,0.6-2L236.3,189.6z M118.6,73.9l0.5,1.4c-0.7,0.2-1.4,0.5-2,0.7l-0.5-1.4C117.2,74.4,117.9,74.2,118.6,73.9z
			 M234.9,193.7c-0.2,0.7-0.5,1.4-0.7,2l-1.4-0.5c0.2-0.7,0.5-1.4,0.7-1.9L234.9,193.7z M114.5,75.3l0.5,1.4
			c-0.7,0.2-1.4,0.5-1.9,0.8l-0.6-1.4C113.1,75.8,113.8,75.6,114.5,75.3z M233.4,197.6c-0.2,0.7-0.6,1.4-0.8,1.9l-1.2-0.6
			c0.2-0.7,0.6-1.2,0.8-1.9L233.4,197.6z M110.5,76.9l0.6,1.2c-0.7,0.2-1.2,0.6-1.9,0.8l-0.6-1.2C109.2,77.4,109.9,77.2,110.5,76.9z
			 M231.9,201.6c-0.3,0.7-0.6,1.2-0.9,1.9l-1.2-0.6c0.3-0.7,0.6-1.2,0.9-1.9L231.9,201.6z M106.6,78.7l0.6,1.2
			c-0.7,0.3-1.2,0.6-1.9,0.9l-0.7-1.2C105.3,79.2,106,78.9,106.6,78.7z M229.9,205.3c-0.3,0.7-0.7,1.2-1,1.9l-1.2-0.7
			c0.3-0.6,0.7-1.2,1-1.8L229.9,205.3z M102.7,80.6l0.7,1.2c-0.6,0.3-1.2,0.7-1.8,1l-0.7-1.2C101.5,81.3,102.2,80.9,102.7,80.6z
			 M228,209.2c-0.3,0.6-0.7,1.2-1,1.8l-1.2-0.7c0.3-0.6,0.7-1.2,1-1.8L228,209.2z M99.1,82.6l0.7,1.2c-0.6,0.3-1.2,0.7-1.8,1.1
			l-0.8-1.2C97.9,83.3,98.4,83,99.1,82.6z M225.7,212.8c-0.3,0.6-0.8,1.2-1.1,1.8l-1.1-0.8c0.3-0.6,0.8-1.1,1.1-1.8L225.7,212.8z
			 M95.5,84.9l0.8,1.1c-0.6,0.3-1.1,0.8-1.7,1.1L93.8,86C94.2,85.7,94.9,85.2,95.5,84.9z M223.4,216.3c-0.5,0.6-0.8,1.1-1.2,1.7
			l-1.1-0.8c0.5-0.6,0.8-1.1,1.2-1.7L223.4,216.3z M92,87.3l0.8,1.1c-0.6,0.5-1.1,0.8-1.7,1.2l-0.9-1.1C90.9,88.2,91.4,87.7,92,87.3
			z M220.9,219.8c-0.5,0.6-0.9,1.1-1.4,1.7l-1.1-0.9c0.5-0.6,0.9-1.1,1.2-1.7L220.9,219.8z M88.6,89.9l0.9,1.1
			c-0.6,0.5-1.1,0.9-1.6,1.4L87,91.2C87.5,90.8,88,90.3,88.6,89.9z M218.3,223.1c-0.5,0.6-0.9,1.1-1.4,1.6l-1-0.9
			c0.5-0.6,0.9-1,1.4-1.6L218.3,223.1z M85.3,92.6l0.9,1c-0.6,0.5-1,0.9-1.6,1.4l-0.9-1C84.3,93.5,84.7,93.1,85.3,92.6z
			 M215.5,226.2c-0.5,0.6-1,1-1.5,1.6l-1-1c0.5-0.5,1-1,1.5-1.5L215.5,226.2z M82.1,95.5l1,1c-0.5,0.5-1,1-1.5,1.5l-1-1
			C81.1,96.4,81.7,96,82.1,95.5z M211.5,228.3l1,1c-0.5,0.5-1,1-1.5,1.5l-1-1C210.5,229.3,211,228.9,211.5,228.3z M80.7,98.9
			c-0.5,0.5-1,1-1.5,1.5l-1-0.9c0.5-0.6,1-1,1.5-1.6L80.7,98.9z M208.4,231.2l0.9,1c-0.6,0.5-1,0.9-1.6,1.4l-0.9-1
			C207.4,232.1,207.9,231.7,208.4,231.2z M77.8,102c-0.5,0.6-0.9,1-1.4,1.6l-1.1-0.9c0.5-0.6,0.9-1.1,1.4-1.6L77.8,102z
			 M205.3,233.9l0.9,1.1c-0.6,0.5-1.1,0.9-1.7,1.4l-0.9-1.1C204.2,234.8,204.7,234.4,205.3,233.9z M75.1,105.3
			c-0.5,0.6-0.9,1.1-1.2,1.7l-1.1-0.9c0.5-0.6,0.9-1.1,1.4-1.7L75.1,105.3z M202,236.5l0.9,1.1c-0.6,0.5-1.1,0.8-1.7,1.2l-0.8-1.1
			C200.9,237.5,201.4,237,202,236.5z M72.5,108.6c-0.5,0.6-0.8,1.1-1.2,1.7l-1.1-0.8c0.5-0.6,0.8-1.1,1.2-1.7L72.5,108.6z
			 M198.6,239l0.8,1.1c-0.6,0.5-1.1,0.8-1.8,1.1l-0.8-1.1C197.5,239.8,198,239.4,198.6,239z M70.1,111.9c-0.3,0.6-0.8,1.1-1.1,1.8
			l-1.2-0.8c0.3-0.6,0.8-1.2,1.1-1.8L70.1,111.9z M195.1,241.3l0.8,1.2c-0.6,0.3-1.2,0.8-1.8,1.1l-0.7-1.2
			C193.8,242,194.5,241.6,195.1,241.3L195.1,241.3z M67.9,115.6c-0.3,0.6-0.7,1.2-1,1.8l-1.2-0.7c0.3-0.6,0.7-1.2,1.1-1.8
			L67.9,115.6z M191.5,243.5l0.7,1.2c-0.6,0.3-1.2,0.7-1.9,1l-0.7-1.2C190.2,244.1,190.9,243.8,191.5,243.5z M65.8,119.2
			c-0.3,0.6-0.7,1.2-1,1.8l-1.2-0.7c0.3-0.7,0.7-1.2,1-1.9L65.8,119.2z M187.7,245.4l0.7,1.2c-0.7,0.3-1.2,0.7-1.9,0.9l-0.6-1.2
			C186.5,246.1,187.2,245.7,187.7,245.4L187.7,245.4z M63.9,122.9c-0.3,0.7-0.6,1.2-0.9,1.9l-1.2-0.6c0.3-0.7,0.6-1.2,0.9-1.9
			L63.9,122.9z M183.9,247.2l0.6,1.2c-0.7,0.3-1.4,0.6-1.9,0.8L182,248C182.6,247.8,183.3,247.4,183.9,247.2z M62.1,126.7
			c-0.2,0.7-0.6,1.2-0.8,1.9L60,128c0.2-0.7,0.6-1.4,0.8-1.9L62.1,126.7z M180,248.8l0.6,1.4c-0.7,0.2-1.4,0.5-2,0.8l-0.5-1.4
			C178.8,249.3,179.4,249,180,248.8z M60.5,130.6c-0.2,0.7-0.5,1.4-0.7,1.9l-1.4-0.5c0.2-0.7,0.5-1.4,0.7-2L60.5,130.6z
			 M176.1,250.2l0.5,1.4c-0.7,0.2-1.4,0.5-2,0.7l-0.5-1.4C174.7,250.7,175.4,250.5,176.1,250.2z M59.2,134.6c-0.2,0.7-0.5,1.4-0.6,2
			l-1.4-0.5c0.2-0.7,0.5-1.4,0.7-2L59.2,134.6z M172.1,251.5l0.3,1.4c-0.7,0.2-1.4,0.3-2,0.6l-0.3-1.4
			C170.7,251.8,171.4,251.7,172.1,251.5z M58,138.5c-0.2,0.7-0.3,1.4-0.6,2l-1.4-0.3c0.2-0.7,0.3-1.4,0.6-2L58,138.5z M168,252.5
			l0.3,1.4c-0.7,0.1-1.4,0.3-2,0.5L166,253C166.7,252.8,167.4,252.7,168,252.5z M57,142.6c-0.1,0.7-0.3,1.4-0.5,2l-1.4-0.2
			c0.1-0.7,0.3-1.4,0.5-2L57,142.6z M163.8,253.4l0.2,1.4c-0.7,0.1-1.4,0.2-2.2,0.3l-0.2-1.4C162.5,253.6,163.2,253.5,163.8,253.4z
			 M56.1,146.7c-0.1,0.7-0.2,1.4-0.3,2l-1.4-0.2c0.1-0.7,0.2-1.4,0.3-2.2L56.1,146.7z M159.8,254.1l0.2,1.4
			c-0.7,0.1-1.4,0.2-2.2,0.2l-0.1-1.4C158.4,254.3,159.1,254.2,159.8,254.1z M55.5,150.9c-0.1,0.7-0.2,1.4-0.2,2l-1.4-0.1
			c0.1-0.7,0.1-1.4,0.2-2.2L55.5,150.9z M155.6,254.7l0.1,1.4c-0.7,0.1-1.4,0.1-2.2,0.2l-0.1-1.4
			C154.2,254.8,154.9,254.7,155.6,254.7z M55.1,155c-0.1,0.7-0.1,1.4-0.1,2l-1.4-0.1c0-0.7,0.1-1.4,0.1-2.2L55.1,155z M151.4,254.9
			l0.1,1.4c-0.7,0-1.5,0.1-2.2,0.1V255C150,255,150.7,255,151.4,254.9L151.4,254.9z M54.8,159.1c0,0.7,0,1.4-0.1,2.2h-1.4
			c0-0.7,0-1.5,0.1-2.2H54.8z M147.2,255v1.4c-0.7,0-1.5,0-2.2,0V255C145.9,255,146.5,255,147.2,255z M54.6,163.3c0,0.7,0,1.4,0,2.2
			h-1.4c0-0.7,0-1.5,0-2.2H54.6z M143,255v1.4c-0.7,0-1.5-0.1-2.2-0.1l0.1-1.4C141.7,254.9,142.3,254.9,143,255L143,255z
			 M54.8,167.6c0,0.7,0.1,1.4,0.1,2.2l-1.4,0.1c0-0.7-0.1-1.5-0.1-2.2L54.8,167.6z M138.8,254.7l-0.1,1.4c-0.7-0.1-1.4-0.1-2.2-0.2
			l0.1-1.4C137.5,254.5,138.2,254.7,138.8,254.7z M55.1,171.8c0.1,0.7,0.1,1.4,0.2,2L54,174c-0.1-0.7-0.1-1.4-0.2-2.2L55.1,171.8z
			 M134.6,254.2l-0.2,1.4c-0.7-0.1-1.4-0.2-2.2-0.3l0.2-1.4C133.3,254.1,134,254.2,134.6,254.2z M55.5,175.9c0.1,0.7,0.2,1.4,0.3,2
			l-1.4,0.2c-0.1-0.7-0.2-1.4-0.3-2.2L55.5,175.9z M130.6,253.6l-0.2,1.4c-0.7-0.1-1.4-0.2-2-0.3l0.2-1.4
			C129.2,253.4,129.9,253.5,130.6,253.6z M56.2,180.1c0.1,0.7,0.2,1.4,0.5,2l-1.4,0.3c-0.1-0.7-0.3-1.4-0.5-2L56.2,180.1z
			 M126.4,252.7l-0.3,1.4c-0.7-0.1-1.4-0.3-2-0.5l0.3-1.4C125,252.5,125.7,252.6,126.4,252.7z M57.1,184.2c0.1,0.7,0.3,1.4,0.5,2
			l-1.4,0.3c-0.2-0.7-0.3-1.4-0.6-2L57.1,184.2z M122.3,251.8l-0.3,1.4c-0.7-0.2-1.4-0.3-2-0.6l0.5-1.4
			C121.1,251.4,121.7,251.6,122.3,251.8z M58.1,188.2c0.2,0.7,0.3,1.4,0.6,2l-1.4,0.5c-0.2-0.7-0.5-1.4-0.6-2L58.1,188.2z
			 M118.4,250.6l-0.5,1.4c-0.7-0.2-1.4-0.5-2-0.7l0.5-1.4C117,250.1,117.7,250.4,118.4,250.6z M59.4,192.3c0.2,0.7,0.5,1.4,0.7,2
			l-1.4,0.5c-0.2-0.7-0.5-1.4-0.7-2L59.4,192.3z M114.4,249.2l-0.5,1.4c-0.7-0.2-1.4-0.5-1.9-0.8l0.6-1.4
			C113.1,248.7,113.7,249,114.4,249.2z M60.9,196.3c0.2,0.7,0.6,1.4,0.8,1.9l-1.4,0.6c-0.2-0.7-0.6-1.4-0.8-2L60.9,196.3z
			 M110.5,247.6l-0.6,1.2c-0.7-0.2-1.2-0.6-1.9-0.9l0.6-1.2C109.3,247.1,109.9,247.4,110.5,247.6z M62.4,200.1
			c0.2,0.7,0.6,1.2,0.9,1.9l-1.2,0.6c-0.3-0.7-0.6-1.2-0.9-1.9L62.4,200.1z M106.7,245.9l-0.6,1.2c-0.7-0.3-1.2-0.7-1.9-0.9l0.7-1.2
			C105.5,245.3,106.1,245.6,106.7,245.9z M64.3,204c0.3,0.7,0.7,1.2,0.9,1.9l-1.2,0.7c-0.3-0.7-0.7-1.2-1-1.9L64.3,204z M103,244
			l-0.7,1.2c-0.7-0.3-1.2-0.7-1.8-1l0.7-1.2C101.7,243.3,102.4,243.7,103,244z M66.2,207.7c0.3,0.6,0.7,1.2,1,1.8l-1.2,0.7
			c-0.3-0.6-0.7-1.2-1-1.8L66.2,207.7z M99.3,242l-0.7,1.2c-0.6-0.3-1.2-0.8-1.8-1.1l0.8-1.2C98.1,241.2,98.8,241.5,99.3,242z
			 M68.3,211.2c0.3,0.6,0.8,1.1,1.1,1.8l-1.1,0.8c-0.3-0.6-0.8-1.2-1.1-1.8L68.3,211.2z M95.8,239.7l-0.8,1.1
			c-0.6-0.3-1.1-0.8-1.8-1.2l0.8-1.1C94.6,238.9,95.3,239.3,95.8,239.7z M70.6,214.8c0.3,0.6,0.8,1.1,1.2,1.7l-1.1,0.8
			c-0.5-0.6-0.8-1.1-1.2-1.7L70.6,214.8z M92.3,237.3l-0.8,1.1c-0.6-0.5-1.1-0.8-1.7-1.2l0.9-1.1C91.2,236.4,91.8,236.9,92.3,237.3z
			 M73.1,218.2c0.5,0.6,0.8,1.1,1.2,1.7l-1.1,0.9c-0.5-0.6-0.9-1.1-1.2-1.7L73.1,218.2z M89,234.7l-0.9,1.1
			c-0.6-0.5-1.1-0.9-1.7-1.4l0.9-1.1C87.9,233.8,88.5,234.3,89,234.7z M75.7,221.5c0.5,0.6,0.9,1,1.4,1.6l-1,0.9
			c-0.5-0.6-0.9-1.1-1.4-1.6L75.7,221.5z M85.9,232l-0.9,1c-0.6-0.5-1-0.9-1.6-1.5l0.9-1C84.7,231.1,85.3,231.6,85.9,232z
			 M78.4,224.7c0.5,0.6,0.9,1,1.5,1.6l-1,1c-0.5-0.6-1-1-1.5-1.6L78.4,224.7z M82.7,229.2l-1,1c-0.3-0.3-0.8-0.8-1.1-1.1l-0.3-0.3
			l1-1l0.3,0.3C82,228.4,82.4,228.9,82.7,229.2z"/>
	</g>
	<polygon id="polygon12" class="st4" points="72,120.1 48.1,120.3 71.4,114.5 47.5,111.7 71.4,109 48.1,103.2 72,103.3 49.6,94.7 
		73.5,98 52.2,86.6 75.6,92.8 56,78.8 78.3,87.8 60.5,71.5 81.6,83.3 66.1,65 85.4,79.2 72.3,59.1 89.7,75.7 79.2,54 94.5,72.6 
		86.8,49.8 99.4,70.3 94.8,46.6 104.8,68.6 103.1,44.6 110.3,67.6 111.7,43.4 115.8,67.2 120.1,43.4 121.5,67.6 128.7,44.6 
		126.9,68.6 137,46.6 132.3,70.3 145,49.8 137.3,72.6 152.5,54 142.1,75.7 159.5,59.1 146.4,79.2 165.8,65 150.2,83.3 171.2,71.5 
		153.5,87.8 175.8,78.8 156.2,92.8 179.4,86.6 158.3,98 182.2,94.7 159.6,103.3 183.7,103.2 160.3,109 184.3,111.7 160.3,114.5 
		183.7,120.3 159.6,120.1 182.2,128.8 158.3,125.5 179.4,136.9 156.2,130.7 175.8,144.7 153.5,135.6 171.2,152 150.2,140.1 
		165.8,158.5 146.4,144.3 159.5,164.4 142.1,147.8 152.5,169.5 137.3,150.8 145,173.6 132.3,153.2 137,176.8 126.9,154.9 
		128.7,178.9 121.5,155.9 120.1,180 115.8,156.3 111.7,180 110.3,155.9 103.1,178.9 104.8,154.9 94.8,176.8 99.4,153.2 86.8,173.6 
		94.5,150.8 79.2,169.5 89.7,147.8 72.3,164.4 85.4,144.2 66.1,158.5 81.6,140.1 60.5,152 78.3,135.6 56,144.7 75.6,130.7 
		52.2,136.9 73.5,125.5 49.6,128.8 	"/>
	<g id="g18" transform="translate(-30.8,-51.3)">
		<path id="path16" inkscape:connector-curvature="0" class="st5" d="M247.6,163l23.2-21.2h-70.7c-8.5-21.7-29.6-37.1-54.4-37.1
			s-45.9,15.4-54.4,37.1H20.5L43.7,163l-23.2,21.2h70.7c8.5,21.7,29.6,37.1,54.4,37.1s45.9-15.4,54.4-37.1h70.7L247.6,163z"/>
	</g>
	<path id="path22" inkscape:connector-curvature="0" class="st6" d="M116.2,167.1c-23,0-43.3-13.8-51.7-35.3l-1-2.7H-0.8l19-17.4
		l-19-17.4h64.3l1.1-2.7C73,70,93.2,56.2,116.3,56.2c23,0,43.3,13.8,51.7,35.3l1,2.7h64.2l-19,17.4l19,17.4h-64.3l-1,2.7
		C159.5,153.2,139.3,167.1,116.2,167.1L116.2,167.1z M2.3,127.9h62l1.4,3.5c8.1,20.9,28.1,34.5,50.6,34.5s42.3-13.6,50.6-34.5
		l1.4-3.5h62l-17.8-16.2l17.8-16.2h-62l-1.4-3.5c-8.1-20.9-28.1-34.5-50.6-34.5S74,71.1,65.7,92l-1.4,3.5h-62l17.8,16.2L2.3,127.9z"
		/>
	<g id="Layer_2_1_">
		<g id="Layer_1-2">
			<g id="Apex_Logo">
				<path class="st7" d="M94.1,91.1c0,0,8.7-7.9,22-7.9s22.6,7.9,22.6,7.9H94.1z"/>
				<path class="st7" d="M93,91.9h46.6c0,0,3.9,3.7,5.1,5.5H88.1C88.1,97.4,90.6,93.8,93,91.9z"/>
				<path class="st7" d="M87.4,98.3h58c0,0,2.6,3.8,2.8,4.9h-26.9l-5.2-3.2l-4.9,3.2H84.5C84.5,103.3,85.9,100.2,87.4,98.3z"/>
				<path class="st7" d="M84.1,104.1h25.6l-6.3,3.9H82.6C82.6,108,83.3,105.5,84.1,104.1z"/>
				<path class="st7" d="M82.3,108.9h19.5l-4.8,3H81.7C81.8,110.9,82,109.9,82.3,108.9z"/>
				<path class="st7" d="M81.4,112.8h14.1l-2.7,1.7H81.3C81.3,113.9,81.3,113.3,81.4,112.8z"/>
				<path class="st7" d="M81.2,115.3h10.4l-1.9,1.2H81C81,116.4,81,116.4,81.2,115.3z"/>
				<polygon class="st7" points="81,117.3 88.3,117.3 86.6,118.4 81,118.4 				"/>
				<polygon class="st7" points="81,119.1 85.3,119.1 84.1,119.9 81,119.9 				"/>
				<polygon class="st7" points="81,120.6 82.8,120.6 81,121.7 				"/>
				<polygon class="st7" points="82.5,121.7 116.2,110.7 150,121.7 				"/>
				<path class="st7" d="M148.7,104.1h-25.9l6.5,4h21C149.8,106.8,149.2,105.4,148.7,104.1z"/>
				<path class="st7" d="M130.5,108.8h19.9c0,0,0.5,1.9,0.7,2.9h-15.6L130.5,108.8z"/>
				<path class="st7" d="M137.3,112.8h13.9c0.2,0.5,0.3,1,0.3,1.5h-11.8L137.3,112.8z"/>
				<path class="st7" d="M141.4,115.3h10.2c0,0,0.2,0.7,0.2,1.1h-8.6L141.4,115.3z"/>
				<polygon class="st7" points="144.8,117.4 151.7,117.4 151.7,118.4 146.4,118.4 				"/>
				<polygon class="st7" points="147.8,119.2 151.7,119.2 151.7,120 149.1,120 				"/>
				<polygon class="st7" points="150.4,120.7 151.7,120.7 151.7,121.7 				"/>
			</g>
		</g>
	</g>
</g>
</svg>
