<?xml version="1.0" encoding="utf-8"?>
<!-- Generator: Adobe Illustrator 24.1.2, SVG Export Plug-In . SVG Version: 6.00 Build 0)  -->
<svg version="1.1"
	 id="Layer_1" xmlns:cc="http://creativecommons.org/ns#" xmlns:dc="http://purl.org/dc/elements/1.1/" xmlns:inkscape="http://www.inkscape.org/namespaces/inkscape" xmlns:rdf="http://www.w3.org/1999/02/22-rdf-syntax-ns#" xmlns:sodipodi="http://sodipodi.sourceforge.net/DTD/sodipodi-0.dtd" xmlns:svg="http://www.w3.org/2000/svg"
	 xmlns="http://www.w3.org/2000/svg" xmlns:xlink="http://www.w3.org/1999/xlink" x="0px" y="0px" viewBox="0 0 300 300"
	 style="enable-background:new 0 0 300 300;" xml:space="preserve">
<style type="text/css">
	.st0{fill:#DDDDDD;}
	.st1{fill:url(#circle1693_1_);}
	.st2{fill:#FFFFFF;}
	.st3{fill:#666666;}
</style>
<sodipodi:namedview  bordercolor="#666666" borderopacity="1" gridtolerance="10" guidetolerance="10" id="namedview1738" inkscape:current-layer="Layer_1" inkscape:cx="109.97912" inkscape:cy="119.30384" inkscape:pageopacity="0" inkscape:pageshadow="2" inkscape:window-height="731" inkscape:window-maximized="1" inkscape:window-width="1366" inkscape:window-x="1920" inkscape:window-y="0" inkscape:zoom="1.664903" objecttolerance="10" pagecolor="#ffffff" showgrid="false">
	</sodipodi:namedview>
<g id="g6470" transform="matrix(1.1416048,0,0,1.1416048,10.781389,-21.826237)">
	<g id="g1707" transform="translate(-25.4,-27.400006)">
		<g id="g1701">
			<path id="path1672" inkscape:connector-curvature="0" class="st0" d="M77.5,109.9c38.8-38.8,101.7-38.8,140.7,0
				c38.8,38.8,38.8,101.7,0,140.7c-38.8,38.8-101.7,38.8-140.7,0C38.7,211.7,38.7,148.7,77.5,109.9z"/>
			
				<linearGradient id="circle1693_1_" gradientUnits="userSpaceOnUse" x1="16.8565" y1="137.637" x2="178.5643" y2="230.999" gradientTransform="matrix(1.1416 0 0 -1.1416 47.774 384.0075)">
				<stop  offset="0.1005" style="stop-color:#3B3A38"/>
				<stop  offset="0.2244" style="stop-color:#998D88"/>
				<stop  offset="0.299" style="stop-color:#E3D2CA"/>
				<stop  offset="0.3154" style="stop-color:#E3D4CC"/>
				<stop  offset="0.4799" style="stop-color:#E0E2E1"/>
				<stop  offset="0.4917" style="stop-color:#D7D8D7"/>
				<stop  offset="0.701" style="stop-color:#6E6C6D"/>
				<stop  offset="0.8099" style="stop-color:#504F4E"/>
				<stop  offset="0.8869" style="stop-color:#3B3A38"/>
			</linearGradient>
			<circle id="circle1693" class="st1" cx="147.9" cy="180.2" r="93.3"/>
			<g id="g1697">
				<path id="path1695" inkscape:connector-curvature="0" class="st2" d="M216.8,111.2l0.1,0.1l-1.1,1.1l-0.1-0.1
					c-0.5-0.5-0.9-0.9-1.4-1.4l1.1-1.1C215.9,110.3,216.4,110.8,216.8,111.2z M218.6,112.9c0.5,0.6,1.1,1.1,1.5,1.7l-1.1,0.9
					c-0.5-0.6-0.9-1.1-1.5-1.7L218.6,112.9z M213.8,108.3l-0.9,1.1c-0.6-0.5-1.1-0.9-1.7-1.4l0.9-1.1
					C212.7,107.2,213.3,107.7,213.8,108.3z M221.6,116.2c0.5,0.6,0.9,1.2,1.4,1.7l-1.2,0.9c-0.5-0.6-0.9-1.1-1.4-1.7L221.6,116.2z
					 M210.5,105.3l-0.9,1.2c-0.6-0.5-1.2-0.9-1.7-1.4l0.9-1.2C209.3,104.4,209.9,104.8,210.5,105.3z M224.4,119.6
					c0.5,0.6,0.9,1.2,1.4,1.8l-1.2,0.9c-0.5-0.6-0.9-1.2-1.3-1.8L224.4,119.6z M207,102.5l-0.9,1.2c-0.6-0.5-1.2-0.8-1.8-1.3
					l0.8-1.2C205.8,101.6,206.4,102.1,207,102.5z M227.1,123.2c0.5,0.6,0.8,1.2,1.3,1.8l-1.2,0.8c-0.4-0.6-0.8-1.2-1.3-1.8
					L227.1,123.2z M203.4,99.9l-0.8,1.2c-0.6-0.5-1.2-0.8-1.8-1.2l0.8-1.2C202.2,99,202.8,99.5,203.4,99.9z M229.6,126.8
					c0.4,0.6,0.8,1.3,1.2,1.9l-1.3,0.8c-0.4-0.6-0.8-1.2-1.2-1.9L229.6,126.8z M199.7,97.5l-0.8,1.3c-0.6-0.4-1.2-0.8-1.9-1.2
					l0.7-1.3C198.4,96.7,199.1,97,199.7,97.5z M232,130.6c0.4,0.6,0.7,1.3,1.1,1.9l-1.3,0.7c-0.4-0.6-0.7-1.3-1.1-1.9L232,130.6z
					 M195.9,95.1l-0.7,1.3c-0.6-0.4-1.3-0.7-1.9-1.1l0.7-1.3C194.6,94.4,195.2,94.8,195.9,95.1z M234.1,134.5c0.4,0.7,0.7,1.3,1.1,2
					l-1.3,0.7c-0.4-0.7-0.7-1.3-1.1-2L234.1,134.5z M191.9,93.1l-0.7,1.3c-0.7-0.4-1.3-0.7-2-0.9l0.6-1.3
					C190.6,92.4,191.3,92.8,191.9,93.1z M236.1,138.6c0.4,0.7,0.6,1.3,0.9,2l-1.3,0.6c-0.4-0.7-0.6-1.3-0.9-2L236.1,138.6z
					 M187.9,91.1l-0.6,1.3c-0.7-0.4-1.3-0.6-2-0.8l0.6-1.3C186.6,90.5,187.3,90.9,187.9,91.1z M238,142.6c0.2,0.7,0.6,1.4,0.8,2
					l-1.4,0.6c-0.2-0.7-0.6-1.4-0.8-2L238,142.6z M183.8,89.5l-0.6,1.4c-0.7-0.2-1.3-0.5-2-0.8l0.5-1.4
					C182.4,88.9,183.1,89.1,183.8,89.5z M239.6,146.7c0.2,0.7,0.5,1.4,0.7,2.1l-1.4,0.5c-0.2-0.7-0.5-1.4-0.7-2.1L239.6,146.7z
					 M179.7,87.9l-0.5,1.4c-0.7-0.2-1.4-0.5-2.1-0.7l0.5-1.4C178.3,87.4,179,87.7,179.7,87.9z M241,151c0.2,0.7,0.5,1.4,0.6,2.1
					l-1.4,0.4c-0.2-0.7-0.4-1.4-0.6-2.1L241,151z M175.4,86.5l-0.4,1.4c-0.7-0.2-1.4-0.4-2.1-0.6l0.4-1.4
					C174,86.1,174.7,86.4,175.4,86.5z M242.3,155.2c0.2,0.7,0.4,1.4,0.6,2.1l-1.4,0.4c-0.1-0.7-0.4-1.4-0.6-2.1L242.3,155.2z
					 M171.2,85.4l-0.4,1.4c-0.7-0.1-1.4-0.4-2.1-0.5L169,85C169.6,85.1,170.5,85.2,171.2,85.4z M243.3,159.6
					c0.1,0.7,0.4,1.4,0.5,2.1l-1.4,0.2c-0.1-0.7-0.2-1.4-0.5-2.1L243.3,159.6z M166.8,84.4l-0.2,1.4c-0.7-0.1-1.4-0.2-2.1-0.4
					l0.1-1.4C165.4,84.1,166.1,84.3,166.8,84.4L166.8,84.4z M244.2,164c0.1,0.7,0.2,1.4,0.4,2.2l-1.4,0.2c-0.1-0.7-0.2-1.4-0.4-2.1
					L244.2,164z M162.4,83.7l-0.2,1.4c-0.7-0.1-1.4-0.2-2.1-0.4l0.2-1.4C161,83.4,161.7,83.5,162.4,83.7z M244.8,168.4
					c0.1,0.7,0.1,1.4,0.2,2.2l-1.4,0.1c-0.1-0.7-0.1-1.4-0.2-2.1L244.8,168.4z M158,83.1l-0.1,1.4c-0.7-0.1-1.4-0.1-2.1-0.2l0.1-1.4
					C156.5,82.9,157.2,83.1,158,83.1z M245.2,172.9c0,0.7,0.1,1.5,0.1,2.2h-1.5c0-0.7-0.1-1.4-0.1-2.1L245.2,172.9z M153.6,82.7
					l-0.1,1.4c-0.7,0-1.4-0.1-2.1-0.1v-1.4C152.1,82.7,152.8,82.7,153.6,82.7L153.6,82.7z M245.5,177.2c0,0.7,0,1.5,0,2.2h-1.4
					c0-0.7,0-1.4,0-2.2H245.5z M149.2,82.6V84c-0.7,0-1.4,0-2.2,0v-1.4C147.6,82.6,148.3,82.6,149.2,82.6z M245.5,181.7
					c0,0.7,0,1.5,0,2.2h-1.4c0-0.7,0-1.4,0-2.2H245.5z M144.7,82.6V84c-0.7,0-1.4,0-2.2,0.1l-0.1-1.4
					C143.1,82.7,144,82.6,144.7,82.6z M245.4,186.1c0,0.7-0.1,1.4-0.1,2.2l-1.4-0.1c0.1-0.7,0.1-1.4,0.1-2.1L245.4,186.1z
					 M140.2,82.8l0.1,1.4c-0.7,0-1.4,0.1-2.1,0.2l-0.1-1.4C138.8,82.9,139.5,82.9,140.2,82.8z M244.9,190.6
					c-0.1,0.7-0.1,1.4-0.2,2.2l-1.4-0.2c0.1-0.7,0.2-1.4,0.2-2.1L244.9,190.6z M135.8,83.3l0.2,1.4c-0.7,0.1-1.4,0.2-2.1,0.2
					l-0.2-1.4C134.3,83.5,135.1,83.4,135.8,83.3z M244.4,195c-0.1,0.7-0.2,1.4-0.4,2.2l-1.4-0.2c0.1-0.7,0.2-1.4,0.4-2.1L244.4,195z
					 M131.4,84l0.2,1.4c-0.7,0.1-1.4,0.2-2.1,0.4l-0.2-1.4C129.9,84.3,130.6,84.1,131.4,84z M243.6,199.4c-0.1,0.7-0.4,1.4-0.5,2.1
					l-1.4-0.4c0.1-0.7,0.4-1.4,0.5-2.1L243.6,199.4z M127,84.8l0.4,1.4c-0.7,0.1-1.4,0.4-2.1,0.5l-0.4-1.4
					C125.5,85.1,126.3,85,127,84.8z M242.6,203.7c-0.2,0.7-0.4,1.4-0.6,2.1l-1.4-0.4c0.2-0.7,0.4-1.4,0.6-2.1L242.6,203.7z
					 M122.7,85.9l0.4,1.4c-0.7,0.2-1.4,0.4-2.1,0.6l-0.4-1.4C121.3,86.3,122,86,122.7,85.9z M241.5,208c-0.2,0.7-0.5,1.4-0.7,2.1
					l-1.4-0.5c0.2-0.7,0.5-1.4,0.6-2.1L241.5,208z M118.4,87.1l0.5,1.4c-0.7,0.2-1.4,0.5-2.1,0.7l-0.5-1.4
					C117,87.6,117.7,87.3,118.4,87.1z M240.2,212.3c-0.2,0.7-0.5,1.4-0.7,2.1l-1.4-0.5c0.2-0.7,0.5-1.4,0.7-2L240.2,212.3z
					 M114.2,88.5l0.5,1.4c-0.7,0.2-1.4,0.5-2,0.8l-0.6-1.4C112.7,89.1,113.4,88.7,114.2,88.5z M238.6,216.4c-0.2,0.7-0.6,1.4-0.8,2
					l-1.3-0.6c0.2-0.7,0.6-1.3,0.8-2L238.6,216.4z M110,90.2l0.6,1.3c-0.7,0.2-1.3,0.6-2,0.8L108,91C108.6,90.8,109.3,90.4,110,90.2
					z M236.8,220.4c-0.4,0.7-0.6,1.3-0.9,2l-1.3-0.6c0.4-0.7,0.6-1.3,0.9-2L236.8,220.4z M106,91.9l0.6,1.3c-0.7,0.4-1.3,0.6-2,0.9
					l-0.7-1.3C104.6,92.7,105.3,92.3,106,91.9z M234.9,224.4c-0.4,0.7-0.7,1.3-1.1,2l-1.3-0.7c0.4-0.6,0.7-1.3,1.1-1.9L234.9,224.4z
					 M102,94l0.7,1.3c-0.6,0.4-1.3,0.7-1.9,1.1l-0.7-1.3C100.7,94.7,101.3,94.3,102,94z M232.8,228.4c-0.4,0.6-0.7,1.3-1.1,1.9
					l-1.3-0.7c0.4-0.6,0.7-1.3,1.1-1.9L232.8,228.4z M98.1,96.2l0.7,1.3c-0.6,0.4-1.3,0.7-1.9,1.2l-0.8-1.3
					C96.8,96.9,97.5,96.6,98.1,96.2z M230.6,232.3c-0.4,0.6-0.8,1.3-1.2,1.9l-1.2-0.8c0.4-0.6,0.8-1.2,1.2-1.9L230.6,232.3z
					 M94.3,98.6l0.8,1.2c-0.6,0.4-1.2,0.8-1.8,1.2l-0.8-1.2C93.1,99.4,93.7,98.9,94.3,98.6z M228.1,235.9c-0.5,0.6-0.8,1.2-1.3,1.8
					l-1.2-0.8c0.5-0.6,0.8-1.2,1.3-1.8L228.1,235.9z M90.6,101.1l0.8,1.2c-0.6,0.5-1.2,0.8-1.8,1.3l-0.9-1.2
					C89.4,102,90,101.5,90.6,101.1z M225.5,239.5c-0.5,0.6-0.9,1.2-1.4,1.8l-1.2-0.9c0.5-0.6,0.9-1.2,1.3-1.8L225.5,239.5z
					 M87.1,103.8L88,105c-0.6,0.5-1.2,0.9-1.7,1.4l-0.9-1.2C85.9,104.7,86.5,104.2,87.1,103.8z M222.6,243c-0.5,0.6-0.9,1.2-1.4,1.7
					l-1.1-0.9c0.5-0.6,0.9-1.1,1.4-1.7L222.6,243z M83.6,106.6l0.9,1.1c-0.6,0.5-1.1,0.9-1.7,1.4L82,108
					C82.6,107.6,83.2,107.1,83.6,106.6z M219.7,246.3c-0.5,0.6-1.1,1.1-1.5,1.7l-1.1-1.1c0.5-0.5,1.1-1.1,1.5-1.5L219.7,246.3z
					 M80.4,109.6l1.1,1.1c-0.5,0.5-1.1,1.1-1.5,1.5l-1.2-0.9C79.4,110.6,79.8,110.2,80.4,109.6z M215.5,248.5l1.1,1.1
					c-0.5,0.5-1.1,1.1-1.5,1.5L214,250C214.5,249.5,215.1,249.1,215.5,248.5z M78.8,113.2c-0.5,0.5-1.1,1.1-1.5,1.5l-1.1-0.9
					c0.5-0.6,1.1-1.1,1.5-1.7L78.8,113.2z M212.4,251.5l0.9,1.1c-0.6,0.5-1.1,0.9-1.7,1.4l-0.9-1.1
					C211.3,252.5,211.9,252,212.4,251.5z M75.8,116.4c-0.5,0.6-0.9,1.1-1.4,1.7l-1.2-0.9c0.5-0.6,0.9-1.2,1.4-1.7L75.8,116.4z
					 M209,254.4l0.9,1.2c-0.6,0.5-1.2,0.9-1.8,1.4l-0.9-1.2C208,255.3,208.6,254.9,209,254.4z M73,119.9c-0.5,0.6-0.9,1.2-1.3,1.8
					l-1.2-0.9c0.5-0.6,0.9-1.2,1.4-1.8L73,119.9z M205.6,257.1l0.9,1.2c-0.6,0.5-1.2,0.8-1.8,1.3l-0.8-1.2
					C204.4,257.9,205,257.6,205.6,257.1z M70.3,123.3c-0.5,0.6-0.8,1.2-1.3,1.8l-1.2-0.8c0.5-0.6,0.8-1.2,1.3-1.8L70.3,123.3z
					 M202.1,259.7l0.8,1.2c-0.6,0.5-1.2,0.8-1.9,1.2l-0.8-1.2C200.9,260.5,201.5,260.1,202.1,259.7z M67.8,126.8
					c-0.4,0.6-0.8,1.2-1.2,1.9l-1.3-0.8c0.4-0.6,0.8-1.3,1.2-1.9L67.8,126.8z M198.4,262.1l0.8,1.3c-0.6,0.4-1.3,0.8-1.9,1.2
					l-0.7-1.3C197.2,262.8,197.8,262.4,198.4,262.1L198.4,262.1z M65.4,130.5c-0.4,0.6-0.7,1.3-1.1,1.9l-1.3-0.7
					c0.4-0.6,0.7-1.3,1.2-1.9L65.4,130.5z M194.6,264.3l0.7,1.3c-0.6,0.4-1.3,0.7-2,1.1l-0.7-1.3C193.3,265,194,264.7,194.6,264.3z
					 M63.3,134.4c-0.4,0.6-0.7,1.3-1.1,1.9l-1.3-0.7c0.4-0.7,0.7-1.3,1.1-2L63.3,134.4z M190.7,266.3l0.7,1.3
					c-0.7,0.4-1.3,0.7-2,0.9l-0.6-1.3C189.4,266.9,190.1,266.7,190.7,266.3L190.7,266.3z M61.3,138.3c-0.4,0.7-0.6,1.3-0.9,2
					l-1.3-0.6c0.4-0.7,0.6-1.3,0.9-2L61.3,138.3z M186.8,268.2l0.6,1.3c-0.7,0.4-1.4,0.6-2,0.8l-0.6-1.3
					C185.4,268.8,186.1,268.5,186.8,268.2z M59.5,142.2c-0.2,0.7-0.6,1.3-0.8,2l-1.4-0.6c0.2-0.7,0.6-1.4,0.8-2L59.5,142.2z
					 M182.7,269.9l0.6,1.4c-0.7,0.2-1.4,0.5-2.1,0.8l-0.5-1.4C181.4,270.5,182.1,270.1,182.7,269.9z M57.8,146.4
					c-0.2,0.7-0.5,1.4-0.7,2l-1.4-0.5c0.2-0.7,0.5-1.4,0.7-2.1L57.8,146.4z M178.5,271.4l0.5,1.4c-0.7,0.2-1.4,0.5-2.1,0.7l-0.5-1.4
					C177.2,271.9,177.9,271.7,178.5,271.4z M56.4,150.4c-0.2,0.7-0.5,1.4-0.6,2.1l-1.4-0.5c0.2-0.7,0.5-1.4,0.7-2.1L56.4,150.4z
					 M174.4,272.7l0.4,1.4c-0.7,0.2-1.4,0.4-2.1,0.6l-0.4-1.4C173,273.1,173.7,272.8,174.4,272.7z M55.1,154.6
					c-0.2,0.7-0.4,1.4-0.6,2.1l-1.4-0.4c0.2-0.7,0.4-1.4,0.6-2.1L55.1,154.6z M170.1,273.8l0.4,1.4c-0.7,0.1-1.4,0.4-2.1,0.5
					l-0.4-1.4C168.7,274.1,169.4,274,170.1,273.8z M54.1,158.9c-0.1,0.7-0.4,1.4-0.5,2.1l-1.4-0.2c0.1-0.7,0.4-1.4,0.5-2.1
					L54.1,158.9z M165.9,274.7l0.2,1.4c-0.7,0.1-1.4,0.2-2.2,0.4l-0.2-1.4C164.4,275,165.1,274.8,165.9,274.7z M53.2,163.2
					c-0.1,0.7-0.2,1.4-0.4,2.1l-1.4-0.2c0.1-0.7,0.2-1.4,0.4-2.2L53.2,163.2z M161.5,275.4l0.2,1.4c-0.7,0.1-1.4,0.2-2.2,0.2
					l-0.1-1.4C160.1,275.7,160.8,275.6,161.5,275.4z M52.5,167.5c-0.1,0.7-0.2,1.4-0.2,2.1l-1.4-0.1c0.1-0.7,0.1-1.4,0.2-2.2
					L52.5,167.5z M157.1,275.9l0.1,1.4c-0.7,0.1-1.4,0.1-2.2,0.2l-0.1-1.4C155.7,276,156.4,276,157.1,275.9z M52,171.8
					c-0.1,0.7-0.1,1.4-0.1,2.1l-1.4-0.1c0-0.7,0.1-1.4,0.1-2.2L52,171.8z M152.7,276.3l0.1,1.4c-0.7,0-1.5,0.1-2.2,0.1v-1.4
					C151.3,276.4,152,276.3,152.7,276.3L152.7,276.3z M51.7,176.2c0,0.7,0,1.4-0.1,2.2h-1.4c0-0.7,0-1.5,0.1-2.2H51.7z M148.3,276.4
					v1.4c-0.7,0-1.5,0-2.2,0v-1.4C146.9,276.4,147.6,276.4,148.3,276.4z M51.7,180.6c0,0.7,0,1.4,0,2.2h-1.4c0-0.7,0-1.5,0-2.2H51.7
					z M144,276.4v1.4c-0.7,0-1.5-0.1-2.2-0.1l0.1-1.4C142.5,276.3,143.3,276.3,144,276.4L144,276.4z M51.8,184.9
					c0,0.7,0.1,1.4,0.1,2.2l-1.4,0.1c0-0.7-0.1-1.5-0.1-2.2L51.8,184.9z M139.6,276l-0.1,1.4c-0.7-0.1-1.4-0.1-2.2-0.2l0.1-1.4
					C138.2,275.9,138.9,276,139.6,276z M52,189.3c0.1,0.7,0.1,1.4,0.2,2.1l-1.4,0.1c-0.1-0.7-0.1-1.4-0.2-2.2L52,189.3z
					 M135.3,275.6l-0.2,1.4c-0.7-0.1-1.4-0.2-2.2-0.4l0.2-1.4C133.8,275.4,134.5,275.4,135.3,275.6z M52.6,193.7
					c0.1,0.7,0.2,1.4,0.4,2.1l-1.4,0.2c-0.1-0.7-0.2-1.4-0.4-2.2L52.6,193.7z M131,275l-0.2,1.4c-0.7-0.1-1.4-0.2-2.1-0.4l0.2-1.4
					C129.5,274.6,130.2,274.8,131,275z M53.3,198.1c0.1,0.7,0.2,1.4,0.5,2.1l-1.4,0.4c-0.1-0.7-0.4-1.4-0.5-2.1L53.3,198.1z
					 M126.7,274l-0.4,1.4c-0.7-0.1-1.4-0.4-2.1-0.5l0.4-1.4C125.3,273.8,126,273.9,126.7,274z M54.2,202.3c0.1,0.7,0.4,1.4,0.5,2.1
					l-1.4,0.4c-0.2-0.7-0.4-1.4-0.6-2.1L54.2,202.3z M122.4,273l-0.4,1.4c-0.7-0.2-1.4-0.4-2.1-0.6l0.5-1.4
					C121,272.6,121.7,272.8,122.4,273z M55.4,206.6c0.2,0.7,0.4,1.4,0.6,2.1l-1.4,0.5c-0.2-0.7-0.5-1.4-0.6-2.1L55.4,206.6z
					 M118.2,271.8l-0.5,1.4c-0.7-0.2-1.4-0.5-2.1-0.7l0.5-1.4C116.9,271.3,117.6,271.5,118.2,271.8z M56.7,210.8
					c0.2,0.7,0.5,1.4,0.7,2.1l-1.4,0.5c-0.2-0.7-0.5-1.4-0.7-2.1L56.7,210.8z M114,270.4l-0.5,1.4c-0.7-0.2-1.4-0.5-2-0.8l0.6-1.4
					C112.7,269.8,113.4,270.1,114,270.4z M58.1,214.9c0.2,0.7,0.6,1.4,0.8,2l-1.4,0.6c-0.2-0.7-0.6-1.4-0.8-2.1L58.1,214.9z
					 M110,268.7l-0.6,1.3c-0.7-0.2-1.3-0.6-2-0.9l0.6-1.3C108.7,268.1,109.4,268.5,110,268.7z M59.7,219c0.2,0.7,0.6,1.3,0.9,2
					l-1.3,0.6c-0.4-0.7-0.6-1.3-0.9-2L59.7,219z M106,266.9l-0.6,1.3c-0.7-0.4-1.3-0.7-2-0.9l0.7-1.3
					C104.7,266.2,105.4,266.6,106,266.9z M61.6,223c0.4,0.7,0.7,1.3,0.9,2l-1.3,0.7c-0.4-0.7-0.7-1.3-1.1-2L61.6,223z M102.1,264.9
					l-0.7,1.3c-0.7-0.4-1.3-0.7-1.9-1.1l0.7-1.3C100.9,264.2,101.5,264.6,102.1,264.9z M63.6,226.8c0.4,0.6,0.7,1.3,1.1,1.9
					l-1.3,0.7c-0.4-0.6-0.7-1.3-1.1-1.9L63.6,226.8z M98.3,262.7l-0.7,1.3c-0.6-0.4-1.3-0.8-1.9-1.2l0.8-1.3
					C97.1,262,97.7,262.3,98.3,262.7z M65.9,230.6c0.4,0.6,0.8,1.2,1.2,1.9l-1.2,0.8c-0.4-0.6-0.8-1.3-1.2-1.9L65.9,230.6z
					 M94.6,260.4l-0.8,1.2c-0.6-0.4-1.2-0.8-1.9-1.3l0.8-1.2C93.4,259.6,94,259.9,94.6,260.4z M68.2,234.3c0.4,0.6,0.8,1.2,1.3,1.8
					l-1.2,0.8c-0.5-0.6-0.8-1.2-1.3-1.8L68.2,234.3z M91.1,257.8l-0.8,1.2c-0.6-0.5-1.2-0.8-1.8-1.3l0.9-1.2
					C89.9,257,90.5,257.5,91.1,257.8z M70.9,237.9c0.5,0.6,0.8,1.2,1.3,1.8l-1.2,0.9c-0.5-0.6-0.9-1.2-1.3-1.8L70.9,237.9z
					 M87.5,255.2l-0.9,1.2c-0.6-0.5-1.2-0.9-1.8-1.4l0.9-1.2C86.5,254.3,86.9,254.7,87.5,255.2z M73.6,241.4
					c0.5,0.6,0.9,1.1,1.4,1.7l-1.1,0.9c-0.5-0.6-0.9-1.2-1.4-1.7L73.6,241.4z M84.2,252.4l-0.9,1.1c-0.6-0.5-1.1-0.9-1.7-1.5
					l0.9-1.1C83.2,251.4,83.6,251.9,84.2,252.4z M76.4,244.7c0.5,0.6,0.9,1.1,1.5,1.7l-1.1,1.1c-0.5-0.6-1.1-1.1-1.5-1.7L76.4,244.7
					z M81,249.4l-1.1,1.1c-0.4-0.4-0.8-0.8-1.2-1.2l-0.4-0.4l1.1-1.1l0.4,0.4C80.2,248.6,80.6,249.1,81,249.4z"/>
			</g>
			<polygon id="polygon1699" class="st0" points="101.4,177.2 76.9,171.3 102.1,171.4 78.5,162.5 103.5,165.8 81.4,153.9 
				105.6,160.4 85.2,145.8 108.5,155.2 90,138.2 111.9,150.5 95.7,131.3 115.9,146.2 102.2,125.2 120.4,142.5 109.5,119.9 
				125.4,139.4 117.3,115.5 130.7,136.9 125.7,112.2 136.3,135.1 134.5,109.9 142,133.9 143.4,108.9 147.9,133.6 152.4,108.9 
				153.7,133.9 161.2,109.9 159.5,135.1 170,112.2 165,136.9 178.3,115.5 170.2,139.4 186.2,119.9 175.2,142.6 193.4,125.2 
				179.7,146.2 199.9,131.3 183.7,150.5 205.7,138.2 187.2,155.2 210.5,145.8 190,160.4 214.4,153.9 192.1,165.8 217.1,162.5 
				193.7,171.4 218.7,171.3 194.4,177.2 219.3,180.2 194.4,183.2 218.7,189.2 193.7,189 217.1,198.1 192.1,194.6 214.4,206.6 
				190,200.1 210.5,214.7 187.2,205.2 205.7,222.3 183.7,209.9 199.9,229.2 179.7,214.2 193.4,235.3 175.2,217.9 186.2,240.7 
				170.2,221.1 178.3,244.9 165,223.6 169.9,248.2 159.5,225.4 161.2,250.5 153.7,226.5 152.4,251.5 147.9,226.8 143.4,251.5 
				142,226.5 134.5,250.5 136.3,225.4 125.7,248.2 130.7,223.6 117.3,244.9 125.4,221.1 109.5,240.5 120.4,217.9 102.2,235.3 
				115.9,214.2 95.7,229.2 111.9,209.9 90,222.3 108.5,205.2 85.2,214.6 105.6,200.1 81.4,206.6 103.5,194.6 78.5,197.9 102.1,189 
				76.9,189.2 101.4,183.2 76.3,180.2 			"/>
		</g>
		<g id="g1705">
			<path id="path1703" inkscape:connector-curvature="0" class="st3" d="M253.3,180.2l24.3-22.1h-73.9c-8.9-22.7-31-38.8-56.9-38.8
				s-48,16.1-56.9,38.8H16l24.3,22.1L16,202.3h73.9c8.9,22.7,31,38.8,56.9,38.8s48-16.1,56.9-38.8h73.9L253.3,180.2z"/>
		</g>
	</g>
	<path id="path1709" inkscape:connector-curvature="0" class="st2" d="M121.1,210.8c-24,0-45.3-14.4-54.1-36.9l-1.1-2.8H-1.4
		l19.9-18.2l-19.9-18.2h67.2l1.1-2.8c8.8-22.5,29.9-36.9,54.1-36.9c24,0,45.3,14.4,54.1,36.9l1.1,2.8h67.2l-19.9,18.2l19.9,18.2
		h-67.2l-1.1,2.8C166.3,196.2,145.1,210.8,121.1,210.8z M1.9,169.7h64.8l1.4,3.7c8.5,21.9,29.3,36.1,52.9,36.1s44.2-14.2,52.9-36.1
		l1.4-3.7h64.8l-18.6-16.9l18.6-16.9h-65l-1.4-3.7c-8.5-21.9-29.3-36.1-52.9-36.1s-44.2,14.2-52.9,36.1l-1.4,3.7H1.9l18.6,16.9
		L1.9,169.7z"/>
	<g>
		<g>
			<path class="st2" d="M66.6,166v-25.5h8.1c1.5,0,2.8,0.3,3.8,0.9c1,0.6,1.7,1.4,2.2,2.5c0.5,1.1,0.7,2.4,0.7,4
				c0,1.8-0.3,3.3-0.9,4.3c-0.6,1-1.5,1.8-2.5,2.2c-1.1,0.4-2.3,0.6-3.7,0.6h-2.4V166H66.6z M71.8,151.3h1.8c0.8,0,1.3-0.1,1.8-0.4
				c0.4-0.2,0.7-0.6,0.8-1.2c0.1-0.5,0.2-1.2,0.2-2c0-0.8-0.1-1.4-0.2-2c-0.1-0.5-0.4-0.9-0.8-1.2c-0.4-0.3-1-0.4-1.9-0.4h-1.8
				V151.3z"/>
			<path class="st2" d="M83.9,166v-25.5h4.8V166H83.9z"/>
			<path class="st2" d="M95.7,166.3c-0.9,0-1.6-0.2-2.2-0.7c-0.6-0.4-1.1-1-1.4-1.7c-0.3-0.7-0.5-1.4-0.5-2.1c0-1.1,0.2-2.1,0.7-2.9
				c0.4-0.8,1-1.4,1.7-2c0.7-0.5,1.5-1,2.4-1.4s1.8-0.7,2.6-1V153c0-0.4,0-0.7-0.1-1c-0.1-0.3-0.2-0.5-0.4-0.7
				c-0.2-0.2-0.4-0.2-0.8-0.2s-0.6,0.1-0.8,0.2c-0.2,0.1-0.3,0.3-0.4,0.6c-0.1,0.3-0.1,0.6-0.1,0.9l-0.1,1.3l-4.5-0.2
				c0.1-2.1,0.7-3.7,1.7-4.8c1-1,2.6-1.5,4.6-1.5c1.9,0,3.2,0.5,4.1,1.5c0.9,1,1.3,2.4,1.3,4v8.5c0,0.7,0,1.4,0,1.9
				c0,0.6,0.1,1.1,0.1,1.5c0.1,0.4,0.1,0.8,0.1,1.1h-4.3c-0.1-0.5-0.1-1-0.2-1.5c-0.1-0.5-0.1-0.9-0.2-1.1c-0.2,0.8-0.6,1.4-1.2,2
				C97.5,166,96.7,166.3,95.7,166.3z M97.4,163c0.2,0,0.5-0.1,0.7-0.2c0.2-0.1,0.4-0.2,0.6-0.4c0.2-0.2,0.3-0.3,0.4-0.5v-5
				c-0.4,0.3-0.9,0.5-1.2,0.8c-0.4,0.3-0.7,0.6-1,0.9c-0.3,0.3-0.5,0.7-0.6,1c-0.1,0.4-0.2,0.8-0.2,1.3c0,0.6,0.1,1.1,0.4,1.5
				C96.6,162.8,96.9,163,97.4,163z"/>
			<path class="st2" d="M112.2,166.2c-1.3,0-2.2-0.2-3-0.6c-0.7-0.4-1.2-1-1.5-1.7c-0.3-0.7-0.4-1.6-0.4-2.7v-10.3h-1.8v-3.1h1.8
				v-5.5h4.8v5.5h2.6v3.1h-2.6v9.9c0,0.6,0.1,1,0.4,1.2c0.3,0.2,0.7,0.4,1.2,0.4c0.3,0,0.5,0,0.7,0c0.2,0,0.4-0.1,0.6-0.1v3.7
				c-0.3,0-0.7,0.1-1.3,0.1C113.3,166.2,112.7,166.2,112.2,166.2z"/>
			<path class="st2" d="M117.6,144.8v-3.6h4.8v3.6H117.6z M117.6,166v-18.2h4.8V166H117.6z"/>
			<path class="st2" d="M125.7,166v-18.2h4.8v1.8c0.7-0.7,1.3-1.2,2.1-1.6c0.7-0.4,1.5-0.6,2.3-0.6c0.8,0,1.4,0.2,1.8,0.6
				c0.5,0.4,0.8,0.9,1.1,1.5c0.2,0.6,0.3,1.3,0.3,2.1V166h-4.7v-13.6c0-0.5-0.1-0.9-0.2-1.1c-0.2-0.3-0.5-0.4-0.9-0.4
				c-0.3,0-0.5,0.1-0.8,0.2c-0.3,0.1-0.6,0.3-0.9,0.6V166H125.7z"/>
			<path class="st2" d="M144.3,166.3c-0.7,0-1.4-0.2-1.8-0.6c-0.5-0.4-0.9-0.9-1.1-1.5c-0.2-0.6-0.3-1.3-0.3-2.1v-14.4h4.8v13.7
				c0,0.5,0.1,0.9,0.3,1.2c0.2,0.3,0.5,0.4,0.9,0.4c0.3,0,0.5-0.1,0.8-0.2c0.3-0.1,0.6-0.3,0.9-0.5v-14.5h4.8V166h-4.8v-1.7
				c-0.6,0.6-1.3,1.1-2,1.5C145.9,166.2,145.1,166.3,144.3,166.3z"/>
			<path class="st2" d="M156.7,166v-18.2h4.6v1.5c0.7-0.7,1.3-1.2,2.1-1.4c0.7-0.3,1.5-0.4,2.2-0.4c0.7,0,1.4,0.2,1.9,0.6
				c0.5,0.4,0.9,0.9,1.2,1.7c0.7-0.8,1.5-1.4,2.2-1.7c0.8-0.3,1.6-0.5,2.4-0.5c0.7,0,1.3,0.2,1.8,0.5c0.5,0.3,0.9,0.8,1.2,1.5
				c0.3,0.7,0.4,1.5,0.4,2.4V166h-4.6v-13.7c0-0.6-0.1-1-0.3-1.2c-0.2-0.2-0.5-0.4-0.9-0.4c-0.3,0-0.6,0.1-0.9,0.2
				c-0.4,0.1-0.7,0.4-1,0.6c0,0,0,0.1,0,0.1s0,0.1,0,0.2V166h-4.6v-13.7c0-0.6-0.1-1-0.3-1.2c-0.2-0.2-0.5-0.4-0.9-0.4
				c-0.3,0-0.6,0.1-0.9,0.2c-0.3,0.1-0.7,0.4-1,0.6V166H156.7z"/>
		</g>
	</g>
</g>
</svg>
