<?xml version="1.0" encoding="utf-8"?>
<!-- Generator: Adobe Illustrator 24.1.2, SVG Export Plug-In . SVG Version: 6.00 Build 0)  -->
<svg version="1.1"
	 id="Layer_1" xmlns:cc="http://creativecommons.org/ns#" xmlns:dc="http://purl.org/dc/elements/1.1/" xmlns:inkscape="http://www.inkscape.org/namespaces/inkscape" xmlns:rdf="http://www.w3.org/1999/02/22-rdf-syntax-ns#" xmlns:sodipodi="http://sodipodi.sourceforge.net/DTD/sodipodi-0.dtd" xmlns:svg="http://www.w3.org/2000/svg"
	 xmlns="http://www.w3.org/2000/svg" xmlns:xlink="http://www.w3.org/1999/xlink" x="0px" y="0px" viewBox="0 0 300 300"
	 style="enable-background:new 0 0 300 300;" xml:space="preserve">
<style type="text/css">
	.st0{fill:#9FA2A4;}
	.st1{fill:url(#circle1872_1_);}
	.st2{fill:#EAEAEA;}
	.st3{fill:#8E8E8E;}
	.st4{fill:#FFFFFF;}
</style>
<sodipodi:namedview  bordercolor="#666666" borderopacity="1" gridtolerance="10" guidetolerance="10" id="namedview1917" inkscape:current-layer="Layer_1" inkscape:cx="73.369844" inkscape:cy="109.37316" inkscape:pageopacity="0" inkscape:pageshadow="2" inkscape:window-height="731" inkscape:window-maximized="1" inkscape:window-width="1366" inkscape:window-x="1920" inkscape:window-y="0" inkscape:zoom="1.664903" objecttolerance="10" pagecolor="#ffffff" showgrid="false">
	</sodipodi:namedview>
<g id="g9835" transform="matrix(1.1215158,0,0,1.1215158,15.188112,-18.102966)">
	<g id="g1880" transform="translate(-26.7,-22.475003)">
		<path id="path1857" inkscape:connector-curvature="0" class="st0" d="M76.1,100.5c39.7-39.7,104-39.7,143.7,0s39.7,104,0,143.7
			s-104,39.7-143.7,0S36.4,140.2,76.1,100.5z"/>
		
			<linearGradient id="circle1872_1_" gradientUnits="userSpaceOnUse" x1="19.9633" y1="134.141" x2="185.2667" y2="229.579" gradientTransform="matrix(1.1215 0 0 -1.1215 42.8856 370.5544)">
			<stop  offset="5.527638e-02" style="stop-color:#616B79"/>
			<stop  offset="0.2236" style="stop-color:#BEC5CD"/>
			<stop  offset="0.3894" style="stop-color:#A6ADB7"/>
			<stop  offset="0.5653" style="stop-color:#AEB5BD"/>
			<stop  offset="0.7613" style="stop-color:#E3E2E9"/>
			<stop  offset="0.9322" style="stop-color:#DFDFE7"/>
		</linearGradient>
		<circle id="circle1872" class="st1" cx="147.9" cy="172.4" r="95.4"/>
		<g id="g1876">
			<path id="path1874" inkscape:connector-curvature="0" class="st2" d="M218.5,101.8l0.1,0.1l-1.1,1.1l-0.1-0.1
				c-0.5-0.5-0.9-0.9-1.4-1.4l1.1-1.1C217.4,100.9,218,101.4,218.5,101.8z M220.1,103.6c0.5,0.6,1.1,1.1,1.5,1.6l-1.1,1.1
				c-0.5-0.6-1.1-1.1-1.5-1.6L220.1,103.6z M215.3,98.9l-1.1,1.1c-0.6-0.5-1.1-1.1-1.6-1.5l0.9-1.2
				C214.3,97.8,214.7,98.3,215.3,98.9L215.3,98.9z M223.2,107c0.5,0.6,0.9,1.2,1.5,1.8l-1.2,0.9c-0.5-0.6-0.9-1.2-1.4-1.6L223.2,107
				z M211.9,95.8L211,97c-0.6-0.5-1.2-0.9-1.8-1.4l0.9-1.2C210.7,94.9,211.3,95.3,211.9,95.8z M226.1,110.4c0.5,0.6,0.9,1.2,1.4,1.8
				l-1.2,0.9c-0.5-0.6-0.9-1.2-1.4-1.8L226.1,110.4z M208.4,93l-0.9,1.2c-0.6-0.5-1.2-0.9-1.8-1.3l0.9-1.2
				C207.2,92.1,207.8,92.5,208.4,93z M228.9,114.1c0.5,0.6,0.8,1.2,1.3,1.9l-1.3,0.8c-0.5-0.6-0.8-1.2-1.3-1.9L228.9,114.1z
				 M204.7,90.3l-0.8,1.3c-0.6-0.5-1.2-0.8-1.9-1.3l0.8-1.3C203.4,89.5,204,89.9,204.7,90.3z M231.5,117.9c0.5,0.6,0.8,1.3,1.2,1.9
				l-1.3,0.8c-0.4-0.6-0.8-1.3-1.2-1.9L231.5,117.9z M200.9,87.8l-0.8,1.3c-0.6-0.4-1.3-0.8-1.9-1.2l0.8-1.3
				C199.6,87,200.2,87.5,200.9,87.8z M233.9,121.7c0.4,0.7,0.8,1.3,1.2,2l-1.3,0.7c-0.4-0.7-0.7-1.3-1.1-1.9L233.9,121.7z
				 M196.9,85.5l-0.7,1.3c-0.7-0.4-1.3-0.7-2-1.1l0.7-1.3C195.6,84.7,196.3,85.1,196.9,85.5z M236.2,125.7c0.4,0.7,0.7,1.3,1.1,2
				l-1.3,0.7c-0.4-0.7-0.7-1.3-1.1-2L236.2,125.7z M192.9,83.3l-0.7,1.3c-0.7-0.4-1.3-0.7-2-0.9l0.7-1.4
				C191.6,82.6,192.3,83,192.9,83.3z M238.2,129.7c0.4,0.7,0.6,1.4,0.9,2.1l-1.4,0.6c-0.4-0.7-0.6-1.4-0.9-2L238.2,129.7z
				 M188.8,81.3l-0.6,1.4c-0.7-0.4-1.4-0.6-2-0.9l0.6-1.4C187.5,80.7,188.2,81.1,188.8,81.3z M240,134c0.2,0.7,0.6,1.4,0.8,2.1
				l-1.4,0.6c-0.2-0.7-0.6-1.4-0.8-2.1L240,134z M184.7,79.6l-0.6,1.4c-0.7-0.2-1.4-0.6-2.1-0.8l0.5-1.4
				C183.3,79.1,184,79.3,184.7,79.6L184.7,79.6z M241.7,138.2c0.2,0.7,0.5,1.4,0.7,2.1l-1.4,0.5c-0.2-0.7-0.5-1.4-0.7-2.1
				L241.7,138.2z M180.4,78l-0.5,1.4c-0.7-0.2-1.4-0.5-2.1-0.7l0.5-1.4C179,77.6,179.7,77.8,180.4,78z M243.1,142.5
				c0.2,0.7,0.5,1.4,0.7,2.2l-1.4,0.5c-0.2-0.7-0.5-1.4-0.6-2.1L243.1,142.5z M176.1,76.6l-0.5,1.4c-0.7-0.2-1.4-0.4-2.1-0.6
				l0.4-1.4C174.7,76.3,175.4,76.5,176.1,76.6z M244.4,146.9c0.2,0.7,0.4,1.4,0.6,2.2l-1.4,0.4c-0.1-0.7-0.4-1.4-0.6-2.1
				L244.4,146.9z M171.7,75.4l-0.4,1.4c-0.7-0.2-1.4-0.4-2.1-0.5l0.4-1.4C170.2,75.1,171,75.3,171.7,75.4z M245.5,151.3
				c0.1,0.7,0.4,1.5,0.5,2.2l-1.5,0.2c-0.1-0.7-0.2-1.4-0.5-2.2L245.5,151.3z M167.2,74.5L167,76c-0.7-0.1-1.4-0.2-2.2-0.4l0.2-1.5
				C165.8,74.3,166.5,74.4,167.2,74.5z M246.3,155.8c0.1,0.7,0.2,1.5,0.4,2.2l-1.5,0.2c-0.1-0.7-0.2-1.5-0.4-2.2L246.3,155.8z
				 M162.8,73.8l-0.2,1.5c-0.7-0.1-1.5-0.2-2.2-0.4l0.2-1.5C161.4,73.6,162.1,73.7,162.8,73.8z M247,160.3c0.1,0.7,0.1,1.5,0.2,2.2
				l-1.5,0.1c-0.1-0.7-0.1-1.5-0.2-2.2L247,160.3z M158.3,73.2l-0.1,1.5c-0.7-0.1-1.5-0.1-2.2-0.2l0.1-1.5
				C156.8,73,157.6,73.1,158.3,73.2z M247.5,164.9c0,0.7,0.1,1.5,0.1,2.2l-1.5,0.1c0-0.7-0.1-1.5-0.1-2.2L247.5,164.9z M153.8,72.8
				l-0.1,1.5c-0.7,0-1.5-0.1-2.2-0.1v-1.5C152.3,72.7,153,72.7,153.8,72.8z M247.7,169.3c0,0.7,0,1.5,0,2.2h-1.5c0-0.7,0-1.5,0-2.2
				H247.7z M149.2,72.6v1.5c-0.7,0-1.5,0-2.2,0v-1.5C147.7,72.6,148.5,72.6,149.2,72.6z M247.7,173.9c0,0.7,0,1.5-0.1,2.2h-1.5
				c0-0.7,0-1.5,0.1-2.2H247.7z M144.6,72.7v1.5c-0.7,0-1.5,0-2.2,0.1l-0.1-1.5C143.1,72.7,143.9,72.7,144.6,72.7z M247.5,178.5
				c0,0.7-0.1,1.5-0.1,2.2l-1.5-0.1c0.1-0.7,0.1-1.5,0.1-2.2L247.5,178.5z M140.2,73l0.1,1.5c-0.7,0-1.5,0.1-2.2,0.2l-0.1-1.5
				C138.6,73.1,139.3,73,140.2,73z M247.1,183c-0.1,0.7-0.1,1.5-0.2,2.2l-1.5-0.2c0.1-0.7,0.2-1.5,0.2-2.2L247.1,183z M135.6,73.4
				l0.2,1.5c-0.7,0.1-1.5,0.2-2.2,0.4l-0.2-1.5C134.1,73.6,134.9,73.4,135.6,73.4z M246.5,187.5c-0.1,0.7-0.2,1.5-0.4,2.2l-1.5-0.2
				c0.1-0.7,0.2-1.4,0.4-2.2L246.5,187.5z M131.1,74l0.2,1.5c-0.7,0.1-1.5,0.2-2.2,0.4l-0.2-1.5C129.5,74.3,130.4,74.1,131.1,74z
				 M245.8,191.9c-0.1,0.7-0.4,1.5-0.5,2.2l-1.4-0.4c0.1-0.7,0.4-1.4,0.5-2.2L245.8,191.9z M126.6,74.9l0.4,1.4
				c-0.7,0.1-1.4,0.4-2.2,0.5l-0.4-1.4C125.2,75.2,125.9,75.1,126.6,74.9z M244.8,196.4c-0.2,0.7-0.4,1.4-0.6,2.2l-1.4-0.4
				c0.2-0.7,0.4-1.4,0.6-2.1L244.8,196.4z M122.1,76l0.4,1.4c-0.7,0.2-1.4,0.4-2.1,0.6l-0.5-1.4C120.7,76.4,121.4,76.1,122.1,76z
				 M243.6,200.8c-0.2,0.7-0.5,1.4-0.7,2.1l-1.4-0.5c0.2-0.7,0.5-1.4,0.7-2.1L243.6,200.8z M117.8,77.2l0.5,1.4
				c-0.7,0.2-1.4,0.5-2.1,0.7l-0.5-1.4C116.4,77.7,117.1,77.4,117.8,77.2z M242.2,205.1c-0.2,0.7-0.5,1.4-0.8,2.1l-1.4-0.5
				c0.2-0.7,0.5-1.4,0.7-2.1L242.2,205.1z M113.5,78.7l0.5,1.4c-0.7,0.2-1.4,0.5-2.1,0.8l-0.6-1.4C112.1,79.2,112.8,79,113.5,78.7z
				 M240.6,209.4c-0.2,0.7-0.6,1.4-0.8,2.1l-1.4-0.6c0.2-0.7,0.6-1.4,0.8-2.1L240.6,209.4z M109.3,80.4l0.6,1.4
				c-0.7,0.2-1.4,0.6-2.1,0.9l-0.6-1.4C107.9,81,108.6,80.6,109.3,80.4z M238.9,213.5c-0.4,0.7-0.6,1.4-0.9,2.1l-1.4-0.7
				c0.4-0.7,0.6-1.3,0.9-2L238.9,213.5z M105,82.3l0.6,1.4c-0.7,0.4-1.3,0.7-2,0.9l-0.7-1.3C103.7,82.9,104.3,82.6,105,82.3z
				 M236.9,217.6c-0.4,0.7-0.7,1.3-1.1,2l-1.3-0.7c0.4-0.7,0.7-1.3,1.1-2L236.9,217.6z M101,84.3l0.7,1.3c-0.7,0.4-1.3,0.7-2,1.1
				L99,85.3C99.6,85,100.3,84.6,101,84.3z M234.7,221.6c-0.4,0.7-0.7,1.3-1.2,2l-1.3-0.8c0.4-0.6,0.7-1.3,1.2-1.9L234.7,221.6z
				 M97,86.5l0.8,1.3c-0.6,0.4-1.3,0.8-1.9,1.2l-0.8-1.3C95.7,87.3,96.3,86.9,97,86.5z M232.4,225.5c-0.4,0.6-0.8,1.3-1.2,1.9
				l-1.3-0.8c0.5-0.6,0.8-1.3,1.2-1.9L232.4,225.5z M93.1,89l0.8,1.3c-0.6,0.4-1.3,0.8-1.9,1.3l-0.8-1.4C92,89.8,92.6,89.3,93.1,89z
				 M229.9,229.4c-0.5,0.6-0.8,1.3-1.3,1.9l-1.2-0.9c0.5-0.6,0.8-1.2,1.3-1.8L229.9,229.4z M89.4,91.6l0.9,1.2
				c-0.6,0.5-1.2,0.8-1.8,1.3l-0.9-1.2C88.2,92.4,88.8,91.9,89.4,91.6z M227.2,233.1c-0.5,0.6-0.9,1.2-1.4,1.8l-1.2-0.9
				c0.5-0.6,0.9-1.2,1.4-1.8L227.2,233.1z M85.8,94.3l0.9,1.2c-0.6,0.5-1.2,0.9-1.8,1.4l-0.9-1.2C84.7,95.2,85.3,94.8,85.8,94.3z
				 M224.4,236.6c-0.5,0.6-0.9,1.2-1.5,1.8l-1.2-0.9c0.5-0.6,0.9-1.2,1.4-1.6L224.4,236.6z M82.3,97.2l0.9,1.2
				c-0.6,0.5-1.1,0.9-1.6,1.5l-0.9-1.2C81.1,98.2,81.7,97.7,82.3,97.2z M221.3,240c-0.5,0.6-1.1,1.1-1.5,1.6l-1.1-1.1
				c0.5-0.6,1.1-1.1,1.5-1.6L221.3,240z M79,100.3l1.1,1.1c-0.6,0.5-1.1,1.1-1.6,1.5l-1.1-1.1C77.8,101.4,78.4,100.8,79,100.3z
				 M217.1,242.3l1.1,1.1c-0.6,0.6-1.1,1.1-1.6,1.5l-1.1-1.1C216,243.2,216.6,242.7,217.1,242.3z M77.4,103.9
				c-0.5,0.6-1.1,1.1-1.5,1.6l-1.1-1.1c0.5-0.6,1.1-1.1,1.5-1.6L77.4,103.9z M213.9,245.3l1.1,1.1c-0.6,0.5-1.2,1.1-1.6,1.5
				l-0.9-1.2C212.7,246.3,213.3,245.8,213.9,245.3z M74.3,107.2c-0.5,0.6-0.9,1.2-1.4,1.6l-1.2-0.9c0.5-0.6,0.9-1.2,1.5-1.8
				L74.3,107.2z M210.5,248.3l0.9,1.2c-0.6,0.5-1.2,0.9-1.8,1.4l-0.9-1.2C209.3,249.2,209.9,248.7,210.5,248.3z M71.5,110.7
				c-0.5,0.6-0.9,1.2-1.4,1.8l-1.2-0.9c0.5-0.6,0.9-1.2,1.4-1.8L71.5,110.7z M206.9,251l0.9,1.2c-0.6,0.5-1.2,0.9-1.9,1.3l-0.8-1.2
				C205.8,251.9,206.4,251.4,206.9,251z M68.6,114.2c-0.5,0.6-0.8,1.2-1.3,1.8l-1.2-0.8c0.5-0.6,0.8-1.2,1.3-1.9L68.6,114.2z
				 M203.3,253.6l0.8,1.3c-0.6,0.5-1.3,0.8-1.9,1.3l-0.8-1.3C202.1,254.5,202.7,254,203.3,253.6z M66.1,117.9
				c-0.5,0.6-0.8,1.3-1.2,1.9l-1.3-0.8c0.4-0.6,0.8-1.3,1.3-1.9L66.1,117.9z M199.6,256l0.8,1.3c-0.6,0.4-1.3,0.8-2,1.2l-0.7-1.3
				C198.3,256.9,198.9,256.5,199.6,256z M63.7,121.6c-0.4,0.6-0.8,1.3-1.2,1.9l-1.3-0.7c0.4-0.7,0.7-1.3,1.2-2L63.7,121.6z
				 M195.8,258.4l0.7,1.3c-0.7,0.4-1.3,0.7-2,1.1l-0.7-1.3C194.5,259.1,195,258.7,195.8,258.4z M61.5,125.5c-0.4,0.7-0.7,1.3-1.1,2
				l-1.3-0.7c0.4-0.7,0.7-1.3,1.1-2L61.5,125.5z M191.7,260.4l0.7,1.3c-0.7,0.4-1.4,0.7-2,0.9l-0.6-1.4
				C190.5,261.1,191,260.7,191.7,260.4L191.7,260.4z M59.5,129.5c-0.4,0.7-0.6,1.3-0.9,2l-1.4-0.6c0.4-0.7,0.6-1.4,0.9-2L59.5,129.5
				z M187.7,262.4l0.6,1.4c-0.7,0.4-1.4,0.6-2.1,0.9l-0.6-1.4C186.3,263,187,262.6,187.7,262.4z M57.6,133.6c-0.2,0.7-0.6,1.4-0.8,2
				l-1.4-0.6c0.2-0.7,0.6-1.4,0.8-2.1L57.6,133.6z M183.5,264l0.6,1.4c-0.7,0.2-1.4,0.6-2.1,0.8l-0.5-1.4
				C182.1,264.6,182.8,264.3,183.5,264z M55.9,137.8c-0.2,0.7-0.5,1.4-0.7,2.1l-1.4-0.5c0.2-0.7,0.5-1.4,0.8-2.1L55.9,137.8z
				 M179.3,265.6l0.5,1.4c-0.7,0.2-1.4,0.5-2.1,0.7l-0.5-1.4C177.8,266,178.6,265.8,179.3,265.6z M54.4,142
				c-0.2,0.7-0.5,1.4-0.7,2.1l-1.4-0.5c0.2-0.7,0.5-1.4,0.7-2.1L54.4,142z M175,266.9l0.5,1.4c-0.7,0.2-1.4,0.4-2.2,0.6l-0.4-1.4
				C173.6,267.3,174.3,267.1,175,266.9z M53.1,146.2c-0.2,0.7-0.4,1.4-0.6,2.1l-1.4-0.4c0.2-0.7,0.4-1.4,0.6-2.2L53.1,146.2z
				 M170.7,268.1l0.4,1.4c-0.7,0.1-1.5,0.4-2.2,0.5l-0.4-1.5C169.2,268.4,170,268.3,170.7,268.1L170.7,268.1z M52,150.6
				c-0.1,0.7-0.4,1.4-0.5,2.2l-1.5-0.4c0.1-0.7,0.4-1.5,0.5-2.2L52,150.6z M166.3,269l0.2,1.5c-0.7,0.1-1.5,0.2-2.2,0.4l-0.2-1.5
				C164.8,269.2,165.6,269.1,166.3,269z M51.2,155c-0.1,0.7-0.2,1.4-0.4,2.2l-1.5-0.2c0.1-0.7,0.2-1.5,0.4-2.2L51.2,155z
				 M161.8,269.7l0.2,1.5c-0.7,0.1-1.5,0.2-2.2,0.4l-0.2-1.5C160.4,269.9,161.1,269.8,161.8,269.7z M50.5,159.4
				c-0.1,0.7-0.2,1.5-0.2,2.2l-1.5-0.1c0.1-0.7,0.1-1.5,0.2-2.2L50.5,159.4z M157.5,270.3l0.1,1.5c-0.7,0.1-1.5,0.1-2.2,0.2
				l-0.1-1.5C155.9,270.4,156.6,270.3,157.5,270.3z M50,163.9c-0.1,0.7-0.1,1.5-0.1,2.2l-1.5-0.1c0-0.7,0.1-1.5,0.1-2.2L50,163.9z
				 M153,270.6l0.1,1.5c-0.7,0-1.5,0.1-2.2,0.1v-1.5C151.5,270.6,152.2,270.6,153,270.6L153,270.6z M49.7,168.3c0,0.7,0,1.5-0.1,2.2
				H48c0-0.7,0-1.5,0.1-2.2H49.7z M148.5,270.8v1.5c-0.7,0-1.5,0-2.2,0v-1.5C147,270.8,147.7,270.8,148.5,270.8z M49.6,172.7
				c0,0.7,0,1.5,0,2.2H48c0-0.7,0-1.5,0-2.2H49.6z M144,270.6l-0.1,1.5c-0.7,0-1.5-0.1-2.2-0.1l0.1-1.5
				C142.5,270.5,143.2,270.6,144,270.6z M49.7,177.2c0,0.7,0.1,1.5,0.1,2.2l-1.5,0.1c0-0.7-0.1-1.5-0.1-2.2L49.7,177.2z
				 M139.6,270.4l-0.1,1.5c-0.7-0.1-1.5-0.1-2.2-0.2l0.1-1.5C138,270.3,138.7,270.3,139.6,270.4z M50,181.7c0.1,0.7,0.1,1.5,0.2,2.2
				l-1.5,0.1c-0.1-0.7-0.1-1.5-0.2-2.2L50,181.7z M135.1,269.9l-0.2,1.5c-0.7-0.1-1.5-0.2-2.2-0.4l0.2-1.5
				C133.6,269.7,134.4,269.8,135.1,269.9z M50.6,186.2c0.1,0.7,0.2,1.5,0.4,2.2l-1.5,0.2c-0.1-0.7-0.2-1.5-0.4-2.2L50.6,186.2z
				 M130.6,269.2l-0.2,1.5c-0.7-0.1-1.5-0.2-2.2-0.5l0.4-1.5C129.2,269,129.9,269.1,130.6,269.2z M51.3,190.7
				c0.1,0.7,0.2,1.4,0.5,2.2l-1.5,0.4c-0.1-0.7-0.4-1.5-0.5-2.2L51.3,190.7z M126.3,268.3l-0.4,1.4c-0.7-0.1-1.5-0.4-2.2-0.5
				l0.4-1.4C124.8,267.9,125.5,268.2,126.3,268.3z M52.3,195c0.1,0.7,0.4,1.4,0.6,2.1l-1.4,0.4c-0.2-0.7-0.4-1.5-0.6-2.2L52.3,195z
				 M121.9,267.2l-0.4,1.4c-0.7-0.2-1.4-0.4-2.2-0.6l0.5-1.4C120.5,266.9,121.2,267,121.9,267.2z M53.3,199.4
				c0.2,0.7,0.5,1.4,0.6,2.1l-1.4,0.5c-0.2-0.7-0.5-1.4-0.7-2.2L53.3,199.4z M117.7,265.9l-0.5,1.4c-0.7-0.2-1.4-0.5-2.1-0.7
				l0.5-1.4C116.2,265.5,116.9,265.7,117.7,265.9z M54.6,203.6c0.2,0.7,0.5,1.4,0.7,2.1l-1.4,0.5c-0.2-0.7-0.5-1.4-0.7-2.1
				L54.6,203.6z M113.4,264.5l-0.5,1.4c-0.7-0.2-1.4-0.6-2.1-0.8l0.6-1.4C112,263.9,112.7,264.3,113.4,264.5z M56.2,207.9
				c0.2,0.7,0.6,1.4,0.8,2.1l-1.4,0.6c-0.2-0.7-0.6-1.4-0.8-2.1L56.2,207.9z M109.3,262.9l-0.6,1.4c-0.7-0.4-1.4-0.6-2.1-0.9
				l0.6-1.4C107.9,262.3,108.6,262.5,109.3,262.9z M57.9,212.1c0.4,0.7,0.6,1.4,0.9,2l-1.4,0.6c-0.4-0.7-0.6-1.4-0.9-2.1L57.9,212.1
				z M105.2,261l-0.7,1.4c-0.7-0.4-1.4-0.7-2-1.1l0.7-1.3C103.9,260.3,104.6,260.6,105.2,261z M59.8,216.1c0.4,0.7,0.7,1.3,1.1,2
				l-1.3,0.7c-0.4-0.7-0.7-1.3-1.1-2L59.8,216.1z M101.2,259l-0.7,1.3c-0.7-0.4-1.3-0.7-2-1.1l0.7-1.3
				C99.9,258.3,100.6,258.6,101.2,259z M61.9,220.1c0.4,0.7,0.7,1.3,1.1,2l-1.3,0.7c-0.4-0.7-0.7-1.3-1.2-2L61.9,220.1z M97.3,256.7
				l-0.8,1.3c-0.7-0.4-1.3-0.8-1.9-1.2l0.8-1.3C96,255.9,96.7,256.4,97.3,256.7z M64.2,224c0.4,0.6,0.8,1.3,1.2,1.9l-1.3,0.8
				c-0.5-0.6-0.8-1.3-1.2-1.9L64.2,224z M93.5,254.4l-0.8,1.3c-0.6-0.5-1.3-0.8-1.9-1.3l0.8-1.2C92.3,253.4,92.9,253.9,93.5,254.4z
				 M66.6,227.8c0.5,0.6,0.8,1.2,1.3,1.9l-1.2,0.8c-0.5-0.6-0.8-1.3-1.3-1.9L66.6,227.8z M89.8,251.8l-0.9,1.2
				c-0.6-0.5-1.2-0.9-1.8-1.4l0.9-1.2C88.7,250.9,89.3,251.3,89.8,251.8z M69.2,231.4c0.5,0.6,0.9,1.2,1.4,1.8l-1.2,0.9
				c-0.5-0.6-0.9-1.2-1.4-1.8L69.2,231.4z M86.3,249.1l-0.9,1.2c-0.6-0.5-1.2-0.9-1.8-1.4l0.9-1.2C85.1,248.1,85.7,248.6,86.3,249.1
				z M71.9,234.8c0.5,0.6,0.9,1.2,1.4,1.8l-1.2,0.9c-0.5-0.6-0.9-1.2-1.4-1.8L71.9,234.8z M82.9,246.1l-0.9,1.2
				c-0.6-0.5-1.2-1.1-1.6-1.5l1.1-1.1C81.7,245.2,82.3,245.7,82.9,246.1z M74.9,238.2c0.5,0.6,1.1,1.1,1.5,1.6l-1.1,1.1
				c-0.5-0.6-1.1-1.1-1.5-1.6L74.9,238.2z M79.6,243.1l-1.1,1.1c-0.4-0.4-0.8-0.8-1.2-1.2l-0.4-0.5l1.1-1.1l0.4,0.4
				C78.8,242.4,79.1,242.7,79.6,243.1L79.6,243.1z"/>
		</g>
		<polygon id="polygon1878" class="st0" points="184.6,142.1 207.1,129.5 188.1,146.9 211.9,137.2 191,152.1 215.9,145.5 
			193.2,157.7 218.7,154.3 194.7,163.4 220.4,163.3 195.4,169.4 221,172.4 195.4,175.5 220.4,181.6 194.7,181.3 218.7,190.7 
			193.2,187.1 215.9,199.4 191,192.7 211.9,207.6 188.1,198 207.1,215.4 184.6,202.8 201.2,222.5 180.6,207.1 194.5,228.7 
			175.8,210.9 187,234.1 170.8,214.2 179,238.6 165.5,216.7 170.5,241.9 159.7,218.6 161.6,244.3 153.9,219.6 152.5,245.3 
			147.9,220.1 143.3,245.3 141.9,219.6 134.3,244.3 136,218.6 125.3,241.9 130.4,216.7 116.8,238.6 125,214.2 108.7,234.1 
			119.9,210.9 101.3,228.7 115.3,207.1 94.7,222.5 111.2,202.8 88.8,215.4 107.6,198 83.8,207.6 104.8,192.7 80,199.4 102.6,187.1 
			77.1,190.7 101.2,181.3 75.4,181.6 100.3,175.5 74.8,172.4 100.3,169.4 75.4,163.3 101.2,163.4 77.1,154.3 102.6,157.7 80,145.5 
			104.8,152.1 83.8,137.2 107.6,146.9 88.8,129.5 111.2,142.1 94.7,122.4 115.3,137.8 101.3,116.1 119.9,133.9 108.7,110.8 
			125,130.7 116.8,106.3 130.4,128.1 125.3,102.9 136,126.3 134.3,100.7 141.9,125.2 143.3,99.5 147.9,124.8 152.5,99.5 
			153.9,125.2 161.6,100.7 159.7,126.3 170.5,102.9 165.5,128.1 179,106.3 170.9,130.7 187,110.8 175.8,133.9 194.5,116.1 
			180.6,137.8 201.2,122.4 		"/>
	</g>
	<g id="g1884" transform="translate(-26.7,-22.475003)">
		<path id="path1882" inkscape:connector-curvature="0" class="st3" d="M255,172.4l24.6-22.6h-75.3c-9.1-23.2-31.6-39.6-58-39.6
			s-48.9,16.4-57.8,39.6H13.2l24.6,22.6L13.2,195h75.3c9.1,23.2,31.6,39.6,57.8,39.6c26.4,0,48.9-16.4,58-39.6h75.3L255,172.4z"/>
	</g>
	<g id="g1906" transform="translate(-26.7,-22.475003)">
		<path id="path1886" inkscape:connector-curvature="0" class="st2" d="M146.4,230.1c-23.9,0-45.1-14.4-53.8-36.8l-1.1-2.8H24.6
			l19.8-18.1l-19.8-18.1h66.9l1.1-2.8c8.7-22.4,29.8-36.8,53.8-36.8c23.9,0,45.1,14.4,53.8,36.8l1.1,2.8h66.9l-19.8,18.1l19.8,18.1
			h-66.9l-1.1,2.8C191.5,215.7,170.4,230.1,146.4,230.1L146.4,230.1z M27.9,189.4h64.6l1.4,3.7c8.5,21.8,29.2,35.9,52.7,35.9
			s44.1-14.1,52.7-35.9l1.4-3.7h64.6l-18.5-16.8l18.5-16.8h-64.6l-1.4-3.7c-8.5-21.8-29.2-35.9-52.7-35.9s-44.1,14.1-52.7,35.9
			l-1.4,3.7H27.9l18.5,16.8L27.9,189.4z"/>
		<g>
			<g>
				<path class="st4" d="M120.9,186.5c-1.6,0-2.9-0.3-4-0.9c-1.1-0.6-1.9-1.5-2.4-2.7c-0.5-1.2-0.9-2.7-0.9-4.5l4.6-0.8
					c0,1.1,0.2,2,0.3,2.7c0.2,0.7,0.5,1.3,0.8,1.6c0.4,0.4,0.8,0.5,1.4,0.5c0.7,0,1.2-0.2,1.4-0.6c0.2-0.4,0.4-0.9,0.4-1.5
					c0-1.1-0.3-2-0.8-2.7c-0.5-0.7-1.2-1.5-2.1-2.2l-2.7-2.3c-1-0.8-1.7-1.7-2.4-2.8c-0.6-1-0.9-2.3-0.9-3.8c0-2.1,0.6-3.8,1.9-4.9
					c1.3-1.1,3-1.7,5.2-1.7c1.3,0,2.4,0.2,3.2,0.6c0.8,0.4,1.5,1,1.9,1.7c0.5,0.7,0.8,1.5,1,2.3c0.2,0.8,0.3,1.7,0.3,2.5l-4.5,0.7
					c0-0.8-0.1-1.5-0.2-2.1c-0.1-0.6-0.3-1.1-0.6-1.4c-0.3-0.3-0.7-0.5-1.3-0.5c-0.6,0-1.1,0.2-1.4,0.7c-0.3,0.5-0.4,1-0.4,1.5
					c0,0.9,0.2,1.7,0.6,2.3c0.4,0.6,1,1.2,1.7,1.8l2.6,2.3c1.1,0.9,2,2,2.8,3.2c0.8,1.2,1.2,2.7,1.2,4.5c0,1.2-0.3,2.3-0.8,3.3
					c-0.6,1-1.3,1.8-2.3,2.3C123.4,186.2,122.2,186.5,120.9,186.5z"/>
				<path class="st4" d="M130.1,164.5v-3.6h4.9v3.6H130.1z M130.1,186.1v-18.6h4.8v18.6H130.1z"/>
				<path class="st4" d="M138.5,186.1v-26h4.8v26H138.5z"/>
				<path class="st4" d="M149.2,186.1l-3.7-18.6h4.7l1.7,12.5l1.6-12.5h4.7l-3.8,18.6H149.2z"/>
				<path class="st4" d="M165.9,186.4c-1.4,0-2.5-0.3-3.4-0.8c-0.9-0.5-1.6-1.2-2.1-2.2c-0.5-1-0.7-2.1-0.7-3.5v-6.2
					c0-1.4,0.2-2.6,0.7-3.5c0.5-1,1.2-1.7,2.1-2.2c0.9-0.5,2.1-0.8,3.4-0.8c1.4,0,2.6,0.3,3.4,0.8c0.9,0.5,1.5,1.3,1.9,2.2
					c0.4,1,0.6,2.2,0.6,3.6v3.2h-7.4v3.6c0,0.5,0.1,1,0.2,1.3s0.3,0.6,0.5,0.7c0.2,0.1,0.5,0.2,0.8,0.2c0.3,0,0.6-0.1,0.8-0.2
					c0.2-0.1,0.4-0.4,0.5-0.7c0.1-0.3,0.2-0.7,0.2-1.2v-1.8h4.5v1.5c0,1.9-0.5,3.3-1.5,4.3C169.3,186,167.8,186.4,165.9,186.4z
					 M164.4,174.8h2.9V173c0-0.5-0.1-1-0.2-1.3c-0.1-0.3-0.3-0.6-0.5-0.7c-0.2-0.1-0.5-0.2-0.9-0.2c-0.3,0-0.6,0.1-0.8,0.2
					c-0.2,0.2-0.4,0.4-0.5,0.8c-0.1,0.4-0.2,0.9-0.2,1.6V174.8z"/>
				<path class="st4" d="M174.9,186.1v-18.6h4.8v3c0.6-1.1,1.2-1.9,1.8-2.4c0.6-0.5,1.3-0.8,2.2-0.8c0.1,0,0.3,0,0.4,0
					c0.1,0,0.2,0,0.3,0.1v4.9c-0.2-0.1-0.5-0.2-0.8-0.3c-0.3-0.1-0.6-0.1-0.9-0.1c-0.6,0-1.1,0.2-1.6,0.5c-0.5,0.3-1,0.8-1.4,1.3
					v12.4H174.9z"/>
			</g>
		</g>
	</g>
</g>
</svg>
